<svg width="225" height="81" viewBox="0 0 225 81" fill="none" xmlns="http://www.w3.org/2000/svg">
<path d="M0.000943073 37.1202C0.346897 36.1977 0.577539 35.5057 0.808175 34.6985C1.03881 34.0065 1.26945 33.3146 1.50009 32.6226C1.73072 31.8153 1.50009 30.6621 2.07668 30.2009C2.88391 29.5089 4.15239 29.1629 5.19025 29.0476C7.95788 28.7016 10.8409 28.5863 13.6085 28.471C21.9114 28.125 30.2143 27.7791 38.5172 27.5484C45.5516 27.3178 52.7013 27.2025 59.7357 26.9718C66.1935 26.7412 72.7667 26.2799 79.2245 26.0492C82.7993 25.9339 86.3742 26.0492 89.949 26.0492C92.0248 26.0492 93.9852 25.9339 96.0609 26.0492C106.44 26.3952 116.818 26.9718 127.312 27.2025C139.766 27.5484 152.221 27.5484 164.675 27.7791C164.675 27.5484 164.675 27.4331 164.675 27.2025C160.985 26.8565 157.295 26.5105 153.605 26.1645C147.262 25.7032 140.804 25.1266 134.462 24.7806C126.851 24.3193 119.24 24.0887 111.514 23.7428C109.553 23.6274 107.593 23.5121 105.632 23.5121C101.827 23.5121 98.0213 23.6274 94.2158 23.5121C91.9095 23.5121 89.7184 23.2814 87.4121 23.3967C86.3742 23.3967 85.221 23.9734 84.1831 24.0887C83.6066 24.204 82.9147 24.0887 82.4534 23.8581C81.4155 23.1661 80.6083 23.1661 79.4551 23.5121C78.6479 23.8581 77.4947 24.204 76.9181 23.8581C75.3037 22.9355 74.1505 24.204 72.7667 24.0887C71.2675 23.9734 69.8837 23.9734 68.3846 23.8581C67.1161 23.8581 65.9629 23.9734 64.6944 23.9734C62.0421 23.9734 59.2744 23.8581 56.6221 24.3194C56.1608 24.4347 55.6996 24.3194 55.123 24.3194C51.2022 24.2041 47.3967 24.204 43.4759 23.9734C39.3244 23.7427 35.0577 23.3968 30.9062 23.0508C26.5241 22.7048 22.2573 22.2436 17.8752 21.7823C17.5293 21.7823 17.068 21.8976 16.6068 21.8976C16.7221 22.4742 16.7221 22.9355 16.8374 23.3967C17.414 25.4726 17.414 25.7032 15.7995 26.2798C14.0698 26.8564 12.5706 26.5105 12.2247 25.0113C11.6481 22.9355 10.8408 20.8597 12.1093 18.6685C12.34 18.2072 12.5706 17.746 12.6859 17.4C12.9166 16.8234 13.0319 15.7854 13.6085 15.5548C14.3004 15.0935 15.3382 15.0935 16.1455 15.0935C22.6033 15.0935 29.0611 15.2088 35.6342 15.3241C40.8236 15.4394 46.0129 15.4395 51.2022 15.5548C58.9285 15.6701 66.6548 15.5548 74.3811 15.9007C82.4534 16.1314 90.4103 16.708 98.4826 17.2846C111.744 18.2072 125.006 19.3605 138.383 20.2831C146.224 20.8597 153.951 20.975 161.792 21.7822C168.135 22.4742 174.477 23.6274 180.82 24.896C183.587 25.4726 186.009 26.8565 186.932 30.2008C184.856 30.7774 182.665 31.2388 180.589 31.8154C180.589 31.9307 180.589 32.046 180.589 32.046C183.241 32.5073 185.894 33.1992 188.661 33.3146C191.544 33.4299 194.081 34.3525 196.618 35.2751C202.038 37.2356 206.766 40.3492 211.033 44.1549C211.148 44.2702 211.148 44.5009 211.264 44.9622C210.226 44.8469 209.303 44.7316 208.381 44.5009C205.152 43.809 201.923 43.0017 198.694 42.3098C196.849 41.9638 194.889 41.6178 192.928 41.3872C192.006 41.2719 191.083 40.8105 190.276 41.8484C190.045 42.0791 189.007 41.8485 188.431 41.6179C186.816 41.2719 185.202 40.6953 183.472 41.0412C182.895 41.1566 182.204 41.0412 181.512 40.9259C179.205 40.3493 176.899 40.0033 174.593 40.4646C171.018 38.9654 167.212 40.1186 163.522 39.196C161.562 38.7347 159.371 38.9654 157.179 38.8501C154.297 38.7348 151.529 38.7348 148.646 38.7348C148.531 38.7348 148.3 38.6195 148.185 38.7348C145.186 39.3114 142.303 38.1581 139.305 38.2735C137.345 38.3888 135.384 38.6194 133.539 38.2735C129.734 37.6968 125.928 38.3888 122.123 38.1582C115.55 37.8122 108.977 38.3888 102.519 38.0428C95.4843 37.8122 88.3346 37.8122 81.3002 37.6969C78.5326 37.6969 75.7649 37.5815 72.9973 37.4662C68.0386 37.4662 63.1953 37.4662 58.2366 37.4662C55.6996 37.4662 53.0473 37.2355 50.5103 37.2355C44.975 37.2355 39.4397 37.2355 33.9045 37.2355C27.4467 37.1202 20.8735 37.0049 14.4157 36.8896C10.0336 36.8896 5.65154 36.8896 1.26945 36.8896C0.923497 37.2356 0.577533 37.1202 0.000943073 37.1202Z" fill="#E5AC9C"/>
<path d="M160.983 60.2419C160.868 60.4725 160.868 60.8185 160.637 60.8185C158.792 61.6257 156.832 62.433 154.987 63.2403C154.641 63.3556 154.295 63.5862 154.064 63.4709C151.988 62.433 150.72 63.7016 149.336 64.8548C148.414 64.0475 149.106 63.4709 149.797 62.6637C148.414 63.0096 147.145 63.0096 147.26 64.7395C147.952 64.7395 148.644 64.7395 149.336 64.7395C150.374 64.3935 151.297 64.2782 152.219 65.2008C149.913 65.5467 147.722 65.8927 145.531 66.2387C145.531 66.4693 145.531 66.5846 145.531 66.8153C146.684 67.1613 147.837 67.5072 149.221 67.9685C148.875 68.4298 148.644 68.6604 148.298 68.8911C147.491 68.6604 146.799 68.4298 145.992 68.1992C146.569 69.6984 144.723 69.929 144.608 71.1975C142.648 69.8137 141.841 70.0443 141.495 72.3508C142.302 72.3508 142.994 72.4661 143.686 72.3508C145.646 71.7742 147.145 72.6968 148.644 73.85C149.682 74.6573 150.951 75.3492 152.219 76.2718C151.758 76.1565 151.297 76.0411 150.835 76.0411C148.298 75.6952 145.992 76.1564 143.801 77.6556C141.956 78.9242 139.995 79.8468 138.035 81C137.458 80.3081 136.882 79.6161 136.305 79.0395C139.304 79.0395 141.61 77.079 144.262 75.9258C143.224 75.8105 142.186 75.6952 141.033 75.5798C141.149 75.9258 141.264 76.1564 141.379 76.5024C140.111 76.8484 138.727 77.3097 137.458 77.6556C136.651 77.8863 136.075 78.2323 136.305 79.1549C135.613 79.5008 134.806 79.8468 134.114 79.9621C133.192 80.1928 132.269 80.1927 131.462 79.2702C131.001 78.6935 130.193 78.5782 129.617 78.2323C127.887 77.3097 127.31 76.2718 128.233 74.4266C128.925 73.0427 129.963 71.6589 131.116 70.5056C132.846 68.8911 134.575 67.2766 136.651 66.1233C139.88 64.1629 143.34 62.5483 146.799 60.8185C148.99 59.7806 151.412 58.858 153.718 57.8201C155.448 57.0128 157.293 56.3209 159.023 55.5136C165.019 52.9765 171.016 50.4394 177.013 47.9023C191.658 41.9721 187.276 44.0966 188.66 43.4047C195.809 39.945 203.074 36.716 210.685 34.1789C211.839 33.7176 212.992 33.141 214.722 32.3337C213.107 31.8724 211.954 31.6418 210.57 31.2958C211.262 30.9498 211.608 30.6039 211.954 30.6039C212.3 30.6039 212.761 30.8345 213.107 30.9498C214.03 31.0651 214.952 31.9878 215.759 30.7192C216.567 29.566 215.759 28.7587 215.298 27.8361C214.03 25.4143 211.839 24.1458 209.532 22.9925C208.84 22.6466 208.264 22.1853 207.687 21.8393C207.456 21.6087 207.226 21.2627 206.995 21.2627C205.15 21.378 204.112 19.6482 202.267 19.4175C201.345 19.3022 200.537 19.1869 200.537 17.6877C200.537 16.6498 198.923 16.4191 198.116 16.7651C196.386 17.4571 195.117 16.9958 193.734 16.0732C194.08 15.8425 194.426 15.7272 194.887 15.3812C194.08 14.574 193.157 14.228 192.119 13.9974C190.389 13.5361 188.66 13.3054 186.93 12.9594C186.699 12.9594 186.353 12.9595 186.238 12.8441C184.278 11.4603 182.317 12.2675 180.241 12.3828C177.935 12.4982 175.629 12.8441 173.207 12.8441C172.4 12.8441 171.593 12.4982 170.555 12.1522C170.324 12.2675 169.978 12.4982 169.747 12.7288C167.672 14.574 167.672 14.574 165.25 15.1506C166.634 15.7272 166.634 15.6119 167.902 15.3812C169.978 15.0353 172.169 14.4586 174.245 15.3812C173.207 15.8425 171.823 15.4966 171.247 16.7651C171.247 16.8804 170.67 16.8804 170.555 16.7651C169.517 15.4966 168.479 16.4191 167.441 16.6498C165.827 16.9958 164.443 16.7651 163.405 15.4966C163.059 15.0353 162.713 14.574 162.252 14.4587C159.369 13.3054 158.216 10.8836 156.947 8.34653C156.832 8.11588 156.716 7.6546 156.716 7.42396C156.947 5.34814 157.293 3.27234 157.639 1.19652C157.87 0.0432937 158.677 -0.302696 159.599 0.273918C162.598 2.23441 165.942 2.6957 169.286 3.15699C175.167 4.07957 181.164 5.00219 186.93 6.50138C193.157 8.1159 199.154 10.1917 205.15 12.4982C211.262 14.9199 216.682 18.6103 221.179 23.3385C222.678 24.953 223.601 26.7982 223.832 28.9894C223.947 30.3732 224.062 31.7571 224.062 33.141C224.062 33.8329 223.716 34.6402 223.486 35.6781C223.601 35.7934 223.947 36.37 224.408 36.9466C223.601 37.9845 222.909 38.9071 222.102 39.945C222.678 39.945 223.37 39.945 224.408 39.945C223.486 41.0983 222.563 41.9055 222.102 42.8281C221.756 43.6354 221.871 44.4426 220.833 44.6733C220.487 46.4031 219.219 46.1725 218.066 46.1725C216.336 46.0572 214.837 46.6338 213.222 47.3257C211.262 48.133 209.532 49.8628 207.111 49.4015C206.995 49.4015 206.765 49.4015 206.649 49.5168C205.727 51.4773 204.112 50.7854 202.498 50.7854C201.691 50.7854 200.883 51.2467 200.076 51.362C199.5 51.2467 198.808 51.1314 198.231 50.9007C197.308 50.5548 196.732 50.9007 196.271 51.5926C197.77 53.2072 198.923 51.9386 200.076 51.2467C200.422 51.4773 200.768 51.5926 201.345 51.8233C200.999 52.5152 200.537 53.0919 199.845 54.2451C201.46 53.6685 202.844 53.2072 204.112 52.8612C205.957 52.2846 207.802 51.708 209.648 51.1313C210.916 50.6701 212.185 50.2088 213.338 49.4015C215.759 47.787 216.567 47.441 219.795 48.2483C219.104 48.3636 218.412 48.3636 217.72 48.4789C217.143 48.5943 216.567 48.7096 216.221 48.9402C214.26 50.5547 211.954 51.362 209.417 51.9386C208.148 52.2846 206.88 52.8612 205.611 53.2072C203.651 53.8991 201.575 54.4757 199.615 55.0523C198.692 55.283 197.885 55.629 196.847 55.9749C196.963 55.5136 197.078 55.283 197.078 54.937C195.348 55.0524 193.734 55.283 191.658 55.5136C191.197 56.2056 190.274 57.0128 188.89 56.8975C188.775 56.8975 188.66 57.2435 188.544 57.3588L188.66 57.3588C187.506 57.3588 186.469 57.3588 185.315 57.4741C183.47 57.5894 181.625 58.166 179.665 56.7822C183.009 56.0902 186.469 57.0128 189.236 54.8217C188.775 53.8991 187.968 54.1298 187.276 54.1298C187.622 53.8991 187.968 53.5531 188.429 53.3225C188.429 53.2072 188.314 53.0918 188.314 52.9765C187.276 53.3225 186.123 53.6685 185.085 54.1298C184.508 54.2451 183.932 54.2451 182.894 54.3604C184.047 55.0524 184.739 55.1677 185.085 54.0144C185.892 54.0144 186.699 54.0144 187.506 54.1298C185.661 55.629 183.816 55.7443 181.51 54.937C178.166 53.8991 174.706 54.3604 171.362 55.9749C169.632 56.7822 167.787 57.4741 165.942 58.2814C165.596 59.3193 166.634 59.204 167.441 59.6652C166.519 59.8959 165.827 60.1265 165.135 60.2419C163.866 59.204 162.944 59.0886 160.983 60.2419C160.637 60.1265 160.407 59.7806 160.176 59.7806C158.446 60.0112 156.832 60.3572 155.102 60.7032C154.987 60.7032 154.987 60.9338 154.987 61.1645C155.217 61.1645 155.448 61.2798 155.679 61.2798C155.217 61.6258 154.756 61.9717 154.295 62.433C154.41 62.5483 154.41 62.6637 154.525 62.779C155.217 62.3177 155.909 61.8564 156.601 61.3951C158.1 60.9338 159.484 60.5878 160.983 60.2419ZM213.107 44.558C211.147 44.6733 209.302 45.1346 207.572 47.2104C209.648 46.7491 211.377 46.4031 212.992 45.8265C215.067 45.0192 217.028 44.0967 219.104 43.1741C219.45 43.0587 219.911 42.8281 220.257 42.5975C219.565 42.2515 218.873 42.0209 218.527 42.2515C217.374 43.2894 215.99 42.9434 214.606 43.0587C214.03 43.0587 213.568 43.2894 212.992 43.52C212.992 43.6353 213.107 44.0967 213.107 44.558ZM195.348 49.0555C197.078 49.9781 198.346 49.9781 199.615 49.5168C200.653 49.1709 201.691 48.5942 202.728 48.2483C203.766 47.9023 204.689 47.5563 205.727 47.2104C205.265 46.8644 204.804 46.8644 204.343 46.8644C203.651 46.8644 202.844 47.2104 202.267 46.9797C199.499 46.1725 197.77 47.9023 195.348 49.0555ZM194.195 50.9007C193.964 50.5548 193.849 49.9781 193.503 49.8628C192.811 49.6321 192.004 49.5168 191.427 49.7475C189.236 50.5548 187.045 51.4773 184.969 52.3999C184.047 52.7459 183.24 53.2072 182.432 53.6685C186.469 52.9765 190.043 51.362 194.195 50.9007ZM208.956 41.9055C208.379 42.9434 208.033 43.7507 207.802 44.0966C206.419 44.4426 205.15 44.7886 203.997 45.2499C206.419 45.8265 208.61 45.8265 209.993 43.1741C209.763 42.9434 209.532 42.5974 208.956 41.9055ZM193.272 52.5152C191.889 52.9765 190.851 52.6305 190.043 53.8991C191.543 54.3604 192.234 53.6685 193.272 52.5152ZM144.147 74.5419C144.147 74.6573 144.032 74.7726 144.032 74.8879C144.608 74.8879 145.185 75.0032 145.646 75.0032C146.107 75.0032 146.569 74.8879 146.914 74.8879C146.914 74.7726 146.914 74.7726 146.914 74.6572C145.992 74.5419 145.069 74.5419 144.147 74.5419ZM140.226 68.4298C140.341 68.5451 140.457 68.6605 140.572 68.7758C141.033 68.4298 141.61 67.9685 142.071 67.6226C141.956 67.5072 141.841 67.3919 141.841 67.2766C141.264 67.6225 140.687 68.0838 140.226 68.4298ZM212.646 42.0208C211.839 41.5595 211.839 41.5596 211.031 42.2515C211.608 42.1362 212.069 42.0208 212.646 42.0208Z" fill="#E5AC9C"/>
<path d="M181.279 19.0721C177.128 18.9568 172.861 19.5334 168.71 18.6108C172.976 17.4575 177.128 17.3422 181.279 19.0721Z" fill="#E5AC9C"/>
<path d="M208.494 24.2619C205.265 23.9159 202.152 23.5699 198.461 23.1086C198.923 22.6473 199.153 22.186 199.384 22.186C202.498 22.3014 205.496 22.7627 208.494 23.6853C208.494 23.9159 208.494 24.1465 208.494 24.2619Z" fill="#E5AC9C"/>
<path d="M204.92 26.7986C202.498 26.7986 200.192 25.9913 198.116 24.8381C200.538 24.9535 202.729 25.6454 204.92 26.7986Z" fill="#E5AC9C"/>
<path d="M188.428 57.7052C189.351 58.3972 190.389 58.2819 191.311 57.8206C191.773 57.5899 192.349 57.4746 193.041 57.5899C190.619 59.0891 187.967 58.9738 185.315 58.6278C186.353 58.3972 187.39 58.0512 188.428 57.7052Z" fill="#E5AC9C"/>
<path d="M148.068 69.1219C149.106 69.1219 150.144 69.0066 151.412 69.0066C150.605 69.5832 151.643 70.9671 150.028 70.9671C149.106 70.8518 148.183 70.3905 148.068 69.1219C148.068 69.1219 148.183 69.0066 148.068 69.1219Z" fill="#E5AC9C"/>
<path d="M180.242 59.4346C178.512 59.5499 176.898 59.7805 175.168 59.8959C175.168 59.6652 175.168 59.5499 175.053 59.3193C176.783 59.0886 178.512 58.858 180.242 58.7427C180.242 58.9733 180.242 59.204 180.242 59.4346Z" fill="#E5AC9C"/>
<path d="M178.743 21.1475C180.357 21.2628 181.856 21.4934 183.586 21.6088C182.779 22.3007 182.779 22.3007 178.743 21.1475Z" fill="#E5AC9C"/>
<path d="M180.818 14.805C178.743 14.9203 177.243 15.151 175.744 15.2663C177.013 13.9977 178.051 13.8824 180.818 14.805Z" fill="#E5AC9C"/>
<path d="M182.547 63.9321C181.163 65.2007 179.549 65.2007 177.819 65.5467C179.318 64.2781 179.895 64.0475 182.547 63.9321Z" fill="#E5AC9C"/>
<path d="M155.332 72.0043C154.064 72.2349 153.141 72.4656 151.988 72.6962C153.256 71.197 153.256 71.197 155.332 72.0043Z" fill="#E5AC9C"/>
<path d="M171.016 69.583C170.208 69.4677 169.286 69.4677 168.133 69.3524C169.286 68.4298 170.208 68.5451 171.016 69.583Z" fill="#E5AC9C"/>
<path d="M191.312 19.7639C192.696 19.9946 193.734 20.1099 194.887 20.3405C193.157 21.1478 193.157 21.1478 191.312 19.7639Z" fill="#E5AC9C"/>
<path d="M170.439 13.7672C171.362 12.9599 172.4 13.3059 173.553 13.7672C172.515 13.9979 171.592 14.2285 170.554 14.3438C170.439 14.2285 170.439 13.9979 170.439 13.7672Z" fill="#E5AC9C"/>
<path d="M184.854 17.342C184.046 17.2267 183.354 16.996 182.086 16.7654C183.47 15.8428 184.162 16.0734 184.854 16.5347C184.854 16.8807 184.854 17.1114 184.854 17.342Z" fill="#E5AC9C"/>
<path d="M189.582 24.0305C188.429 24.0305 187.276 24.0305 186.122 24.0305C186.122 23.9152 186.122 23.7999 186.122 23.6846C187.276 23.6846 188.544 23.6846 189.697 23.6846C189.697 23.7999 189.582 23.9152 189.582 24.0305Z" fill="#E5AC9C"/>
<path d="M154.525 68.0835C153.833 68.1988 153.142 68.3141 152.45 68.4294C152.45 68.3141 152.334 68.0835 152.334 67.9681C153.026 67.8528 153.718 67.6222 154.41 67.5068C154.525 67.6222 154.525 67.8528 154.525 68.0835Z" fill="#E5AC9C"/>
<path d="M154.18 64.3937C154.757 64.3937 155.333 64.2783 156.141 64.2783C155.564 65.4316 154.757 64.8549 154.296 64.8549C154.296 64.7396 154.296 64.509 154.18 64.3937Z" fill="#E5AC9C"/>
<path d="M192.811 23.3384C193.388 23.3384 193.964 23.3384 194.541 23.3384C194.541 23.4537 194.541 23.569 194.541 23.569C193.964 23.569 193.388 23.569 192.811 23.569C192.811 23.4537 192.811 23.4537 192.811 23.3384Z" fill="#E5AC9C"/>
<path d="M209.648 26.5673C209.187 26.5673 208.841 26.6827 208.38 26.6827L208.265 26.3367C208.611 26.2214 209.072 26.106 209.418 25.9907C209.533 26.106 209.533 26.3367 209.648 26.5673Z" fill="#E5AC9C"/>
<path d="M213.106 44.5579C213.106 44.0966 212.876 43.6353 212.991 43.6353C213.452 43.4047 214.029 43.174 214.605 43.174C215.989 43.0587 217.373 43.4047 218.526 42.3668C218.872 42.1361 219.564 42.3668 220.256 42.7128C219.91 42.9434 219.564 43.0587 219.103 43.2894C217.027 44.212 215.067 45.2498 212.991 45.9418C211.376 46.5184 209.647 46.7491 207.571 47.3257C209.301 45.1345 211.146 44.6733 213.106 44.5579Z" fill="white"/>
<path d="M195.348 49.0553C197.77 47.9021 199.499 46.1722 202.267 46.9795C202.959 47.2101 203.651 46.8642 204.343 46.8642C204.804 46.8642 205.15 46.8641 205.727 47.2101C204.689 47.5561 203.766 47.9021 202.728 48.248C201.69 48.594 200.653 49.1706 199.615 49.5166C198.346 49.9779 196.962 49.9779 195.348 49.0553Z" fill="white"/>
<path d="M194.195 50.901C190.044 51.3623 186.354 52.9768 182.433 53.6688C183.24 53.2075 184.163 52.7462 184.97 52.4002C187.161 51.4776 189.237 50.5551 191.428 49.7478C192.004 49.5172 192.812 49.6325 193.503 49.8631C193.849 49.9784 193.965 50.5551 194.195 50.901Z" fill="white"/>
<path d="M136.074 78.9243C135.844 78.0018 136.42 77.6558 137.228 77.4252C138.496 77.0792 139.88 76.7332 141.148 76.272C141.033 75.926 140.918 75.58 140.802 75.3494C141.84 75.4647 142.878 75.58 144.031 75.6953C141.379 76.9639 139.073 78.809 136.074 78.9243C136.074 78.9243 135.959 78.809 136.074 78.9243Z" fill="white"/>
<path d="M208.956 41.905C209.533 42.597 209.764 42.9429 209.994 43.1736C208.726 45.826 206.419 45.826 203.998 45.2494C205.266 44.9034 206.419 44.5574 207.803 44.0962C208.034 43.7502 208.38 42.9429 208.956 41.905Z" fill="white"/>
<path d="M155.678 61.1645C155.447 61.1645 155.217 61.0492 154.986 61.0492C155.101 60.8185 155.101 60.5879 155.101 60.5879C156.831 60.2419 158.445 59.8959 160.175 59.6653C160.406 59.6653 160.637 60.0113 160.867 60.1266C159.368 60.4726 157.984 60.8185 156.485 61.1645C156.255 61.2798 156.024 61.2798 155.678 61.1645Z" fill="white"/>
<path d="M199.961 51.4775C198.808 52.1694 197.655 53.3226 196.155 51.8234C196.617 51.1315 197.193 50.6702 198.116 51.1315C198.692 51.3621 199.384 51.3621 199.961 51.4775C199.961 51.4775 199.961 51.5928 199.961 51.4775Z" fill="white"/>
<path d="M149.22 64.8544C148.528 64.8544 147.952 64.8544 147.145 64.8544C147.029 63.1245 148.298 63.1245 149.682 62.7786C149.105 63.5858 148.298 64.1625 149.22 64.8544C149.22 64.8544 149.336 64.9697 149.22 64.8544Z" fill="white"/>
<path d="M193.271 52.5149C192.234 53.7834 191.542 54.4753 190.043 53.8987C190.734 52.6302 191.888 52.8609 193.271 52.5149Z" fill="white"/>
<path d="M187.161 54.4758C186.354 54.4758 185.547 54.4758 184.74 54.3605C185.778 54.0145 186.931 53.6686 187.969 53.2073C187.969 53.3226 188.084 53.4379 188.084 53.5532C187.853 53.8992 187.507 54.1298 187.161 54.4758Z" fill="white"/>
<path d="M144.146 74.542C145.069 74.542 145.991 74.542 147.029 74.542C147.029 74.6573 147.029 74.6573 147.029 74.7726C146.568 74.888 146.107 74.888 145.761 74.888C145.184 74.888 144.608 74.888 144.146 74.7726C144.031 74.7726 144.031 74.6573 144.146 74.542Z" fill="white"/>
<path d="M140.225 68.4299C140.802 68.0839 141.263 67.6226 141.84 67.2766C141.955 67.3919 142.07 67.5073 142.07 67.6226C141.609 67.9686 141.032 68.4299 140.571 68.7759C140.456 68.6605 140.34 68.5452 140.225 68.4299Z" fill="white"/>
<path d="M212.646 42.0212C212.07 42.1365 211.609 42.1366 211.032 42.2519C211.839 41.5599 211.839 41.5599 212.646 42.0212Z" fill="white"/>
<path d="M184.74 54.3608C184.394 55.5141 183.702 55.2834 182.549 54.7068C183.587 54.5915 184.278 54.4762 184.74 54.3608C184.74 54.3608 184.855 54.3608 184.74 54.3608Z" fill="white"/>
</svg>
