<svg width="500" height="108" viewBox="0 0 500 108" fill="none" xmlns="http://www.w3.org/2000/svg">
<rect width="500" height="108" fill="#CEE1E8"/>
<path d="M28.314 44H35.152C38.194 44 40.794 42.076 40.794 38.774C40.794 36.278 39.156 34.978 37.96 34.51V34.354C39.338 33.6 40.17 32.248 40.17 30.506C40.17 27.828 38.142 25.8 34.632 25.8H28.314V44ZM31.044 33.47V28.192H34.45C36.166 28.192 37.388 29.206 37.388 30.766C37.388 32.378 36.192 33.47 34.398 33.47H31.044ZM31.044 41.608V35.654H34.372C36.218 35.654 37.882 36.512 37.882 38.592C37.882 40.672 36.452 41.608 34.554 41.608H31.044ZM45.4553 28.27C46.5213 28.27 47.2753 27.568 47.2753 26.528C47.2753 25.54 46.5213 24.812 45.4553 24.812C44.4153 24.812 43.6613 25.54 43.6613 26.528C43.6613 27.568 44.4153 28.27 45.4553 28.27ZM44.0773 44H46.8073V30.402H44.0773V44ZM56.9437 44.338C61.1037 44.338 64.1197 41.27 64.1197 37.214C64.1197 33.158 61.1557 30.064 56.9697 30.064C52.7837 30.064 49.7677 33.132 49.7677 37.214C49.7677 41.296 52.7577 44.338 56.9437 44.338ZM56.9437 41.868C54.3957 41.868 52.5497 39.918 52.5497 37.214C52.5497 34.536 54.3697 32.56 56.9437 32.56C59.5177 32.56 61.3377 34.51 61.3377 37.214C61.3377 39.892 59.5177 41.868 56.9437 41.868ZM74.6773 44H85.7273V41.556H77.4853V35.992H84.3233V33.548H77.4853V28.27H85.4673V25.8H74.6773V44ZM89.0695 44H91.7995V36.07C91.7995 34.094 93.2035 32.612 95.1015 32.612C96.8175 32.612 98.1435 33.886 98.1435 35.784V44H100.874V35.264C100.874 32.326 98.9755 30.064 95.8815 30.064C93.8535 30.064 92.4495 31.104 91.9035 32.222H91.7215V30.402H89.0695V44ZM110.688 44.338C114.042 44.338 116.46 42.518 117.162 39.892H114.51C113.964 41.218 112.482 42.05 110.766 42.05C108.27 42.05 106.684 40.438 106.58 38.072H117.292V37.058C117.292 33.184 114.874 30.064 110.636 30.064C106.762 30.064 103.85 32.924 103.85 37.24C103.85 41.322 106.606 44.338 110.688 44.338ZM106.632 35.966C106.84 33.834 108.556 32.352 110.636 32.352C112.742 32.352 114.406 33.678 114.588 35.966H106.632ZM120.605 44H123.335V37.292C123.335 34.77 124.661 33.028 126.975 33.028H128.249V30.376H127.053C125.129 30.376 123.829 31.676 123.413 32.768H123.231V30.402H120.605V44ZM136.997 50.318C141.339 50.318 143.783 47.796 143.783 43.948V30.402H141.053V32.378H140.871C140.455 31.676 139.025 30.064 136.399 30.064C132.681 30.064 129.951 32.95 129.951 37.188C129.951 41.426 132.707 44.286 136.529 44.286C139.207 44.286 140.559 42.544 140.923 41.998H141.105V43.948C141.105 46.496 139.805 48.03 136.997 48.03C135.073 48.03 133.747 47.198 133.435 45.82H130.913C131.225 48.29 133.357 50.318 136.997 50.318ZM136.945 41.816C134.449 41.816 132.733 40.022 132.733 37.188C132.733 34.458 134.449 32.56 136.919 32.56C139.311 32.56 141.131 34.25 141.131 37.188C141.131 39.762 139.545 41.816 136.945 41.816ZM147.695 49.98H149.229C151.673 49.98 152.921 48.784 153.701 46.704L159.941 30.402H156.951L153.207 40.906H153.025L149.255 30.402H146.291L151.777 44.572L151.283 45.872C150.867 46.964 150.139 47.536 148.891 47.536H147.695V49.98ZM172.412 44H175.662L178.86 33.912H179.016L182.188 44H185.464L189.494 30.402H186.582L183.8 40.776H183.618L180.394 30.402H177.508L174.258 40.776H174.076L171.294 30.402H168.408L172.412 44ZM193.737 28.27C194.803 28.27 195.557 27.568 195.557 26.528C195.557 25.54 194.803 24.812 193.737 24.812C192.697 24.812 191.943 25.54 191.943 26.528C191.943 27.568 192.697 28.27 193.737 28.27ZM192.359 44H195.089V30.402H192.359V44ZM204.627 44H206.889V41.686H205.043C203.613 41.686 203.067 40.906 203.067 39.606V32.638H207.019V30.402H203.067V26.554H200.493V29.544C200.493 30.09 200.155 30.428 199.687 30.428H197.893V32.638H200.337V39.684C200.337 42.518 201.949 44 204.627 44ZM210.259 44H212.989V35.94C212.989 34.016 214.497 32.612 216.343 32.612C218.059 32.612 219.437 33.886 219.437 35.784V44H222.167V35.264C222.167 32.326 220.243 30.064 217.149 30.064C215.121 30.064 213.717 31.104 213.145 32.222H212.963V24.5H210.259V44ZM241.689 44.338C246.109 44.338 249.463 41.738 250.477 37.89H247.409C246.577 40.308 244.341 41.686 241.689 41.686C237.971 41.686 235.163 38.826 235.163 34.9C235.163 31.026 237.971 28.114 241.689 28.114C244.341 28.114 246.603 29.518 247.409 31.936H250.425C249.359 28.14 246.135 25.462 241.689 25.462C236.229 25.462 232.251 29.544 232.251 34.9C232.251 40.308 236.203 44.338 241.689 44.338ZM259.471 44.338C262.175 44.338 263.501 42.596 263.865 42.076H264.021V44H266.699V30.402H263.969V32.378H263.787C263.345 31.676 261.941 30.064 259.341 30.064C255.545 30.064 252.867 33.028 252.867 37.24C252.867 41.452 255.571 44.338 259.471 44.338ZM259.861 41.868C257.365 41.868 255.649 40.048 255.649 37.214C255.649 34.484 257.365 32.56 259.835 32.56C262.227 32.56 264.047 34.276 264.047 37.214C264.047 39.788 262.461 41.868 259.861 41.868ZM270.638 44H273.368V37.292C273.368 34.77 274.694 33.028 277.008 33.028H278.282V30.376H277.086C275.162 30.376 273.862 31.676 273.446 32.768H273.264V30.402H270.638V44ZM288.631 44.338C292.557 44.338 295.235 41.452 295.235 37.24C295.235 33.028 292.557 30.064 288.787 30.064C286.187 30.064 284.757 31.676 284.315 32.378H284.159V24.5H281.429V44H284.081V42.076H284.263C284.627 42.596 285.927 44.338 288.631 44.338ZM288.241 41.868C285.641 41.868 284.081 39.788 284.081 37.214C284.081 34.276 285.901 32.56 288.293 32.56C290.763 32.56 292.453 34.484 292.453 37.214C292.453 40.048 290.763 41.868 288.241 41.868ZM304.756 44.338C308.916 44.338 311.932 41.27 311.932 37.214C311.932 33.158 308.968 30.064 304.782 30.064C300.596 30.064 297.58 33.132 297.58 37.214C297.58 41.296 300.57 44.338 304.756 44.338ZM304.756 41.868C302.208 41.868 300.362 39.918 300.362 37.214C300.362 34.536 302.182 32.56 304.756 32.56C307.33 32.56 309.15 34.51 309.15 37.214C309.15 39.892 307.33 41.868 304.756 41.868ZM315.224 44H317.954V36.07C317.954 34.094 319.358 32.612 321.256 32.612C322.972 32.612 324.298 33.886 324.298 35.784V44H327.028V35.264C327.028 32.326 325.13 30.064 322.036 30.064C320.008 30.064 318.604 31.104 318.058 32.222H317.876V30.402H315.224V44ZM346.552 44.338C350.972 44.338 354.326 41.738 355.34 37.89H352.272C351.44 40.308 349.204 41.686 346.552 41.686C342.834 41.686 340.026 38.826 340.026 34.9C340.026 31.026 342.834 28.114 346.552 28.114C349.204 28.114 351.466 29.518 352.272 31.936H355.288C354.222 28.14 350.998 25.462 346.552 25.462C341.092 25.462 337.114 29.544 337.114 34.9C337.114 40.308 341.066 44.338 346.552 44.338ZM364.335 44.338C367.039 44.338 368.365 42.596 368.729 42.076H368.885V44H371.563V30.402H368.833V32.378H368.651C368.209 31.676 366.805 30.064 364.205 30.064C360.409 30.064 357.731 33.028 357.731 37.24C357.731 41.452 360.435 44.338 364.335 44.338ZM364.725 41.868C362.229 41.868 360.513 40.048 360.513 37.214C360.513 34.484 362.229 32.56 364.699 32.56C367.091 32.56 368.911 34.276 368.911 37.214C368.911 39.788 367.325 41.868 364.725 41.868ZM375.501 49.98H378.231V42.024H378.387C378.829 42.752 380.233 44.338 382.859 44.338C386.629 44.338 389.307 41.374 389.307 37.162C389.307 32.95 386.629 30.064 382.703 30.064C379.999 30.064 378.699 31.806 378.335 32.352H378.153V30.402H375.501V49.98ZM382.365 41.868C379.973 41.868 378.153 40.126 378.153 37.188C378.153 34.614 379.713 32.534 382.313 32.534C384.835 32.534 386.525 34.354 386.525 37.188C386.525 39.918 384.835 41.868 382.365 41.868ZM398.23 44H400.492V41.686H398.646C397.216 41.686 396.67 40.906 396.67 39.606V32.638H400.622V30.402H396.67V26.554H394.096V29.544C394.096 30.09 393.758 30.428 393.29 30.428H391.496V32.638H393.94V39.684C393.94 42.518 395.552 44 398.23 44ZM408.646 44.338C410.674 44.338 412.078 43.298 412.624 42.18H412.806V44H415.458V30.402H412.728V38.384C412.728 40.36 411.324 41.816 409.426 41.816C407.71 41.816 406.384 40.568 406.384 38.644V30.402H403.654V39.138C403.654 42.076 405.552 44.338 408.646 44.338ZM419.452 44H422.182V37.292C422.182 34.77 423.508 33.028 425.822 33.028H427.096V30.376H425.9C423.976 30.376 422.676 31.676 422.26 32.768H422.078V30.402H419.452V44ZM435.637 44.338C438.991 44.338 441.409 42.518 442.111 39.892H439.459C438.913 41.218 437.431 42.05 435.715 42.05C433.219 42.05 431.633 40.438 431.529 38.072H442.241V37.058C442.241 33.184 439.823 30.064 435.585 30.064C431.711 30.064 428.799 32.924 428.799 37.24C428.799 41.322 431.555 44.338 435.637 44.338ZM431.581 35.966C431.789 33.834 433.505 32.352 435.585 32.352C437.691 32.352 439.355 33.678 439.537 35.966H431.581Z" fill="#1B2B27"/>
<path d="M26 75.5C26 67.4919 32.4919 61 40.5 61H180.5C188.508 61 195 67.4919 195 75.5V75.5C195 83.5081 188.508 90 180.5 90H40.5C32.4919 90 26 83.5081 26 75.5V75.5Z" fill="#1CE15F"/>
<path d="M50.9407 73.894C51.0965 74.0489 51.2116 74.2398 51.2758 74.4499C51.34 74.66 51.3513 74.8827 51.3087 75.0982C51.2661 75.3137 51.1709 75.5153 51.0316 75.6852C50.8923 75.855 50.7131 75.9878 50.5101 76.0717C50.3071 76.1557 50.0865 76.1882 49.868 76.1663C49.6494 76.1444 49.4396 76.0689 49.2572 75.9464C49.0749 75.8239 48.9256 75.6583 48.8227 75.4642C48.7198 75.2701 48.6664 75.0537 48.6673 74.834L48.6673 68.834M41.0607 75.894C40.9049 76.0489 40.7898 76.2398 40.7256 76.4499C40.6614 76.66 40.6501 76.8827 40.6927 77.0982C40.7353 77.3137 40.8304 77.5153 40.9698 77.6852C41.1091 77.855 41.2882 77.9878 41.4912 78.0717C41.6942 78.1557 41.9148 78.1882 42.1334 78.1663C42.352 78.1444 42.5617 78.0689 42.7441 77.9464C42.9265 77.8239 43.0757 77.6583 43.1786 77.4642C43.2816 77.2701 43.3349 77.0537 43.334 76.834L43.334 68.834M48.8473 79.3207C49.0407 79.5146 49.1834 79.7531 49.2627 80.0153C49.3419 80.2774 49.3554 80.5551 49.3018 80.8236C49.2482 81.0922 49.1293 81.3435 48.9555 81.5551C48.7818 81.7668 48.5585 81.9324 48.3055 82.0373C48.0525 82.1422 47.7776 82.1831 47.505 82.1564C47.2325 82.1297 46.9707 82.0363 46.7428 81.8844C46.5149 81.7325 46.328 81.5267 46.1986 81.2854C46.0691 81.044 46.0012 80.7745 46.0007 80.5007L46.0007 68.834" stroke="white" stroke-width="2" stroke-linecap="round" stroke-linejoin="round"/>
<path d="M63.3105 80H64.9205V72.846H64.9765L69.3865 80H71.2765V70.2H69.6525V77.396H69.5965L65.1865 70.2H63.3105V80ZM76.0388 80.126C77.7608 80.126 78.9788 79.118 79.1748 77.802H77.6208C77.4528 78.39 76.9208 78.782 76.0388 78.782C74.8628 78.782 74.2748 77.984 74.2748 76.836H79.2728V76.164C79.2728 74.176 78.1248 72.65 76.0108 72.65C73.7288 72.65 72.6228 74.316 72.6228 76.388C72.6228 78.488 73.8408 80.126 76.0388 80.126ZM74.2888 75.702C74.3308 74.764 74.8488 74.008 76.0108 74.008C77.1028 74.008 77.6208 74.75 77.6348 75.702H74.2888ZM83.3427 83.332C85.3867 83.332 86.6887 82.114 86.6887 80.392V72.776H85.2747L85.0927 73.644H85.0367C84.6727 73.098 84.0147 72.65 82.9647 72.65C81.1027 72.65 79.9687 74.134 79.9547 76.388C79.9687 78.544 81.0187 80.126 82.9647 80.126C84.0147 80.126 84.6727 79.678 85.0367 79.132H85.0927V80.364C85.0927 81.26 84.5327 81.96 83.3427 81.96C82.3067 81.96 81.7747 81.386 81.7187 80.784H80.1647C80.2067 82.282 81.4527 83.332 83.3427 83.332ZM83.3567 78.712C82.0407 78.712 81.5787 77.648 81.5787 76.388C81.5787 75.128 82.0547 74.064 83.3567 74.064C84.6307 74.064 85.1487 75.142 85.1487 76.388C85.1487 77.634 84.6447 78.712 83.3567 78.712ZM90.2168 80.126C91.1828 80.126 91.9248 79.762 92.3448 79.146H92.4008L92.5128 80H93.9128V75.184C93.9128 73.756 92.8348 72.65 90.9308 72.65C89.1108 72.65 88.0328 73.672 88.0328 75.044H89.5448C89.5588 74.456 90.0208 73.966 90.9028 73.966C91.9108 73.966 92.3308 74.526 92.3308 75.198V75.87C91.9528 75.758 91.3088 75.632 90.6508 75.632C88.5788 75.632 87.6968 76.612 87.6968 77.872C87.6968 79.146 88.6208 80.126 90.2168 80.126ZM90.5808 78.852C89.7128 78.852 89.2928 78.404 89.2928 77.816C89.2928 77.172 89.7968 76.78 90.7628 76.78C91.2948 76.78 91.7988 76.85 92.3308 77.032V77.27C92.3308 78.124 91.6448 78.852 90.5808 78.852ZM98.1394 80.126C98.6854 80.126 99.1474 80.042 99.3714 79.972V78.628H99.2314C99.0494 78.684 98.8254 78.726 98.5314 78.726C97.8874 78.726 97.5934 78.432 97.5934 77.746V74.134H99.3434V72.776H97.5934V70.858H97.4534L96.0674 71.25V72.776H94.8074V74.134H95.9974V78.026C95.9974 79.272 96.5994 80.126 98.1394 80.126ZM101.406 71.67C102.064 71.67 102.428 71.278 102.428 70.662C102.428 70.046 102.064 69.668 101.406 69.668C100.734 69.668 100.384 70.046 100.384 70.662C100.384 71.278 100.734 71.67 101.406 71.67ZM100.608 80H102.204V72.776H100.608V80ZM105.494 80H107.37L109.932 72.916V72.776H108.308L106.474 78.348H106.418L104.528 72.776H102.89V72.916L105.494 80ZM113.468 80.126C115.19 80.126 116.408 79.118 116.604 77.802H115.05C114.882 78.39 114.35 78.782 113.468 78.782C112.292 78.782 111.704 77.984 111.704 76.836H116.702V76.164C116.702 74.176 115.554 72.65 113.44 72.65C111.158 72.65 110.052 74.316 110.052 76.388C110.052 78.488 111.27 80.126 113.468 80.126ZM111.718 75.702C111.76 74.764 112.278 74.008 113.44 74.008C114.532 74.008 115.05 74.75 115.064 75.702H111.718ZM121.71 80H128.318V78.53H123.348V75.688H127.884V74.204H123.348V71.684H128.318V70.2H121.71V80ZM137.787 72.65C136.639 72.65 135.911 73.168 135.533 73.784H135.491C135.085 73.056 134.329 72.65 133.321 72.65C132.271 72.65 131.627 73.098 131.235 73.714H131.179L131.053 72.776H129.639V80H131.235V76.01C131.235 74.806 131.879 74.092 132.845 74.092C133.839 74.092 134.245 74.694 134.245 75.674V80H135.827V76.01C135.827 74.806 136.401 74.092 137.367 74.092C138.361 74.092 138.767 74.694 138.767 75.674V80H140.363V75.282C140.363 73.658 139.383 72.65 137.787 72.65ZM142.65 71.67C143.308 71.67 143.672 71.278 143.672 70.662C143.672 70.046 143.308 69.668 142.65 69.668C141.978 69.668 141.628 70.046 141.628 70.662C141.628 71.278 141.978 71.67 142.65 71.67ZM141.852 80H143.448V72.776H141.852V80ZM147.522 80.126C149.202 80.126 150.518 79.342 150.518 77.942C150.518 76.57 149.678 76.052 148.418 75.786L147.186 75.548C146.584 75.45 146.234 75.198 146.234 74.764C146.234 74.232 146.724 73.938 147.438 73.938C148.264 73.938 148.754 74.358 148.782 75.016H150.35C150.35 73.616 149.202 72.65 147.466 72.65C145.716 72.65 144.68 73.56 144.68 74.75C144.68 75.982 145.506 76.64 146.682 76.878L147.956 77.116C148.614 77.256 148.908 77.536 148.908 77.942C148.908 78.446 148.432 78.754 147.522 78.754C146.612 78.754 146.052 78.306 146.052 77.592H144.456C144.498 79.118 145.576 80.126 147.522 80.126ZM154.252 80.126C155.932 80.126 157.248 79.342 157.248 77.942C157.248 76.57 156.408 76.052 155.148 75.786L153.916 75.548C153.314 75.45 152.964 75.198 152.964 74.764C152.964 74.232 153.454 73.938 154.168 73.938C154.994 73.938 155.484 74.358 155.512 75.016H157.08C157.08 73.616 155.932 72.65 154.196 72.65C152.446 72.65 151.41 73.56 151.41 74.75C151.41 75.982 152.236 76.64 153.412 76.878L154.686 77.116C155.344 77.256 155.638 77.536 155.638 77.942C155.638 78.446 155.162 78.754 154.252 78.754C153.342 78.754 152.782 78.306 152.782 77.592H151.186C151.228 79.118 152.306 80.126 154.252 80.126ZM159.191 71.67C159.849 71.67 160.213 71.278 160.213 70.662C160.213 70.046 159.849 69.668 159.191 69.668C158.519 69.668 158.169 70.046 158.169 70.662C158.169 71.278 158.519 71.67 159.191 71.67ZM158.393 80H159.989V72.776H158.393V80ZM164.413 80.126C166.709 80.126 167.829 78.502 167.829 76.388C167.829 74.274 166.681 72.65 164.413 72.65C162.145 72.65 160.997 74.274 160.997 76.388C160.997 78.516 162.117 80.126 164.413 80.126ZM164.413 78.712C163.209 78.712 162.621 77.844 162.621 76.388C162.621 74.96 163.195 74.064 164.413 74.064C165.631 74.064 166.205 74.946 166.205 76.388C166.205 77.844 165.631 78.712 164.413 78.712ZM168.982 80H170.578V76.01C170.578 74.806 171.222 74.092 172.23 74.092C173.238 74.092 173.7 74.666 173.7 75.674V80H175.296V75.282C175.296 73.644 174.302 72.65 172.692 72.65C171.656 72.65 170.97 73.098 170.578 73.714H170.522L170.396 72.776H168.982V80ZM179.369 80.126C181.049 80.126 182.365 79.342 182.365 77.942C182.365 76.57 181.525 76.052 180.265 75.786L179.033 75.548C178.431 75.45 178.081 75.198 178.081 74.764C178.081 74.232 178.571 73.938 179.285 73.938C180.111 73.938 180.601 74.358 180.629 75.016H182.197C182.197 73.616 181.049 72.65 179.313 72.65C177.563 72.65 176.527 73.56 176.527 74.75C176.527 75.982 177.353 76.64 178.529 76.878L179.803 77.116C180.461 77.256 180.755 77.536 180.755 77.942C180.755 78.446 180.279 78.754 179.369 78.754C178.459 78.754 177.899 78.306 177.899 77.592H176.303C176.345 79.118 177.423 80.126 179.369 80.126Z" fill="white"/>
<rect x="202" y="61" width="101" height="29" rx="14.5" fill="#236138"/>
<path d="M225.72 70.1673C225.414 69.4665 224.875 68.8926 224.195 68.5419C223.515 68.1913 222.735 68.0852 221.986 68.2416C221.237 68.3979 220.565 68.8072 220.082 69.4006C219.599 69.994 219.335 70.7355 219.334 71.5006L219.334 72.3406C218.515 72.552 217.759 72.9547 217.127 73.5158C216.495 74.0768 216.005 74.78 215.698 75.5675C215.391 76.3549 215.276 77.204 215.361 78.0448C215.447 78.8857 215.731 79.6941 216.191 80.4035C216.65 81.1129 217.271 81.703 218.004 82.1251C218.736 82.5472 219.558 82.7892 220.402 82.8313C221.246 82.8733 222.088 82.7142 222.859 82.3669C223.629 82.0196 224.306 81.4942 224.834 80.834" stroke="white" stroke-width="2" stroke-linecap="round" stroke-linejoin="round"/>
<path d="M224.666 78.166L224.666 78.1593" stroke="white" stroke-width="2" stroke-linecap="round" stroke-linejoin="round"/>
<path d="M227.334 78.166L227.334 78.1593" stroke="white" stroke-width="2" stroke-linecap="round" stroke-linejoin="round"/>
<path d="M226 75.5L226 75.4933" stroke="white" stroke-width="2" stroke-linecap="round" stroke-linejoin="round"/>
<path d="M228.666 75.5L228.666 75.4933" stroke="white" stroke-width="2" stroke-linecap="round" stroke-linejoin="round"/>
<path d="M224.666 72.834L224.666 72.8273" stroke="white" stroke-width="2" stroke-linecap="round" stroke-linejoin="round"/>
<path d="M227.334 72.834L227.334 72.8273" stroke="white" stroke-width="2" stroke-linecap="round" stroke-linejoin="round"/>
<path d="M239.313 80H243.709C245.627 80 246.831 78.964 246.831 77.172C246.831 75.828 246.131 75.142 245.347 74.806V74.75C245.977 74.414 246.467 73.812 246.467 72.748C246.467 71.138 245.263 70.2 243.569 70.2H239.313V80ZM240.937 74.218V71.656H243.359C244.311 71.656 244.801 72.118 244.801 72.874C244.801 73.77 244.227 74.218 243.261 74.218H240.937ZM240.937 78.53V75.646H243.471C244.591 75.646 245.151 76.22 245.151 77.088C245.151 77.97 244.535 78.53 243.471 78.53H240.937ZM248.819 71.67C249.477 71.67 249.841 71.278 249.841 70.662C249.841 70.046 249.477 69.668 248.819 69.668C248.147 69.668 247.797 70.046 247.797 70.662C247.797 71.278 248.147 71.67 248.819 71.67ZM248.021 80H249.617V72.776H248.021V80ZM254.041 80.126C256.337 80.126 257.457 78.502 257.457 76.388C257.457 74.274 256.309 72.65 254.041 72.65C251.773 72.65 250.625 74.274 250.625 76.388C250.625 78.516 251.745 80.126 254.041 80.126ZM254.041 78.712C252.837 78.712 252.249 77.844 252.249 76.388C252.249 74.96 252.823 74.064 254.041 74.064C255.259 74.064 255.833 74.946 255.833 76.388C255.833 77.844 255.259 78.712 254.041 78.712ZM266.759 72.65C265.611 72.65 264.883 73.168 264.505 73.784H264.463C264.057 73.056 263.301 72.65 262.293 72.65C261.243 72.65 260.599 73.098 260.207 73.714H260.151L260.025 72.776H258.611V80H260.207V76.01C260.207 74.806 260.851 74.092 261.817 74.092C262.811 74.092 263.217 74.694 263.217 75.674V80H264.799V76.01C264.799 74.806 265.373 74.092 266.339 74.092C267.333 74.092 267.739 74.694 267.739 75.674V80H269.335V75.282C269.335 73.658 268.355 72.65 266.759 72.65ZM272.868 80.126C273.834 80.126 274.576 79.762 274.996 79.146H275.052L275.164 80H276.564V75.184C276.564 73.756 275.486 72.65 273.582 72.65C271.762 72.65 270.684 73.672 270.684 75.044H272.196C272.21 74.456 272.672 73.966 273.554 73.966C274.562 73.966 274.982 74.526 274.982 75.198V75.87C274.604 75.758 273.96 75.632 273.302 75.632C271.23 75.632 270.348 76.612 270.348 77.872C270.348 79.146 271.272 80.126 272.868 80.126ZM273.232 78.852C272.364 78.852 271.944 78.404 271.944 77.816C271.944 77.172 272.448 76.78 273.414 76.78C273.946 76.78 274.45 76.85 274.982 77.032V77.27C274.982 78.124 274.296 78.852 273.232 78.852ZM280.636 80.126C282.316 80.126 283.632 79.342 283.632 77.942C283.632 76.57 282.792 76.052 281.532 75.786L280.3 75.548C279.698 75.45 279.348 75.198 279.348 74.764C279.348 74.232 279.838 73.938 280.552 73.938C281.378 73.938 281.868 74.358 281.896 75.016H283.464C283.464 73.616 282.316 72.65 280.58 72.65C278.83 72.65 277.794 73.56 277.794 74.75C277.794 75.982 278.62 76.64 279.796 76.878L281.07 77.116C281.728 77.256 282.022 77.536 282.022 77.942C282.022 78.446 281.546 78.754 280.636 78.754C279.726 78.754 279.166 78.306 279.166 77.592H277.57C277.612 79.118 278.69 80.126 280.636 80.126ZM287.367 80.126C289.047 80.126 290.363 79.342 290.363 77.942C290.363 76.57 289.523 76.052 288.263 75.786L287.031 75.548C286.429 75.45 286.079 75.198 286.079 74.764C286.079 74.232 286.569 73.938 287.283 73.938C288.109 73.938 288.599 74.358 288.627 75.016H290.195C290.195 73.616 289.047 72.65 287.311 72.65C285.561 72.65 284.525 73.56 284.525 74.75C284.525 75.982 285.351 76.64 286.527 76.878L287.801 77.116C288.459 77.256 288.753 77.536 288.753 77.942C288.753 78.446 288.277 78.754 287.367 78.754C286.457 78.754 285.897 78.306 285.897 77.592H284.301C284.343 79.118 285.421 80.126 287.367 80.126Z" fill="white"/>
</svg>
