<svg width="264" height="264" viewBox="0 0 264 264" fill="none" xmlns="http://www.w3.org/2000/svg">
<path d="M126.92 98.5151L129.874 102.121" stroke="#F9EFE6" stroke-width="4" stroke-linecap="round" stroke-linejoin="round"/>
<path d="M123.488 100.164L124.426 104.73" stroke="#F9EFE6" stroke-width="4" stroke-linecap="round" stroke-linejoin="round"/>
<path d="M119.675 100.014L118.387 104.499" stroke="#F9EFE6" stroke-width="4" stroke-linecap="round" stroke-linejoin="round"/>
<path d="M116.371 98.1152L113.146 101.482" stroke="#F9EFE6" stroke-width="4" stroke-linecap="round" stroke-linejoin="round"/>
<path d="M114.324 94.8892L109.912 96.3772" stroke="#F9EFE6" stroke-width="4" stroke-linecap="round" stroke-linejoin="round"/>
<path d="M114.014 91.0932L109.412 90.354" stroke="#F9EFE6" stroke-width="4" stroke-linecap="round" stroke-linejoin="round"/>
<path d="M115.501 87.5771L111.768 84.79" stroke="#F9EFE6" stroke-width="4" stroke-linecap="round" stroke-linejoin="round"/>
<path d="M118.446 85.1591L116.439 80.9536" stroke="#F9EFE6" stroke-width="4" stroke-linecap="round" stroke-linejoin="round"/>
<path d="M122.18 84.3905L122.359 79.7354" stroke="#F9EFE6" stroke-width="4" stroke-linecap="round" stroke-linejoin="round"/>
<path d="M125.844 85.4391L128.16 81.4033" stroke="#F9EFE6" stroke-width="4" stroke-linecap="round" stroke-linejoin="round"/>
<path d="M128.598 88.0765L132.53 85.5791" stroke="#F9EFE6" stroke-width="4" stroke-linecap="round" stroke-linejoin="round"/>
<path d="M129.816 91.6923L134.458 91.313" stroke="#F9EFE6" stroke-width="4" stroke-linecap="round" stroke-linejoin="round"/>
<path d="M129.207 95.4683L133.5 97.2863" stroke="#F9EFE6" stroke-width="4" stroke-linecap="round" stroke-linejoin="round"/>
<path d="M124.915 99.7242C126.378 99.1249 127.631 98.105 128.514 96.792C129.397 95.4799 129.871 93.9346 129.876 92.3524C129.881 90.771 129.417 89.2222 128.541 87.905C127.666 86.5872 126.42 85.5591 124.96 84.9507C123.501 84.3424 121.895 84.1813 120.343 84.4878C118.793 84.7943 117.367 85.5547 116.248 86.6725C115.129 87.7904 114.367 89.2152 114.058 90.7666C113.749 92.319 113.908 93.9276 114.514 95.3884C115.323 97.3411 116.871 98.8926 118.82 99.7048C120.769 100.518 122.961 100.524 124.915 99.7242Z" stroke="#F9EFE6" stroke-width="4" stroke-linecap="round" stroke-linejoin="round"/>
<path d="M169.273 93.88C180.703 73.3732 173.356 47.4776 152.864 36.0403C132.372 24.603 106.495 31.9552 95.0663 52.4617C83.637 72.9684 90.984 98.8643 111.476 110.302C131.967 121.738 157.845 114.387 169.273 93.88Z" stroke="#F9EFE6" stroke-width="5" stroke-linecap="round" stroke-linejoin="round"/>
<path d="M139.35 58.9272L142.304 62.5334" stroke="#F9EFE6" stroke-width="4" stroke-linecap="round" stroke-linejoin="round"/>
<path d="M135.904 60.5659L136.852 65.1311" stroke="#F9EFE6" stroke-width="4" stroke-linecap="round" stroke-linejoin="round"/>
<path d="M132.103 60.4258L130.814 64.9011" stroke="#F9EFE6" stroke-width="4" stroke-linecap="round" stroke-linejoin="round"/>
<path d="M128.797 58.5181L125.572 61.8945" stroke="#F9EFE6" stroke-width="4" stroke-linecap="round" stroke-linejoin="round"/>
<path d="M126.752 55.3013L122.34 56.7897" stroke="#F9EFE6" stroke-width="4" stroke-linecap="round" stroke-linejoin="round"/>
<path d="M126.432 51.4956L121.84 50.7563" stroke="#F9EFE6" stroke-width="4" stroke-linecap="round" stroke-linejoin="round"/>
<path d="M127.919 47.989L124.195 45.1919" stroke="#F9EFE6" stroke-width="4" stroke-linecap="round" stroke-linejoin="round"/>
<path d="M138.271 45.8515L140.588 41.8057" stroke="#F9EFE6" stroke-width="4" stroke-linecap="round" stroke-linejoin="round"/>
<path d="M141.025 48.4886L144.958 45.9912" stroke="#F9EFE6" stroke-width="4" stroke-linecap="round" stroke-linejoin="round"/>
<path d="M142.234 52.1042L146.876 51.7246" stroke="#F9EFE6" stroke-width="4" stroke-linecap="round" stroke-linejoin="round"/>
<path d="M141.635 55.8706L145.927 57.6887" stroke="#F9EFE6" stroke-width="4" stroke-linecap="round" stroke-linejoin="round"/>
<path d="M137.332 60.1261C138.796 59.5276 140.05 58.5074 140.934 57.1947C141.818 55.8822 142.293 54.3364 142.298 52.7535C142.303 51.1706 141.838 49.6218 140.963 48.3036C140.087 46.9853 138.839 45.9571 137.379 45.3492C135.919 44.7412 134.311 44.5811 132.759 44.8889C131.207 45.1968 129.782 45.9588 128.664 47.0784C127.545 48.198 126.785 49.6246 126.478 51.1775C126.171 52.7304 126.332 54.3395 126.94 55.8007C127.751 57.7484 129.298 59.2963 131.245 60.1067C133.192 60.917 135.38 60.9239 137.332 60.1261Z" stroke="#F9EFE6" stroke-width="4" stroke-linecap="round" stroke-linejoin="round"/>
<path d="M112.666 64.971C113.491 64.7431 114.229 64.2753 114.788 63.6268C115.348 62.9783 115.702 62.1783 115.805 61.3282C115.91 60.4781 115.76 59.6162 115.374 58.8517C114.988 58.0872 114.384 57.4545 113.639 57.0339C112.894 56.6132 112.04 56.4234 111.186 56.4886C110.333 56.5538 109.519 56.8712 108.846 57.4003C108.172 57.9294 107.672 58.6465 107.406 59.4607C107.141 60.2751 107.123 61.1498 107.355 61.9742C107.665 63.0746 108.398 64.0076 109.393 64.5692C110.387 65.1308 111.565 65.2753 112.666 64.971Z" fill="#EB8777"/>
<path d="M110.082 78.2669C111.225 77.6815 112.168 76.7699 112.793 75.6474C113.419 74.525 113.697 73.2422 113.593 71.9615C113.489 70.6808 113.008 69.4597 112.209 68.4528C111.412 67.4459 110.334 66.6986 109.111 66.3053C107.889 65.912 106.577 65.8905 105.343 66.2435C104.108 66.5965 103.006 67.3081 102.176 68.2883C101.346 69.2684 100.825 70.4731 100.679 71.7497C100.533 73.0264 100.769 74.3175 101.357 75.4598C102.144 76.9883 103.504 78.1421 105.139 78.6683C106.775 79.1946 108.552 79.0501 110.082 78.2669Z" fill="#EB8777"/>
<path d="M143.333 102.632C144.172 102.367 144.913 101.859 145.462 101.172C146.012 100.486 146.345 99.6513 146.421 98.7748C146.496 97.8983 146.31 97.0192 145.886 96.2483C145.462 95.4774 144.818 94.85 144.038 94.4461C143.257 94.0413 142.374 93.8776 141.501 93.9753C140.627 94.0729 139.801 94.4285 139.13 94.9961C138.458 95.5637 137.969 96.3178 137.726 97.1626C137.483 98.0083 137.496 98.9068 137.763 99.7445C138.121 100.866 138.907 101.799 139.952 102.341C140.996 102.882 142.212 102.986 143.333 102.632Z" fill="#EB8777"/>
<path d="M160.761 83.1016C161.472 82.5266 161.996 81.7535 162.268 80.8801C162.54 80.0067 162.547 79.0722 162.289 78.1948C162.03 77.3174 161.517 76.5365 160.815 75.9508C160.112 75.3652 159.253 75.0011 158.343 74.9047C157.434 74.8082 156.517 74.9838 155.707 75.4091C154.898 75.8344 154.233 76.4903 153.796 77.294C153.359 78.0977 153.17 79.0129 153.254 79.9239C153.336 80.835 153.688 81.701 154.262 82.4123C154.643 82.8856 155.113 83.2789 155.646 83.5699C156.18 83.8608 156.765 84.0435 157.369 84.1075C157.972 84.1716 158.583 84.1156 159.165 83.9431C159.747 83.7704 160.289 83.4845 160.761 83.1016Z" fill="#EB8777"/>
<path d="M155.701 71.1143C155.701 72.6128 154.763 72.7926 153.495 72.7726C152.227 72.7526 151.318 72.5329 151.348 71.0344C151.378 69.536 152.286 69.3563 153.555 69.3862C154.823 69.4162 155.731 69.596 155.701 71.1143Z" fill="#EB8777"/>
<path d="M160.791 70.655C160.791 74.3511 156.668 76.0294 153.633 76.0593C150.599 76.0893 146.387 74.501 146.387 70.8048C146.387 67.1087 150.519 65.4405 153.544 65.4106C156.568 65.3806 160.751 66.9689 160.791 70.655Z" stroke="#F9EFE6" stroke-width="4" stroke-linecap="round" stroke-linejoin="round"/>
<path d="M130.874 45.571L128.867 41.3555" stroke="#F9EFE6" stroke-width="4" stroke-linecap="round" stroke-linejoin="round"/>
<path d="M134.607 44.8023L134.787 40.1372" stroke="#F9EFE6" stroke-width="4" stroke-linecap="round" stroke-linejoin="round"/>
<path d="M132.002 208.729C114.684 187.822 98.4821 191.488 29.8242 191.747C28.9862 191.75 28.1559 191.587 27.3809 191.268C26.6058 190.949 25.9014 190.48 25.3079 189.888C24.7145 189.296 24.2435 188.592 23.9222 187.817C23.6009 187.043 23.4356 186.213 23.4356 185.374V100.683C23.4342 99.8462 23.598 99.0163 23.9176 98.2428C24.2372 97.4693 24.7063 96.7662 25.2979 96.1739C25.8896 95.5817 26.5922 95.1126 27.3655 94.7923C28.1387 94.4729 28.9675 94.3083 29.8042 94.3101H86.7629" stroke="#F9EFE6" stroke-width="6" stroke-linecap="round" stroke-linejoin="round"/>
<path d="M132 208.729C149.329 187.822 165.52 191.488 234.179 191.747C235.017 191.752 235.849 191.59 236.625 191.271C237.401 190.953 238.107 190.484 238.701 189.891C239.296 189.299 239.767 188.595 240.09 187.82C240.412 187.044 240.577 186.214 240.577 185.374V100.683C240.577 98.9961 239.909 97.3786 238.718 96.1836C237.529 94.9894 235.914 94.3153 234.229 94.3101H177.24" stroke="#F9EFE6" stroke-width="6" stroke-linecap="round" stroke-linejoin="round"/>
<path d="M132 151.36V126.696" stroke="#F9EFE6" stroke-width="6" stroke-linecap="round" stroke-linejoin="round"/>
<path d="M132 151.36V208.73" stroke="#F9EFE6" stroke-width="6" stroke-linecap="round" stroke-linejoin="round"/>
<path d="M132.002 233.723C125.693 233.723 113.545 233.723 110.141 218.739C109.828 217.324 109.042 216.057 107.914 215.149C106.785 214.242 105.38 213.746 103.932 213.744H12.0054C10.3232 213.744 8.70934 213.078 7.51612 211.891C6.3229 210.704 5.64726 209.094 5.63672 207.41V118.404C5.64726 116.721 6.3229 115.11 7.51612 113.924C8.70934 112.737 10.3232 112.07 12.0054 112.071H23.4351" stroke="#F9EFE6" stroke-width="6" stroke-linecap="round" stroke-linejoin="round"/>
<path d="M132 233.723C138.309 233.723 150.457 233.723 153.861 218.739C154.174 217.324 154.96 216.057 156.089 215.149C157.217 214.242 158.622 213.746 160.07 213.744H251.997C253.686 213.744 255.306 213.072 256.5 211.876C257.694 210.681 258.365 209.06 258.365 207.37V118.404C258.355 116.721 257.679 115.11 256.486 113.924C255.292 112.737 253.678 112.07 251.997 112.071H240.577" stroke="#F9EFE6" stroke-width="6" stroke-linecap="round" stroke-linejoin="round"/>
</svg>
