<svg width="264" height="266" viewBox="0 0 264 266" fill="none" xmlns="http://www.w3.org/2000/svg">
<path d="M131.962 174.172C133.603 172.494 134.712 170.365 135.147 168.054C135.582 165.743 135.325 163.354 134.407 161.19C133.49 159.026 131.954 157.184 129.993 155.898C128.032 154.611 125.736 153.938 123.394 153.964C121.052 153.989 118.77 154.712 116.838 156.04C114.905 157.369 113.409 159.243 112.538 161.427C111.667 163.61 111.461 166.004 111.946 168.305C112.431 170.606 113.584 172.711 115.261 174.353C117.501 176.551 120.517 177.766 123.649 177.732C126.78 177.698 129.77 176.418 131.962 174.172V174.172Z" fill="#EB8777"/>
<path d="M153.12 106.103C154.761 104.425 155.87 102.296 156.305 99.9847C156.74 97.6737 156.483 95.2849 155.566 93.1209C154.648 90.9569 153.112 89.1151 151.151 87.8286C149.191 86.5421 146.894 85.8689 144.552 85.8942C142.21 85.9196 139.929 86.6423 137.996 87.9709C136.063 89.2994 134.567 91.1741 133.696 93.3574C132.825 95.5408 132.619 97.9346 133.104 100.236C133.589 102.537 134.743 104.641 136.419 106.283C138.659 108.481 141.676 109.697 144.807 109.663C147.938 109.629 150.928 108.349 153.12 106.103V106.103Z" fill="#EB8777"/>
<path d="M123.508 165.902L46.9671 90.4792H18.9741C14.9639 90.4792 11.1179 92.079 8.28223 94.9268C5.44657 97.7746 3.85352 101.637 3.85352 105.664V159.464C3.85352 163.491 5.44657 167.354 8.28223 170.202C11.1179 173.049 14.9639 174.649 18.9741 174.649H74.9729C76.9597 174.649 78.927 175.042 80.7623 175.806C82.5977 176.57 84.2651 177.69 85.6694 179.102C87.0736 180.513 88.1871 182.188 88.9462 184.032C89.7053 185.876 90.0952 187.852 90.0935 189.847V246.073C90.0935 250.1 91.6866 253.962 94.5222 256.81C97.3579 259.658 101.204 261.258 105.214 261.258H158.785C162.795 261.258 166.641 259.658 169.477 256.81C172.312 253.962 173.905 250.1 173.905 246.073V189.847C173.829 187.841 174.185 185.842 174.95 183.987C175.715 182.132 176.871 180.465 178.338 179.1L85.6614 86.0281C87.1279 84.6662 88.2834 83.0016 89.0485 81.1487C89.8135 79.2957 90.1701 77.2984 90.0935 75.294V19.0558C90.0935 15.0284 91.6866 11.166 94.5222 8.31825C97.3579 5.47047 101.204 3.87061 105.214 3.87061H158.785C162.795 3.87061 166.641 5.47047 169.477 8.31825C172.312 11.166 173.905 15.0284 173.905 19.0558V75.294C173.905 77.2892 174.297 79.2649 175.058 81.1081C175.818 82.9513 176.933 84.6258 178.339 86.0361C179.744 87.4463 181.413 88.5646 183.249 89.327C185.085 90.0893 187.052 90.4808 189.039 90.4792H245.025C249.035 90.4792 252.881 92.079 255.717 94.9268C258.552 97.7746 260.146 101.637 260.146 105.664V159.464C260.146 163.491 258.552 167.354 255.717 170.202C252.881 173.049 249.035 174.649 245.025 174.649H219.768L144.666 97.7944" stroke="#F9EFE6" stroke-width="6" stroke-linecap="round" stroke-linejoin="round"/>
</svg>
