<svg width="500" height="108" viewBox="0 0 500 108" fill="none" xmlns="http://www.w3.org/2000/svg">
<rect width="500" height="108" fill="#CEE1E8"/>
<path d="M28.314 44H34.086C39.884 44 43.29 40.516 43.29 34.874C43.29 29.57 39.884 25.8 34.086 25.8H28.314V44ZM31.122 41.556V28.27H34.034C37.83 28.27 40.43 30.636 40.43 34.874C40.43 39.294 37.778 41.556 34.034 41.556H31.122ZM48.0198 28.27C49.0858 28.27 49.8398 27.568 49.8398 26.528C49.8398 25.54 49.0858 24.812 48.0198 24.812C46.9798 24.812 46.2258 25.54 46.2258 26.528C46.2258 27.568 46.9798 28.27 48.0198 28.27ZM46.6418 44H49.3718V30.402H46.6418V44ZM53.2941 44H56.0241V37.292C56.0241 34.77 57.3501 33.028 59.6641 33.028H60.9381V30.376H59.7421C57.8181 30.376 56.5181 31.676 56.1021 32.768H55.9201V30.402H53.2941V44ZM69.4787 44.338C72.8327 44.338 75.2507 42.518 75.9527 39.892H73.3007C72.7547 41.218 71.2727 42.05 69.5567 42.05C67.0607 42.05 65.4747 40.438 65.3707 38.072H76.0827V37.058C76.0827 33.184 73.6647 30.064 69.4267 30.064C65.5527 30.064 62.6407 32.924 62.6407 37.24C62.6407 41.322 65.3967 44.338 69.4787 44.338ZM65.4227 35.966C65.6307 33.834 67.3467 32.352 69.4267 32.352C71.5327 32.352 73.1967 33.678 73.3787 35.966H65.4227ZM85.5057 44.338C88.7037 44.338 91.4597 42.414 92.0577 39.294H89.2757C88.8077 40.828 87.2997 41.868 85.5577 41.868C83.0097 41.868 81.2417 39.892 81.2417 37.214C81.2417 34.588 82.9317 32.56 85.5057 32.56C87.2997 32.56 88.7817 33.6 89.2497 35.16H92.0577C91.4337 32.04 88.7037 30.064 85.4797 30.064C81.3457 30.064 78.4337 33.184 78.4337 37.214C78.4337 41.218 81.2937 44.338 85.5057 44.338ZM101.008 44H103.27V41.686H101.424C99.9938 41.686 99.4478 40.906 99.4478 39.606V32.638H103.4V30.402H99.4478V26.554H96.8738V29.544C96.8738 30.09 96.5358 30.428 96.0678 30.428H94.2738V32.638H96.7178V39.684C96.7178 42.518 98.3298 44 101.008 44ZM112.06 44H114.946L116.376 40.048H124.566L125.996 44H128.96L122.2 25.8H118.794L112.06 44ZM117.26 37.526L120.38 28.946H120.562L123.682 37.526H117.26ZM132.393 28.27C133.459 28.27 134.213 27.568 134.213 26.528C134.213 25.54 133.459 24.812 132.393 24.812C131.353 24.812 130.599 25.54 130.599 26.528C130.599 27.568 131.353 28.27 132.393 28.27ZM131.015 44H133.745V30.402H131.015V44ZM137.667 44H140.397V37.292C140.397 34.77 141.723 33.028 144.037 33.028H145.311V30.376H144.115C142.191 30.376 140.891 31.676 140.475 32.768H140.293V30.402H137.667V44ZM164.044 44.338C168.464 44.338 171.818 41.738 172.832 37.89H169.764C168.932 40.308 166.696 41.686 164.044 41.686C160.326 41.686 157.518 38.826 157.518 34.9C157.518 31.026 160.326 28.114 164.044 28.114C166.696 28.114 168.958 29.518 169.764 31.936H172.78C171.714 28.14 168.49 25.462 164.044 25.462C158.584 25.462 154.606 29.544 154.606 34.9C154.606 40.308 158.558 44.338 164.044 44.338ZM181.827 44.338C184.531 44.338 185.857 42.596 186.221 42.076H186.377V44H189.055V30.402H186.325V32.378H186.143C185.701 31.676 184.297 30.064 181.697 30.064C177.901 30.064 175.223 33.028 175.223 37.24C175.223 41.452 177.927 44.338 181.827 44.338ZM182.217 41.868C179.721 41.868 178.005 40.048 178.005 37.214C178.005 34.484 179.721 32.56 182.191 32.56C184.583 32.56 186.403 34.276 186.403 37.214C186.403 39.788 184.817 41.868 182.217 41.868ZM192.993 44H195.723V37.292C195.723 34.77 197.049 33.028 199.363 33.028H200.637V30.376H199.441C197.517 30.376 196.217 31.676 195.801 32.768H195.619V30.402H192.993V44ZM210.986 44.338C214.912 44.338 217.59 41.452 217.59 37.24C217.59 33.028 214.912 30.064 211.142 30.064C208.542 30.064 207.112 31.676 206.67 32.378H206.514V24.5H203.784V44H206.436V42.076H206.618C206.982 42.596 208.282 44.338 210.986 44.338ZM210.596 41.868C207.996 41.868 206.436 39.788 206.436 37.214C206.436 34.276 208.256 32.56 210.648 32.56C213.118 32.56 214.808 34.484 214.808 37.214C214.808 40.048 213.118 41.868 210.596 41.868ZM227.112 44.338C231.272 44.338 234.288 41.27 234.288 37.214C234.288 33.158 231.324 30.064 227.138 30.064C222.952 30.064 219.936 33.132 219.936 37.214C219.936 41.296 222.926 44.338 227.112 44.338ZM227.112 41.868C224.564 41.868 222.718 39.918 222.718 37.214C222.718 34.536 224.538 32.56 227.112 32.56C229.686 32.56 231.506 34.51 231.506 37.214C231.506 39.892 229.686 41.868 227.112 41.868ZM237.579 44H240.309V36.07C240.309 34.094 241.713 32.612 243.611 32.612C245.327 32.612 246.653 33.886 246.653 35.784V44H249.383V35.264C249.383 32.326 247.485 30.064 244.391 30.064C242.363 30.064 240.959 31.104 240.413 32.222H240.231V30.402H237.579V44ZM268.907 44.338C273.327 44.338 276.681 41.738 277.695 37.89H274.627C273.795 40.308 271.559 41.686 268.907 41.686C265.189 41.686 262.381 38.826 262.381 34.9C262.381 31.026 265.189 28.114 268.907 28.114C271.559 28.114 273.821 29.518 274.627 31.936H277.643C276.577 28.14 273.353 25.462 268.907 25.462C263.447 25.462 259.469 29.544 259.469 34.9C259.469 40.308 263.421 44.338 268.907 44.338ZM286.69 44.338C289.394 44.338 290.72 42.596 291.084 42.076H291.24V44H293.918V30.402H291.188V32.378H291.006C290.564 31.676 289.16 30.064 286.56 30.064C282.764 30.064 280.086 33.028 280.086 37.24C280.086 41.452 282.79 44.338 286.69 44.338ZM287.08 41.868C284.584 41.868 282.868 40.048 282.868 37.214C282.868 34.484 284.584 32.56 287.054 32.56C289.446 32.56 291.266 34.276 291.266 37.214C291.266 39.788 289.68 41.868 287.08 41.868ZM297.857 49.98H300.587V42.024H300.743C301.185 42.752 302.589 44.338 305.215 44.338C308.985 44.338 311.663 41.374 311.663 37.162C311.663 32.95 308.985 30.064 305.059 30.064C302.355 30.064 301.055 31.806 300.691 32.352H300.509V30.402H297.857V49.98ZM304.721 41.868C302.329 41.868 300.509 40.126 300.509 37.188C300.509 34.614 302.069 32.534 304.669 32.534C307.191 32.534 308.881 34.354 308.881 37.188C308.881 39.918 307.191 41.868 304.721 41.868ZM320.586 44H322.848V41.686H321.002C319.572 41.686 319.026 40.906 319.026 39.606V32.638H322.978V30.402H319.026V26.554H316.452V29.544C316.452 30.09 316.114 30.428 315.646 30.428H313.852V32.638H316.296V39.684C316.296 42.518 317.908 44 320.586 44ZM331.002 44.338C333.03 44.338 334.434 43.298 334.98 42.18H335.162V44H337.814V30.402H335.084V38.384C335.084 40.36 333.68 41.816 331.782 41.816C330.066 41.816 328.74 40.568 328.74 38.644V30.402H326.01V39.138C326.01 42.076 327.908 44.338 331.002 44.338ZM341.808 44H344.538V37.292C344.538 34.77 345.864 33.028 348.178 33.028H349.452V30.376H348.256C346.332 30.376 345.032 31.676 344.616 32.768H344.434V30.402H341.808V44ZM357.992 44.338C361.346 44.338 363.764 42.518 364.466 39.892H361.814C361.268 41.218 359.786 42.05 358.07 42.05C355.574 42.05 353.988 40.438 353.884 38.072H364.596V37.058C364.596 33.184 362.178 30.064 357.94 30.064C354.066 30.064 351.154 32.924 351.154 37.24C351.154 41.322 353.91 44.338 357.992 44.338ZM353.936 35.966C354.144 33.834 355.86 32.352 357.94 32.352C360.046 32.352 361.71 33.678 361.892 35.966H353.936Z" fill="#1B2B27"/>
<path d="M26 75.5C26 67.4919 32.4919 61 40.5 61H180.5C188.508 61 195 67.4919 195 75.5V75.5C195 83.5081 188.508 90 180.5 90H40.5C32.4919 90 26 83.5081 26 75.5V75.5Z" fill="#1CE15F"/>
<path d="M50.9407 73.894C51.0965 74.0489 51.2116 74.2398 51.2758 74.4499C51.34 74.66 51.3513 74.8827 51.3087 75.0982C51.2661 75.3137 51.1709 75.5153 51.0316 75.6852C50.8923 75.855 50.7131 75.9878 50.5101 76.0717C50.3071 76.1557 50.0865 76.1882 49.868 76.1663C49.6494 76.1444 49.4396 76.0689 49.2572 75.9464C49.0749 75.8239 48.9256 75.6583 48.8227 75.4642C48.7198 75.2701 48.6664 75.0537 48.6673 74.834L48.6673 68.834M41.0607 75.894C40.9049 76.0489 40.7898 76.2398 40.7256 76.4499C40.6614 76.66 40.6501 76.8827 40.6927 77.0982C40.7353 77.3137 40.8304 77.5153 40.9698 77.6852C41.1091 77.855 41.2882 77.9878 41.4912 78.0717C41.6942 78.1557 41.9148 78.1882 42.1334 78.1663C42.352 78.1444 42.5617 78.0689 42.7441 77.9464C42.9265 77.8239 43.0757 77.6583 43.1786 77.4642C43.2816 77.2701 43.3349 77.0537 43.334 76.834L43.334 68.834M48.8473 79.3207C49.0407 79.5146 49.1834 79.7531 49.2627 80.0153C49.3419 80.2774 49.3554 80.5551 49.3018 80.8236C49.2482 81.0922 49.1293 81.3435 48.9555 81.5551C48.7818 81.7668 48.5585 81.9324 48.3055 82.0373C48.0525 82.1422 47.7776 82.1831 47.505 82.1564C47.2325 82.1297 46.9707 82.0363 46.7428 81.8844C46.5149 81.7325 46.328 81.5267 46.1986 81.2854C46.0691 81.044 46.0012 80.7745 46.0007 80.5007L46.0007 68.834" stroke="white" stroke-width="2" stroke-linecap="round" stroke-linejoin="round"/>
<path d="M63.3105 80H64.9205V72.846H64.9765L69.3865 80H71.2765V70.2H69.6525V77.396H69.5965L65.1865 70.2H63.3105V80ZM76.0388 80.126C77.7608 80.126 78.9788 79.118 79.1748 77.802H77.6208C77.4528 78.39 76.9208 78.782 76.0388 78.782C74.8628 78.782 74.2748 77.984 74.2748 76.836H79.2728V76.164C79.2728 74.176 78.1248 72.65 76.0108 72.65C73.7288 72.65 72.6228 74.316 72.6228 76.388C72.6228 78.488 73.8408 80.126 76.0388 80.126ZM74.2888 75.702C74.3308 74.764 74.8488 74.008 76.0108 74.008C77.1028 74.008 77.6208 74.75 77.6348 75.702H74.2888ZM83.3427 83.332C85.3867 83.332 86.6887 82.114 86.6887 80.392V72.776H85.2747L85.0927 73.644H85.0367C84.6727 73.098 84.0147 72.65 82.9647 72.65C81.1027 72.65 79.9687 74.134 79.9547 76.388C79.9687 78.544 81.0187 80.126 82.9647 80.126C84.0147 80.126 84.6727 79.678 85.0367 79.132H85.0927V80.364C85.0927 81.26 84.5327 81.96 83.3427 81.96C82.3067 81.96 81.7747 81.386 81.7187 80.784H80.1647C80.2067 82.282 81.4527 83.332 83.3427 83.332ZM83.3567 78.712C82.0407 78.712 81.5787 77.648 81.5787 76.388C81.5787 75.128 82.0547 74.064 83.3567 74.064C84.6307 74.064 85.1487 75.142 85.1487 76.388C85.1487 77.634 84.6447 78.712 83.3567 78.712ZM90.2168 80.126C91.1828 80.126 91.9248 79.762 92.3448 79.146H92.4008L92.5128 80H93.9128V75.184C93.9128 73.756 92.8348 72.65 90.9308 72.65C89.1108 72.65 88.0328 73.672 88.0328 75.044H89.5448C89.5588 74.456 90.0208 73.966 90.9028 73.966C91.9108 73.966 92.3308 74.526 92.3308 75.198V75.87C91.9528 75.758 91.3088 75.632 90.6508 75.632C88.5788 75.632 87.6968 76.612 87.6968 77.872C87.6968 79.146 88.6208 80.126 90.2168 80.126ZM90.5808 78.852C89.7128 78.852 89.2928 78.404 89.2928 77.816C89.2928 77.172 89.7968 76.78 90.7628 76.78C91.2948 76.78 91.7988 76.85 92.3308 77.032V77.27C92.3308 78.124 91.6448 78.852 90.5808 78.852ZM98.1394 80.126C98.6854 80.126 99.1474 80.042 99.3714 79.972V78.628H99.2314C99.0494 78.684 98.8254 78.726 98.5314 78.726C97.8874 78.726 97.5934 78.432 97.5934 77.746V74.134H99.3434V72.776H97.5934V70.858H97.4534L96.0674 71.25V72.776H94.8074V74.134H95.9974V78.026C95.9974 79.272 96.5994 80.126 98.1394 80.126ZM101.406 71.67C102.064 71.67 102.428 71.278 102.428 70.662C102.428 70.046 102.064 69.668 101.406 69.668C100.734 69.668 100.384 70.046 100.384 70.662C100.384 71.278 100.734 71.67 101.406 71.67ZM100.608 80H102.204V72.776H100.608V80ZM105.494 80H107.37L109.932 72.916V72.776H108.308L106.474 78.348H106.418L104.528 72.776H102.89V72.916L105.494 80ZM113.468 80.126C115.19 80.126 116.408 79.118 116.604 77.802H115.05C114.882 78.39 114.35 78.782 113.468 78.782C112.292 78.782 111.704 77.984 111.704 76.836H116.702V76.164C116.702 74.176 115.554 72.65 113.44 72.65C111.158 72.65 110.052 74.316 110.052 76.388C110.052 78.488 111.27 80.126 113.468 80.126ZM111.718 75.702C111.76 74.764 112.278 74.008 113.44 74.008C114.532 74.008 115.05 74.75 115.064 75.702H111.718ZM121.71 80H128.318V78.53H123.348V75.688H127.884V74.204H123.348V71.684H128.318V70.2H121.71V80ZM137.787 72.65C136.639 72.65 135.911 73.168 135.533 73.784H135.491C135.085 73.056 134.329 72.65 133.321 72.65C132.271 72.65 131.627 73.098 131.235 73.714H131.179L131.053 72.776H129.639V80H131.235V76.01C131.235 74.806 131.879 74.092 132.845 74.092C133.839 74.092 134.245 74.694 134.245 75.674V80H135.827V76.01C135.827 74.806 136.401 74.092 137.367 74.092C138.361 74.092 138.767 74.694 138.767 75.674V80H140.363V75.282C140.363 73.658 139.383 72.65 137.787 72.65ZM142.65 71.67C143.308 71.67 143.672 71.278 143.672 70.662C143.672 70.046 143.308 69.668 142.65 69.668C141.978 69.668 141.628 70.046 141.628 70.662C141.628 71.278 141.978 71.67 142.65 71.67ZM141.852 80H143.448V72.776H141.852V80ZM147.522 80.126C149.202 80.126 150.518 79.342 150.518 77.942C150.518 76.57 149.678 76.052 148.418 75.786L147.186 75.548C146.584 75.45 146.234 75.198 146.234 74.764C146.234 74.232 146.724 73.938 147.438 73.938C148.264 73.938 148.754 74.358 148.782 75.016H150.35C150.35 73.616 149.202 72.65 147.466 72.65C145.716 72.65 144.68 73.56 144.68 74.75C144.68 75.982 145.506 76.64 146.682 76.878L147.956 77.116C148.614 77.256 148.908 77.536 148.908 77.942C148.908 78.446 148.432 78.754 147.522 78.754C146.612 78.754 146.052 78.306 146.052 77.592H144.456C144.498 79.118 145.576 80.126 147.522 80.126ZM154.252 80.126C155.932 80.126 157.248 79.342 157.248 77.942C157.248 76.57 156.408 76.052 155.148 75.786L153.916 75.548C153.314 75.45 152.964 75.198 152.964 74.764C152.964 74.232 153.454 73.938 154.168 73.938C154.994 73.938 155.484 74.358 155.512 75.016H157.08C157.08 73.616 155.932 72.65 154.196 72.65C152.446 72.65 151.41 73.56 151.41 74.75C151.41 75.982 152.236 76.64 153.412 76.878L154.686 77.116C155.344 77.256 155.638 77.536 155.638 77.942C155.638 78.446 155.162 78.754 154.252 78.754C153.342 78.754 152.782 78.306 152.782 77.592H151.186C151.228 79.118 152.306 80.126 154.252 80.126ZM159.191 71.67C159.849 71.67 160.213 71.278 160.213 70.662C160.213 70.046 159.849 69.668 159.191 69.668C158.519 69.668 158.169 70.046 158.169 70.662C158.169 71.278 158.519 71.67 159.191 71.67ZM158.393 80H159.989V72.776H158.393V80ZM164.413 80.126C166.709 80.126 167.829 78.502 167.829 76.388C167.829 74.274 166.681 72.65 164.413 72.65C162.145 72.65 160.997 74.274 160.997 76.388C160.997 78.516 162.117 80.126 164.413 80.126ZM164.413 78.712C163.209 78.712 162.621 77.844 162.621 76.388C162.621 74.96 163.195 74.064 164.413 74.064C165.631 74.064 166.205 74.946 166.205 76.388C166.205 77.844 165.631 78.712 164.413 78.712ZM168.982 80H170.578V76.01C170.578 74.806 171.222 74.092 172.23 74.092C173.238 74.092 173.7 74.666 173.7 75.674V80H175.296V75.282C175.296 73.644 174.302 72.65 172.692 72.65C171.656 72.65 170.97 73.098 170.578 73.714H170.522L170.396 72.776H168.982V80ZM179.369 80.126C181.049 80.126 182.365 79.342 182.365 77.942C182.365 76.57 181.525 76.052 180.265 75.786L179.033 75.548C178.431 75.45 178.081 75.198 178.081 74.764C178.081 74.232 178.571 73.938 179.285 73.938C180.111 73.938 180.601 74.358 180.629 75.016H182.197C182.197 73.616 181.049 72.65 179.313 72.65C177.563 72.65 176.527 73.56 176.527 74.75C176.527 75.982 177.353 76.64 178.529 76.878L179.803 77.116C180.461 77.256 180.755 77.536 180.755 77.942C180.755 78.446 180.279 78.754 179.369 78.754C178.459 78.754 177.899 78.306 177.899 77.592H176.303C176.345 79.118 177.423 80.126 179.369 80.126Z" fill="white"/>
<rect x="202" y="61" width="66" height="29" rx="14.5" fill="#5B98AB"/>
<path d="M225.72 70.1673C225.414 69.4665 224.875 68.8926 224.195 68.5419C223.515 68.1913 222.735 68.0852 221.986 68.2416C221.237 68.3979 220.565 68.8072 220.082 69.4006C219.599 69.994 219.335 70.7355 219.334 71.5006L219.334 72.3406C218.515 72.552 217.759 72.9547 217.127 73.5158C216.495 74.0768 216.005 74.78 215.698 75.5675C215.391 76.3549 215.276 77.204 215.361 78.0448C215.447 78.8857 215.731 79.6941 216.191 80.4035C216.65 81.1129 217.271 81.703 218.004 82.1251C218.736 82.5472 219.558 82.7892 220.402 82.8313C221.246 82.8733 222.088 82.7142 222.859 82.3669C223.629 82.0196 224.306 81.4942 224.834 80.834" stroke="white" stroke-width="2" stroke-linecap="round" stroke-linejoin="round"/>
<path d="M224.666 78.166L224.666 78.1593" stroke="white" stroke-width="2" stroke-linecap="round" stroke-linejoin="round"/>
<path d="M227.334 78.166L227.334 78.1593" stroke="white" stroke-width="2" stroke-linecap="round" stroke-linejoin="round"/>
<path d="M226 75.5L226 75.4933" stroke="white" stroke-width="2" stroke-linecap="round" stroke-linejoin="round"/>
<path d="M228.666 75.5L228.666 75.4933" stroke="white" stroke-width="2" stroke-linecap="round" stroke-linejoin="round"/>
<path d="M224.666 72.834L224.666 72.8273" stroke="white" stroke-width="2" stroke-linecap="round" stroke-linejoin="round"/>
<path d="M227.334 72.834L227.334 72.8273" stroke="white" stroke-width="2" stroke-linecap="round" stroke-linejoin="round"/>
<path d="M243.955 70.2H241.897L238.397 79.86V80H240.133L240.903 77.732H244.907L245.677 80H247.469V79.86L243.955 70.2ZM241.393 76.29L242.877 71.922H242.933L244.417 76.29H241.393ZM249.182 71.67C249.84 71.67 250.204 71.278 250.204 70.662C250.204 70.046 249.84 69.668 249.182 69.668C248.51 69.668 248.16 70.046 248.16 70.662C248.16 71.278 248.51 71.67 249.182 71.67ZM248.384 80H249.98V72.776H248.384V80ZM251.464 80H253.004V76.472C253.004 75.002 253.634 74.162 254.852 74.162H255.468V72.678H254.88C253.97 72.678 253.298 73.182 253.004 73.924H252.948L252.808 72.776H251.464V80Z" fill="white"/>
</svg>
