<svg width="145" height="28" viewBox="0 0 145 28" fill="none" xmlns="http://www.w3.org/2000/svg">
<path d="M94.0717 26.5087C94.6492 25.8349 94.938 25.2574 95.4193 24.9686C96.9595 24.1023 98.4034 23.0435 100.136 22.5622C104.275 21.4071 108.511 20.4445 112.746 19.482C112.843 19.482 112.939 19.3857 113.42 19.0969C112.169 18.9044 111.206 18.7119 110.244 18.5194C109.185 18.3269 108.126 18.2306 107.067 18.0381C103.313 17.6531 99.6548 17.1718 95.9006 16.883C92.3389 16.5942 88.7773 16.498 85.1193 16.3055C83.2903 16.2092 81.3651 15.9204 79.5362 15.7279C78.6698 15.6317 77.8034 15.6317 76.9371 15.5354C75.3969 15.4391 73.8567 15.7279 72.3166 15.1504C70.9689 14.6691 69.4287 14.8616 67.9848 14.9579C67.2147 15.0541 66.7334 14.9579 66.3483 14.1878C66.1558 13.899 65.5782 13.899 65.0969 13.7065C65.2895 14.1878 65.2894 14.3803 65.3857 14.6691C65.1932 14.7653 65.0969 14.8616 65.0007 14.8616C62.8829 14.6691 60.8614 14.4766 58.7437 14.4766C57.7811 14.4766 56.7222 15.0541 55.7596 14.3803C54.7969 13.7065 53.8343 14.5728 52.8717 14.3803C51.8128 14.1878 50.754 14.6691 49.6951 14.6691C48.3474 14.5728 46.9035 15.0541 45.5558 14.2841C45.267 14.0915 44.882 14.1878 44.5932 14.1878C42.0904 14.7653 39.5876 14.6691 36.9886 14.5728C36.411 14.5728 35.5446 15.0541 35.1596 13.9953C35.0633 13.8028 33.8119 13.3215 33.4269 14.4766C33.3306 14.6691 32.8493 14.7653 32.5605 14.7653C31.6942 14.7653 30.8278 14.6691 29.8652 14.6691C30.0577 14.2841 30.2503 13.9953 30.4428 13.8028C29.0951 14.2841 27.6512 13.9953 26.4961 14.7653C26.3035 14.8616 25.9185 14.7653 25.5334 14.7653C25.2447 14.7653 24.8596 14.4766 24.8596 14.5728C23.5119 16.1129 22.6456 14.8616 21.8755 13.899C20.1428 14.3803 18.6026 14.3803 16.8699 14.0915C15.6185 13.899 14.3671 13.9953 13.1157 14.0915C11.383 14.2841 9.6503 14.6691 7.91759 14.8616C7.34002 14.9579 6.66617 15.1504 6.0886 14.9579C4.54841 14.4766 3.20075 14.7653 1.75683 15.3429C1.27552 15.5354 0.697953 15.4392 0.312907 15.4392C-0.360924 12.3589 -0.0721274 11.5889 2.43067 10.3375C5.51104 8.79739 8.78392 7.6423 12.3456 7.54604C14.4634 7.44978 16.4849 7.06475 18.5064 7.06475C20.7204 7.06475 22.7418 6.67972 24.8596 6.39095C25.9185 6.29469 26.9774 5.90966 28.0362 6.67972C28.2288 6.77598 28.7101 6.77598 28.9026 6.58346C29.5764 6.10218 30.0577 6.48721 30.7316 6.58346C31.983 6.87224 33.4269 6.67972 34.6783 6.48721C36.411 6.19844 37.9512 6.10218 39.6839 6.67972C40.5502 6.96849 41.6091 7.16101 42.4755 6.87224C44.3044 6.19843 46.0372 6.58346 47.8661 6.58346C48.8287 6.58346 49.7914 6.58346 50.6577 6.67972C51.139 6.67972 51.5241 6.87224 52.0054 6.96849C52.5829 7.16101 53.1605 7.44978 53.6418 7.35352C54.9895 7.16101 56.3371 7.44978 57.5885 7.35352C59.61 7.25726 61.7278 7.35352 63.8455 7.44978C64.3268 7.44978 64.9044 7.54604 65.1932 7.83481C66.3483 8.89364 67.7923 8.79738 69.0437 8.50861C71.0652 8.12358 72.9904 8.41235 74.9156 8.60487C80.0175 9.08615 85.1193 9.56744 90.2212 10.2412C94.3604 10.7225 98.4997 11.3963 102.735 12.0701C106.778 12.6477 110.821 13.3215 114.768 13.9953C117.848 14.5728 120.929 15.1504 123.913 16.0167C126.223 16.6905 128.437 16.883 130.94 16.4017C130.459 16.1129 130.073 15.8242 129.592 15.6317C124.683 13.7065 119.773 11.8776 114.864 9.95247C110.821 8.41235 106.778 6.96849 102.735 5.42837C100.714 4.65831 100.425 3.59948 101.869 2.15562C104.275 -0.347074 103.602 -0.443331 106.778 0.711757C109.281 1.57807 111.591 2.73316 114.094 3.69574C117.656 5.1396 121.217 6.67971 124.779 8.12357C130.362 10.4338 136.138 12.4552 141.336 15.7279C142.202 16.2092 143.165 16.498 144.32 16.883C144.416 17.0755 144.609 17.3643 144.801 17.7493C145.283 19.0969 144.898 19.867 143.55 20.252C139.218 21.4071 134.79 22.6584 130.266 22.9472C128.822 23.0435 127.378 23.3322 125.934 23.7173C124.49 24.1023 123.046 24.2948 121.506 24.1023C120.929 24.006 120.255 25.0649 119.292 24.9686C119.003 24.9686 118.618 25.0649 118.33 25.1611C117.752 25.4499 117.271 24.3911 116.597 25.0649C116.212 25.4499 115.634 25.6424 115.057 25.8349C113.805 26.22 112.458 26.4125 111.206 26.7975C110.34 27.0863 109.088 26.3162 108.415 27.5676C108.415 27.6638 108.126 27.5676 108.03 27.5676C106.104 27.4713 104.083 27.4713 102.158 27.2788C99.4623 27.2788 96.9595 26.8938 94.0717 26.5087Z" fill="#9AA4A9"/>
</svg>
