<svg width="108" height="69" viewBox="0 0 108 69" fill="none" xmlns="http://www.w3.org/2000/svg">
<path d="M34.2798 27.111C32.9197 23.8395 31.9991 23.369 28.0769 23.1152C26.0696 22.9854 23.6698 23.8563 22.1873 21.6978L22.8779 21.733L22.8519 21.7607L22.2094 21.7271C21.3024 21.4416 20.1475 21.3845 19.5356 20.8271C17.7924 19.2293 16.1716 17.5232 14.6851 15.7212C12.2906 12.8345 12.5067 9.21232 15.3803 5.87834C24.4896 9.06687 33.8741 12.0205 42.9244 15.6792C46.6537 17.1868 49.9766 19.9234 52.9263 22.6141C56.9433 26.2784 56.1912 31.9203 51.7433 35.0937C47.7417 37.8974 43.2842 40.1123 38.5295 41.6594C36.0724 42.4867 33.7826 43.7223 31.4172 44.7735C31.2717 44.833 31.1262 44.8926 31.1467 44.8842C31.1256 44.8951 31.2625 44.824 31.3994 44.7528L33.257 44.7494L33.4663 45.0083C33.2808 45.2486 33.1535 45.6121 32.9008 45.7108C29.3406 47.1015 26.891 50.2531 22.8107 50.8623C20.6176 51.1897 18.3012 51.6435 18.0758 54.3355C16.8289 55.3605 14.423 54.5715 13.8293 56.8621C13.6106 57.7056 6.12707 57.7739 5.00353 57.1844C4.36306 56.8288 3.69166 56.5226 2.99638 56.2692C-0.342194 55.1432 -0.664609 54.3264 1.62248 51.7337C2.66449 50.4896 3.94263 49.4283 5.39652 48.5996C16.2814 42.851 27.2433 37.2235 38.1513 31.5111C39.577 30.669 40.9518 29.7572 42.2697 28.7797C39.8493 27.4626 37.0467 26.8676 34.2541 27.0779L34.2798 27.111ZM35.002 25.0806L35.0831 25.5553C35.4162 25.4682 35.7497 25.3824 36.0787 25.2841C36.0849 25.2822 36.0381 25.0628 36.0147 25.0624C35.6773 25.0567 35.3396 25.071 35.002 25.0806Z" fill="#BCC6CC"/>
<path d="M25.7898 24.4392L30.6899 25.1238C30.648 25.3114 30.6061 25.499 30.5642 25.6866L25.6955 24.8865L25.7898 24.4392Z" fill="#BCC6CC"/>
<path d="M37.5471 28.0825C37.8693 28.3073 38.1915 28.532 38.5137 28.7568L38.0064 29.0737C37.8634 28.7326 37.7204 28.3914 37.5774 28.0503L37.5471 28.0825Z" fill="#BCC6CC"/>
<path d="M47.1005 63.2005C45.9312 63.1892 44.7099 62.9583 43.6052 63.2198C42.0811 63.5806 40.6772 64.4464 39.154 64.8156C38.6023 64.9494 37.8549 64.2757 37.1968 63.9704L37.6396 63.7158L37.2178 63.9997C33.6113 64.4213 29.99 65.6133 26.093 63.5613C25.9096 60.3398 27.7881 57.9501 30.4092 56.4073C35.7407 53.2693 41.0293 49.7975 46.7851 47.6917C62.1085 42.0856 77.67 37.1299 93.1378 31.9186C94.9592 31.3049 96.787 30.7102 98.6117 30.1068C98.6446 29.8498 98.6774 29.5929 98.7102 29.336C97.2606 28.7899 95.836 28.1618 94.3569 27.7131C89.8024 26.3313 85.2094 25.0729 80.6818 23.6105C80.1003 23.4227 79.9697 21.9472 79.3677 21.6952C76.9874 20.6985 75.5379 17.6098 72.3094 18.5037C72.0391 18.5785 71.4894 18.4694 71.4121 18.2944C69.8665 14.7958 66.1614 15.041 63.418 13.6343L63.35 13.5613C58.1667 11.4531 52.9769 9.36074 47.8026 7.23086C44.5958 5.91089 44.4259 5.50413 45.2402 1.58856C50.2003 0.395659 55.0956 1.58682 59.9816 2.41778C69.9247 4.10876 78.7311 8.50434 87.1102 13.9363C89.7478 15.6462 92.6545 16.9375 95.3189 18.6103C97.9775 20.2795 100.759 21.902 103.006 24.0476C108.006 28.8204 107.298 35.2752 99.8439 38.0858C95.2868 39.8041 90.1916 40.2744 85.8757 42.398C82.4011 44.0787 78.6717 45.1714 74.8395 45.6315L74.1876 45.5986C72.6254 46.3956 71.0632 47.1925 69.501 47.9894C69.1881 48.0113 68.8753 48.0332 68.5624 48.055L68.6409 48.351L69.476 47.9539C71.5707 48.2041 72.936 47.019 74.1672 45.5699L74.8581 45.6096C75.7447 47.6779 77.5288 45.8151 78.7326 46.4941L78.7075 46.4609C73.9104 49.1642 68.9063 50.5473 63.3299 49.3552C61.9786 49.0663 60.4536 49.5902 58.9481 50.0578C61.2352 50.75 64.4721 49.7441 64.5846 53.6212L64.6154 53.5933L58.5855 55.9109L58.6016 55.9326L55.3534 55.0906L55.3612 55.1174C57.5672 54.5711 59.7732 54.0248 61.9792 53.4785C62.0281 53.4111 62.1214 53.3407 62.1172 53.2769C62.0959 53.1214 62.0612 52.968 62.0136 52.8183C60.9991 52.6659 59.9711 52.6238 58.9476 52.6927C57.8661 52.8739 56.8463 53.4235 55.1744 54.045C55.8881 53.0019 56.1638 52.5989 56.4395 52.1958C56.368 52.0817 56.2966 51.9676 56.2251 51.8535C55.2963 52.4684 54.3674 53.0834 53.4386 53.6983L53.4756 53.6719L46.3723 53.3059C46.3409 53.7012 46.3096 54.0964 46.2782 54.4917L52.0999 55.1498C49.9724 56.3456 47.9992 57.4546 46.026 58.5637L45.3484 58.5256L45.2608 58.3986L45.3692 58.5067C44.5358 59.1747 43.7024 59.8427 42.869 60.5107L43.3481 61.0469L46.002 58.532C49.1498 57.829 52.2977 57.1259 55.4456 56.4229C55.5278 56.5553 55.6101 56.6878 55.6923 56.8203L53.733 58.3018L58.4581 58.5453L58.435 58.5155C56.131 59.2606 53.7834 59.8971 51.5425 60.7989C50.4975 61.2194 48.6095 60.974 48.9177 63.0692L47.0716 63.1682L47.1005 63.2005ZM48.5234 60.6507L47.5163 60.7381L47.6274 61.0925C47.9203 60.9377 48.2131 60.7828 48.5059 60.628L49.8621 60.0467L50.8619 60L50.7613 59.6291L49.8797 60.0694C49.4276 60.2632 48.9755 60.457 48.5234 60.6507ZM54.269 50.436L55.6525 49.9897L55.4072 49.5662C55.0387 49.8661 54.6701 50.1661 54.3016 50.466C54.2084 50.6097 54.1152 50.7534 54.1384 50.7176C54.1219 50.7533 54.1954 50.5946 54.269 50.436ZM52.2213 52.0051C52.0459 51.7748 51.9196 51.5062 51.8362 51.5189C51.5733 51.5855 51.3192 51.683 51.0792 51.8095C51.1874 51.9424 51.2935 52.1842 51.4043 52.1864C51.683 52.1596 51.9574 52.0987 52.2213 52.0051Z" fill="#BCC6CC"/>
<path d="M65.9739 50.7605L68.8324 50.5144L68.9051 51.0602C67.9566 51.2497 67.0081 51.4391 66.0596 51.6286C66.031 51.3393 66.0025 51.0499 65.9739 50.7605Z" fill="#BCC6CC"/>
<path d="M55.3529 55.0904C53.7299 55.9374 53.797 54.5471 53.4751 53.6718L53.438 53.6981C54.0789 54.1711 54.7198 54.6442 55.3607 55.1172L55.3529 55.0904Z" fill="#BCC6CC"/>
<path d="M78.7317 46.4936C78.8809 46.4153 79.03 46.337 78.9903 46.3579C79.0296 46.3437 78.8681 46.402 78.7067 46.4603L78.7317 46.4936Z" fill="#BCC6CC"/>
<path d="M58.5859 55.9106L58.1429 56.223L58.6021 55.9323L58.5859 55.9106Z" fill="#BCC6CC"/>
<path d="M58.4582 58.5451L58.7221 58.408L58.4351 58.5153L58.4582 58.5451Z" fill="#BCC6CC"/>
<path d="M44.416 63.6934L44.445 63.7255L44.416 63.6934Z" fill="#BCC6CC"/>
<path d="M47.0723 63.168L47.1005 63.1995L47.0723 63.168Z" fill="#BCC6CC"/>
<path d="M44.4474 63.7258L44.5288 63.6207L44.4179 63.693L44.4474 63.7258Z" fill="#BCC6CC"/>
<path d="M64.5844 53.621L64.6149 53.5933L64.5844 53.621Z" fill="#BCC6CC"/>
<path d="M62.0409 52.7928C62.0287 53.031 62.0165 53.2692 62.0042 53.5075C61.9562 53.346 61.9217 53.1809 61.9008 53.0138C61.8969 52.943 61.9912 52.8666 62.0409 52.7928Z" fill="#BCC6CC"/>
</svg>
