<svg width="150" height="37" viewBox="0 0 150 37" fill="none" xmlns="http://www.w3.org/2000/svg">
<path d="M70.93 25.8573C72.7881 22.128 74.1321 19.3439 75.5826 16.6166C75.7913 16.2242 76.4918 16.0211 77.0054 15.8896C77.3394 15.873 77.6729 15.9313 77.9814 16.0601C76.4039 19.9851 74.9165 23.8518 73.2673 27.6481C72.9414 28.3984 71.9971 29.3506 71.3332 29.3542C70.8874 29.2737 70.4684 29.0843 70.1134 28.8029C69.7584 28.5215 69.4783 28.1567 69.298 27.741C68.0632 23.5717 67.0077 19.3473 66.0079 15.1139C65.9158 14.7247 66.6426 14.1419 66.989 13.6489C67.3679 14.1188 67.9434 14.5334 68.0936 15.0677C69.0072 18.3191 69.8239 21.5979 70.93 25.8573Z" fill="#95B5C2"/>
<path d="M101.757 20.3225C101.847 21.5976 102.12 22.8531 102.567 24.0507C102.873 24.4525 103.264 24.7815 103.712 25.0138C104.16 25.2462 104.654 25.3762 105.159 25.3945C105.605 25.4145 106.396 24.1101 106.536 23.3177C106.82 21.7128 106.673 20.0342 106.916 18.4179C106.979 17.9987 107.789 17.5579 108.332 17.4126C108.543 17.3564 109.244 18.0921 109.244 18.4665C109.318 20.5146 109.212 22.5652 108.929 24.595C108.627 26.2829 108.199 28.1659 105.884 28.4543C104.727 28.61 103.551 28.4135 102.507 27.8904C101.464 27.3674 100.602 26.5421 100.034 25.522C98.9652 22.9716 98.7842 20.1358 99.5202 17.4702C99.6384 17.1128 99.8438 16.7907 100.118 16.5328C100.392 16.2749 100.726 16.0894 101.09 15.9932C102.364 15.9873 102.464 17.0121 102.183 18.0753C102.043 18.6018 101.976 19.1477 101.757 20.3225Z" fill="#95B5C2"/>
<path d="M134.798 12.8368C133.764 13.712 133.195 14.1964 132.623 14.6782C130.274 16.6558 130.388 17.3503 133.255 18.4284C133.642 18.5643 134.038 18.6718 134.44 18.7499C138.915 19.717 139.903 23.3173 136.244 26.9697C134.883 28.0939 133.34 28.9768 131.681 29.5802C131.283 29.7634 130.557 29.2351 129.982 29.0339C130.247 28.4653 130.363 27.6818 130.808 27.3718C131.803 26.6789 133.098 26.3857 134.015 25.6222C134.843 24.7691 135.569 23.8231 136.179 22.803C135.269 22.0916 134.307 21.4489 133.302 20.8803C132.093 20.2985 130.654 20.1514 129.517 19.4759C127.163 18.0776 126.953 16.4248 128.914 14.555C130.026 13.581 131.276 12.7778 132.624 12.1718C133.008 11.9816 133.737 12.4884 134.798 12.8368Z" fill="#95B5C2"/>
<path d="M90.6535 17.1048C92.4406 18.6104 93.8807 19.6195 95.0705 20.8672C95.7143 21.4321 96.2202 22.137 96.5493 22.9278C96.8783 23.7187 97.0218 24.5746 96.9687 25.4296C96.9156 26.2846 96.6673 27.1161 96.2429 27.8601C95.8185 28.6042 95.2293 29.2411 94.5206 29.7218C93.9543 30.2273 93.232 30.5235 92.474 30.5609C91.716 30.5982 90.9681 30.3746 90.355 29.9272C89.6978 29.2097 89.1713 28.3827 88.7993 27.4835C89.5132 27.3149 90.2532 27.2873 90.9776 27.4023C91.5207 27.7003 92.1596 27.7714 92.7549 27.6001C93.3502 27.4288 93.8537 27.029 94.1555 26.4879C94.5307 25.985 94.6926 25.3544 94.6059 24.7328C94.5192 24.1113 94.191 23.5491 93.6925 23.1681C92.3188 21.8618 90.7341 20.7804 89.3091 19.5239C88.2061 18.5514 86.7813 17.5301 88.1046 15.8096C89.3007 14.2543 92.8967 13.2187 94.016 14.0705C94.1395 14.2652 94.2143 14.4866 94.2343 14.7163C94.2542 14.9459 94.2187 15.177 94.1307 15.3901C93.0049 16.0268 91.844 16.5993 90.6535 17.1048V17.1048Z" fill="#95B5C2"/>
<path d="M111.686 23.8037C112.103 22.3276 112.674 20.8997 113.392 19.5438C114.113 18.5911 115.134 17.9082 116.29 17.6047C116.965 17.4038 117.903 18.0882 118.723 18.3752C118.215 18.8721 117.72 19.3823 117.198 19.8627C116.429 20.5692 115.368 21.1195 114.94 21.9874C114.678 22.9644 114.602 23.9817 114.715 24.9867C115.501 24.6274 116.276 24.242 117.075 23.9155C118.026 23.5271 119.635 22.6623 119.848 22.9209C120.697 24.114 121.369 25.4239 121.843 26.8098C121.449 27.138 120.999 27.3914 120.514 27.5575C118.91 25.7965 117.709 26.7371 116.049 27.7042C113.607 29.1268 111.411 27.3698 111.686 23.8037Z" fill="#95B5C2"/>
<path d="M124.006 28.2988C123.571 26.8171 123.294 25.294 123.177 23.7543C123.272 19.6571 123.604 15.5644 123.895 11.4737C123.934 10.7952 124.141 10.1371 124.497 9.55818C124.853 9.20161 125.335 9.0009 125.839 9.0002C126.025 8.9878 126.339 9.55731 126.436 9.90612C126.509 10.3083 126.518 10.7197 126.461 11.1246C126.135 16.4376 125.801 21.75 125.458 27.0618C125.385 27.4309 125.263 27.7889 125.097 28.1266L124.006 28.2988Z" fill="#95B5C2"/>
<path d="M83.1836 29.2539C82.7599 28.4867 82.0014 27.7329 81.9702 26.9501C81.8294 23.4114 81.8311 19.8623 81.9549 16.3231C81.9729 15.8085 82.9296 15.327 83.4521 14.8301C83.7486 15.3699 84.2929 15.9055 84.3021 16.4501C84.3736 20.6471 84.3414 24.8457 84.3414 29.0439L83.1836 29.2539Z" fill="#95B5C2"/>
<path d="M88.6416 7.93666C87.9513 8.57531 87.4079 9.37928 87.1048 9.29709C86.4234 8.98812 85.8004 8.56367 85.2635 8.04251C85.7196 7.4966 86.1545 6.53843 86.6376 6.51344C87.1908 6.48493 87.7868 7.28502 88.6416 7.93666Z" fill="#95B5C2"/>
<path d="M27.5664 22.3748C28.254 20.9952 29.0364 19.6649 29.9082 18.3937C30.1946 17.9135 30.6075 17.5213 31.1018 17.26C31.596 16.9987 32.1526 16.8784 32.7106 16.9123C33.2686 16.9462 33.8065 17.1329 34.2655 17.4521C34.7246 17.7712 35.0871 18.2105 35.3133 18.7219C36.325 20.7359 37.2129 22.8099 37.972 24.9321C38.7376 22.2904 39.1573 20.2222 39.9395 18.302C40.2268 17.3005 40.8728 16.4399 41.754 15.8844C42.6353 15.329 43.6901 15.1175 44.7172 15.2905C44.968 15.3389 45.2046 15.4431 45.4097 15.5953C45.6148 15.7476 45.783 15.9441 45.9018 16.1703C45.9325 16.4198 45.8988 16.6731 45.8037 16.9058C45.7087 17.1386 45.5555 17.3431 45.359 17.4998C40.8929 19.0317 41.2891 22.6797 41.2058 26.4439C43.434 26.2748 43.9942 24.745 44.7913 23.3611C45.2221 22.6132 46.0151 21.6054 46.6688 21.5873C47.3117 21.5697 48.1678 22.5451 48.6093 23.2785C49.7194 25.1226 50.6483 27.0758 51.7363 29.1501C48.8114 30.5634 48.3592 27.3597 46.739 26.4718C46.4954 26.5255 46.1768 26.4959 46.0224 26.6411C41.7377 30.6675 37.7349 29.921 35.1648 24.5805C34.9031 23.8051 34.5978 23.0452 34.2505 22.3043C33.7179 21.5891 33.1257 20.9205 32.48 20.3057C31.8223 20.9442 31.2315 21.6482 30.7168 22.4069C30.0623 23.6 29.7194 24.967 29.0425 26.1441C28.6843 26.7667 27.8847 27.5428 27.312 27.5213C26.9368 27.4326 26.5895 27.2521 26.3012 26.9961C26.0128 26.7401 25.7924 26.4166 25.6598 26.0544C24.9152 22.862 24.327 19.6298 23.8137 16.3909C23.7415 15.9362 24.3816 15.3685 24.6922 14.853C25.1663 15.2583 25.9148 15.5812 26.0653 16.0834C26.6295 17.9677 26.9988 19.9103 27.5664 22.3748Z" fill="#95B5C2"/>
<path d="M14.2639 24.1088C12.8469 23.9894 11.4292 23.8775 10.0131 23.7486C8.27286 23.5904 7.38117 24.3673 7.56826 26.1176C7.80041 28.2914 8.12122 30.4568 8.45117 32.6185C8.68484 33.4012 8.86022 34.2001 8.97584 35.0087C8.84447 35.6187 8.59726 36.1979 8.24762 36.7148C7.59354 36.3826 6.50014 36.1747 6.36451 35.6956C5.92728 33.9772 5.63023 32.2262 5.47628 30.4597C5.33487 29.0986 5.27365 27.7304 5.29298 26.3621C5.30181 24.6785 4.62999 23.808 2.85162 23.8844C2.17457 23.9676 1.48788 23.8539 0.873805 23.5567C0.611931 23.3719 0.396641 23.1287 0.244982 22.8462C0.0933241 22.5638 0.00945716 22.2499 1.41369e-05 21.9295C0.0741505 21.464 0.835058 20.888 1.38511 20.7625C2.71306 20.4595 4.49054 21.9878 5.37285 20.0401C5.78184 18.7371 6.0532 17.3949 6.18251 16.0354C7.23105 11.0708 8.82895 6.43719 14.1378 4.44257C15.4082 3.98852 16.7527 3.77803 18.1009 3.82215C18.5729 3.83387 19.0194 4.87556 19.4775 5.44701C18.9902 5.81663 18.5496 6.40817 18.0087 6.52157C15.1419 7.09369 12.5744 8.67311 10.7705 10.9743C8.96662 13.2754 8.04538 16.1464 8.17338 19.0679C8.27477 19.4785 8.46339 19.8624 8.72642 20.1934C8.98945 20.5245 9.32069 20.795 9.69761 20.9865C11.2805 21.6961 12.9006 22.3196 14.5508 22.8541L14.2639 24.1088Z" fill="#95B5C2"/>
<path d="M52.9554 -2.18286e-07C53.3284 0.574154 53.6048 1.20564 53.7736 1.86924C54.0499 5.53102 54.0002 9.23021 54.4829 12.8606C55.1973 18.2321 55.3891 23.7431 57.8784 28.7584C58.0905 29.1859 57.7657 29.8801 57.6902 30.4504C57.1201 30.1748 56.2635 30.0475 56.0308 29.5974C55.0164 27.9929 54.2752 26.231 53.8376 24.3837C52.8761 17.243 52.1651 10.0672 51.466 2.89418C51.5362 1.9094 51.7634 0.942151 52.1389 0.0291115L52.9554 -2.18286e-07Z" fill="#95B5C2"/>
<path d="M19.342 22.4847C19.5297 23.7088 19.8961 25.4362 20.0102 27.1801C20.0536 27.8444 19.518 28.5465 19.2462 29.2313C18.7314 28.7528 17.851 28.3323 17.7643 27.7859C17.3422 25.2547 17.0879 22.6984 17.0032 20.1337C17.0763 19.7224 17.254 19.3368 17.5192 19.0141C17.7845 18.6914 18.1283 18.4425 18.5176 18.2914C19.7962 18.1872 19.8246 19.3182 19.6479 20.3346C19.5552 20.8677 19.4939 21.4062 19.342 22.4847Z" fill="#95B5C2"/>
<path d="M21.7441 11.9924C20.9525 12.6308 20.4362 13.36 20.0311 13.3027C19.3751 13.2097 18.792 12.6006 18.1783 12.2095C18.6451 11.6802 19.0708 10.78 19.59 10.7224C20.1476 10.6606 20.7929 11.3902 21.7441 11.9924Z" fill="#95B5C2"/>
<path d="M148.777 25.6261C148.699 26.6752 148.686 27.6921 147.19 27.7751C146.881 27.7866 146.573 27.7423 146.284 27.6449C145.994 27.5474 145.73 27.3988 145.505 27.2077C145.28 27.0166 145.1 26.7869 144.975 26.5321C144.85 26.2773 144.783 26.0025 144.777 25.724C144.87 25.167 145.187 24.6605 145.669 24.3015C146.15 23.9425 146.761 23.7564 147.385 23.7786C148.787 23.8496 148.696 24.8318 148.777 25.6261Z" fill="#95B5C2"/>
<path d="M145.782 16.5181C144.957 15.8652 144.122 15.2852 144.891 13.9993C145.055 13.7372 145.264 13.5068 145.507 13.3217C145.75 13.1365 146.021 13.0004 146.305 12.9213C146.589 12.8421 146.881 12.8216 147.162 12.8609C147.443 12.9001 147.708 12.9984 147.942 13.1499C148.351 13.5387 148.593 14.0854 148.621 14.685C148.649 15.2847 148.46 15.8952 148.092 16.3996C147.248 17.5216 146.485 16.8961 145.782 16.5181Z" fill="#95B5C2"/>
</svg>
