<svg width="158" height="35" viewBox="0 0 158 35" fill="none" xmlns="http://www.w3.org/2000/svg">
<path d="M127.078 13.2749C126.823 11.6787 126.639 10.0672 126.295 8.49054C125.966 6.98417 124.957 6.84899 123.859 7.68619C122.594 8.63611 121.572 9.87129 120.874 11.2914C120.177 12.7114 119.825 14.2762 119.846 15.8582C119.836 16.3379 120.084 17.1546 120.396 17.2571C122.583 18.0115 124.813 18.6378 127.073 19.133C128.616 19.4468 128.746 18.0526 128.912 16.9897C129.458 13.4806 129.956 9.96414 130.468 6.44967C130.566 5.77336 130.585 5.08147 130.734 4.41759C130.762 4.14164 130.851 3.87524 130.993 3.63726C131.136 3.39928 131.329 3.19547 131.559 3.04026C131.789 2.88505 132.05 2.78217 132.323 2.73895C132.597 2.69573 132.877 2.71324 133.144 2.79014C134.638 3.09604 134.567 4.30003 134.275 5.39404C133.506 8.28217 132.573 11.1283 131.864 14.03C131.372 15.2913 131.296 16.6772 131.649 17.9845C132.135 18.8703 133.905 19.0366 135.086 19.5699C135.28 19.6574 135.358 19.9999 135.576 20.3708C134.196 21.0573 132.223 21.4064 131.61 22.5109C130.915 23.7632 131.442 25.6921 131.429 27.3268C131.425 27.7359 131.523 28.2364 131.328 28.533C131.004 29.0277 130.408 29.7835 130.058 29.7186C129.752 29.6276 129.474 29.4637 129.246 29.2411C129.018 29.0184 128.847 28.7437 128.749 28.4405C128.64 27.2169 128.617 25.9873 128.682 24.7606C128.662 23.6048 128.529 22.6446 126.949 22.5396C126.184 22.3287 125.502 21.8898 124.993 21.2813C124.422 20.6822 123.657 20.3062 122.834 20.2212C122.011 20.1362 121.185 20.3477 120.504 20.8175C119.853 21.2641 119.796 23.0655 119.989 24.1625C120.461 26.8441 121.19 29.4846 121.908 32.1166C122.201 33.1927 122.843 34.3388 121.261 34.7785C119.78 35.1899 119.385 33.8929 119.116 32.8669C118.598 30.8889 118.224 28.872 117.829 26.8638C117.591 25.6572 117.392 24.441 117.239 23.2211C117.095 22.0682 116.605 21.4732 115.355 21.7273C114.825 21.8352 114.144 22.0481 113.757 21.8238C113.098 21.461 112.576 20.8913 112.273 20.2027C112.164 19.8997 112.923 19.1972 113.397 18.8084C113.744 18.5846 114.158 18.4869 114.569 18.5317C116.576 18.6688 117.04 17.6016 117.185 15.7906C117.218 12.7497 118.282 9.81008 120.203 7.45353C120.818 6.71907 121.522 6.0634 122.297 5.50123C123.677 4.59048 125.445 3.49246 126.803 4.70449C127.826 5.91026 128.431 7.41512 128.526 8.99359C128.534 10.4443 128.347 11.8895 127.971 13.2906L127.078 13.2749Z" fill="#95B5C2"/>
<path d="M83.1689 29.2648C78.9588 29.9989 77.9215 26.7207 75.7663 24.8525C75.1019 25.6947 74.4834 26.5616 73.7794 27.3522C73.2502 27.9916 72.5386 28.4541 71.7396 28.6781C70.9406 28.9021 70.0923 28.8768 69.3081 28.6056C67.6492 28.0898 67.2187 26.6057 67.0692 25.0297C66.8163 23.001 67.2636 20.9468 68.3371 19.2072C69.4106 17.4677 71.0459 16.1472 72.9721 15.4643C73.4886 15.3554 73.9468 15.0599 74.2593 14.6343C74.5718 14.2087 74.7166 13.6829 74.666 13.1573C74.8949 10.3001 75.1171 7.43347 75.5771 4.60897C75.7206 3.72751 76.6262 2.27483 77.1664 2.28225C78.8526 2.30563 78.6951 3.8717 78.582 5.05765C78.2714 8.32072 77.9122 11.581 77.4815 14.8304C77.069 17.1293 77.2541 19.4957 78.0189 21.7024C78.7838 23.9092 80.1027 25.8822 81.8492 27.4322C82.3368 28.0073 82.778 28.6201 83.1689 29.2648V29.2648ZM69.6008 23.9196L70.7187 25.731C71.4317 25.2417 72.1824 24.7973 72.8398 24.2422C73.122 23.9479 73.3065 23.5735 73.3679 23.1703C73.6905 21.5942 75.2796 19.8597 73.385 18.4809C72.3979 17.7625 70.421 19.9243 69.8774 22.1932C69.7839 22.5832 69.7477 22.987 69.6008 23.9196Z" fill="#95B5C2"/>
<path d="M117.229 27.0834C115.217 27.7436 113.068 27.8781 110.989 27.4743C108.91 27.0705 106.968 26.1417 105.348 24.776C104.62 25.698 103.824 26.5648 102.968 27.369C102.557 27.7881 102.037 28.0846 101.468 28.2251C100.898 28.3657 100.301 28.3448 99.7422 28.1649C99.1837 27.985 98.6863 27.6531 98.3057 27.2064C97.9251 26.7597 97.6763 26.2158 97.5872 25.6356C96.8272 22.5893 99.9776 16.5076 102.941 15.3455C103.439 15.1502 104.097 14.8291 104.486 15.003C105.265 15.351 106.279 15.8676 106.528 16.5562C106.949 17.7227 105.935 18.0426 104.887 18.2925C103.681 18.4499 102.57 19.0298 101.751 19.9291C100.932 20.8284 100.458 21.9892 100.413 23.205C100.37 23.6403 100.754 24.1175 100.941 24.5754C101.382 24.3555 102.075 24.2395 102.217 23.8962C102.568 22.8679 102.861 21.8208 103.095 20.7597C103.666 18.7563 104.718 18.4692 106.253 19.8983C106.461 20.0769 106.64 20.2851 106.787 20.5162C107.612 21.8602 108.716 23.0118 110.023 23.8934C111.331 24.775 112.812 25.3662 114.367 25.6271C115.364 26.0225 116.323 26.51 117.229 27.0834V27.0834Z" fill="#95B5C2"/>
<path d="M137.964 30.2005C137.206 30.2236 136.447 30.1548 135.705 29.9953C135.143 29.6882 134.618 29.3182 134.14 28.8926C134.577 28.4495 134.943 27.7718 135.466 27.6113C136.657 27.3238 137.862 27.1033 139.077 26.9511C140.156 26.8014 141.222 26.5726 142.268 26.2666C144.768 25.405 145.08 23.9646 143.128 22.0772C142.193 21.2887 141.196 20.5773 140.146 19.9502C137.256 17.9553 136.216 16.2062 136.881 14.4415C137.558 12.6454 140.981 11.1645 143.612 11.5347C143.883 11.5284 144.152 11.5885 144.394 11.7097C144.782 12.031 145.336 12.4309 145.362 12.8284C145.327 13.0773 145.233 13.314 145.086 13.5184C144.94 13.7228 144.747 13.8887 144.523 14.002C143.922 14.2529 143.149 14.0773 142.532 14.3053C141.83 14.6324 141.16 15.0238 140.53 15.4746C140.856 16.1617 141.264 16.807 141.744 17.3965C143.12 18.4967 144.433 19.6738 145.676 20.922C148.317 24.1581 147.516 27.118 143.638 28.5906C141.622 29.3562 139.476 29.7813 137.964 30.2005Z" fill="#95B5C2"/>
<path d="M87.5777 21.8216C92.4271 15.5071 95.0702 14.7955 97.5742 19.3449C97.3849 19.5104 97.1591 19.8474 97.0111 19.8162C93.1306 18.9972 92.8099 19.1024 91.1437 22.6898C90.3423 24.4152 89.8515 26.2878 89.0107 27.9903C88.7946 28.3042 88.5182 28.5721 88.1975 28.7779C87.8768 28.9837 87.5183 29.1235 87.143 29.1892C86.8744 29.2437 86.1101 28.2697 86.0497 27.7123C85.5798 23.3873 85.1759 19.053 84.902 14.7119C84.8675 14.1668 85.7101 13.5665 86.1462 12.9917C86.6235 13.6624 87.4569 14.305 87.5121 15.0087C87.6888 17.2675 87.5777 19.5489 87.5777 21.8216Z" fill="#95B5C2"/>
<path d="M12.0118 2.60179C8.73713 5.06188 8.20885 8.49034 7.38422 11.7561C7.26318 12.4292 7.19622 13.1111 7.18397 13.7949C6.85231 17.685 6.85414 17.6766 10.7415 18.2194C11.3724 18.428 11.9832 18.6929 12.5666 19.0109C11.6219 19.607 10.6299 20.1249 9.60069 20.5592C6.48343 21.5097 6.43098 21.4713 6.57593 24.6657C6.65652 26.4388 6.88925 28.2054 7.07012 29.9733C7.13963 30.6527 7.26223 31.3266 7.34901 32.0044C7.48825 33.0911 7.78109 34.4073 6.27678 34.6333C4.72703 34.8659 4.66985 33.5581 4.5923 32.4322C4.4046 29.7052 4.09131 26.9811 4.04549 24.2521C4.0148 22.4187 3.73249 21.1119 1.64232 20.6056C0.945696 20.4367 -0.0839779 19.2633 0.00560353 18.7044C0.216482 17.3904 1.3861 17.265 2.59757 17.6756C3.10932 17.7854 3.63203 17.8358 4.15534 17.8259C4.57529 15.0772 4.92279 12.5097 5.36841 9.95927C5.77348 6.67539 7.20264 3.60274 9.45284 1.17771C9.86851 0.765046 10.3686 0.447366 10.9186 0.246371C11.4687 0.045377 12.0557 -0.0341437 12.6394 0.0133604C13.4998 0.237468 14.3242 1.61401 14.649 2.6456C15.0408 4.26648 15.3028 5.91603 15.4326 7.57855L14.3467 7.90973C13.6357 6.29317 12.9245 4.67672 12.0118 2.60179Z" fill="#95B5C2"/>
<path d="M54.6045 18.1817C53.9311 18.5235 53.2368 18.8223 52.5258 19.0765C48.0914 20.374 48.0822 20.3607 47.7291 24.9877C47.6356 26.2139 47.6668 27.4569 47.4677 28.6637C47.4082 29.0229 46.7015 29.5783 46.3958 29.5176C46.1583 29.4357 45.9455 29.2948 45.7774 29.1081C45.6093 28.9214 45.4913 28.6951 45.4346 28.4503C45.4667 26.1531 45.6407 23.8579 45.783 21.283C44.6212 21.5465 43.4429 21.7308 42.2562 21.8345C42.0022 21.7974 41.7619 21.6957 41.5583 21.5393C41.3547 21.3829 41.1945 21.1769 41.0931 20.941C41.1007 20.3169 41.2678 19.705 41.5785 19.1637C41.6632 19.0556 41.7706 18.9674 41.893 18.9052C42.0154 18.843 42.15 18.8083 42.2873 18.8037C45.9781 18.6041 46.1143 16.0796 45.8878 13.323C45.6752 10.7364 45.4395 8.15171 45.2222 5.56546C45.059 4.62683 45.0112 3.67178 45.0799 2.72153C45.1701 2.18842 45.8714 1.75864 46.2977 1.28223C46.7625 1.7352 47.5586 2.13899 47.6341 2.6496C47.9535 4.80923 48.1025 6.9983 48.2285 9.18141C48.339 11.0936 48.413 13.0143 48.3598 14.9275C48.3104 16.7078 49.0211 17.4111 50.8001 17.2399C52.0012 17.1243 53.2225 17.2178 54.4347 17.2178L54.6045 18.1817Z" fill="#95B5C2"/>
<path d="M35.4069 16.6756C36.6368 17.6489 37.6509 18.3422 38.5371 19.172C42.0939 22.5032 41.5005 26.6514 37.1183 28.742C35.7705 29.3815 34.3349 29.8162 32.8589 30.0318C32.3514 30.1049 31.7041 29.208 31.1206 28.7541C31.5572 28.312 31.9171 27.6782 32.446 27.466C33.7034 26.9617 35.123 26.8248 36.3274 26.2342C38.4118 25.2119 38.7506 23.6587 37.1717 21.9589C36.0184 21.017 34.8158 20.1371 33.5691 19.3228C32.701 18.5744 31.2801 17.333 31.4667 16.7392C31.8182 15.6214 33.1234 14.7809 34.0969 13.8965C34.258 13.769 34.4435 13.6756 34.6419 13.6221C34.8404 13.5685 35.0476 13.556 35.2511 13.5852C35.9692 13.7739 36.673 14.0134 37.3572 14.3019C36.9995 14.8214 36.6555 15.3512 36.2777 15.8556C36.0061 16.1481 35.7152 16.422 35.4069 16.6756Z" fill="#95B5C2"/>
<path d="M22.1403 19.2887C24.9019 22.5872 25.2851 20.3378 26.141 19.2709C26.5387 18.7161 27.0209 18.2271 27.5701 17.822C27.7803 17.6778 28.0203 17.583 28.2722 17.5447C28.5242 17.5063 28.7815 17.5254 29.0251 17.6004C29.2076 17.7832 29.3401 18.0099 29.4099 18.2587C29.4796 18.5075 29.4842 18.7701 29.4233 19.0212C27.9386 21.9413 26.4199 24.8497 24.758 27.6713C24.0443 28.8829 22.5333 28.8011 22.2387 27.5709C21.8153 25.5806 21.5509 23.5597 21.4478 21.5274C21.5588 20.7492 21.7926 19.9936 22.1403 19.2887V19.2887Z" fill="#95B5C2"/>
<path d="M14.5324 24.3629C15.3205 22.7268 16.0923 21.0443 16.9604 19.4131C17.0986 19.2831 17.2672 19.1899 17.4508 19.142C17.6343 19.0942 17.827 19.0933 18.011 19.1393C18.3345 19.4383 18.7142 20.058 18.602 20.3857C17.7123 22.5486 17.5633 24.9453 18.1783 27.2018C18.2727 27.5031 17.774 28.2453 17.4109 28.3672C17.1639 28.4276 16.9057 28.4254 16.6598 28.3609C16.4139 28.2963 16.188 28.1714 16.0025 27.9975C15.4407 26.8163 14.9499 25.6025 14.5324 24.3629V24.3629Z" fill="#95B5C2"/>
<path d="M19.6973 12.7915C18.525 13.6585 17.8884 14.4301 17.1337 14.5719C16.7 14.6533 16.0749 13.7139 15.536 13.2341C16.1459 12.658 16.8357 12.173 17.5842 11.7941C17.9688 11.6585 18.609 12.2482 19.6973 12.7915Z" fill="#95B5C2"/>
<path d="M157 25.8492C156.921 26.8984 156.909 27.9152 155.413 27.9982C155.104 28.0097 154.796 27.9655 154.506 27.868C154.217 27.7706 153.952 27.6219 153.727 27.4308C153.503 27.2397 153.323 27.01 153.198 26.7552C153.073 26.5004 153.005 26.2257 153 25.9471C153.093 25.3902 153.41 24.8836 153.891 24.5246C154.372 24.1657 154.984 23.9795 155.607 24.0018C157.01 24.0727 156.919 25.0549 157 25.8492Z" fill="#95B5C2"/>
<path d="M154.005 16.7413C153.18 16.0883 152.344 15.5084 153.114 14.2224C153.277 13.9603 153.487 13.7299 153.729 13.5448C153.972 13.3597 154.244 13.2235 154.528 13.1444C154.812 13.0653 155.103 13.0447 155.384 13.084C155.665 13.1233 155.931 13.2215 156.164 13.3731C156.574 13.7619 156.816 14.3085 156.843 14.9082C156.871 15.5079 156.683 16.1184 156.315 16.6227C155.471 17.7447 154.708 17.1192 154.005 16.7413Z" fill="#95B5C2"/>
</svg>
