<svg width="431" height="372" viewBox="0 0 431 372" fill="none" xmlns="http://www.w3.org/2000/svg">
<path d="M255.863 210.51C258.197 206.644 263.803 206.644 266.137 210.51L295.344 258.899C297.758 262.898 294.878 268 290.207 268H231.793C227.122 268 224.242 262.898 226.656 258.899L255.863 210.51Z" fill="#FE7F2D"/>
<path d="M280.198 49H180.534C170.153 49 166 56.256 166 64.5487C166 72.8413 166 290.522 166 301.925C166 306.44 167.465 310.305 169.622 313.327M280.198 49C284.74 49.5668 292.656 51.0732 297.847 58.3292C299.924 61.2316 302 63.5121 302 72.8413C302 83.2587 302 305.034 302 308.144C302 313.327 295.771 323.693 282.275 323.693C248.707 324.384 188.352 323.693 185.725 323.693C183.649 323.693 176.359 324.729 169.622 313.327M280.198 49C291.826 49 296.809 59.3658 297.847 64.5487L297.847 301.925C297.847 316.437 285.389 319.547 276.046 319.547H181.573C177.81 319.547 172.912 317.936 169.622 313.327" stroke="#071A22" stroke-width="2"/>
<path d="M282 80H182C178.686 80 176 82.6863 176 86V284C176 287.314 178.686 290 182 290H282C285.314 290 288 287.314 288 284V86C288 82.6863 285.314 80 282 80Z" stroke="#071A22" stroke-width="2"/>
<circle cx="232.5" cy="304.5" r="9.5" stroke="#071A22" stroke-width="2"/>
<path d="M257 64C257 65.5494 255.547 67 253.5 67C251.453 67 250 65.5494 250 64C250 62.4506 251.453 61 253.5 61C255.547 61 257 62.4506 257 64Z" stroke="#071A22" stroke-width="2"/>
<rect x="217" y="61" width="25" height="4" rx="2" stroke="#071A22" stroke-width="2"/>
<path d="M94 171.666C104.513 174.198 126.283 180.992 147.64 171.666C166.21 163.558 190.601 167.098 210.219 174.064C229.837 181.031 251.442 174.064 280 169.002" stroke="#071A22" stroke-width="2" stroke-linecap="round"/>
<circle cx="105" cy="161" r="1" fill="#071A22"/>
<circle cx="102" cy="188" r="1" fill="#071A22"/>
<path d="M105 164C105 170.789 104.667 177.2 103 186" stroke="#071A22" stroke-width="2" stroke-linecap="round"/>
<circle cx="130" cy="163" r="1" fill="#071A22"/>
<circle cx="127" cy="190" r="1" fill="#071A22"/>
<path d="M130 166C130 172.789 129.667 179.2 128 188" stroke="#071A22" stroke-width="2" stroke-linecap="round"/>
<circle cx="156" cy="158" r="1" fill="#071A22"/>
<circle cx="153" cy="185" r="1" fill="#071A22"/>
<path d="M156 161C156 167.789 155.667 174.2 154 183" stroke="#071A22" stroke-width="2" stroke-linecap="round"/>
<circle cx="186" cy="157" r="1" fill="#071A22"/>
<circle cx="183" cy="184" r="1" fill="#071A22"/>
<path d="M186 160C186 166.789 185.667 173.2 184 182" stroke="#071A22" stroke-width="2" stroke-linecap="round"/>
<circle cx="216" cy="161" r="1" fill="#071A22"/>
<circle cx="213" cy="188" r="1" fill="#071A22"/>
<path d="M216 164C216 170.789 215.667 177.2 214 186" stroke="#071A22" stroke-width="2" stroke-linecap="round"/>
<circle cx="245" cy="160" r="1" fill="#071A22"/>
<circle cx="242" cy="187" r="1" fill="#071A22"/>
<path d="M245 163C245 169.789 244.667 176.2 243 185" stroke="#071A22" stroke-width="2" stroke-linecap="round"/>
<circle cx="272" cy="157" r="1" fill="#071A22"/>
<circle cx="269" cy="184" r="1" fill="#071A22"/>
<path d="M272 160C272 166.789 271.667 173.2 270 182" stroke="#071A22" stroke-width="2" stroke-linecap="round"/>
<rect x="263" y="232" width="1" height="15" rx="0.5" stroke="#071A22" stroke-width="2"/>
<circle cx="263.5" cy="252.5" r="0.5" fill="#071A22" stroke="#071A22" stroke-width="2"/>
<path fill-rule="evenodd" clip-rule="evenodd" d="M231.164 262.938C230.131 262.42 229.643 261.083 230.297 259.977L261.039 208.032C261.853 206.656 263.84 206.656 264.654 208.032L295.396 259.977C295.486 260.129 295.554 260.285 295.603 260.443L296.635 262.154L296.763 262.345C297.483 263.542 296.481 265 294.89 265H233.255C231.921 265 231.002 263.975 231.164 262.938ZM264.052 208.39L294.793 260.335C295.347 261.271 294.674 262.455 293.588 262.455C293.588 262.455 232.448 262.455 232.119 262.455C231.79 262.455 231.554 262.345 231.554 262.345C230.814 262.029 230.447 261.099 230.9 260.335L261.641 208.39C262.184 207.473 263.509 207.473 264.052 208.39ZM231.849 263.142C231.827 263.789 232.419 264.393 233.255 264.393H294.89C295.917 264.393 296.575 263.482 296.181 262.7L295.587 261.705C295.318 262.519 294.565 263.157 293.588 263.157H232.105C232.018 263.157 231.933 263.152 231.849 263.142Z" fill="#071A22" stroke="#071A22"/>
</svg>
