<svg width="433" height="373" viewBox="0 0 433 373" fill="none" xmlns="http://www.w3.org/2000/svg">
<path d="M270.209 110.038C270.209 182.613 202.007 263.731 129.311 263.731C56.6146 263.731 0 225.645 0 153.07C0 80.4945 41.7132 20.2724 129.311 0.912694C202.077 -7.02739 270.209 37.4625 270.209 110.038Z" fill="#FCCA46"/>
<path d="M270.209 110.038C270.209 182.613 202.007 263.731 129.311 263.731C56.6146 263.731 0 225.645 0 153.07C0 80.4945 41.7132 20.2724 129.311 0.912694C202.077 -7.02739 270.209 37.4625 270.209 110.038Z" fill="url(#paint0_radial_335_435)" fill-opacity="0.2"/>
<rect x="280.388" y="245.224" width="56.4478" height="116.597" rx="2" fill="#9EEEAF"/>
<path d="M121.857 146.396C120.282 146.788 118.953 147.822 118.953 149.316C118.953 165.373 118.464 191.13 121.138 195.298C128.631 206.976 143.72 209.166 149.547 215.735C155.375 222.304 149.095 309.65 155.375 324.122C161.995 339.375 180.004 338.237 187.25 312.511C195.291 283.959 201.705 257.275 206.816 248.537C212.277 239.203 228.317 239.658 232.299 255.595C236.622 272.897 238.442 304.998 247.315 315.243C253.059 321.874 261.602 321.065 267.11 310.462C272.115 301.811 278.287 287.189 282.581 281.549C289.862 271.987 297.071 276.312 301.238 282.915C307.764 293.254 315.745 311.002 320.805 316.381C330.441 326.626 343.785 325.715 357.664 316.837C369.495 309.268 376.321 300.346 383.146 289.062C389.972 277.777 394.007 270.848 396.115 266.067M121.857 146.396C121.857 125.23 124.78 91.3234 132.065 80.707C138.859 70.8043 145.177 66.8396 151.004 63.1902M121.857 146.396C122.771 146.168 123.769 146.156 124.637 146.396M154.646 61.73C155.121 61.5184 153.189 62.3199 154.646 61.73ZM154.646 61.73C160.982 59.4002 170.155 58.8105 172.857 58.8105M154.646 61.73C152.461 60.2708 147.362 58.0811 139.349 57.3513C131.336 56.6214 130.365 57.1079 130.608 57.3512M154.646 61.73C153.65 62.1738 152.063 62.6584 151.004 63.1902M172.857 58.8105C173.586 57.1076 177.228 53.701 181.598 52.9719C186.252 52.1957 191.984 53.6038 193.62 54.4317M172.857 58.8105C172.614 59.7837 172.734 61.5101 174.314 62.4601M192.938 63.9198C194.656 62.8866 195.44 61.3103 195.44 59.1207C195.44 57.6609 195.257 55.2597 193.62 54.4317M192.938 63.9198C189.296 66.1095 178.685 65.0876 174.314 62.4601M192.938 63.9198C190.024 61.7305 191.345 54.4317 193.62 54.4317M174.314 62.4601C172.129 61.9733 166.46 61.916 162.659 62.4601C161.609 62.6104 158.666 63.5901 157.56 63.9198M124.637 146.396C125.948 146.757 126.966 147.69 126.966 149.316C126.966 156.615 126.198 185.42 127.694 190.919C129.88 198.948 141.535 204.057 155.375 204.057C167.758 204.057 177.228 196.758 179.413 190.919C181.257 185.991 181.598 156.615 181.598 149.316C181.598 147.481 182.542 146.193 183.784 145.564M124.637 146.396C125.509 125.23 128.422 96.0345 132.793 85.8162C134.978 80.707 140.077 74.868 145.905 70.4887C148.85 68.2755 151.067 66.7532 153.918 65.3799M183.784 145.564C181.598 123.04 175.042 95.3049 170.672 85.8162C167.646 79.2476 167.03 77.0579 161.202 71.2189C159.017 69.0295 154.646 65.9725 153.918 65.3799M183.784 145.564C184.681 145.11 185.734 145 186.697 145.278M153.918 65.3799C155.546 64.5955 156.01 64.3819 157.56 63.9198M157.56 63.9198C162.659 66.1097 168.632 72.8246 172.129 79.2476C176.499 87.2762 185.241 121.581 186.697 145.278M186.697 145.278C188.15 145.696 189.4 146.993 189.611 149.316C190.34 157.344 188.883 187.269 186.697 195.298C184.731 202.524 161.859 210.625 160.402 215.735C158.68 221.772 156.534 298.168 158.354 312.511C159.673 322.9 164.042 331.123 173.371 325.715C183.582 319.796 188.615 277.906 200.901 249.676C207.58 234.328 221.833 231.69 232.299 245.122C242.765 258.555 240.945 313.422 255.051 314.332C267.119 315.111 273.481 270.848 291.682 270.848C303.969 270.848 311.249 293.842 318.985 306.364C330.237 324.577 341.897 320.024 353.568 313.877C361.987 309.443 369.723 301.128 377.003 290.655C384.284 280.183 388.597 271.736 392.702 264.474M130.608 57.3512C131.336 58.811 131.52 60.467 130.608 61.14M130.608 57.3512C130.122 55.8914 127.111 52.9719 118.953 52.9719C116.143 52.9719 113.713 53.5525 112.396 54.4318M130.608 61.14C130.154 61.4748 134.747 60.2708 138.62 60.2708C142.263 60.2708 149.375 61.7236 151.004 63.1902M130.608 61.14C128.422 63.9198 122.595 65.3799 119.681 65.3799C117.63 65.3799 114.857 65.3799 112.887 64.3613M112.396 54.4318C108.935 56.7435 110.272 61.1224 110.94 62.4601C111.371 63.3245 112.058 63.933 112.887 64.3613M112.396 54.4318C114.82 53.7023 115.31 63.1903 112.887 64.3613M396.115 254.684C392.702 251.497 389.745 246.033 389.745 233.739C389.745 218.979 393.385 211.656 396.798 211.2C400.211 210.745 402.168 212.566 403.623 216.437M396.115 254.684C399.073 256.278 401.803 255.14 403.623 252.408M396.115 254.684C396.479 255.503 395.435 259.639 392.702 264.474M406.126 224.322C409.708 224.322 409.04 224.322 413.407 224.322C415 224.322 417.502 229.186 417.502 233.739C417.502 238.292 415.455 242.39 413.407 243.185H406.126M406.126 224.322C405.707 221.673 404.308 218.258 403.623 216.437M406.126 224.322C407.112 230.552 407.491 236.695 406.126 243.185M406.126 243.185C405.767 244.895 404.989 250.359 403.623 252.408M415 270.165C423.19 270.165 426.831 257.644 427.968 248.765C429.106 239.886 429.333 225.316 427.968 217.575C426.529 209.414 421.37 197.768 415 197.768M415 270.165C410.677 270.165 405.216 261.514 403.623 252.408M415 270.165C416.971 270.165 418.796 270.405 420.233 270.165C424.328 269.482 428.651 261.059 430.016 252.408C431.309 244.212 432.247 223.424 429.106 212.566C426.603 203.915 421.825 198.223 419.322 197.768H415M415 197.768C409.767 197.768 403.623 209.379 403.623 216.437M403.623 252.408C402.031 255.519 398.223 261.287 396.115 266.067M396.115 266.067L392.702 264.474" stroke="#030E12" stroke-width="2"/>
<path d="M332.038 228.567H280.499C275.131 228.567 272.983 232.352 272.983 236.677C272.983 241.002 272.983 354.539 272.983 360.486C272.983 362.841 273.741 364.857 274.856 366.434M332.038 228.567C334.386 228.863 338.48 229.649 341.164 233.433C342.238 234.947 343.312 236.137 343.312 241.002C343.312 246.436 343.312 362.108 343.312 363.73C343.312 366.434 340.09 371.84 333.111 371.84C315.753 372.2 284.542 371.84 283.183 371.84C282.11 371.84 278.34 372.381 274.856 366.434M332.038 228.567C338.05 228.567 340.627 233.974 341.164 236.677L341.164 360.486C341.164 368.055 334.722 369.677 329.89 369.677H281.036C279.09 369.677 276.557 368.837 274.856 366.434" stroke="#030E12" stroke-width="2"/>
<path d="M330.834 245.224H284.535C281.222 245.224 278.535 247.91 278.535 251.224V349.343C278.535 352.657 281.222 355.343 284.535 355.343H330.834C334.148 355.343 336.834 352.657 336.834 349.343V251.224C336.834 247.91 334.148 245.224 330.834 245.224Z" stroke="#030E12" stroke-width="2"/>
<circle cx="307.222" cy="361.821" r="4.55224" stroke="#030E12" stroke-width="2"/>
<circle cx="317.864" cy="236.433" r="1.31343" stroke="#030E12" stroke-width="2"/>
<rect x="299.819" y="235.97" width="12.0299" height="1.85075" rx="0.925373" stroke="#030E12" stroke-width="1.85075"/>
<defs>
<radialGradient id="paint0_radial_335_435" cx="0" cy="0" r="1" gradientUnits="userSpaceOnUse" gradientTransform="translate(210.42 77.1856) rotate(91.3662) scale(213.832 219.084)">
<stop stop-color="#FCF5B4"/>
<stop offset="1" stop-color="#E0F464" stop-opacity="0"/>
</radialGradient>
</defs>
</svg>
