<svg width="431" height="372" viewBox="0 0 431 372" fill="none" xmlns="http://www.w3.org/2000/svg">
<path d="M379 166.057C379 234.028 310.346 310 237.168 310C163.99 310 107 274.33 107 206.359C107 138.388 148.99 81.9863 237.168 63.8548C310.417 56.4184 379 98.0859 379 166.057Z" fill="#FCCA46"/>
<path d="M379 166.057C379 234.028 310.346 310 237.168 310C163.99 310 107 274.33 107 206.359C107 138.388 148.99 81.9863 237.168 63.8548C310.417 56.4184 379 98.0859 379 166.057Z" fill="url(#paint0_radial_342_2875)" fill-opacity="0.2"/>
<path fill-rule="evenodd" clip-rule="evenodd" d="M204.707 183.264L168.86 147.683C159.713 138.605 159.713 123.887 168.86 114.809C178.006 105.73 192.835 105.73 201.981 114.809L205.361 118.163L208.741 114.809C216.099 107.505 227.134 106.078 235.929 110.524C238.014 111.578 239.972 112.961 241.726 114.674C246.939 119.045 249.614 125.467 249.961 131.904C250.326 138.663 248.128 145.497 243.535 150.056L207.408 186L204.707 183.264ZM169.536 115.48C178.309 106.772 192.532 106.772 201.305 115.48L205.361 119.505L209.417 115.48C216.474 108.475 227.058 107.105 235.495 111.37C237.232 112.247 238.877 113.364 240.383 114.72L241.187 115.48C241.222 115.514 241.152 115.445 241.187 115.48C249.96 124.187 249.96 138.305 241.187 147.013L205.361 182.571L169.536 147.013C160.763 138.305 160.763 124.187 169.536 115.48ZM248.515 128.15C249.448 135.083 247.231 142.355 241.863 147.683L206.009 183.27L207.407 184.657L242.859 149.385L242.859 149.385C247.226 145.05 249.359 138.496 249.006 131.955C248.938 130.678 248.774 129.404 248.515 128.15Z" fill="#071A22"/>
<path d="M241.187 115.48L240.383 114.72C238.877 113.364 237.232 112.247 235.495 111.37C227.058 107.105 216.474 108.475 209.417 115.48L205.361 119.505L201.305 115.48C192.532 106.772 178.309 106.772 169.536 115.48C160.763 124.187 160.763 138.305 169.536 147.013L205.361 182.571L241.187 147.013C249.96 138.305 249.96 124.187 241.187 115.48ZM241.187 115.48C241.152 115.445 241.222 115.514 241.187 115.48ZM248.515 128.15C249.448 135.083 247.231 142.355 241.863 147.683L206.009 183.27L207.407 184.657L242.859 149.385L242.859 149.385C247.226 145.05 249.359 138.496 249.006 131.955C248.938 130.678 248.774 129.404 248.515 128.15ZM204.707 183.264L168.86 147.683C159.713 138.605 159.713 123.887 168.86 114.809C178.006 105.73 192.835 105.73 201.981 114.809L205.361 118.163L208.741 114.809C216.099 107.505 227.134 106.078 235.929 110.524C238.014 111.578 239.972 112.961 241.726 114.674C246.939 119.045 249.614 125.467 249.961 131.904C250.326 138.663 248.128 145.497 243.535 150.056L207.408 186L204.707 183.264Z" stroke="#071A22"/>
<path d="M177 138.587H187.718L192.513 148.913L196.462 127.446L200.41 138.587L202.667 144.837L204.359 138.587H212.256L216.487 125L221.564 150L224.103 138.587H232" stroke="#071A22" stroke-width="2"/>
<rect x="70" y="62" width="273" height="162" rx="5" stroke="#071A22" stroke-width="2"/>
<rect x="80" y="69" width="252" height="149" rx="5" stroke="#071A22" stroke-width="2"/>
<path fill-rule="evenodd" clip-rule="evenodd" d="M176.449 225L179.178 225L230.933 225L233.751 225L234.228 225C234.068 225 233.911 225.031 233.755 225.09C233.153 225.321 232.586 225.987 232.062 227C227.96 234.925 226.479 264.075 231.362 272C232.148 273.274 233.098 274 234.228 274H270C273.314 274 276 276.686 276 280C276 283.314 273.314 286 270 286H141C137.686 286 135 283.314 135 280C135 276.686 137.686 274 141 274H175.932C177.18 274 178.213 273.274 179.056 272C184.298 264.075 182.157 234.925 178.046 227C177.538 226.021 177.001 225.366 176.443 225.115C176.274 225.039 176.104 225 175.932 225C175.277 225 175.513 225 176.449 225ZM226.966 227L229.854 227C229.234 228.445 228.71 230.241 228.268 232.22C227.206 236.972 226.526 243.23 226.344 249.441C226.161 255.643 226.47 261.938 227.449 266.743C227.848 268.703 228.378 270.516 229.09 272H229.038H228.913H228.786H228.658H228.529H228.399H228.268H228.136H228.002H227.868H227.733H227.597H227.46H227.322H227.183H227.042H226.901H226.759H226.617H226.473H226.328H226.182H226.035H225.888H225.74H225.59H225.44H225.289H225.137H224.984H224.83H224.676H224.521H224.364H224.208H224.05H223.891H223.732H223.572H223.411H223.249H223.086H222.923H222.759H222.594H222.429H222.263H222.096H221.928H221.76H221.591H221.421H221.251H221.08H220.908H220.736H220.562H220.389H220.215H220.04H219.864H219.688H219.511H219.334H219.156H218.977H218.798H218.619H218.439H218.258H218.077H217.895H217.713H217.53H217.346H217.163H216.978H216.793H216.608H216.422H216.236H216.05H215.862H215.675H215.487H215.299H215.11H214.921H214.731H214.541H214.351H214.16H213.969H213.777H213.586H213.393H213.201H213.008H212.815H212.622H212.428H212.234H212.04H211.845H211.65H211.455H211.26H211.064H210.868H210.672H210.476H210.279H210.082H209.885H209.688H209.491H209.293H209.096H208.898H208.7H208.502H208.304H208.105H207.907H207.708H207.509H207.31H207.111H206.912H206.713H206.514H206.315H206.116H205.916H205.717H205.518H205.318H205.119H204.919H204.72H204.521H204.321H204.122H203.923H203.723H203.524H203.325H203.126H202.927H202.728H202.529H202.33H202.131H201.933H201.735H201.536H201.338H201.14H200.942H200.744H200.547H200.35H200.152H199.955H199.759H199.562H199.366H199.17H198.974H198.778H198.582H198.387H198.192H197.998H197.803H197.609H197.416H197.222H197.029H196.836H196.643H196.451H196.259H196.068H195.877H195.686H195.495H195.305H195.116H194.926H194.738H194.549H194.361H194.173H193.986H193.8H193.613H193.427H193.242H193.057H192.873H192.689H192.505H192.323H192.14H191.958H191.777H191.596H191.416H191.236H191.057H190.878H190.7H190.523H190.346H190.17H189.994H189.819H189.645H189.471H189.298H189.125H188.953H188.782H188.612H188.442H188.273H188.104H187.936H187.769H187.603H187.437H187.272H187.108H186.945H186.782H186.62H186.459H186.299H186.139H185.981H185.823H185.666H185.509H185.354H185.199H185.045H184.892H184.74H184.589H184.439H184.289H184.14H183.993H183.846H183.7H183.555H183.411H183.268H183.126H182.985H182.844H182.705H182.567H182.429H182.293H182.158H182.023H181.89H181.758H181.626H181.496H181.367H181.362C182.115 270.511 182.665 268.7 183.07 266.751C184.074 261.928 184.32 255.617 184.056 249.415C183.792 243.199 183.01 236.943 181.888 232.196C181.421 230.222 180.879 228.436 180.257 227L183.375 227L205.2 227L226.966 227ZM141 276H270C272.209 276 274 277.791 274 280C274 282.209 272.209 284 270 284H141C138.791 284 137 282.209 137 280C137 277.791 138.791 276 141 276Z" fill="#071A22"/>
<defs>
<radialGradient id="paint0_radial_342_2875" cx="0" cy="0" r="1" gradientUnits="userSpaceOnUse" gradientTransform="translate(318.815 135.289) rotate(102.386) scale(243.888 268.549)">
<stop stop-color="#F4CA5E"/>
<stop offset="1" stop-color="#FDDA60" stop-opacity="0"/>
</radialGradient>
</defs>
</svg>
