<svg width="432" height="372" viewBox="0 0 432 372" fill="none" xmlns="http://www.w3.org/2000/svg">
<path d="M212 137C212 129.82 217.82 124 225 124H282C289.18 124 295 129.82 295 137V254C295 261.18 289.18 267 282 267H225C217.82 267 212 261.18 212 254V137Z" fill="#9EEEAF"/>
<path d="M212 137C212 129.82 217.82 124 225 124H282C289.18 124 295 129.82 295 137V254C295 261.18 289.18 267 282 267H225C217.82 267 212 261.18 212 254V137Z" fill="url(#paint0_radial_335_533)" fill-opacity="0.25"/>
<path d="M211.203 151.056C211.57 143.133 221.073 141.382 224.746 141.612C238.059 140 261.567 140 266.752 140H266.752C272.491 140 278 145.067 278 151.056V232.134C278 242.96 273.409 247.567 268.589 249.409C263.768 251.252 229.337 248.258 220.614 247.567C213.636 247.014 211.432 239.505 211.203 235.82C211.05 210.867 210.836 158.98 211.203 151.056Z" stroke="#071A22" stroke-width="2"/>
<path d="M213.826 138.328C217.333 134.719 221.559 132.33 223.799 132.468C239.253 130.633 266.42 129.454 272.269 130.862C278.942 132.468 285.615 143.308 285.615 150.125C285.615 154.844 285.615 223.183 285.615 235.506C285.615 247.828 276.714 252.368 271.119 254.466C265.524 256.563 232.004 254.106 221.879 253.319C220.317 253.198 218.854 252.616 217.507 251.727M213.826 138.328C210.659 141.587 208.079 145.84 208.079 150.125C208.079 159.154 207.901 207.103 208.079 235.506C208.294 238.891 211.875 248.006 217.507 251.727M213.826 138.328C214.569 136.298 219.49 131.35 225.791 129.257M225.791 129.257C234.074 126.505 271.914 126.734 273.88 126.734C279.172 126.734 285.615 128.34 286.995 132.468C288.759 137.742 292.057 140.952 295.279 142.328C296.84 142.995 298.03 142.18 298.06 140.952M225.791 129.257C229.089 126.581 236.467 119.992 239.596 115.039C243.508 108.847 250.181 101.05 261.225 96.0052C272.269 90.9601 293.668 85.2271 319.899 87.5203C346.129 89.8135 364.306 110.546 372.82 138.328C384.094 175.121 382.254 243 366.147 267.996C351.214 291.171 331.863 299.713 299.88 298.954C267.898 298.195 250.641 283.819 245.119 278.086C239.596 272.353 229.702 258.64 225.791 256.976M299.88 278.086C301.721 280.15 322.452 300.568 353.722 267.996C377.118 243.626 368.6 157.109 362.005 138.328C357.173 124.568 337.984 92.7567 316.447 98.069C307.4 100.301 303.578 104.606 299.88 108.54M299.88 278.086C298.04 276.022 292.057 265.932 291.597 259.969C291.348 256.736 294.358 249.65 296.199 247.815M299.88 278.086C317.598 267.766 325.881 235.506 326.801 182.688C327.538 140.434 309.161 115.65 299.88 108.54M296.199 247.815C298.04 245.981 296.226 240.018 291.597 247.357C286.535 255.383 285.615 256.988 279.172 258.823C274.34 260.199 236.835 258.823 230.853 257.906C229.176 257.648 227.509 257.454 225.791 256.976M296.199 247.815C298.27 245.522 301.261 238.643 301.045 232.68C300.964 230.421 301.045 195.506 301.045 178.331M217.507 251.727C220.52 254.9 223.213 256.258 225.791 256.976M299.88 108.54C292.468 116.427 291.444 124.898 291.137 126.734C290.447 130.862 294.078 136.626 296.429 138.328C297.608 139.181 298.079 140.154 298.06 140.952M306.783 165.719C307.086 171.444 304.252 176.038 301.261 176.267C298.27 176.497 294.128 173.515 294.128 167.324C294.128 160.292 297.503 157.616 300.341 157.004C303.178 156.393 306.149 160.911 306.783 165.719ZM306.783 165.719C307.098 171.684 304.933 175.285 302.872 177.037M306.783 165.719C306.425 158.928 303.591 156.46 301.261 155.591M299.42 155.17C297.119 154.954 292.057 159.068 292.057 166.865C292.057 176.267 298.27 178.561 300.341 178.331C300.994 178.259 301.922 177.844 302.872 177.037M299.42 155.17C297.119 154.954 294.957 154.986 293.668 155.17C292.057 155.399 289.526 157.922 288.606 160.444C287.686 162.967 287.031 170.993 289.296 174.662C291.562 178.331 293.898 179.478 296.659 179.478C298.33 179.478 299.859 178.966 301.045 178.331M299.42 155.17C299.941 155.219 300.579 155.336 301.261 155.591M302.872 177.037C302.447 177.449 301.82 177.916 301.045 178.331M298.06 140.952C299.127 143.067 301.261 148.956 301.261 155.591M297.58 195.989C294.731 195.232 292.44 198.294 292.057 204.015C291.597 210.895 291.597 221.673 291.597 223.507C291.597 227.406 292.694 231.075 296.199 231.075C301.491 231.075 300.341 212.5 300.341 206.538C300.341 201.768 300.428 196.746 297.58 195.989Z" stroke="#071A22" stroke-width="2"/>
<rect x="155" y="159" width="3" height="66" rx="1.5" stroke="#071A22" stroke-width="2"/>
<rect x="162" y="166" width="3" height="51" rx="1.5" stroke="#071A22" stroke-width="2"/>
<rect x="169" y="160" width="3" height="63" rx="1.5" stroke="#071A22" stroke-width="2"/>
<rect x="176" y="158" width="3" height="69" rx="1.5" stroke="#071A22" stroke-width="2"/>
<rect x="183" y="153" width="3" height="78" rx="1.5" stroke="#071A22" stroke-width="2"/>
<rect x="191" y="165" width="3" height="54" rx="1.5" stroke="#071A22" stroke-width="2"/>
<rect x="198" y="159" width="3" height="66" rx="1.5" stroke="#071A22" stroke-width="2"/>
<rect x="205" y="161" width="3" height="62" rx="1.5" stroke="#071A22" stroke-width="2"/>
<rect x="212" y="161" width="3" height="66" rx="1.5" stroke="#071A22" stroke-width="2"/>
<rect x="219" y="168" width="3" height="51" rx="1.5" stroke="#071A22" stroke-width="2"/>
<rect x="226" y="162" width="3" height="63" rx="1.5" stroke="#071A22" stroke-width="2"/>
<rect x="233" y="159" width="3" height="69" rx="1.5" stroke="#071A22" stroke-width="2"/>
<rect x="241" y="155" width="3" height="78" rx="1.5" stroke="#071A22" stroke-width="2"/>
<rect x="248" y="167" width="3" height="54" rx="1.5" stroke="#071A22" stroke-width="2"/>
<rect x="255" y="161" width="3" height="66" rx="1.5" stroke="#071A22" stroke-width="2"/>
<rect x="262" y="163" width="3" height="62" rx="1.5" stroke="#071A22" stroke-width="2"/>
<path fill-rule="evenodd" clip-rule="evenodd" d="M143.428 75.7201L113.69 46.0696C106.103 38.5044 106.103 26.239 113.69 18.6738C121.278 11.1087 133.579 11.1087 141.166 18.6738L143.97 21.4693L146.774 18.6738C152.878 12.5878 162.031 11.3984 169.328 15.1034C171.057 15.9816 172.682 17.1345 174.136 18.5617C178.461 22.204 180.68 27.5555 180.968 32.9203C181.27 38.5524 179.447 44.2476 175.637 48.0464L145.668 78L143.428 75.7201ZM114.251 19.2329C121.529 11.9766 133.328 11.9766 140.606 19.2329L143.97 22.5875L147.334 19.2329C153.188 13.3962 161.969 12.2538 168.968 15.808C170.408 16.5394 171.773 17.4699 173.022 18.5997L173.689 19.2329C173.718 19.2616 173.66 19.204 173.689 19.2329C180.966 26.4893 180.966 38.2541 173.689 45.5105L143.97 75.1426L114.251 45.5105C106.974 38.2541 106.974 26.4893 114.251 19.2329ZM179.768 29.7915C180.542 35.5695 178.703 41.6292 174.25 46.0696L144.507 75.725L145.667 76.8811L175.076 47.4876L175.077 47.4873C178.699 43.8753 180.469 38.4137 180.176 32.9626C180.119 31.8987 179.983 30.8371 179.768 29.7915Z" fill="black"/>
<path d="M173.689 19.2329L173.022 18.5997C171.773 17.4699 170.408 16.5394 168.968 15.808C161.969 12.2538 153.188 13.3962 147.334 19.2329L143.97 22.5875L140.606 19.2329C133.328 11.9766 121.529 11.9766 114.251 19.2329C106.974 26.4893 106.974 38.2541 114.251 45.5105L143.97 75.1426L173.689 45.5105C180.966 38.2541 180.966 26.4893 173.689 19.2329ZM173.689 19.2329C173.66 19.204 173.718 19.2616 173.689 19.2329ZM179.768 29.7915C180.542 35.5695 178.703 41.6292 174.25 46.0696L144.507 75.725L145.667 76.8811L175.076 47.4876L175.077 47.4873C178.699 43.8753 180.469 38.4137 180.176 32.9626C180.119 31.8987 179.983 30.8371 179.768 29.7915ZM143.428 75.7201L113.69 46.0696C106.103 38.5044 106.103 26.239 113.69 18.6738C121.278 11.1087 133.579 11.1087 141.166 18.6738L143.97 21.4693L146.774 18.6738C152.878 12.5878 162.031 11.3984 169.328 15.1034C171.057 15.9816 172.682 17.1345 174.136 18.5617C178.461 22.204 180.68 27.5555 180.968 32.9203C181.27 38.5524 179.447 44.2476 175.637 48.0464L145.668 78L143.428 75.7201Z" stroke="#071A22"/>
<path d="M120 38.413H128.769L132.692 47.087L135.923 29.0543L139.154 38.413L141 43.663L142.385 38.413H148.846L152.308 27L156.462 48L158.538 38.413H165" stroke="#071A22" stroke-width="2"/>
<path fill-rule="evenodd" clip-rule="evenodd" d="M52 128.038C52 122.494 56.4886 118 62.0255 118H112.153C115.342 118 118.184 119.491 120.02 121.814L120.023 121.812L121.15 123.169C122.917 125.046 124 127.576 124 130.358V180.513C124 186.305 119.307 191 113.519 191H63.3911C59.5315 191 56.1596 188.912 54.3411 185.806L54.3304 185.788L53.6324 184.295L53.6276 184.283C53.4954 183.952 53.3675 183.598 53.2508 183.274C53.204 183.144 53.1589 183.02 53.1161 182.903C53.0398 182.696 52.9707 182.515 52.9082 182.371C52.8418 182.217 52.7968 182.137 52.7748 182.107L52.7914 182.095C52.2819 180.892 52 179.569 52 178.179V128.038ZM62.0255 118.913H112.153C117.187 118.913 121.267 122.998 121.267 128.038V178.179C121.267 183.219 117.187 187.304 112.153 187.304H62.0255C56.9919 187.304 52.9114 183.219 52.9114 178.179V128.038C52.9114 122.998 56.9919 118.913 62.0255 118.913ZM55.2929 185.617C56.9885 188.304 59.9818 190.088 63.3911 190.088H113.519C118.804 190.088 123.089 185.8 123.089 180.513V130.358C123.089 128.697 122.666 127.135 121.923 125.774C122.09 126.501 122.179 127.259 122.179 128.038V178.179C122.179 183.723 117.69 188.217 112.153 188.217H62.0255C59.4341 188.217 57.0724 187.233 55.2929 185.617ZM87.4081 129H83.7278C80.4637 129 78.0749 132.077 78.8837 135.239L79.1395 136.239C79.7055 138.452 81.6993 140 83.9835 140H85.9314C85.7991 139.846 85.7694 139.619 85.8738 139.431L89.7573 132.437C89.8913 132.196 90.1957 132.109 90.437 132.243C90.6784 132.377 90.7654 132.682 90.6313 132.923L86.7478 139.917C86.7311 139.947 86.7118 139.975 86.6903 140H87.1706C89.487 140 91.5 138.409 92.0353 136.155L92.2728 135.155C93.0188 132.014 90.6366 129 87.4081 129ZM83.7278 128C79.8109 128 76.9443 131.692 77.9149 135.487L78.1707 136.487C78.8499 139.142 81.2424 141 83.9835 141H87.1706C89.9502 141 92.3659 139.091 93.0082 136.386L93.2457 135.386C94.141 131.617 91.2824 128 87.4081 128H83.7278Z" fill="black"/>
<path d="M120.02 121.814L119.627 122.124L119.946 122.527L120.34 122.198L120.02 121.814ZM120.023 121.812L120.407 121.492L120.087 121.107L119.702 121.428L120.023 121.812ZM121.15 123.169L120.765 123.488L120.775 123.5L120.786 123.511L121.15 123.169ZM54.3411 185.806L54.7726 185.553L54.7725 185.553L54.3411 185.806ZM54.3304 185.788L53.8775 186L53.8873 186.021L53.899 186.041L54.3304 185.788ZM53.6324 184.295L53.1682 184.481L53.1735 184.494L53.1795 184.507L53.6324 184.295ZM53.6276 184.283L54.0919 184.097L54.0919 184.097L53.6276 184.283ZM53.2508 183.274L52.7805 183.444L52.7805 183.444L53.2508 183.274ZM53.1161 182.903L52.6469 183.076L52.6469 183.076L53.1161 182.903ZM52.9082 182.371L53.3673 182.173L53.3673 182.173L52.9082 182.371ZM52.7748 182.107L52.4745 181.708L52.0752 182.008L52.3747 182.407L52.7748 182.107ZM52.7914 182.095L53.0918 182.495L53.4043 182.26L53.2518 181.9L52.7914 182.095ZM55.2929 185.617L55.629 185.247L54.8701 185.884L55.2929 185.617ZM121.923 125.774L122.362 125.534L121.435 125.886L121.923 125.774ZM78.8837 135.239L79.3681 135.115L79.3681 135.115L78.8837 135.239ZM79.1395 136.239L78.6551 136.363L78.6551 136.363L79.1395 136.239ZM85.9314 140V140.5H87.0191L86.3109 139.674L85.9314 140ZM85.8738 139.431L85.4366 139.189L85.4366 139.189L85.8738 139.431ZM89.7573 132.437L90.1944 132.68L90.1944 132.68L89.7573 132.437ZM90.437 132.243L90.6799 131.806L90.6799 131.806L90.437 132.243ZM90.6313 132.923L91.0685 133.166L91.0685 133.166L90.6313 132.923ZM86.7478 139.917L87.185 140.16L87.185 140.16L86.7478 139.917ZM86.6903 140L86.3104 139.675L85.6043 140.5H86.6903V140ZM92.0353 136.155L92.5218 136.271L92.5218 136.271L92.0353 136.155ZM92.2728 135.155L91.7863 135.04L91.7863 135.04L92.2728 135.155ZM77.9149 135.487L78.3993 135.363L78.3993 135.363L77.9149 135.487ZM78.1707 136.487L77.6862 136.611L77.6862 136.611L78.1707 136.487ZM93.0082 136.386L92.5218 136.271L92.5218 136.271L93.0082 136.386ZM93.2457 135.386L92.7593 135.271L92.7593 135.271L93.2457 135.386ZM62.0255 117.5C56.2119 117.5 51.5 122.218 51.5 128.038H52.5C52.5 122.77 56.7653 118.5 62.0255 118.5V117.5ZM112.153 117.5H62.0255V118.5H112.153V117.5ZM120.412 121.504C118.485 119.066 115.502 117.5 112.153 117.5V118.5C115.183 118.5 117.882 119.916 119.627 122.124L120.412 121.504ZM119.702 121.428L119.699 121.431L120.34 122.198L120.343 122.196L119.702 121.428ZM121.534 122.849L120.407 121.492L119.638 122.131L120.765 123.488L121.534 122.849ZM124.5 130.358C124.5 127.443 123.364 124.792 121.514 122.826L120.786 123.511C122.469 125.299 123.5 127.708 123.5 130.358H124.5ZM124.5 180.513V130.358H123.5V180.513H124.5ZM113.519 191.5C119.584 191.5 124.5 186.581 124.5 180.513H123.5C123.5 186.029 119.031 190.5 113.519 190.5V191.5ZM63.3911 191.5H113.519V190.5H63.3911V191.5ZM53.9096 186.059C55.814 189.312 59.3466 191.5 63.3911 191.5V190.5C59.7164 190.5 56.5052 188.513 54.7726 185.553L53.9096 186.059ZM53.899 186.041L53.9096 186.059L54.7725 185.553L54.7619 185.535L53.899 186.041ZM53.1795 184.507L53.8775 186L54.7834 185.576L54.0854 184.083L53.1795 184.507ZM53.1633 184.468L53.1682 184.481L54.0967 184.109L54.0919 184.097L53.1633 184.468ZM52.7805 183.444C52.8966 183.766 53.0274 184.128 53.1633 184.468L54.0919 184.097C53.9634 183.776 53.8384 183.43 53.7212 183.105L52.7805 183.444ZM52.6469 183.076C52.689 183.19 52.7335 183.314 52.7805 183.444L53.7212 183.105C53.6744 182.975 53.6288 182.849 53.5853 182.731L52.6469 183.076ZM52.4491 182.569C52.5059 182.7 52.5712 182.87 52.6469 183.076L53.5853 182.731C53.5084 182.521 53.4354 182.33 53.3673 182.173L52.4491 182.569ZM52.3747 182.407C52.3657 182.395 52.3626 182.389 52.3659 182.395C52.3683 182.399 52.3734 182.408 52.3812 182.423C52.3967 182.453 52.4195 182.5 52.4491 182.569L53.3673 182.173C53.2999 182.017 53.2355 181.888 53.1749 181.808L52.3747 182.407ZM52.4911 181.695L52.4745 181.708L53.0751 182.507L53.0918 182.495L52.4911 181.695ZM51.5 178.179C51.5 179.637 51.7958 181.026 52.331 182.29L53.2518 181.9C52.7679 180.757 52.5 179.5 52.5 178.179H51.5ZM51.5 128.038V178.179H52.5V128.038H51.5ZM112.153 118.413H62.0255V119.413H112.153V118.413ZM121.767 128.038C121.767 122.722 117.463 118.413 112.153 118.413V119.413C116.91 119.413 120.767 123.273 120.767 128.038H121.767ZM121.767 178.179V128.038H120.767V178.179H121.767ZM112.153 187.804C117.463 187.804 121.767 183.495 121.767 178.179H120.767C120.767 182.943 116.91 186.804 112.153 186.804V187.804ZM62.0255 187.804H112.153V186.804H62.0255V187.804ZM52.4114 178.179C52.4114 183.495 56.7152 187.804 62.0255 187.804V186.804C57.2686 186.804 53.4114 182.943 53.4114 178.179H52.4114ZM52.4114 128.038V178.179H53.4114V128.038H52.4114ZM62.0255 118.413C56.7152 118.413 52.4114 122.722 52.4114 128.038H53.4114C53.4114 123.273 57.2686 119.413 62.0255 119.413V118.413ZM63.3911 189.588C60.1606 189.588 57.3237 187.898 55.7158 185.35L54.8701 185.884C56.6534 188.71 59.8031 190.588 63.3911 190.588V189.588ZM113.519 189.588H63.3911V190.588H113.519V189.588ZM122.589 180.513C122.589 185.525 118.528 189.588 113.519 189.588V190.588C119.081 190.588 123.589 186.076 123.589 180.513H122.589ZM122.589 130.358V180.513H123.589V130.358H122.589ZM121.484 126.013C122.188 127.303 122.589 128.783 122.589 130.358H123.589C123.589 128.611 123.144 126.967 122.362 125.534L121.484 126.013ZM122.679 128.038C122.679 127.221 122.586 126.426 122.41 125.662L121.435 125.886C121.595 126.577 121.679 127.297 121.679 128.038H122.679ZM122.679 178.179V128.038H121.679V178.179H122.679ZM112.153 188.717C117.967 188.717 122.679 183.999 122.679 178.179H121.679C121.679 183.447 117.413 187.717 112.153 187.717V188.717ZM62.0255 188.717H112.153V187.717H62.0255V188.717ZM54.9568 185.987C56.8246 187.683 59.305 188.717 62.0255 188.717V187.717C59.5633 187.717 57.3201 186.782 55.629 185.247L54.9568 185.987ZM83.7278 129.5H87.4081V128.5H83.7278V129.5ZM79.3681 135.115C78.6402 132.269 80.7901 129.5 83.7278 129.5V128.5C80.1373 128.5 77.5096 131.884 78.3993 135.363L79.3681 135.115ZM79.6239 136.115L79.3681 135.115L78.3993 135.363L78.6551 136.363L79.6239 136.115ZM83.9835 139.5C81.9277 139.5 80.1333 138.107 79.6239 136.115L78.6551 136.363C79.2777 138.797 81.4709 140.5 83.9835 140.5V139.5ZM85.9314 139.5H83.9835V140.5H85.9314V139.5ZM86.3109 139.674L86.3109 139.674L85.4366 139.189C85.2274 139.565 85.2879 140.018 85.5519 140.326L86.3109 139.674ZM86.3109 139.674L90.1944 132.68L89.3201 132.194L85.4366 139.189L86.3109 139.674ZM90.1944 132.68L90.1941 132.68L90.6799 131.806C90.1971 131.538 89.5883 131.711 89.3201 132.194L90.1944 132.68ZM90.1941 132.68L90.1942 132.68L91.0685 133.166C91.3365 132.683 91.1626 132.074 90.6799 131.806L90.1941 132.68ZM90.1942 132.68L86.3107 139.674L87.185 140.16L91.0685 133.166L90.1942 132.68ZM86.3107 139.674L86.3104 139.675L87.0702 140.325C87.1134 140.275 87.1519 140.219 87.185 140.16L86.3107 139.674ZM87.1706 139.5H86.6903V140.5H87.1706V139.5ZM91.5488 136.04C91.0671 138.068 89.2553 139.5 87.1706 139.5V140.5C89.7186 140.5 91.933 138.75 92.5218 136.271L91.5488 136.04ZM91.7863 135.04L91.5488 136.04L92.5218 136.271L92.7593 135.271L91.7863 135.04ZM87.4081 129.5C90.3138 129.5 92.4577 132.213 91.7863 135.04L92.7593 135.271C93.5799 131.816 90.9595 128.5 87.4081 128.5V129.5ZM78.3993 135.363C77.5096 131.884 80.1373 128.5 83.7278 128.5V127.5C79.4845 127.5 76.379 131.5 77.4305 135.611L78.3993 135.363ZM78.6551 136.363L78.3993 135.363L77.4305 135.611L77.6862 136.611L78.6551 136.363ZM83.9835 140.5C81.4709 140.5 79.2777 138.797 78.6551 136.363L77.6862 136.611C78.4221 139.488 81.014 141.5 83.9835 141.5V140.5ZM87.1706 140.5H83.9835V141.5H87.1706V140.5ZM92.5218 136.271C91.933 138.75 89.7186 140.5 87.1706 140.5V141.5C90.1819 141.5 92.7989 139.432 93.4947 136.502L92.5218 136.271ZM92.7593 135.271L92.5218 136.271L93.4947 136.502L93.7322 135.502L92.7593 135.271ZM87.4081 128.5C90.9595 128.5 93.5799 131.816 92.7593 135.271L93.7322 135.502C94.702 131.418 91.6052 127.5 87.4081 127.5V128.5ZM83.7278 128.5H87.4081V127.5H83.7278V128.5Z" fill="#071A22"/>
<path d="M130.083 352.976L130.096 353.159L130.173 353.326L131.08 352.906C130.173 353.326 130.173 353.327 130.174 353.328L130.175 353.33L130.177 353.335L130.183 353.347C130.187 353.355 130.191 353.364 130.197 353.375C130.207 353.396 130.221 353.422 130.238 353.452C130.272 353.513 130.319 353.591 130.381 353.683C130.506 353.869 130.693 354.112 130.96 354.393C131.497 354.955 132.353 355.657 133.683 356.342C136.337 357.71 140.862 359 148.5 359C156.135 359 160.552 357.711 163.1 356.333C164.377 355.642 165.18 354.93 165.676 354.355C165.924 354.069 166.092 353.819 166.203 353.627C166.259 353.532 166.3 353.451 166.33 353.387C166.345 353.356 166.356 353.328 166.366 353.306C166.371 353.295 166.375 353.284 166.378 353.276L166.383 353.263L166.385 353.258L166.386 353.255C166.386 353.254 166.387 353.253 165.449 352.906L166.387 353.253L166.435 353.122L166.446 352.984L170.975 295.076C170.991 294.957 171 294.836 171 294.711C171 293.381 170 292.369 168.842 291.641C167.633 290.882 165.95 290.235 163.96 289.706C159.963 288.645 154.498 288 148.5 288C142.502 288 137.037 288.645 133.04 289.706C131.05 290.235 129.367 290.882 128.158 291.641C127 292.369 126 293.381 126 294.711C126 294.823 126.007 294.932 126.02 295.039L130.083 352.976ZM132.407 353.011C132.237 352.834 132.127 352.691 132.061 352.597L128.22 297.82C129.425 298.563 131.084 299.197 133.04 299.716C137.037 300.778 142.502 301.423 148.5 301.423C154.498 301.423 159.963 300.778 163.96 299.716C165.901 299.201 167.551 298.572 168.753 297.837L164.467 352.634C164.415 352.722 164.32 352.866 164.162 353.049C163.834 353.429 163.225 353.991 162.148 354.573C159.988 355.742 155.931 357 148.5 357C141.073 357 136.887 355.743 134.599 354.564C133.456 353.976 132.782 353.404 132.407 353.011Z" stroke="#071A22" stroke-width="2"/>
<path d="M131 352C131.045 354.764 138.863 357 148.5 357C158.137 357 165.955 354.764 166 352H165.078C165.065 352.157 164.922 352.543 164.14 353.073C163.365 353.599 162.183 354.109 160.641 354.552C157.57 355.433 153.277 355.99 148.5 355.99C143.723 355.99 139.43 355.433 136.359 354.552C134.817 354.109 133.635 353.599 132.86 353.073C132.078 352.543 131.935 352.157 131.922 352H131Z" fill="black" stroke="#071A22"/>
<path d="M165 323.5C165 323.563 164.93 323.896 164.105 324.397C163.34 324.863 162.165 325.318 160.625 325.713C157.561 326.501 153.274 327 148.5 327C143.726 327 139.439 326.501 136.375 325.713C134.835 325.318 133.66 324.863 132.895 324.397C132.07 323.896 132 323.563 132 323.5C132 323.437 132.07 323.104 132.895 322.603C133.66 322.137 134.835 321.682 136.375 321.287C139.439 320.499 143.726 320 148.5 320C153.274 320 157.561 320.499 160.625 321.287C162.165 321.682 163.34 322.137 164.105 322.603C164.93 323.104 165 323.437 165 323.5Z" stroke="#071A22" stroke-width="2"/>
<path d="M148 341H207.913C213.436 341 217.913 336.523 217.913 331V302C217.913 296.477 222.39 292 227.913 292H265" stroke="#071A22" stroke-width="2"/>
<path d="M86 161V229C86 234.523 90.4772 239 96 239H208" stroke="#071A22" stroke-width="2"/>
<circle cx="86" cy="158" r="3" fill="black"/>
<circle cx="145" cy="56" r="3" fill="black"/>
<circle cx="148" cy="341" r="3" fill="black"/>
<path d="M145 56H174.924C180.447 56 184.924 60.4772 184.924 66V97C184.924 102.523 189.401 107 194.924 107H245" stroke="#071A22" stroke-width="2"/>
<defs>
<radialGradient id="paint0_radial_335_533" cx="0" cy="0" r="1" gradientUnits="userSpaceOnUse" gradientTransform="translate(254 187) rotate(117.941) scale(102.441 59.459)">
<stop stop-color="#13F2E5"/>
<stop offset="1" stop-color="#13F2E5" stop-opacity="0"/>
</radialGradient>
</defs>
</svg>
