<svg width="136" height="111" viewBox="0 0 136 111" fill="none" xmlns="http://www.w3.org/2000/svg">
<path d="M136 44.9752C136 73.3194 109.245 99.5 80.7273 99.5C52.2093 99.5 0 88.8442 0 60.5C0 32.1558 36.5 2.35646 80.7273 2.35646C109.273 -0.744537 136 16.631 136 44.9752Z" fill="#9EEEAF"/>
<path d="M136 44.9752C136 73.3194 109.245 99.5 80.7273 99.5C52.2093 99.5 0 88.8442 0 60.5C0 32.1558 36.5 2.35646 80.7273 2.35646C109.273 -0.744537 136 16.631 136 44.9752Z" fill="url(#paint0_radial_348_2916)" fill-opacity="0.2"/>
<path d="M76.3626 38.579C80.378 42.2815 89.8241 46.0706 99.6145 38.6178L98.841 37.5897C89.6602 44.5784 80.9044 41.0178 77.2288 37.6285L76.3626 38.579Z" fill="#15252C"/>
<path d="M34.647 38.5202C36.5078 40.7323 40.0131 42.9904 44.1395 43.5774C48.3038 44.1698 53.0769 43.0554 57.389 38.5509L56.4657 37.6566C52.4459 41.8557 48.086 42.8366 44.319 42.3007C40.5141 41.7595 37.2898 39.6658 35.6255 37.6873L34.647 38.5202Z" fill="#15252C"/>
<path d="M51.9486 67.5284C55.3168 71.5942 61.2202 73.5628 67.0218 73.5628C72.8233 73.5628 78.7268 71.5942 82.0949 67.5284L81.1102 66.703C78.0692 70.3737 72.5964 72.2734 67.0218 72.2734C61.4471 72.2734 55.9743 70.3737 52.9333 66.703L51.9486 67.5284Z" fill="#15252C"/>
<path fill-rule="evenodd" clip-rule="evenodd" d="M67.2669 104.282L19.1983 55.9288C6.93391 43.5919 6.93391 23.5897 19.1983 11.2527C31.4626 -1.08424 51.347 -1.08424 63.6114 11.2527L68.1433 15.8115L72.6753 11.2527C82.5417 1.32784 97.3384 -0.611834 109.132 5.43022C111.928 6.86228 114.554 8.74241 116.905 11.0698C123.895 17.0096 127.482 25.7367 127.948 34.4855C128.437 43.6701 125.49 52.9576 119.332 59.1525L70.8874 108L67.2669 104.282ZM20.1046 12.1645C31.8684 0.331065 50.9412 0.331065 62.705 12.1645L68.1433 17.635L73.5817 12.1645C83.0441 2.64606 97.2369 0.783148 108.551 6.57921C110.879 7.77197 113.086 9.28934 115.104 11.1318L116.182 12.1645C116.229 12.2112 116.135 12.1174 116.182 12.1645C127.946 23.9979 127.946 43.1837 116.182 55.0171L68.1433 103.34L20.1046 55.0171C8.34089 43.1837 8.34089 23.9979 20.1046 12.1645ZM126.008 29.383C127.26 38.8057 124.287 48.6876 117.088 55.9288L69.012 104.29L70.8864 106.175L118.425 58.2413L118.425 58.2408C124.281 52.3505 127.141 43.4438 126.668 34.5544C126.575 32.8194 126.356 31.0881 126.008 29.383Z" fill="#15252C"/>
<path d="M62.705 12.1645L62.3504 12.517L62.3504 12.517L62.705 12.1645ZM68.1433 17.635L67.7887 17.9875L68.1433 18.3442L68.4979 17.9875L68.1433 17.635ZM73.5817 12.1645L73.2271 11.812L73.5817 12.1645ZM108.551 6.57921L108.779 6.13421L108.779 6.13421L108.551 6.57921ZM115.104 11.1318L115.45 10.7707L115.441 10.7625L115.104 11.1318ZM116.182 55.0171L116.537 55.3696L116.537 55.3696L116.182 55.0171ZM68.1433 103.34L67.7887 103.693L68.1433 104.049L68.4979 103.693L68.1433 103.34ZM20.1046 55.0171L19.7501 55.3696L19.7501 55.3696L20.1046 55.0171ZM126.008 29.383L126.498 29.2831L125.513 29.4489L126.008 29.383ZM117.088 55.9288L116.734 55.5763L116.734 55.5763L117.088 55.9288ZM69.012 104.29L68.6574 103.937L68.307 104.29L68.6574 104.642L69.012 104.29ZM70.8864 106.175L70.5318 106.528L70.8868 106.885L71.2414 106.527L70.8864 106.175ZM118.425 58.2413L118.78 58.5934L118.784 58.5889L118.425 58.2413ZM118.425 58.2408L118.071 57.8882L118.066 57.8931L118.425 58.2408ZM126.668 34.5544L127.167 34.5278L127.167 34.5278L126.668 34.5544ZM67.2669 104.282L67.6251 103.933L67.6215 103.93L67.2669 104.282ZM19.1983 55.9288L19.5529 55.5763L19.5529 55.5763L19.1983 55.9288ZM19.1983 11.2527L19.5529 11.6052L19.1983 11.2527ZM63.6114 11.2527L63.2568 11.6052L63.2568 11.6052L63.6114 11.2527ZM68.1433 15.8115L67.7887 16.164L68.1433 16.5207L68.4979 16.164L68.1433 15.8115ZM72.6753 11.2527L73.0299 11.6052L73.0299 11.6052L72.6753 11.2527ZM109.132 5.43022L109.36 4.98522L109.36 4.98521L109.132 5.43022ZM116.905 11.0698L116.553 11.4252L116.567 11.4385L116.581 11.4508L116.905 11.0698ZM127.948 34.4855L128.447 34.4589L128.447 34.4589L127.948 34.4855ZM119.332 59.1525L118.977 58.8L118.977 58.8004L119.332 59.1525ZM70.8874 108L70.5292 108.349L70.8842 108.713L71.2425 108.352L70.8874 108ZM99.6145 38.6178L99.9173 39.0157L100.313 38.7145L100.014 38.3173L99.6145 38.6178ZM76.3626 38.579L75.9931 38.2422L75.6583 38.6096L76.0237 38.9466L76.3626 38.579ZM98.841 37.5897L99.2405 37.2891L98.9382 36.8872L98.5381 37.1918L98.841 37.5897ZM77.2288 37.6285L77.5677 37.2609L77.198 36.92L76.8592 37.2917L77.2288 37.6285ZM44.1395 43.5774L44.2099 43.0824L44.2099 43.0824L44.1395 43.5774ZM34.647 38.5202L34.3229 38.1394L33.9444 38.4616L34.2644 38.8421L34.647 38.5202ZM57.389 38.5509L57.7502 38.8967L58.0939 38.5376L57.7369 38.1918L57.389 38.5509ZM56.4657 37.6566L56.8136 37.2974L56.4523 36.9475L56.1045 37.3108L56.4657 37.6566ZM44.319 42.3007L44.2486 42.7957L44.2486 42.7957L44.319 42.3007ZM35.6255 37.6873L36.0082 37.3654L35.6844 36.9806L35.3014 37.3066L35.6255 37.6873ZM51.9486 67.5284L51.6274 67.1452L51.2464 67.4646L51.5636 67.8474L51.9486 67.5284ZM82.0949 67.5284L82.48 67.8474L82.7971 67.4646L82.4161 67.1452L82.0949 67.5284ZM81.1102 66.703L81.4314 66.3198L81.046 65.9967L80.7252 66.384L81.1102 66.703ZM52.9333 66.703L53.3184 66.384L52.9975 65.9967L52.6121 66.3198L52.9333 66.703ZM63.0596 11.812C51.1003 -0.218099 31.7093 -0.218099 19.7501 11.812L20.4592 12.517C32.0275 0.880229 50.7821 0.880229 62.3504 12.517L63.0596 11.812ZM108.779 6.13421C97.2765 0.241631 82.847 2.13513 73.2271 11.812L73.9363 12.517C83.2412 3.157 97.1973 1.32467 108.323 7.02421L108.779 6.13421ZM115.441 10.7625C113.389 8.88976 111.146 7.34704 108.779 6.13421L108.323 7.02421C110.612 8.19691 112.782 9.68892 114.767 11.5011L115.441 10.7625ZM116.528 11.8035L115.45 10.7708L114.758 11.4928L115.836 12.5255L116.528 11.8035ZM116.537 11.812C116.531 11.8061 116.528 11.803 116.526 11.8017C116.526 11.8015 116.526 11.8015 116.527 11.8018C116.527 11.8019 116.527 11.8023 116.527 11.8028C116.528 11.8032 116.529 11.8043 116.53 11.8058C116.531 11.8065 116.532 11.8079 116.534 11.8097C116.535 11.8106 116.536 11.8119 116.538 11.8136C116.539 11.815 116.541 11.8178 116.545 11.8213C116.546 11.8229 116.549 11.8266 116.551 11.8288C116.553 11.8317 116.559 11.8389 116.563 11.8432C116.568 11.85 116.582 11.8691 116.59 11.8817C116.607 11.9102 116.658 12.0496 116.668 12.1648C116.53 12.496 116.081 12.6431 115.962 12.6061C115.931 12.5906 115.888 12.5644 115.875 12.5555C115.868 12.5503 115.856 12.5415 115.852 12.538C115.849 12.5355 115.844 12.5312 115.842 12.5294C115.837 12.5255 115.834 12.5224 115.832 12.5208C115.83 12.5191 115.829 12.5176 115.828 12.5166C115.826 12.5148 115.824 12.5133 115.823 12.5125C115.822 12.511 115.82 12.5098 115.82 12.5094C115.82 12.5089 115.819 12.5085 115.819 12.5083C115.819 12.5081 115.819 12.508 115.819 12.5079C115.818 12.5078 115.819 12.5079 115.819 12.5082C115.819 12.5086 115.82 12.5094 115.821 12.5105C115.823 12.5125 115.826 12.5152 115.829 12.518C115.831 12.5208 115.834 12.5234 115.836 12.5255C115.837 12.5266 115.838 12.5274 115.838 12.5279C115.839 12.5281 115.839 12.5282 115.839 12.5281C115.839 12.5281 115.839 12.5279 115.838 12.5277C115.838 12.5275 115.838 12.5271 115.837 12.5266C115.837 12.5262 115.836 12.525 115.834 12.5234C115.833 12.5227 115.832 12.5211 115.83 12.5192C115.829 12.5182 115.828 12.5167 115.826 12.5148C115.825 12.5132 115.822 12.5099 115.818 12.5057C115.816 12.5037 115.812 12.499 115.81 12.4962C115.807 12.4923 115.799 12.4823 115.794 12.4761C115.787 12.4654 115.765 12.4312 115.751 12.4072C115.719 12.3291 115.769 11.9171 116.031 11.7057C116.205 11.678 116.417 11.7294 116.455 11.7502C116.47 11.7597 116.492 11.7755 116.5 11.7814C116.505 11.7851 116.513 11.7915 116.516 11.7942C116.518 11.7961 116.522 11.7996 116.524 11.8011C116.528 11.8043 116.531 11.8069 116.532 11.8083C116.534 11.8099 116.535 11.8112 116.536 11.8121C116.538 11.8138 116.54 11.8152 116.54 11.8159C116.542 11.8173 116.543 11.8184 116.543 11.8188C116.544 11.8193 116.544 11.8196 116.544 11.8198C116.545 11.82 116.545 11.8201 116.545 11.8198C116.543 11.8186 116.54 11.8155 116.534 11.8097L115.83 12.5193C115.836 12.5251 115.84 12.5294 115.843 12.5321C115.843 12.5328 115.844 12.5337 115.845 12.5346C115.846 12.535 115.846 12.5356 115.847 12.5363C115.848 12.5369 115.849 12.5382 115.851 12.5397C115.851 12.5405 115.853 12.5419 115.855 12.5437C115.856 12.5446 115.857 12.5459 115.859 12.5475C115.86 12.5489 115.863 12.5515 115.867 12.5547C115.869 12.5563 115.873 12.5597 115.875 12.5617C115.878 12.5643 115.886 12.5708 115.891 12.5745C115.899 12.5803 115.922 12.5961 115.937 12.6057C115.975 12.6264 116.187 12.6779 116.36 12.6501C116.622 12.4388 116.672 12.0267 116.64 11.9487C116.627 11.9246 116.605 11.8905 116.597 11.8798C116.592 11.8736 116.584 11.8636 116.581 11.8596C116.579 11.8569 116.575 11.8521 116.573 11.8501C116.57 11.8459 116.567 11.8427 116.565 11.841C116.563 11.8391 116.562 11.8376 116.561 11.8366C116.559 11.8346 116.558 11.833 116.557 11.8322C116.555 11.8305 116.554 11.8291 116.553 11.8285C116.552 11.8272 116.551 11.8261 116.55 11.8255C116.55 11.8248 116.549 11.8242 116.548 11.8236C116.547 11.8223 116.546 11.821 116.545 11.8197C116.542 11.817 116.539 11.8138 116.536 11.8107C116.532 11.8076 116.529 11.8044 116.527 11.8017C116.525 11.8004 116.524 11.7991 116.523 11.7979C116.522 11.7973 116.521 11.7966 116.521 11.7959C116.52 11.7953 116.519 11.7942 116.518 11.793C116.517 11.7924 116.516 11.7911 116.514 11.7894C116.513 11.7886 116.512 11.7871 116.509 11.7851C116.508 11.7842 116.507 11.7827 116.505 11.7809C116.503 11.7793 116.5 11.7762 116.495 11.7723C116.493 11.7705 116.488 11.7661 116.485 11.7637C116.481 11.7602 116.469 11.7514 116.462 11.7462C116.45 11.7373 116.407 11.7111 116.375 11.6956C116.256 11.6585 115.807 11.8057 115.669 12.1369C115.679 12.252 115.73 12.3915 115.747 12.42C115.755 12.4326 115.769 12.4517 115.774 12.4585C115.778 12.4628 115.784 12.47 115.786 12.4729C115.788 12.4751 115.791 12.4788 115.793 12.4805C115.796 12.484 115.798 12.4867 115.799 12.4882C115.801 12.4899 115.802 12.4912 115.803 12.4922C115.805 12.494 115.806 12.4954 115.807 12.4962C115.809 12.4978 115.81 12.4991 115.81 12.4997C115.811 12.5004 115.812 12.501 115.812 12.5015C115.813 12.5024 115.814 12.5033 115.815 12.504C115.817 12.5068 115.822 12.5111 115.827 12.517L116.537 11.812ZM116.537 55.3696C128.494 43.3411 128.494 23.8404 116.537 11.812L115.827 12.517C127.397 24.1554 127.397 43.0262 115.827 54.6646L116.537 55.3696ZM68.4979 103.693L116.537 55.3696L115.827 54.6646L67.7887 102.988L68.4979 103.693ZM19.7501 55.3696L67.7887 103.693L68.4979 102.988L20.4592 54.6646L19.7501 55.3696ZM19.7501 11.812C7.79242 23.8404 7.79242 43.3411 19.7501 55.3696L20.4592 54.6646C8.88936 43.0262 8.88936 24.1554 20.4592 12.517L19.7501 11.812ZM125.513 29.4489C126.745 38.7249 123.818 48.4502 116.734 55.5763L117.443 56.2813C124.756 48.9251 127.775 38.8865 126.504 29.3172L125.513 29.4489ZM116.734 55.5763L68.6574 103.937L69.3666 104.642L117.443 56.2813L116.734 55.5763ZM68.6574 104.642L70.5318 106.528L71.2409 105.823L69.3666 103.937L68.6574 104.642ZM71.2414 106.527L118.78 58.5934L118.07 57.8892L70.5313 105.823L71.2414 106.527ZM118.784 58.5889L118.785 58.5884L118.066 57.8931L118.065 57.8937L118.784 58.5889ZM118.78 58.5933C124.753 52.5847 127.646 43.5308 127.167 34.5278L126.168 34.581C126.636 43.3568 123.809 52.1162 118.071 57.8883L118.78 58.5933ZM127.167 34.5278C127.073 32.7686 126.851 31.0128 126.498 29.2831L125.519 29.4829C125.861 31.1635 126.077 32.8703 126.168 34.581L127.167 34.5278ZM67.6215 103.93L19.5529 55.5763L18.8437 56.2813L66.9123 104.635L67.6215 103.93ZM19.5529 55.5763C7.48238 43.4344 7.48238 23.7472 19.5529 11.6052L18.8437 10.9002C6.38545 23.4322 6.38545 43.7494 18.8437 56.2813L19.5529 55.5763ZM19.5529 11.6052C31.6217 -0.535078 51.1879 -0.535078 63.2568 11.6052L63.966 10.9002C51.5061 -1.63341 31.3035 -1.63341 18.8437 10.9002L19.5529 11.6052ZM63.2568 11.6052L67.7887 16.164L68.4979 15.459L63.966 10.9002L63.2568 11.6052ZM68.4979 16.164L73.0299 11.6052L72.3207 10.9002L67.7887 15.459L68.4979 16.164ZM73.0299 11.6052C82.7388 1.83881 97.2988 -0.0703382 108.904 5.87522L109.36 4.98521C97.3781 -1.15333 82.3447 0.816874 72.3207 10.9002L73.0299 11.6052ZM108.904 5.87522C111.655 7.28416 114.239 9.13418 116.553 11.4252L117.257 10.7144C114.869 8.35063 112.201 6.4404 109.36 4.98522L108.904 5.87522ZM116.581 11.4508C123.449 17.2869 126.989 25.8759 127.448 34.5121L128.447 34.4589C127.975 25.5975 124.341 16.7324 117.229 10.6888L116.581 11.4508ZM127.448 34.5121C127.931 43.5832 125.018 52.7234 118.977 58.8L119.686 59.505C125.962 53.1918 128.942 43.7571 128.447 34.4589L127.448 34.5121ZM99.3116 38.22C89.7603 45.4908 80.5849 41.7922 76.7016 38.2114L76.0237 38.9466C80.1711 42.7709 89.888 46.6504 99.9173 39.0157L99.3116 38.22ZM98.4414 37.8902L99.2149 38.9184L100.014 38.3173L99.2405 37.2891L98.4414 37.8902ZM76.8899 37.9961C80.6983 41.5078 89.7248 45.1576 99.1438 37.9875L98.5381 37.1918C89.5957 43.9991 81.1105 40.5277 77.5677 37.2609L76.8899 37.9961ZM76.7322 38.9158L77.5984 37.9653L76.8592 37.2917L75.9931 38.2422L76.7322 38.9158ZM44.2099 43.0824C40.2097 42.5134 36.8141 40.3197 35.0296 38.1983L34.2644 38.8421C36.2015 41.1449 39.8165 43.4675 44.0691 44.0724L44.2099 43.0824ZM57.0278 38.2052C52.8295 42.5908 48.2181 43.6526 44.2099 43.0824L44.0691 44.0724C48.3895 44.687 53.3243 43.52 57.7502 38.8967L57.0278 38.2052ZM56.1178 38.0157L57.0411 38.9101L57.7369 38.1918L56.8136 37.2974L56.1178 38.0157ZM44.2486 42.7957C48.1718 43.3538 52.6933 42.3202 56.8269 38.0023L56.1045 37.3108C52.1985 41.3911 48.0003 42.3194 44.3894 41.8057L44.2486 42.7957ZM35.2429 38.0092C36.9835 40.0784 40.3175 42.2365 44.2486 42.7957L44.3894 41.8057C40.7107 41.2824 37.5961 39.2532 36.0082 37.3654L35.2429 38.0092ZM34.9711 38.9009L35.9496 38.0681L35.3014 37.3066L34.3229 38.1394L34.9711 38.9009ZM67.0218 73.0628C61.3095 73.0628 55.5744 71.1214 52.3336 67.2094L51.5636 67.8474C55.0591 72.0669 61.1309 74.0628 67.0218 74.0628V73.0628ZM81.7099 67.2094C78.4691 71.1214 72.734 73.0628 67.0218 73.0628V74.0628C72.9126 74.0628 78.9844 72.0669 82.48 67.8474L81.7099 67.2094ZM80.789 67.0861L81.7737 67.9116L82.4161 67.1452L81.4314 66.3198L80.789 67.0861ZM67.0218 72.7734C72.686 72.7734 78.327 70.8463 81.4953 67.0219L80.7252 66.384C77.8115 69.9011 72.5069 71.7734 67.0218 71.7734V72.7734ZM52.5483 67.0219C55.7165 70.8463 61.3575 72.7734 67.0218 72.7734V71.7734C61.5366 71.7734 56.2321 69.9011 53.3184 66.384L52.5483 67.0219ZM52.2698 67.9116L53.2545 67.0861L52.6121 66.3198L51.6274 67.1452L52.2698 67.9116ZM68.4979 17.2825L63.0596 11.812L62.3504 12.517L67.7887 17.9875L68.4979 17.2825ZM73.2271 11.812L67.7887 17.2825L68.4979 17.9875L73.9363 12.517L73.2271 11.812ZM118.977 58.8004L70.5324 107.648L71.2425 108.352L119.687 59.5046L118.977 58.8004ZM71.2456 107.651L67.6251 103.933L66.9086 104.631L70.5292 108.349L71.2456 107.651Z" fill="#071A22"/>
<defs>
<radialGradient id="paint0_radial_348_2916" cx="0" cy="0" r="1" gradientUnits="userSpaceOnUse" gradientTransform="translate(112.545 32.1448) rotate(91.3723) scale(83.5122 85.944)">
<stop stop-color="#B4FCEF"/>
<stop offset="1" stop-color="#64F4C0" stop-opacity="0"/>
</radialGradient>
</defs>
</svg>
