<svg width="136" height="111" viewBox="0 0 136 111" fill="none" xmlns="http://www.w3.org/2000/svg">
<path d="M113 48.9752C113 77.3194 86.2452 109 57.7273 109C29.2093 109 7 94.1255 7 65.7813C7 37.437 23.3636 13.9174 57.7273 6.35645C86.2727 3.25546 113 20.631 113 48.9752Z" fill="#FE7F2D"/>
<path d="M113 48.9752C113 77.3194 86.2452 109 57.7273 109C29.2093 109 7 94.1255 7 65.7813C7 37.437 23.3636 13.9174 57.7273 6.35645C86.2727 3.25546 113 20.631 113 48.9752Z" fill="url(#paint0_radial_348_2917)" fill-opacity="0.2"/>
<rect x="66.5" y="48.5" width="1" height="26" rx="0.5" stroke="#071A22"/>
<circle cx="67" cy="81" r="1" fill="#1A2D35" stroke="#071A22" stroke-width="2"/>
<path fill-rule="evenodd" clip-rule="evenodd" d="M9.13638 103.231C7.23974 102.286 6.34381 99.8414 7.54557 97.8197L63.9816 2.88575C65.4763 0.371418 69.1245 0.371418 70.6192 2.88575L127.055 97.8197C127.22 98.0976 127.346 98.3829 127.435 98.6717L129.331 101.798L129.564 102.147C130.886 104.336 129.047 107 126.126 107H12.9762C10.5273 107 8.83878 105.127 9.13638 103.231ZM69.5129 3.54009L125.949 98.4741C126.966 100.185 125.73 102.349 123.736 102.349C123.736 102.349 11.4936 102.349 10.8902 102.349C10.2869 102.349 9.85371 102.147 9.85371 102.147C8.49346 101.571 7.82134 99.8711 8.65187 98.4741L65.0879 3.54009C66.0843 1.86398 68.5164 1.86398 69.5129 3.54009ZM10.3947 103.605C10.3546 104.787 11.4415 105.891 12.9762 105.891H126.126C128.011 105.891 129.22 104.226 128.496 102.796L127.406 100.978C126.913 102.466 125.529 103.632 123.736 103.632H10.8643C10.7044 103.632 10.5478 103.623 10.3947 103.605Z" fill="#1A2D35" stroke="#071A22"/>
<defs>
<radialGradient id="paint0_radial_348_2917" cx="0" cy="0" r="1" gradientUnits="userSpaceOnUse" gradientTransform="translate(89.5455 36.1448) rotate(91.3723) scale(83.5122 85.944)">
<stop stop-color="#FCD7B4"/>
<stop offset="1" stop-color="#F4BB64" stop-opacity="0"/>
</radialGradient>
</defs>
</svg>
