<svg width="136" height="111" viewBox="0 0 136 111" fill="none" xmlns="http://www.w3.org/2000/svg">
<path d="M125 42.9752C125 71.3194 98.2452 103 69.7273 103C41.2093 103 19 88.1255 19 59.7813C19 31.437 35.3636 7.91735 69.7273 0.356452C98.2727 -2.74454 125 14.631 125 42.9752Z" fill="#FCCA46"/>
<path d="M125 42.9752C125 71.3194 98.2452 103 69.7273 103C41.2093 103 19 88.1255 19 59.7813C19 31.437 35.3636 7.91735 69.7273 0.356452C98.2727 -2.74454 125 14.631 125 42.9752Z" fill="url(#paint0_radial_248_541)" fill-opacity="0.2"/>
<path d="M74.5672 108.079C71.1691 109.016 67.6346 109.626 64 109.874C65.2229 109.958 66.4571 110 67.7013 110C97.1374 110 121 86.2711 121 57C121 27.7289 97.1374 4 67.7013 4C66.4571 4 65.2229 4.04239 64 4.1258C67.6346 4.37372 71.1691 4.98398 74.5672 5.92055C99.9401 9.26059 119.519 30.8566 119.519 57C119.519 83.1434 99.9401 104.739 74.5672 108.079Z" fill="#15252C"/>
<path d="M74.5672 108.079L74.5019 107.584L74.4676 107.588L74.4343 107.597L74.5672 108.079ZM64 109.874L63.966 109.375L63.966 110.373L64 109.874ZM64 4.1258L63.966 3.62696L63.966 4.62464L64 4.1258ZM74.5672 5.92055L74.4343 6.40257L74.4676 6.41176L74.5019 6.41627L74.5672 5.92055ZM74.4343 107.597C71.0683 108.525 67.5669 109.13 63.966 109.375L64.034 110.373C67.7024 110.123 71.2699 109.507 74.7 108.561L74.4343 107.597ZM63.966 110.373C65.2002 110.457 66.4458 110.5 67.7013 110.5V109.5C66.4685 109.5 65.2456 109.458 64.034 109.375L63.966 110.373ZM67.7013 110.5C97.4108 110.5 121.5 86.5499 121.5 57H120.5C120.5 85.9923 96.8639 109.5 67.7013 109.5V110.5ZM121.5 57C121.5 27.4501 97.4108 3.5 67.7013 3.5V4.5C96.8639 4.5 120.5 28.0077 120.5 57H121.5ZM67.7013 3.5C66.4458 3.5 65.2002 3.54278 63.966 3.62696L64.034 4.62464C65.2456 4.54201 66.4685 4.5 67.7013 4.5V3.5ZM63.966 4.62464C67.5669 4.87026 71.0683 5.47484 74.4343 6.40257L74.7 5.43852C71.2699 4.49313 67.7024 3.87717 64.034 3.62696L63.966 4.62464ZM120.019 57C120.019 30.6002 100.249 8.7969 74.6324 5.42482L74.5019 6.41627C99.6315 9.72428 119.019 31.113 119.019 57H120.019ZM74.6324 108.575C100.249 105.203 120.019 83.3998 120.019 57H119.019C119.019 82.887 99.6315 104.276 74.5019 107.584L74.6324 108.575Z" fill="#071A22"/>
<circle cx="64" cy="57" r="52" stroke="#071A22" stroke-width="2"/>
<path d="M66.0526 35C57.9474 36.1066 51.0211 40.6803 49.8421 53.0738C48.3684 68.5656 55 78.1557 69 80M41 49.0164C45.4211 51.5984 56.4 56.3197 64.9474 54.5492M41 59.3443C45.2982 61.8033 56.3263 66.5738 66.0526 65.9836" stroke="#071A22" stroke-width="2"/>
<defs>
<radialGradient id="paint0_radial_248_541" cx="0" cy="0" r="1" gradientUnits="userSpaceOnUse" gradientTransform="translate(101.545 30.1448) rotate(91.3723) scale(83.5122 85.944)">
<stop stop-color="#FCF5B4"/>
<stop offset="1" stop-color="#E0F464" stop-opacity="0"/>
</radialGradient>
</defs>
</svg>
