<svg width="264" height="264" viewBox="0 0 264 264" fill="none" xmlns="http://www.w3.org/2000/svg">
<path d="M131.487 110.302C146.274 94.9874 153.138 93.8918 158.85 94.1391C163.942 94.3081 168.903 95.7979 173.248 98.4625C177.589 101.074 181.221 104.715 183.827 109.066C186.717 113.979 188.375 119.521 188.657 125.217C188.872 131.424 187.401 137.572 184.402 143.006C181.17 149.25 175.998 155.965 167.195 164.365C155.97 174.745 144.047 184.342 131.511 193.087C118.975 184.342 107.052 174.745 95.8269 164.365C87.0233 155.965 81.8517 149.25 78.6194 143.006C75.5916 137.564 74.1003 131.397 74.3058 125.17C74.5995 119.471 76.2693 113.928 79.1719 109.018C81.7772 104.668 85.41 101.027 89.7505 98.4159C94.0968 95.7829 99.0486 94.3221 104.125 94.1743C109.837 93.8918 116.701 94.9399 131.487 110.302Z" fill="#F9EFE6" stroke="#F9EFE6" stroke-width="4" stroke-linecap="round" stroke-linejoin="round"/>
<path d="M83.8262 151.168H105.583L111.824 134.169L124.835 168.074L135.248 122.164L143.053 152.429L151.351 152.759" stroke="#EB8777" stroke-width="6" stroke-linecap="round" stroke-linejoin="round"/>
<path d="M156.078 157.683C158.688 157.683 160.804 155.563 160.804 152.948C160.804 150.331 158.688 148.211 156.078 148.211C153.469 148.211 151.354 150.331 151.354 152.948C151.354 155.563 153.469 157.683 156.078 157.683Z" fill="#EB8777" stroke="#EB8777" stroke-width="4" stroke-linecap="round" stroke-linejoin="round"/>
<path d="M178.41 101.17V28.7178C181.091 12.6134 204.774 14.5808 204.774 30.8973V128.997" stroke="#F9EFE6" stroke-width="6" stroke-linecap="round" stroke-linejoin="round"/>
<path d="M178.412 42.0536C172.053 29.6483 153.342 34.1721 153.342 48.1325V93.4069" stroke="#F9EFE6" stroke-width="6" stroke-linecap="round" stroke-linejoin="round"/>
<path d="M132.008 108.581V76.1724V108.581Z" stroke="#F9EFE6" stroke-width="6" stroke-linecap="round" stroke-linejoin="round"/>
<path d="M85.6135 100.251V28.7178C82.9337 12.6134 59.25 14.5808 59.25 30.8973V128.997" stroke="#F9EFE6" stroke-width="6" stroke-linecap="round" stroke-linejoin="round"/>
<path d="M110.744 93.6894V48.1325C110.744 34.1721 91.9388 29.6483 85.6152 42.0536" stroke="#F9EFE6" stroke-width="6" stroke-linecap="round" stroke-linejoin="round"/>
<path d="M110.744 77.454C108.91 62.3744 132.066 60.9607 132.066 76.1699C132.066 60.9724 155.22 62.3744 153.399 77.454" stroke="#F9EFE6" stroke-width="6" stroke-linecap="round" stroke-linejoin="round"/>
<path d="M195.065 228.158C181.196 214.856 181.466 206.327 181.853 199.236C182.241 192.143 182.759 186.489 186.731 180.386C190.704 174.283 198.145 167.91 204.362 162.385C210.58 156.859 215.587 152.229 215.669 142.64V107.804C215.99 104.292 217.608 101.028 220.207 98.6507C222.806 96.2738 226.196 94.9556 229.715 94.9556C233.233 94.9556 236.623 96.2738 239.222 98.6507C241.821 101.028 243.439 104.292 243.76 107.804V198.363C243.76 206.681 239.329 217.649 233.041 225.895C226.907 233.88 218.533 239.845 208.993 243.025C198.993 246.492 188.321 247.562 177.834 246.147C168.124 244.703 158.857 241.109 150.706 235.626C144.335 231.476 139.407 225.445 136.602 218.368C133.708 210.845 132.164 202.867 132.042 194.806C131.925 202.868 130.38 210.846 127.481 218.368C124.673 225.444 119.745 231.473 113.377 235.626C105.209 241.117 95.9202 244.711 86.1902 246.147C75.6955 247.563 65.0155 246.494 55.0076 243.025C45.4675 239.845 37.0931 233.88 30.9596 225.895C24.6714 217.649 20.2402 206.681 20.2402 198.363V107.804C20.5611 104.292 22.1796 101.028 24.7781 98.6507C27.3768 96.2738 30.7678 94.9556 34.2859 94.9556C37.804 94.9556 41.1951 96.2738 43.7936 98.6507C46.3923 101.028 48.0107 104.292 48.3316 107.804V142.699C48.4139 152.288 53.4209 156.918 59.6503 162.444C65.8799 167.969 73.3082 174.401 77.281 180.445C81.2536 186.489 81.7708 192.155 82.1587 199.295C82.5466 206.433 82.8052 214.915 68.9358 228.217" stroke="#F9EFE6" stroke-width="6" stroke-linecap="round" stroke-linejoin="round"/>
<path d="M230.422 48.9087L229.729 93.7235" stroke="#F9EFE6" stroke-width="6" stroke-linecap="round" stroke-linejoin="round"/>
<path d="M204.775 44.1506C210.123 30.1549 230.892 34.3371 230.434 49.3224" stroke="#F9EFE6" stroke-width="6" stroke-linecap="round" stroke-linejoin="round"/>
<path d="M59.249 44.1506C53.901 30.1549 33.1675 34.3371 33.6024 49.3224" stroke="#F9EFE6" stroke-width="6" stroke-linecap="round" stroke-linejoin="round"/>
<path d="M33.5938 48.9087L34.2872 93.7235" stroke="#F9EFE6" stroke-width="6" stroke-linecap="round" stroke-linejoin="round"/>
</svg>
