<svg width="223" height="262" viewBox="0 0 223 262" fill="none" xmlns="http://www.w3.org/2000/svg">
<path d="M204.044 46.0832C209.015 45.9324 213.685 48.4932 217.601 52.4097C219.861 54.6693 219.71 55.1211 217.752 57.682C213.835 62.8039 208.261 66.2687 203.29 70.336C198.47 74.2527 193.8 78.0188 188.829 81.7849C183.556 85.8523 178.133 89.769 172.71 93.987C172.258 94.4389 171.354 94.7402 171.204 95.4934C168.191 101.519 162.466 104.231 157.495 107.997C154.181 107.696 152.524 110.256 150.566 111.914C150.114 112.365 149.511 112.667 148.909 112.667C145.444 112.215 143.335 114.625 141.075 116.282C135.351 120.802 129.928 125.321 124.204 129.539C115.466 135.866 108.236 143.699 100.252 150.779C95.7323 154.696 91.213 158.613 86.9951 162.831C84.5848 165.241 82.3251 167.501 79.011 169.007C78.2578 169.459 77.354 170.363 77.0527 171.267C75.5463 175.485 72.5334 178.498 69.0687 181.36C67.261 182.866 65.4533 184.373 63.9468 186.18C68.7673 184.373 71.9308 180.305 75.8475 177.292C75.9981 177.443 76.1488 177.895 76.1488 177.895C73.5878 181.058 71.3282 184.523 68.014 186.933C65.7544 188.591 64.0973 190.549 62.4402 193.11C59.4274 197.93 55.2094 201.847 51.594 206.065C50.6902 207.27 49.3344 208.325 48.5811 209.68C46.3215 213.145 44.0618 216.61 41.8021 220.075C41.3502 220.828 40.4463 221.43 39.8438 221.732C36.0778 223.088 32.4625 225.197 27.9433 224.594C26.5876 224.443 24.7798 225.95 23.2734 226.552C21.1645 225.95 19.0556 225.046 16.9466 224.745C14.3858 224.594 12.5781 223.389 10.7705 221.582C6.70335 217.514 5.79964 212.092 8.05933 206.819C10.4697 201.095 14.537 197.027 19.2069 192.96C27.6428 185.729 35.6269 178.046 44.2135 170.966C50.3898 165.694 56.7167 160.572 63.1943 155.902C72.986 148.822 82.627 141.892 91.5149 133.607C96.7873 128.937 102.512 124.719 107.935 120.2C110.948 117.789 113.81 115.228 116.973 112.667C130.079 101.972 143.185 91.2761 156.441 80.7311C164.275 74.4041 172.259 68.2277 180.243 62.3527C185.816 58.2853 191.691 54.5192 197.265 50.7531C199.525 49.6986 201.483 48.0415 204.044 46.0832ZM45.5684 206.668C45.2672 206.366 44.9659 206.366 44.6646 206.065C43.7608 206.969 41.953 207.27 43.3087 210.132C44.2126 208.626 44.9658 207.571 45.5684 206.668ZM53.1005 200.039C50.6903 200.039 50.6903 200.039 50.9915 202.148C51.7447 201.395 52.3473 200.793 53.1005 200.039ZM55.0589 196.876C55.6615 196.876 56.1134 197.026 56.4147 196.725C56.716 196.424 56.716 196.123 56.8666 195.671C56.5653 195.671 56.1134 195.52 55.8121 195.52C55.5108 195.821 55.3602 196.273 55.0589 196.876Z" fill="#E5AC9C"/>
<path d="M161.435 162.174C162.262 163.961 162.933 165.838 164.134 167.204C165.423 168.724 164.949 171.468 167.758 171.698C168.251 173.266 168.834 174.989 169.482 176.467C169.773 177.328 170.308 178.255 170.908 178.938C176.22 184.929 179.459 192.322 183.845 198.848C184.98 200.457 186.025 201.912 187.38 203.189C189.156 204.839 190.03 207.423 191.189 209.43C192.996 212.915 195.111 216.223 197.625 219.507C201.451 224.708 204.441 230.599 207.804 236.068C207.982 236.377 208.161 236.686 208.185 237.084C208.578 240.974 210.076 244.638 211.882 248.124C212.061 248.433 211.93 248.92 211.865 249.163C208.444 250.727 205.432 249.789 202.967 247.301C200.59 244.968 198.303 242.789 195.748 240.147C193.278 241.573 190.962 242.91 188.337 244.426C183.738 239.67 179.472 235.134 176.109 229.664C173.548 225.585 170.434 221.618 167.718 217.628C164.046 212.337 160.374 207.047 156.945 201.821C152.293 194.832 147.64 187.843 143.141 180.764C138.376 173.223 133.919 165.503 129.462 157.784C128.214 155.622 126.966 153.46 125.718 151.299C122.598 145.895 119.478 140.491 116.512 134.998C112.566 127.807 108.709 120.77 104.918 113.49C102.576 109.077 100.698 104.398 98.5109 99.8965C97.1499 97.1826 95.6345 94.5579 94.2735 91.8441C90.6363 84.4745 86.9099 76.9504 83.5815 69.4026C81.6379 64.9665 80.0923 60.5065 78.3031 55.9813C78.214 55.8269 78.1901 55.4289 78.101 55.2745C73.8875 47.6201 71.7704 38.9611 68.0201 31.0392C65.9874 26.4487 63.5568 21.8821 61.2805 17.2263C65.3125 13.8692 69.2553 10.3577 73.596 6.82223C73.8396 6.88748 74.4158 7.17237 74.9029 7.30288C77.5818 8.02064 78.1995 7.66405 78.4303 4.85462C78.4716 4.21315 78.5783 3.32815 78.8632 2.75192C79.433 1.59948 80.5139 0.975476 81.6249 2.18674C82.4686 2.93482 83.2469 3.92645 84.0253 4.91807C84.4471 5.29211 84.6493 5.99883 84.8928 6.06409C87.3044 6.31866 87.1802 8.24309 87.5845 9.65654C88.9344 14.8471 90.1298 20.1269 91.4797 25.3175C92.5382 29.647 93.6859 34.1308 95.0533 38.282C96.8488 44.2446 99.0423 50.1833 100.992 56.0567C101.575 57.779 102.775 59.1446 103.423 60.6233C104.095 62.4999 104.214 64.4896 104.886 66.3663C105.849 69.104 107.121 71.6634 108.238 74.3121C109.445 77.1151 110.562 79.7637 111.769 82.5667C112.951 84.9717 114.223 87.5312 115.406 89.9363C118.128 95.364 120.606 100.726 123.637 105.976C126.133 110.299 129.157 114.111 131.962 118.256C132.229 118.719 132.497 119.182 132.675 119.491C134.506 123.375 135.938 127.282 138.232 130.899C139.813 133.28 141.637 135.726 143.063 138.197C143.152 138.351 143.639 138.481 144.037 138.458C145.605 137.964 146.051 138.736 146.057 140.173C145.844 141.943 146.712 143.089 147.603 144.633C150.568 150.126 155.452 154.306 158.263 159.888C159.244 161.587 160.657 161.182 161.435 162.174ZM135.144 152.65C135.103 153.291 135.127 153.689 135.216 153.844C135.548 154.063 136.036 154.194 136.523 154.324C136.499 153.926 136.784 153.35 136.605 153.041C136.273 152.822 135.631 152.78 135.144 152.65ZM150.505 175.69C150.261 175.624 150.018 175.559 149.863 175.648C149.709 175.737 149.733 176.135 149.822 176.29C150.066 176.355 150.463 176.331 150.707 176.396C150.618 176.242 150.594 175.844 150.505 175.69Z" fill="#E5AC9C"/>
</svg>
