<svg width="264" height="229" viewBox="0 0 264 229" fill="none" xmlns="http://www.w3.org/2000/svg">
<path d="M209.569 53.8366V35.9187C209.569 32.5143 208.191 31.1084 204.745 31.1084H188.578C185.173 31.1084 183.768 32.4867 183.768 35.9187V53.8366" stroke="#EB8777" stroke-width="6" stroke-linecap="round" stroke-linejoin="round"/>
<path d="M183.768 79.6387V97.5566C183.768 100.961 185.146 102.381 188.578 102.381H204.745C208.15 102.381 209.569 101.002 209.569 97.5566V79.6387" stroke="#EB8777" stroke-width="6" stroke-linecap="round" stroke-linejoin="round"/>
<path d="M227.503 53.8369H165.838C163.181 53.8369 161.027 55.9905 161.027 58.6472V74.8285C161.027 77.4851 163.181 79.6387 165.838 79.6387H227.503C230.16 79.6387 232.313 77.4851 232.313 74.8285V58.6472C232.313 55.9905 230.16 53.8369 227.503 53.8369Z" stroke="#EB8777" stroke-width="6" stroke-linecap="round" stroke-linejoin="round"/>
<path d="M131.999 40.2467C165.079 5.99585 180.405 3.63895 193.182 4.20405C204.566 4.56892 215.658 7.89423 225.366 13.8522C235.05 19.6355 243.156 27.7223 248.962 37.3936C255.427 48.3524 259.14 60.7149 259.782 73.4224C260.374 86.3095 257.48 99.1829 250.258 113.117C243.035 127.052 231.458 142.062 211.789 160.765C192.121 179.469 164.307 201.963 131.999 224.829C99.6919 201.963 71.8916 179.483 52.2094 160.765C32.5273 142.048 20.9633 127.038 13.7823 113.104C6.60139 99.1691 3.62426 86.2957 4.20315 73.4086C4.85184 60.7023 8.56391 48.3413 15.0228 37.3798C20.8188 27.6955 28.9143 19.5906 38.5918 13.7833C48.2982 7.82356 59.3909 4.49811 70.7751 4.13514C83.5934 3.63895 98.9476 5.99585 131.999 40.2467Z" stroke="#F9EFE6" stroke-width="6" stroke-linecap="round" stroke-linejoin="round"/>
</svg>
