<svg width="2015" height="1119" viewBox="0 0 2015 1119" fill="none" xmlns="http://www.w3.org/2000/svg">
<path fill-rule="evenodd" clip-rule="evenodd" d="M46.1876 0L198.812 0C214.873 0 220.697 1.67223 226.568 4.81232C232.44 7.95241 237.048 12.5604 240.188 18.4318C243.328 24.3033 245 30.1272 245 46.1876V198.812C245 214.873 243.328 220.697 240.188 226.568C237.048 232.44 232.44 237.048 226.568 240.188C220.697 243.328 214.873 245 198.812 245H46.1876C30.1272 245 24.3033 243.328 18.4318 240.188C12.5604 237.048 7.95241 232.44 4.81232 226.568C1.67223 220.697 0 214.873 0 198.812L0 46.1876C0 30.1272 1.67223 24.3033 4.81232 18.4318C7.95241 12.5604 12.5604 7.95241 18.4318 4.81232C24.3033 1.67223 30.1272 0 46.1876 0Z" fill="#FFF2E7"/>
<path fill-rule="evenodd" clip-rule="evenodd" d="M122.499 190.956C160.97 190.956 187.352 155.586 187.352 117.779C187.352 79.9716 160.97 54.0439 122.499 54.0439C84.029 54.0439 57.6465 79.9716 57.6465 117.779C57.6465 155.586 84.029 190.956 122.499 190.956Z" fill="#FFF2E7" stroke="#FF7F0F" stroke-width="4"/>
<path fill-rule="evenodd" clip-rule="evenodd" d="M176.543 119.711C176.543 87.1692 154.558 64.8525 122.499 64.8525C90.4405 64.8525 68.4551 87.1692 68.4551 119.711C68.4551 152.253 176.543 152.253 176.543 119.711Z" fill="#FFD3AD"/>
<path fill-rule="evenodd" clip-rule="evenodd" d="M100.883 85.9791H92.0514L98.8278 108.088L79.2652 78.6724H89.402L82.701 54.0439H93.6826L100.883 85.9791Z" fill="#FF7F0F" stroke="#FF7F0F" stroke-width="4" stroke-linejoin="round"/>
<path fill-rule="evenodd" clip-rule="evenodd" d="M341.188 0L493.812 0C509.873 0 515.697 1.67223 521.568 4.81232C527.44 7.95241 532.048 12.5604 535.188 18.4318C538.328 24.3033 540 30.1272 540 46.1876V198.812C540 214.873 538.328 220.697 535.188 226.568C532.048 232.44 527.44 237.048 521.568 240.188C515.697 243.328 509.873 245 493.812 245H341.188C325.127 245 319.303 243.328 313.432 240.188C307.56 237.048 302.952 232.44 299.812 226.568C296.672 220.697 295 214.873 295 198.812V46.1876C295 30.1272 296.672 24.3033 299.812 18.4318C302.952 12.5604 307.56 7.95241 313.432 4.81232C319.303 1.67223 325.127 0 341.188 0Z" fill="#FDD5B4"/>
<path d="M417.499 90.0738C433.418 90.0738 446.323 77.1691 446.323 61.2503C446.323 45.3315 433.418 32.4268 417.499 32.4268C401.581 32.4268 388.676 45.3315 388.676 61.2503C388.676 77.1691 401.581 90.0738 417.499 90.0738Z" stroke="#FF7F0F" stroke-width="4"/>
<path fill-rule="evenodd" clip-rule="evenodd" d="M417.499 190.956C455.97 190.956 482.352 155.586 482.352 117.779C482.352 79.9716 455.97 54.0439 417.499 54.0439C379.029 54.0439 352.646 79.9716 352.646 117.779C352.646 155.586 379.029 190.956 417.499 190.956Z" fill="#FDD5B4" stroke="#FF7F0F" stroke-width="4"/>
<path d="M394.465 111.439C398.479 110.974 394.465 101.796 388.138 107.582C381.81 113.368 395.511 125.368 402.902 113.368C410.294 101.367 393.822 93.8369 385.585 98.8572C377.349 103.878 374.604 111.408 382.84 121.449C391.076 131.489 410.294 123.561 410.294 113.918" stroke="#FF7F0F" stroke-width="4" stroke-linecap="round" stroke-linejoin="round"/>
<path d="M441.303 111.439C445.317 110.974 441.303 101.796 434.976 107.582C428.648 113.368 442.349 125.368 449.74 113.368C457.132 101.367 440.659 93.8369 432.423 98.8572C424.187 103.878 421.442 111.408 429.678 121.449C437.914 131.489 457.132 123.561 457.132 113.918" stroke="#FF7F0F" stroke-width="4" stroke-linecap="round" stroke-linejoin="round"/>
<path d="M433.713 158.53C436.698 158.53 439.117 156.11 439.117 153.125C439.117 150.14 436.698 147.721 433.713 147.721C430.728 147.721 428.309 150.14 428.309 153.125C428.309 156.11 430.728 158.53 433.713 158.53Z" stroke="#FF7F0F" stroke-width="4"/>
<path d="M374.266 68.4561C377.869 72.059 381.472 73.8605 385.074 73.8605C388.677 73.8605 392.28 72.059 395.883 68.4561C399.486 75.6619 403.089 79.2649 406.692 79.2649C410.295 79.2649 413.898 75.6619 417.501 68.4561C421.104 75.6619 424.707 79.2649 428.31 79.2649C431.913 79.2649 435.516 75.6619 439.119 68.4561C442.722 72.059 446.324 73.8605 449.927 73.8605C453.53 73.8605 457.133 72.059 460.736 68.4561" stroke="#FF7F0F" stroke-width="4"/>
<path fill-rule="evenodd" clip-rule="evenodd" d="M636.188 283H788.812C804.873 283 810.697 284.672 816.568 287.812C822.44 290.952 827.048 295.56 830.188 301.432C833.328 307.303 835 313.127 835 329.188V481.812C835 497.873 833.328 503.697 830.188 509.568C827.048 515.44 822.44 520.048 816.568 523.188C810.697 526.328 804.873 528 788.812 528H636.188C620.127 528 614.303 526.328 608.432 523.188C602.56 520.048 597.952 515.44 594.812 509.568C591.672 503.697 590 497.873 590 481.812V329.188C590 313.127 591.672 307.303 594.812 301.432C597.952 295.56 602.56 290.952 608.432 287.812C614.303 284.672 620.127 283 636.188 283Z" fill="#FFF2E7"/>
<path fill-rule="evenodd" clip-rule="evenodd" d="M665.25 383.882C677.53 383.882 712.5 350.461 712.5 336.651C712.5 326.307 700.313 320.282 684.706 319.982C679.478 319.881 673.609 317.89 668.03 319.982C645.794 328.316 615.221 378.326 615.221 378.326C615.221 378.326 652.97 383.882 665.25 383.882Z" stroke="#FF7F0F" stroke-width="4"/>
<path fill-rule="evenodd" clip-rule="evenodd" d="M712.499 473.956C750.97 473.956 777.352 438.586 777.352 400.779C777.352 362.972 750.97 337.044 712.499 337.044C674.029 337.044 647.646 362.972 647.646 400.779C647.646 438.586 674.029 473.956 712.499 473.956Z" fill="#FFF2E7" stroke="#FF7F0F" stroke-width="4"/>
<path fill-rule="evenodd" clip-rule="evenodd" d="M745.984 391.702C740.195 390.074 729.001 379.018 727.117 386.396C725.234 393.774 736.785 403.432 742.574 405.061C748.363 406.689 760.871 403.796 762.755 396.418C764.639 389.04 751.773 393.33 745.984 391.702Z" fill="#FFF2E7"/>
<path d="M687.28 405.5C679.32 405.5 672.868 399.048 672.868 391.089C672.868 383.129 679.32 376.677 687.28 376.677C695.239 376.677 701.691 383.129 701.691 391.089C701.691 399.048 695.239 405.5 687.28 405.5Z" fill="#FF7F0F"/>
<path d="M725.109 392.89C728.112 388.086 732.315 385.684 737.72 385.684C743.124 385.684 747.328 388.086 750.33 392.89" stroke="#FF7F0F" stroke-width="4" stroke-linecap="round"/>
<path d="M693.584 425.316H731.415" stroke="#FF7F0F" stroke-width="4" stroke-linecap="square"/>
<path fill-rule="evenodd" clip-rule="evenodd" d="M712.5 448.735C716.977 448.735 726.911 439.728 726.911 427.118C726.911 427.118 719.679 423.515 715.202 423.515C710.725 423.515 698.088 427.118 698.088 427.118C698.088 439.728 708.022 448.735 712.5 448.735Z" fill="#FF7F0F"/>
<path d="M701.691 337.044C707.331 355.386 728.948 363.724 766.544 362.056" stroke="#FF7F0F" stroke-width="4"/>
<path fill-rule="evenodd" clip-rule="evenodd" d="M685.219 407.373C693.037 407.373 710.697 414.934 710.697 407.373C710.697 399.811 693.037 393.682 685.219 393.682C677.402 393.682 662.572 399.811 662.572 407.373C662.572 414.934 677.402 407.373 685.219 407.373Z" fill="#FFF2E7"/>
<path fill-rule="evenodd" clip-rule="evenodd" d="M1816.19 283H1968.81C1984.87 283 1990.7 284.672 1996.57 287.812C2002.44 290.952 2007.05 295.56 2010.19 301.432C2013.33 307.303 2015 313.127 2015 329.188V481.812C2015 497.873 2013.33 503.697 2010.19 509.568C2007.05 515.44 2002.44 520.048 1996.57 523.188C1990.7 526.328 1984.87 528 1968.81 528H1816.19C1800.13 528 1794.3 526.328 1788.43 523.188C1782.56 520.048 1777.95 515.44 1774.81 509.568C1771.67 503.697 1770 497.873 1770 481.812V329.188C1770 313.127 1771.67 307.303 1774.81 301.432C1777.95 295.56 1782.56 290.952 1788.43 287.812C1794.3 284.672 1800.13 283 1816.19 283Z" fill="#FFF2E7"/>
<path fill-rule="evenodd" clip-rule="evenodd" d="M1892.5 484.764C1930.97 484.764 1957.35 449.394 1957.35 411.587C1957.35 373.78 1930.97 347.853 1892.5 347.853C1854.03 347.853 1827.65 373.78 1827.65 411.587C1827.65 449.394 1854.03 484.764 1892.5 484.764Z" fill="#FFF2E7" stroke="#FF7F0F" stroke-width="4"/>
<path d="M1930.33 445.133C1939.29 445.133 1946.55 441.1 1946.55 436.126C1946.55 431.151 1939.29 427.118 1930.33 427.118C1921.38 427.118 1914.12 431.151 1914.12 436.126C1914.12 441.1 1921.38 445.133 1930.33 445.133Z" fill="#FFD3AD"/>
<path d="M1854.67 445.133C1863.62 445.133 1870.88 441.1 1870.88 436.126C1870.88 431.151 1863.62 427.118 1854.67 427.118C1845.72 427.118 1838.46 431.151 1838.46 436.126C1838.46 441.1 1845.72 445.133 1854.67 445.133Z" fill="#FFD3AD"/>
<path d="M1867.28 434.324C1875.24 434.324 1881.69 427.871 1881.69 419.912C1881.69 411.952 1875.24 405.5 1867.28 405.5C1859.32 405.5 1852.87 411.952 1852.87 419.912C1852.87 427.871 1859.32 434.324 1867.28 434.324Z" fill="#FF7F0F"/>
<path fill-rule="evenodd" clip-rule="evenodd" d="M1859.05 403.656C1865.2 402.03 1877.11 390.989 1879.11 398.357C1881.11 405.725 1868.83 415.371 1862.67 416.996C1856.52 418.622 1843.22 415.734 1841.22 408.366C1839.21 400.998 1852.89 405.281 1859.05 403.656Z" fill="#FFF2E7"/>
<path d="M1917.72 434.324C1909.76 434.324 1903.31 427.871 1903.31 419.912C1903.31 411.952 1909.76 405.5 1917.72 405.5C1925.68 405.5 1932.13 411.952 1932.13 419.912C1932.13 427.871 1925.68 434.324 1917.72 434.324Z" fill="#FF7F0F"/>
<path fill-rule="evenodd" clip-rule="evenodd" d="M1925.66 403.656C1919.51 402.03 1907.61 390.989 1905.6 398.357C1903.6 405.725 1915.88 415.371 1922.04 416.996C1928.19 418.622 1941.49 415.734 1943.5 408.366C1945.5 400.998 1931.82 405.281 1925.66 403.656Z" fill="#FFF2E7"/>
<path fill-rule="evenodd" clip-rule="evenodd" d="M1907.26 390.91C1959.86 419.007 1968.16 401.102 1968.16 382.481C1968.16 369.483 1948.78 329.096 1898.95 326.286C1879.03 325.162 1879.57 343.144 1874.04 343.144C1868.5 343.144 1871.27 334.715 1857.43 337.525C1843.58 340.335 1826.97 360.003 1824.21 385.29C1821.44 410.578 1854.66 362.812 1907.26 390.91Z" fill="#FFF2E7" stroke="#FF7F0F" stroke-width="4"/>
<path d="M1878.09 452.338H1903.31" stroke="#FF7F0F" stroke-width="4" stroke-linecap="square"/>
<path d="M1912.32 443.331C1908.34 443.331 1905.11 447.364 1905.11 452.338C1905.11 457.313 1908.34 461.346 1912.32 461.346" stroke="#FF7F0F" stroke-width="4"/>
<path d="M1870.88 445.132C1874.86 445.132 1878.09 448.358 1878.09 452.338C1878.09 456.318 1874.86 459.544 1870.88 459.544" stroke="#FF7F0F" stroke-width="4"/>
<path fill-rule="evenodd" clip-rule="evenodd" d="M1816.19 578H1968.81C1984.87 578 1990.7 579.672 1996.57 582.812C2002.44 585.952 2007.05 590.56 2010.19 596.432C2013.33 602.303 2015 608.127 2015 624.188V776.812C2015 792.873 2013.33 798.697 2010.19 804.568C2007.05 810.44 2002.44 815.048 1996.57 818.188C1990.7 821.328 1984.87 823 1968.81 823H1816.19C1800.13 823 1794.3 821.328 1788.43 818.188C1782.56 815.048 1777.95 810.44 1774.81 804.568C1771.67 798.697 1770 792.873 1770 776.812V624.188C1770 608.127 1771.67 602.303 1774.81 596.432C1777.95 590.56 1782.56 585.952 1788.43 582.812C1794.3 579.672 1800.13 578 1816.19 578Z" fill="#FDD5B4"/>
<path d="M1863.68 729.324C1891.53 729.324 1914.12 704.321 1914.12 673.478C1914.12 642.636 1891.53 617.633 1863.68 617.633C1835.82 617.633 1813.23 642.636 1813.23 673.478C1813.23 704.321 1835.82 729.324 1863.68 729.324Z" stroke="#FF7F0F" stroke-width="4"/>
<path fill-rule="evenodd" clip-rule="evenodd" d="M1887.1 768.956C1924.5 768.956 1950.15 733.586 1950.15 695.779C1950.15 657.972 1924.5 632.044 1887.1 632.044C1849.69 632.044 1824.04 657.972 1824.04 695.779C1824.04 733.586 1849.69 768.956 1887.1 768.956Z" fill="#FDD5B4" stroke="#FF7F0F" stroke-width="4"/>
<path fill-rule="evenodd" clip-rule="evenodd" d="M1857.74 685.206C1863.89 683.557 1875.8 672.356 1877.8 679.831C1879.8 687.305 1867.52 697.091 1861.36 698.74C1855.21 700.39 1841.91 697.459 1839.9 689.985C1837.9 682.51 1851.58 686.856 1857.74 685.206Z" fill="#FDD5B4"/>
<path d="M1848.36 721.629C1840.9 721.629 1834.85 715.579 1834.85 708.117C1834.85 700.656 1840.9 694.606 1848.36 694.606C1855.83 694.606 1861.88 700.656 1861.88 708.117C1861.88 715.579 1855.83 721.629 1848.36 721.629Z" fill="#FF7F0F"/>
<path fill-rule="evenodd" clip-rule="evenodd" d="M1858.11 687.391C1853.02 686.028 1844.29 684.942 1842.36 692.15C1840.43 699.357 1850.36 708.28 1855.45 709.643C1860.53 711.007 1871.75 707.75 1873.68 700.542C1875.61 693.334 1863.19 688.754 1858.11 687.391Z" fill="#FDD5B4"/>
<path fill-rule="evenodd" clip-rule="evenodd" d="M1904.57 685.206C1910.73 683.557 1922.63 672.356 1924.64 679.831C1926.64 687.305 1914.36 697.091 1908.2 698.74C1902.04 700.39 1888.74 697.459 1886.74 689.985C1884.74 682.51 1898.42 686.856 1904.57 685.206Z" fill="#FDD5B4"/>
<path d="M1895.2 721.629C1887.74 721.629 1881.69 715.579 1881.69 708.117C1881.69 700.656 1887.74 694.606 1895.2 694.606C1902.66 694.606 1908.71 700.656 1908.71 708.117C1908.71 715.579 1902.66 721.629 1895.2 721.629Z" fill="#FF7F0F"/>
<path fill-rule="evenodd" clip-rule="evenodd" d="M1904.94 687.391C1899.86 686.028 1891.13 684.942 1889.2 692.15C1887.27 699.357 1897.2 708.28 1902.28 709.643C1907.37 711.007 1918.59 707.75 1920.52 700.542C1922.45 693.334 1910.03 688.754 1904.94 687.391Z" fill="#FDD5B4"/>
<path d="M1878.09 738.331H1888.9" stroke="#FF7F0F" stroke-width="4" stroke-linecap="square"/>
<path fill-rule="evenodd" clip-rule="evenodd" d="M1866.71 664.252C1886.49 669.832 1923.23 672.623 1928.88 694.944C1931.44 705.034 1921.96 745.148 1937.36 764.698C1950.55 781.439 1965.62 784.229 1982.57 773.068C1970.92 757.426 1965.27 745.335 1965.62 736.796C1965.96 728.257 1967.85 716.166 1971.27 700.524C1969.39 642.861 1943.95 614.029 1894.97 614.029C1856.23 614.029 1838.46 616.819 1838.46 633.56C1838.46 650.301 1857.35 661.612 1866.71 664.252Z" fill="#FDD5B4" stroke="#FF7F0F" stroke-width="4" stroke-linejoin="round"/>
<path fill-rule="evenodd" clip-rule="evenodd" d="M101.801 283H438.199C473.597 283 486.434 286.686 499.375 293.607C512.316 300.528 522.472 310.684 529.393 323.625C536.314 336.566 540 349.403 540 384.801V721.199C540 756.597 536.314 769.434 529.393 782.375C522.472 795.316 512.316 805.472 499.375 812.393C486.434 819.314 473.597 823 438.199 823H101.801C66.4028 823 53.5664 819.314 40.6252 812.393C27.6841 805.472 17.5278 795.316 10.6067 782.375C3.68572 769.434 0 756.597 0 721.199L0 384.801C0 349.403 3.68572 336.566 10.6067 323.625C17.5278 310.684 27.6841 300.528 40.6252 293.607C53.5664 286.686 66.4028 283 101.801 283Z" fill="#FFF2E7"/>
<path fill-rule="evenodd" clip-rule="evenodd" d="M203.14 664.273C171.57 646.05 121.057 609.602 121.057 512.409C121.057 378.769 232.114 358.441 269.998 358.441C345.768 358.441 424.851 387.833 424.851 509.324C424.851 630.815 397.057 664.177 389.116 707.853" fill="#FFF2E7"/>
<path d="M203.14 664.273C171.57 646.05 121.057 609.602 121.057 512.409C121.057 378.769 232.114 358.441 269.998 358.441C345.768 358.441 424.851 387.833 424.851 509.324C424.851 630.815 397.057 664.177 389.116 707.853" stroke="#FF7F0F" stroke-width="6" stroke-linecap="round" stroke-linejoin="round"/>
<path fill-rule="evenodd" clip-rule="evenodd" d="M270.003 688C332.398 688 389.121 619.23 389.121 564.912C389.121 468.347 363.595 394.177 270.003 394.177C176.41 394.177 149.184 460.565 149.184 563.165C149.184 605.412 207.608 688 270.003 688Z" fill="#FFF2E7" stroke="#FF7F0F" stroke-width="6"/>
<path d="M209.875 551.095C227.105 551.095 241.073 537.585 241.073 520.919C241.073 504.253 227.105 490.742 209.875 490.742C192.645 490.742 178.678 504.253 178.678 520.919C178.678 537.585 192.645 551.095 209.875 551.095Z" fill="#FF7F0F"/>
<path fill-rule="evenodd" clip-rule="evenodd" d="M209.873 557.128C227.103 557.128 266.028 573.794 266.028 557.128C266.028 540.462 227.103 526.951 209.873 526.951C192.643 526.951 159.957 540.462 159.957 557.128C159.957 573.794 192.643 557.128 209.873 557.128Z" fill="#FFF2E7"/>
<path d="M222.353 505.354H214.412V513.295H222.353V505.354Z" fill="white"/>
<path d="M327.351 551.866C344.407 551.866 358.233 537.898 358.233 520.668C358.233 503.438 344.407 489.471 327.351 489.471C310.295 489.471 296.469 503.438 296.469 520.668C296.469 537.898 310.295 551.866 327.351 551.866Z" fill="#FF7F0F"/>
<path fill-rule="evenodd" clip-rule="evenodd" d="M327.353 558.103C344.409 558.103 382.941 575.333 382.941 558.103C382.941 540.873 344.409 526.905 327.353 526.905C310.297 526.905 277.941 540.873 277.941 558.103C277.941 575.333 310.297 558.103 327.353 558.103Z" fill="#FFF2E7"/>
<path d="M341.47 505.354H333.529V513.295H341.47V505.354Z" fill="white"/>
<path fill-rule="evenodd" clip-rule="evenodd" d="M214.412 588.735C235.258 615.206 253.787 628.441 270 628.441C286.214 628.441 304.743 615.206 325.589 588.735H214.412Z" stroke="#FF7F0F" stroke-width="6" stroke-linecap="round"/>
<path d="M178.676 433.882C217.97 423.294 247.088 418 266.029 418C284.97 418 315.411 423.294 357.352 433.882" stroke="#FF7F0F" stroke-width="6" stroke-linecap="round" stroke-linejoin="round"/>
<path fill-rule="evenodd" clip-rule="evenodd" d="M931.188 0L1083.81 0C1099.87 0 1105.7 1.67223 1111.57 4.81232C1117.44 7.95241 1122.05 12.5604 1125.19 18.4318C1128.33 24.3033 1130 30.1272 1130 46.1876V198.812C1130 214.873 1128.33 220.697 1125.19 226.568C1122.05 232.44 1117.44 237.048 1111.57 240.188C1105.7 243.328 1099.87 245 1083.81 245H931.188C915.127 245 909.303 243.328 903.432 240.188C897.56 237.048 892.952 232.44 889.812 226.568C886.672 220.697 885 214.873 885 198.812V46.1876C885 30.1272 886.672 24.3033 889.812 18.4318C892.952 12.5604 897.56 7.95241 903.432 4.81232C909.303 1.67223 915.127 0 931.188 0Z" fill="#FFF2E7"/>
<path fill-rule="evenodd" clip-rule="evenodd" d="M1007.5 190.956C1045.97 190.956 1072.35 155.586 1072.35 117.779C1072.35 79.9716 1045.97 54.0439 1007.5 54.0439C969.029 54.0439 942.646 79.9716 942.646 117.779C942.646 155.586 969.029 190.956 1007.5 190.956Z" fill="#FFF2E7" stroke="#FF7F0F" stroke-width="4"/>
<path d="M1020.11 93.676C1023.09 93.676 1025.51 91.2564 1025.51 88.2716C1025.51 85.2868 1023.09 82.8672 1020.11 82.8672C1017.12 82.8672 1014.71 85.2868 1014.71 88.2716C1014.71 91.2564 1017.12 93.676 1020.11 93.676Z" fill="#FF7F0F" stroke="#FF7F0F" stroke-width="4"/>
<path d="M1048.93 122.5C1051.92 122.5 1054.34 120.081 1054.34 117.096C1054.34 114.111 1051.92 111.691 1048.93 111.691C1045.95 111.691 1043.53 114.111 1043.53 117.096C1043.53 120.081 1045.95 122.5 1048.93 122.5Z" fill="#FF7F0F" stroke="#FF7F0F" stroke-width="4"/>
<path d="M987.684 158.53C990.668 158.53 993.088 156.11 993.088 153.125C993.088 150.14 990.668 147.721 987.684 147.721C984.699 147.721 982.279 150.14 982.279 153.125C982.279 156.11 984.699 158.53 987.684 158.53Z" fill="#FF7F0F" stroke="#FF7F0F" stroke-width="4"/>
<path d="M1020.11 100.883C1027.07 100.883 1032.72 95.2369 1032.72 88.2724C1032.72 81.3079 1027.07 75.6621 1020.11 75.6621C1013.15 75.6621 1007.5 81.3079 1007.5 88.2724C1007.5 95.2369 1013.15 100.883 1020.11 100.883Z" stroke="#FDB270" stroke-width="3"/>
<path d="M1048.93 129.706C1055.9 129.706 1061.54 124.06 1061.54 117.096C1061.54 110.131 1055.9 104.485 1048.93 104.485C1041.97 104.485 1036.32 110.131 1036.32 117.096C1036.32 124.06 1041.97 129.706 1048.93 129.706Z" stroke="#FDB270" stroke-width="3"/>
<path d="M987.685 165.735C994.649 165.735 1000.29 160.089 1000.29 153.125C1000.29 146.16 994.649 140.515 987.685 140.515C980.72 140.515 975.074 146.16 975.074 153.125C975.074 160.089 980.72 165.735 987.685 165.735Z" stroke="#FDB270" stroke-width="3"/>
<g clip-path="url(#clip0_1001_8306)">
<path fill-rule="evenodd" clip-rule="evenodd" d="M1226.19 283H1378.81C1394.87 283 1400.7 284.672 1406.57 287.812C1412.44 290.952 1417.05 295.56 1420.19 301.432C1423.33 307.303 1425 313.127 1425 329.188V481.812C1425 497.873 1423.33 503.697 1420.19 509.568C1417.05 515.44 1412.44 520.048 1406.57 523.188C1400.7 526.328 1394.87 528 1378.81 528H1226.19C1210.13 528 1204.3 526.328 1198.43 523.188C1192.56 520.048 1187.95 515.44 1184.81 509.568C1181.67 503.697 1180 497.873 1180 481.812V329.188C1180 313.127 1181.67 307.303 1184.81 301.432C1187.95 295.56 1192.56 290.952 1198.43 287.812C1204.3 284.672 1210.13 283 1226.19 283Z" fill="#FFF2E7"/>
<path fill-rule="evenodd" clip-rule="evenodd" d="M1302.5 488.368C1340.97 488.368 1367.35 452.998 1367.35 415.191C1367.35 377.384 1340.97 351.456 1302.5 351.456C1288.45 351.456 1276.02 354.913 1265.89 361.144C1261.77 363.675 1279.94 370.624 1271.48 389.791C1263.02 408.959 1240.38 394.651 1239.45 398.73C1238.26 403.905 1237.65 409.409 1237.65 415.191C1237.65 452.998 1264.03 488.368 1302.5 488.368Z" fill="#FFF2E7" stroke="#FF7F0F" stroke-width="4"/>
<path d="M1295.29 369.471C1303.25 369.471 1309.71 363.019 1309.71 355.059C1309.71 347.1 1303.25 340.647 1295.29 340.647C1287.34 340.647 1280.88 347.1 1280.88 355.059C1280.88 363.019 1287.34 369.471 1295.29 369.471Z" fill="#FFF2E7" stroke="#FF7F0F" stroke-width="4"/>
<path d="M1354.74 412.706C1371.66 412.706 1385.37 398.995 1385.37 382.081C1385.37 365.167 1371.66 351.456 1354.74 351.456C1337.83 351.456 1324.12 365.167 1324.12 382.081C1324.12 398.995 1337.83 412.706 1354.74 412.706Z" fill="#FFF2E7" stroke="#FF7F0F" stroke-width="4"/>
<path d="M1340.33 340.647C1343.31 340.647 1345.73 338.227 1345.73 335.242C1345.73 332.258 1343.31 329.838 1340.33 329.838C1337.35 329.838 1334.93 332.258 1334.93 335.242C1334.93 338.227 1337.35 340.647 1340.33 340.647Z" fill="#FFF2E7" stroke="#FF7F0F" stroke-width="4"/>
<path d="M1279.08 326.235C1284.06 326.235 1288.09 322.203 1288.09 317.228C1288.09 312.253 1284.06 308.221 1279.08 308.221C1274.11 308.221 1270.07 312.253 1270.07 317.228C1270.07 322.203 1274.11 326.235 1279.08 326.235Z" fill="#FFF2E7" stroke="#FF7F0F" stroke-width="4"/>
<path d="M1369.15 347.853C1372.14 347.853 1374.56 345.433 1374.56 342.448C1374.56 339.464 1372.14 337.044 1369.15 337.044C1366.17 337.044 1363.75 339.464 1363.75 342.448C1363.75 345.433 1366.17 347.853 1369.15 347.853Z" fill="#FFF2E7" stroke="#FF7F0F" stroke-width="4"/>
<path d="M1234.04 409.103C1242 409.103 1248.46 402.65 1248.46 394.691C1248.46 386.732 1242 380.279 1234.04 380.279C1226.09 380.279 1219.63 386.732 1219.63 394.691C1219.63 402.65 1226.09 409.103 1234.04 409.103Z" fill="#FFF2E7" stroke="#FF7F0F" stroke-width="4"/>
<path d="M1286.29 391.088C1289.27 391.088 1291.69 388.668 1291.69 385.684C1291.69 382.699 1289.27 380.279 1286.29 380.279C1283.3 380.279 1280.88 382.699 1280.88 385.684C1280.88 388.668 1283.3 391.088 1286.29 391.088Z" fill="#FFF2E7" stroke="#FF7F0F" stroke-width="4"/>
<path d="M1232.24 365.868C1243.19 365.868 1252.06 356.996 1252.06 346.052C1252.06 335.107 1243.19 326.235 1232.24 326.235C1221.3 326.235 1212.43 335.107 1212.43 346.052C1212.43 356.996 1221.3 365.868 1232.24 365.868Z" fill="#FFF2E7" stroke="#FF7F0F" stroke-width="4"/>
</g>
<path fill-rule="evenodd" clip-rule="evenodd" d="M1281.8 578H1618.2C1653.6 578 1666.43 581.686 1679.37 588.607C1692.32 595.528 1702.47 605.684 1709.39 618.625C1716.31 631.566 1720 644.403 1720 679.801V1016.2C1720 1051.6 1716.31 1064.43 1709.39 1077.37C1702.47 1090.32 1692.32 1100.47 1679.37 1107.39C1666.43 1114.31 1653.6 1118 1618.2 1118H1281.8C1246.4 1118 1233.57 1114.31 1220.63 1107.39C1207.68 1100.47 1197.53 1090.32 1190.61 1077.37C1183.69 1064.43 1180 1051.6 1180 1016.2V679.801C1180 644.403 1183.69 631.566 1190.61 618.625C1197.53 605.684 1207.68 595.528 1220.63 588.607C1233.57 581.686 1246.4 578 1281.8 578Z" fill="#FFF2E7"/>
<path fill-rule="evenodd" clip-rule="evenodd" d="M1450 1054.47C1534.79 1054.47 1592.94 974.461 1592.94 888.938C1592.94 803.415 1534.79 744.765 1450 744.765C1365.21 744.765 1307.06 803.415 1307.06 888.938C1307.06 974.461 1365.21 1054.47 1450 1054.47Z" stroke="#FF7F0F" stroke-width="6"/>
<path fill-rule="evenodd" clip-rule="evenodd" d="M1450 1030.65C1520.66 1030.65 1569.12 964.998 1569.12 894.825C1569.12 824.653 1505.59 768.588 1446.03 768.588C1386.47 768.588 1330.88 824.653 1330.88 894.825C1330.88 964.998 1379.34 1030.65 1450 1030.65Z" fill="#FFD3AD"/>
<path d="M1410.29 943.294C1423.53 953.882 1436.77 959.176 1450 959.176C1463.24 959.176 1476.47 953.882 1489.71 943.294" stroke="#FFF2E7" stroke-width="6" stroke-linecap="round"/>
<path d="M1410.29 943.294C1423.53 953.882 1436.77 959.176 1450 959.176C1463.24 959.176 1476.47 953.882 1489.71 943.294" stroke="#FF7F0F" stroke-width="6" stroke-linecap="round"/>
<path d="M1370.59 873.809C1378.53 865.867 1386.47 861.897 1394.41 861.897C1402.35 861.897 1410.29 865.867 1418.23 873.809" stroke="#FFF2E7" stroke-width="6" stroke-linecap="round"/>
<path d="M1481.77 873.809C1489.71 865.867 1497.65 861.897 1505.59 861.897C1513.53 861.897 1521.47 865.867 1529.41 873.809" stroke="#FFF2E7" stroke-width="6" stroke-linecap="round"/>
<path d="M1370.59 873.809C1378.53 865.867 1386.47 861.897 1394.41 861.897C1402.35 861.897 1410.29 865.867 1418.23 873.809" stroke="#FF7F0F" stroke-width="6" stroke-linecap="round"/>
<path d="M1481.77 873.809C1489.71 865.867 1497.65 861.897 1505.59 861.897C1513.53 861.897 1521.47 865.867 1529.41 873.809" stroke="#FF7F0F" stroke-width="6" stroke-linecap="round"/>
<path fill-rule="evenodd" clip-rule="evenodd" d="M1497.65 681.234C1525.19 688.377 1549.27 697.116 1577.06 732.852C1604.85 768.587 1619.47 826.117 1594.28 863.881C1564.89 784.157 1498.27 744.452 1394.41 744.763C1429.79 693.737 1464.2 672.56 1497.65 681.234Z" fill="#FFF2E7" stroke="#FF7F0F" stroke-width="6" stroke-linejoin="round"/>
<path fill-rule="evenodd" clip-rule="evenodd" d="M1303.09 855.943C1309.5 875.179 1338.82 728.884 1514.18 736.073C1545.21 655.086 1532.8 617.705 1439.69 617.705C1402.45 617.705 1358.67 625.648 1338.82 665.354C1317.46 708.078 1330.39 712.962 1377.62 680.005C1301.46 717.885 1276.62 776.531 1303.09 855.943Z" fill="#FFF2E7" stroke="#FF7F0F" stroke-width="6" stroke-linejoin="round"/>
<path fill-rule="evenodd" clip-rule="evenodd" d="M1281.8 579H1618.2C1653.6 579 1666.43 582.686 1679.37 589.607C1692.32 596.528 1702.47 606.684 1709.39 619.625C1716.31 632.566 1720 645.403 1720 680.801V1017.2C1720 1052.6 1716.31 1065.43 1709.39 1078.37C1702.47 1091.32 1692.32 1101.47 1679.37 1108.39C1666.43 1115.31 1653.6 1119 1618.2 1119H1281.8C1246.4 1119 1233.57 1115.31 1220.63 1108.39C1207.68 1101.47 1197.53 1091.32 1190.61 1078.37C1183.69 1065.43 1180 1052.6 1180 1017.2V680.801C1180 645.403 1183.69 632.566 1190.61 619.625C1197.53 606.684 1207.68 596.528 1220.63 589.607C1233.57 582.686 1246.4 579 1281.8 579Z" fill="#FDD5B4"/>
<path fill-rule="evenodd" clip-rule="evenodd" d="M1450 1055.47C1534.79 1055.47 1592.94 975.461 1592.94 889.938C1592.94 804.415 1534.79 745.765 1450 745.765C1365.21 745.765 1307.06 804.415 1307.06 889.938C1307.06 975.461 1365.21 1055.47 1450 1055.47Z" stroke="#FF7F0F" stroke-width="6"/>
<path fill-rule="evenodd" clip-rule="evenodd" d="M1450 1031.65C1520.66 1031.65 1569.12 965.998 1569.12 895.825C1569.12 825.653 1505.59 769.588 1446.03 769.588C1386.47 769.588 1330.88 825.653 1330.88 895.825C1330.88 965.998 1379.34 1031.65 1450 1031.65Z" fill="#FFF2E7"/>
<path d="M1410.29 944.294C1423.53 954.882 1436.77 960.176 1450 960.176C1463.24 960.176 1476.47 954.882 1489.71 944.294" stroke="#FDD5B4" stroke-width="6" stroke-linecap="round"/>
<path d="M1410.29 944.294C1423.53 954.882 1436.77 960.176 1450 960.176C1463.24 960.176 1476.47 954.882 1489.71 944.294" stroke="#FF7F0F" stroke-width="6" stroke-linecap="round"/>
<path d="M1370.59 874.809C1378.53 866.867 1386.47 862.897 1394.41 862.897C1402.35 862.897 1410.29 866.867 1418.23 874.809" stroke="#FDD5B4" stroke-width="6" stroke-linecap="round"/>
<path d="M1481.77 874.809C1489.71 866.867 1497.65 862.897 1505.59 862.897C1513.53 862.897 1521.47 866.867 1529.41 874.809" stroke="#FDD5B4" stroke-width="6" stroke-linecap="round"/>
<path d="M1370.59 874.809C1378.53 866.867 1386.47 862.897 1394.41 862.897C1402.35 862.897 1410.29 866.867 1418.23 874.809" stroke="#FF7F0F" stroke-width="6" stroke-linecap="round"/>
<path d="M1481.77 874.809C1489.71 866.867 1497.65 862.897 1505.59 862.897C1513.53 862.897 1521.47 866.867 1529.41 874.809" stroke="#FF7F0F" stroke-width="6" stroke-linecap="round"/>
<path fill-rule="evenodd" clip-rule="evenodd" d="M1497.65 682.234C1525.19 689.377 1549.27 698.116 1577.06 733.852C1604.85 769.587 1619.47 827.117 1594.28 864.881C1564.89 785.157 1498.27 745.452 1394.41 745.763C1429.79 694.737 1464.2 673.56 1497.65 682.234Z" fill="#FFF2E7" stroke="#FF7F0F" stroke-width="6" stroke-linejoin="round"/>
<path fill-rule="evenodd" clip-rule="evenodd" d="M1303.09 856.943C1309.5 876.179 1338.83 729.884 1514.18 737.073C1545.22 656.086 1532.8 618.705 1439.7 618.705C1402.46 618.705 1358.68 626.648 1338.83 666.354C1317.46 709.078 1330.4 713.962 1377.63 681.005C1301.47 718.885 1276.62 777.531 1303.09 856.943Z" fill="#FFF2E7" stroke="#FF7F0F" stroke-width="6" stroke-linejoin="round"/>
<g clip-path="url(#clip1_1001_8306)">
<path fill-rule="evenodd" clip-rule="evenodd" d="M636.188 874H788.812C804.873 874 810.697 875.672 816.568 878.812C822.44 881.952 827.048 886.56 830.188 892.432C833.328 898.303 835 904.127 835 920.188V1072.81C835 1088.87 833.328 1094.7 830.188 1100.57C827.048 1106.44 822.44 1111.05 816.568 1114.19C810.697 1117.33 804.873 1119 788.812 1119H636.188C620.127 1119 614.303 1117.33 608.432 1114.19C602.56 1111.05 597.952 1106.44 594.812 1100.57C591.672 1094.7 590 1088.87 590 1072.81V920.188C590 904.127 591.672 898.303 594.812 892.432C597.952 886.56 602.56 881.952 608.432 878.812C614.303 875.672 620.127 874 636.188 874Z" fill="#FFF2E7"/>
<path d="M732.316 1053.43V1076.48" stroke="#FF7F0F" stroke-width="4" stroke-linecap="round" stroke-linejoin="round"/>
<path fill-rule="evenodd" clip-rule="evenodd" d="M717.904 960.471C717.904 960.471 706.494 973.46 683.676 999.439C690.015 1025.05 697.822 1041.49 707.095 1048.74C721.005 1059.62 742.942 990.395 717.904 960.471Z" fill="#FED3AF"/>
<path d="M766.543 906.427L683.676 999.813C689.2 1045.09 712.219 1062.07 752.732 1050.75" stroke="#FF7F0F" stroke-width="4" stroke-linecap="round" stroke-linejoin="round"/>
<path fill-rule="evenodd" clip-rule="evenodd" d="M667.146 962.524L660.114 966.509L676.47 982.088L646.312 966.119L654.383 961.545L636.838 943.808L645.581 938.853L667.146 962.524Z" fill="#FF7F0F" stroke="#FF7F0F" stroke-width="4" stroke-linejoin="round"/>
<path fill-rule="evenodd" clip-rule="evenodd" d="M651.42 994.594L649.241 1001.98L672.868 1001.66L638.83 1010.91L641.331 1002.43L615.221 1002.08L617.93 992.897L651.42 994.594Z" fill="#FF7F0F" stroke="#FF7F0F" stroke-width="4" stroke-linejoin="round"/>
<path fill-rule="evenodd" clip-rule="evenodd" d="M653.302 1029.26L655.55 1037.28L676.47 1025.32L651.32 1050.8L648.74 1041.6L625.22 1054.15L622.426 1044.18L653.302 1029.26Z" fill="#FF7F0F" stroke="#FF7F0F" stroke-width="4" stroke-linejoin="round"/>
</g>
<path fill-rule="evenodd" clip-rule="evenodd" d="M341.188 873H493.812C509.873 873 515.697 874.672 521.568 877.812C527.44 880.952 532.048 885.56 535.188 891.432C538.328 897.303 540 903.127 540 919.188V1071.81C540 1087.87 538.328 1093.7 535.188 1099.57C532.048 1105.44 527.44 1110.05 521.568 1113.19C515.697 1116.33 509.873 1118 493.812 1118H341.188C325.127 1118 319.303 1116.33 313.432 1113.19C307.56 1110.05 302.952 1105.44 299.812 1099.57C296.672 1093.7 295 1087.87 295 1071.81V919.188C295 903.127 296.672 897.303 299.812 891.432C302.952 885.56 307.56 880.952 313.432 877.812C319.303 874.672 325.127 873 341.188 873Z" fill="#FFF2E7"/>
<path fill-rule="evenodd" clip-rule="evenodd" d="M360.881 916.235C360.843 917.851 359.899 927.288 358.051 944.544C355.277 970.429 352.629 956.855 346.677 995.969C342.709 1022.05 339.894 1048.31 338.234 1074.76H406.176L411.837 1046.46H423.161L428.823 1074.76H496.764C493.762 1039.47 490.944 1013.18 488.312 995.878C484.363 969.927 478.446 958.526 476.948 944.544C475.949 935.223 475.005 925.787 474.117 916.235H360.881Z" stroke="#FF7F0F" stroke-width="4" stroke-linejoin="round"/>
<path d="M417.499 1013.51C447.347 1013.51 471.543 999.803 471.543 982.89C471.543 965.976 447.347 952.265 417.499 952.265C387.651 952.265 363.455 965.976 363.455 982.89C363.455 999.803 387.651 1013.51 417.499 1013.51Z" fill="#FFD3AD"/>
<path fill-rule="evenodd" clip-rule="evenodd" d="M428.309 973.391H419.477L426.254 995.5L406.691 966.085H416.828L410.127 941.456H421.108L428.309 973.391Z" fill="#FF7F0F" stroke="#FF7F0F" stroke-width="4" stroke-linejoin="round"/>
<path d="M439.117 973.882L444.972 962.559L462.19 954.359L468.391 939.912L485.955 934.25" stroke="#FF7F0F" stroke-width="4" stroke-linecap="round" stroke-linejoin="round"/>
<path d="M457.133 973.882L465.538 963.602L483.755 959.684L493.293 946.223L511.177 945.059" stroke="#FF7F0F" stroke-width="4" stroke-linecap="round" stroke-linejoin="round"/>
<path d="M395.883 973.882L390.478 962.559L374.585 954.359L368.861 939.912L352.648 934.25" stroke="#FF7F0F" stroke-width="4" stroke-linecap="round" stroke-linejoin="round"/>
<path d="M377.976 972.617L369.753 963.241L351.929 959.667L342.598 947.389L325.101 946.327" stroke="#FF7F0F" stroke-width="4" stroke-linecap="round" stroke-linejoin="round"/>
<path fill-rule="evenodd" clip-rule="evenodd" d="M46.1876 874H198.812C214.873 874 220.697 875.672 226.568 878.812C232.44 881.952 237.048 886.56 240.188 892.432C243.328 898.303 245 904.127 245 920.188V1072.81C245 1088.87 243.328 1094.7 240.188 1100.57C237.048 1106.44 232.44 1111.05 226.568 1114.19C220.697 1117.33 214.873 1119 198.812 1119H46.1876C30.1272 1119 24.3033 1117.33 18.4318 1114.19C12.5604 1111.05 7.95241 1106.44 4.81232 1100.57C1.67223 1094.7 0 1088.87 0 1072.81L0 920.188C0 904.127 1.67223 898.303 4.81232 892.432C7.95241 886.56 12.5604 881.952 18.4318 878.812C24.3033 875.672 30.1272 874 46.1876 874Z" fill="#FDD5B4"/>
<path fill-rule="evenodd" clip-rule="evenodd" d="M86.4707 1019.06C86.4707 1041.62 94.7852 1061.35 122.5 1061.35C150.215 1061.35 158.53 1041.62 158.53 1019.06C158.53 1004.02 147.444 974.883 125.272 931.647C121.576 931.647 119.729 931.647 119.729 931.647C119.729 931.647 86.4707 996.5 86.4707 1019.06Z" stroke="#FF7F0F" stroke-width="4"/>
<path fill-rule="evenodd" clip-rule="evenodd" d="M90.0746 996.5C90.0746 996.5 73.8614 1061.35 122.501 1061.35C171.141 1061.35 154.928 996.5 154.928 996.5C154.928 996.5 147.416 999.32 132.394 1004.96C119.203 1004.96 112.608 1004.96 112.608 1004.96L90.0746 996.5Z" fill="#FF7F0F"/>
<path fill-rule="evenodd" clip-rule="evenodd" d="M931.188 578H1083.81C1099.87 578 1105.7 579.672 1111.57 582.812C1117.44 585.952 1122.05 590.56 1125.19 596.432C1128.33 602.303 1130 608.127 1130 624.188V776.812C1130 792.873 1128.33 798.697 1125.19 804.568C1122.05 810.44 1117.44 815.048 1111.57 818.188C1105.7 821.328 1099.87 823 1083.81 823H931.188C915.127 823 909.303 821.328 903.432 818.188C897.56 815.048 892.952 810.44 889.812 804.568C886.672 798.697 885 792.873 885 776.812V624.188C885 608.127 886.672 602.303 889.812 596.432C892.952 590.56 897.56 585.952 903.432 582.812C909.303 579.672 915.127 578 931.188 578Z" fill="#FFF2E7"/>
<path d="M1025.52 787.994C1031.07 790.768 1052.35 793.837 1064.42 782.445C1076.49 771.053 1082.24 758.308 1078.36 732.875C1074.48 707.441 1068.67 696.267 1067.2 682.563C1066.22 673.428 1067.15 649.382 1069.98 610.427" stroke="#FF7F0F" stroke-width="4" stroke-linecap="round" stroke-linejoin="round"/>
<path d="M989.484 787.994C983.926 790.768 962.646 793.837 950.576 782.445C938.506 771.053 932.764 758.308 936.641 732.875C940.517 707.441 946.326 696.267 947.797 682.563C948.777 673.428 947.851 649.382 945.018 610.427" stroke="#FF7F0F" stroke-width="4" stroke-linecap="round" stroke-linejoin="round"/>
<path d="M1007.5 743.735C1031.38 743.735 1050.74 717.119 1050.74 684.286C1050.74 651.454 1031.38 624.838 1007.5 624.838C983.623 624.838 964.266 651.454 964.266 684.286C964.266 717.119 983.623 743.735 1007.5 743.735Z" fill="#FFD3AD"/>
<path fill-rule="evenodd" clip-rule="evenodd" d="M1018.31 689.2H1009.48L1016.25 711.309L996.691 681.893H1006.83L1000.13 657.265H1011.11L1018.31 689.2Z" fill="#FF7F0F" stroke="#FF7F0F" stroke-width="4" stroke-linejoin="round"/>
<path fill-rule="evenodd" clip-rule="evenodd" d="M931.188 283H1083.81C1099.87 283 1105.7 284.672 1111.57 287.812C1117.44 290.952 1122.05 295.56 1125.19 301.432C1128.33 307.303 1130 313.127 1130 329.188V481.812C1130 497.873 1128.33 503.697 1125.19 509.568C1122.05 515.44 1117.44 520.048 1111.57 523.188C1105.7 526.328 1099.87 528 1083.81 528H931.188C915.127 528 909.303 526.328 903.432 523.188C897.56 520.048 892.952 515.44 889.812 509.568C886.672 503.697 885 497.873 885 481.812V329.188C885 313.127 886.672 307.303 889.812 301.432C892.952 295.56 897.56 290.952 903.432 287.812C909.303 284.672 915.127 283 931.188 283Z" fill="#FDD5B4"/>
<path fill-rule="evenodd" clip-rule="evenodd" d="M967.867 428.318C967.867 451.137 979.191 473.956 1007.5 473.956C1035.81 473.956 1047.13 451.137 1047.13 428.318C1047.13 413.106 1034.86 382.681 1010.33 337.044C1006.56 337.044 1004.67 337.044 1004.67 337.044C1004.67 337.044 967.867 405.5 967.867 428.318Z" fill="#FF7F0F"/>
<g clip-path="url(#clip2_1001_8306)">
<path fill-rule="evenodd" clip-rule="evenodd" d="M1521.19 283H1673.81C1689.87 283 1695.7 284.672 1701.57 287.812C1707.44 290.952 1712.05 295.56 1715.19 301.432C1718.33 307.303 1720 313.127 1720 329.188V481.812C1720 497.873 1718.33 503.697 1715.19 509.568C1712.05 515.44 1707.44 520.048 1701.57 523.188C1695.7 526.328 1689.87 528 1673.81 528H1521.19C1505.13 528 1499.3 526.328 1493.43 523.188C1487.56 520.048 1482.95 515.44 1479.81 509.568C1476.67 503.697 1475 497.873 1475 481.812V329.188C1475 313.127 1476.67 307.303 1479.81 301.432C1482.95 295.56 1487.56 290.952 1493.43 287.812C1499.3 284.672 1505.13 283 1521.19 283Z" fill="#FFF2E7"/>
<path fill-rule="evenodd" clip-rule="evenodd" d="M1583.55 315.427L1511.03 486.454L1547.29 469.903C1547.29 484.615 1550.08 491.971 1555.66 491.971C1561.24 491.971 1564.03 482.776 1564.03 464.386L1683.97 409.216C1670.55 387.693 1655.68 369.303 1639.34 354.046C1623.01 338.789 1604.41 325.916 1583.55 315.427Z" stroke="#FF7F0F" stroke-width="4" stroke-linecap="round" stroke-linejoin="round"/>
<path d="M1572.28 339.497C1582.86 335.481 1591.38 336.396 1597.83 342.241C1607.5 351.008 1598.23 356.449 1610.61 366.165C1622.98 375.881 1631.89 369.673 1643.25 386.133C1650.82 397.106 1658.39 407.164 1665.96 416.309" stroke="#FF7F0F" stroke-width="4"/>
<path d="M1583.09 412.706C1591.05 412.706 1597.5 406.254 1597.5 398.295C1597.5 390.335 1591.05 383.883 1583.09 383.883C1575.13 383.883 1568.68 390.335 1568.68 398.295C1568.68 406.254 1575.13 412.706 1583.09 412.706Z" stroke="#FF7F0F" stroke-width="4"/>
<path d="M1622.72 423.515C1630.68 423.515 1637.13 417.063 1637.13 409.103C1637.13 401.144 1630.68 394.691 1622.72 394.691C1614.76 394.691 1608.31 401.144 1608.31 409.103C1608.31 417.063 1614.76 423.515 1622.72 423.515Z" stroke="#FF7F0F" stroke-width="4"/>
<path d="M1556.07 445.132C1561.04 445.132 1565.07 441.099 1565.07 436.125C1565.07 431.15 1561.04 427.117 1556.07 427.117C1551.09 427.117 1547.06 431.15 1547.06 436.125C1547.06 441.099 1551.09 445.132 1556.07 445.132Z" stroke="#FF7F0F" stroke-width="4"/>
</g>
<defs>
<clipPath id="clip0_1001_8306">
<rect width="245" height="245" fill="white" transform="translate(1180 283)"/>
</clipPath>
<clipPath id="clip1_1001_8306">
<rect width="245" height="245" fill="white" transform="translate(590 873)"/>
</clipPath>
<clipPath id="clip2_1001_8306">
<rect width="245" height="245" fill="white" transform="translate(1475 283)"/>
</clipPath>
</defs>
</svg>
