<svg width="121" height="14" viewBox="0 0 121 14" fill="none" xmlns="http://www.w3.org/2000/svg">
<path d="M75.6747 7.56027C74.5374 7.24022 73.4065 6.66857 72.2619 6.64313C66.8622 6.52308 61.4585 6.51105 56.0568 6.54523C53.0199 6.56446 49.9846 6.76999 46.9473 6.81569C46.7015 6.81941 46.4456 6.23471 46.1945 5.92343L46.567 5.28768C46.4378 5.49581 46.3086 5.70395 46.1794 5.9121C36.728 6.65203 27.2835 7.4887 17.8222 8.09024C13.2426 8.38134 8.63101 8.28535 4.03443 8.2643C0.0998891 8.2463 -0.552105 7.35244 0.370096 3.36912C4.26834 2.91526 8.22626 2.27326 12.2119 2.02433C24.285 1.27032 36.3623 0.508575 48.4511 0.0711575C55.0443 -0.167357 61.6637 0.262349 68.2719 0.356966C72.9634 0.424121 77.6671 0.252222 82.3457 0.507974C92.6927 1.07352 103.03 1.80272 113.364 2.56546C115.092 2.69103 116.782 3.10981 118.352 3.80158C119.347 4.25045 120.467 5.3385 120.665 6.29867C121.152 8.65834 121.458 11.1845 118.992 12.977L119.017 13C118.047 12.8127 117.078 12.6254 116.108 12.4381L116.131 12.4659C113.517 10.1754 110.185 11.984 107.324 11.1006C106.977 10.9936 106.624 10.9058 106.273 10.809C107.121 10.4011 107.969 9.99319 108.817 9.58524L108.407 9.05497C107.705 9.64733 107.002 10.2397 106.299 10.8322C105.335 10.6424 104.371 10.4526 103.407 10.2629L103.393 10.2826C103.582 9.91163 103.77 9.54065 103.958 9.16965C104.103 9.11056 104.247 9.05148 104.19 9.07463C104.246 9.04408 104.112 9.11827 103.978 9.19246C103.39 9.37303 102.802 9.55358 102.215 9.73412L102.246 9.71941L95.8676 9.19306L95.8945 9.16759C93.7742 8.80732 91.654 8.44703 89.5338 8.08672L89.5545 8.10532L88.9216 8.10612L88.9458 8.08549C86.6586 8.00932 84.3708 7.94711 82.0844 7.85289C79.9381 7.76445 77.7933 7.64217 75.6478 7.5348L75.6747 7.56027ZM84.3258 5.91157C84.5166 5.72802 84.7074 5.54445 84.8982 5.36084L84.9181 5.37951C84.7272 5.56459 84.5363 5.74966 84.3455 5.93472C84.1406 5.93432 83.9357 5.93392 83.7309 5.93349L83.7483 5.91293C83.9408 5.91246 84.1333 5.91202 84.3258 5.91157V5.91157ZM82.0198 5.90818L82.0025 5.92432C81.8873 5.85577 81.7722 5.78721 81.8153 5.8129C81.7715 5.7925 81.8956 5.85033 82.0198 5.90818V5.90818ZM88.3794 5.9321H86.2815C86.3067 6.09974 86.332 6.26738 86.3572 6.435L88.3583 5.91214L88.3794 5.9321ZM107.446 7.01575C107.253 7.01589 107.061 7.01603 106.869 7.01618C103.689 5.12399 100.443 5.58192 97.1565 7.16224C100.393 7.29093 103.629 7.41963 106.865 7.54835C107.592 7.63283 108.32 7.71733 109.047 7.80184C109.049 7.60915 109.051 7.41648 109.053 7.22381C108.517 7.15443 107.981 7.08509 107.446 7.01575V7.01575ZM94.1554 6.45436C94.2902 6.51879 94.4249 6.5832 94.3375 6.54144C94.4274 6.57286 94.2836 6.52257 94.1399 6.47233H91.3793L91.4507 6.95182L94.1554 6.45436ZM110.024 6.78886C110.754 7.67561 111.113 8.42118 111.397 8.39667C112.172 8.24743 112.923 8.00348 113.63 7.67103L113.464 7.10618L110.024 6.78886ZM116.047 9.36878L116.146 8.97709C115.686 8.88593 115.226 8.79475 114.765 8.70354L114.684 9.02355L116.047 9.36878ZM78.7861 5.51232C78.4487 5.61833 78.6174 5.56532 78.7861 5.51232V5.51232ZM112.116 9.76783C111.869 9.9465 111.993 9.85716 112.116 9.76783C111.973 9.83046 111.829 9.89311 112.116 9.76783H112.116Z" fill="#E5AC9C"/>
<path d="M116.98 13C116.01 13.3333 115.039 13.6666 114.069 14C114.046 13.68 114.023 13.3601 114 13.0401H117L116.98 13Z" fill="#E5AC9C"/>
<path d="M102.074 10.9969C102.067 10.6648 102.06 10.3324 102.053 10L102 10.0256C102.659 10.3504 103.318 10.6752 103.977 11L104 10.9651C103.343 10.9603 102.685 10.9557 102.028 10.9513L102.074 10.9969Z" fill="#E5AC9C"/>
</svg>
