<svg width="125" height="13" viewBox="0 0 125 13" fill="none" xmlns="http://www.w3.org/2000/svg">
<path d="M59.3296 3.78645C58.0528 2.75472 56.7923 2.11697 55.3751 3.65841C55.2005 3.84836 54.5435 3.67595 54.1132 3.63974C52.8065 3.52987 51.5013 3.40453 49.7131 3.2411C50.7387 4.95452 51.926 5.1123 53.3154 5.25577C54.1829 5.3453 54.9756 6.05926 55.8018 6.49302L55.8385 6.47452C54.2926 6.5209 52.7692 6.83191 51.345 7.39189C49.1295 8.22561 46.4971 8.10499 44.0426 8.39151C43.9381 8.13888 43.8337 7.88625 43.7292 7.63361C45.6465 6.84819 47.5637 6.06277 49.6755 5.1976C49.3544 5.00964 48.9988 4.87798 48.6265 4.80917C44.3896 4.88663 40.1536 4.99744 35.9186 5.1416C35.7388 5.14801 35.5801 5.66584 35.4117 5.94546C35.2136 6.12312 35.0155 6.3008 34.8174 6.47849L34.8264 6.48972C35.0186 6.30574 35.2109 6.12178 35.4032 5.93783C38.2328 5.79293 41.0586 5.64826 43.8807 5.5038C43.9239 5.74853 44.0292 6.02104 43.9701 6.05642C41.7702 7.37055 34.2881 8.39115 31.7611 7.93053C29.6684 7.58137 27.5294 7.54159 25.4234 7.81266C21.1686 8.28252 16.8562 8.34363 12.564 8.46333C10.2614 8.52751 7.9464 8.42917 5.64562 8.28536C1.39681 8.01976 -0.197783 6.25196 0.0193377 1.64601C10.4796 1.17076 20.9871 0.560975 31.5049 0.255513C40.61 -0.00890636 49.7279 -0.0444484 58.8377 0.0421361C64.6362 0.0972087 70.4283 0.604865 76.227 0.823559C79.8901 0.961714 83.5676 0.820949 87.2256 1.01655C95.4104 1.45421 103.631 1.36763 111.714 3.14929C115.333 3.94688 118.871 4.68198 121.987 6.62681C122.84 7.15912 123.645 7.75759 125 8.68886C121.814 10.0796 119.132 11.2501 116.451 12.4207L116.483 12.4427C115.797 12.0986 115.084 11.7044 115.28 13L115.291 12.9768C113.539 12.9734 111.788 12.9701 110.036 12.9667L110.062 12.9949C110.722 12.2365 111.381 11.4781 112.213 10.5225C110.103 10.2888 108.536 10.8177 106.76 12.0978C106.643 11.571 106.47 10.7916 106.235 9.73444C105.843 10.034 105.435 10.3152 105.013 10.5769C104.656 10.782 104.084 11.1318 103.871 11.0124C102.14 10.043 99.8653 12.5825 98.3946 10.2593L98.3619 10.2913C98.751 10.1016 99.1402 9.91189 99.5293 9.72218L99.5569 9.74782C99.1901 9.76797 98.8232 9.78813 98.4564 9.8083L98.2755 9.62162C98.1377 9.36589 98.0176 8.89861 97.8594 8.88724C96.2992 8.77482 94.7325 8.7381 93.1671 8.67941L93.0946 8.61341C95.2499 6.54069 97.9208 7.78529 100.375 7.6452C101.266 7.59432 102.161 7.60183 103.055 7.58267L103.028 7.55766C103.039 7.92405 103.05 8.29046 103.06 8.65688L103.038 8.63557C104.76 7.74401 106.482 6.85247 108.203 5.96095C108.165 5.72385 108.126 5.48676 108.087 5.24969C100.243 4.1346 92.3117 3.64102 84.3777 3.77429C84.7315 3.57416 85.0852 3.37403 85.4389 3.17387L84.9164 2.80936C84.7469 3.13829 84.5774 3.46721 84.4079 3.7961C83.558 4.14419 82.7081 4.49232 81.6591 4.92205C81.6328 4.77679 81.5569 4.35638 81.4626 3.83452L76.0224 5.03929C76.0004 3.13886 74.6876 3.14398 73.3217 3.42488C72.1052 3.67506 70.7863 3.86227 69.7568 4.44749C69.06 4.81994 68.2544 4.9787 67.4547 4.90117C66.655 4.82364 65.902 4.51378 65.3032 4.01572C63.1559 1.97102 61.3023 3.33142 59.304 3.7627L59.3296 3.78645ZM35.9224 3.96831L35.9679 3.56194C35.54 3.53363 35.1121 3.50533 34.6843 3.47704L34.6469 3.80152L35.9224 3.96831ZM112.919 7.19308C112.881 7.12093 112.827 6.98304 112.807 6.98717C112.666 7.02249 112.528 7.06759 112.394 7.12208C112.428 7.19146 112.476 7.32367 112.495 7.32023C112.639 7.28732 112.781 7.24483 112.919 7.19308ZM38.2915 3.52194C38.2218 3.54556 38.1224 3.55203 38.0914 3.59815C38.0658 3.6363 38.121 3.72125 38.1403 3.78543C38.2094 3.75986 38.3043 3.75061 38.339 3.7033C38.3642 3.66882 38.3102 3.58421 38.2915 3.52194Z" fill="#E5AC9C"/>
<path d="M62.3741 7.55355L57.07 8.3222L57.0955 8.3551H53C54.2413 7.36998 55.0903 6.69615 55.9393 6.02239L55.9025 6.04856L58.2674 6.05866L58.2408 6.02398C58.8378 6.02328 59.4349 6.02254 60.032 6.02174L60.0038 6.05885C62.365 5.76903 64.7225 5.39153 67.0886 5.21519C69.2787 4.95998 71.4807 4.93173 73.6742 5.13069C76.1546 5.5585 78.6045 6.24789 81 7.19209C78.7757 8.04896 77.1216 11.6758 74.0889 9.07752C74.9809 8.93596 75.6919 8.82308 76.6039 8.67829C74.7012 6.52949 72.1956 6.92545 67.8084 9.96432C67.9978 9.15244 68.1071 8.68408 68.2409 8.11052C66.3245 6.95961 64.1956 9.52251 62.3456 7.59071L62.2718 7.44956L62.3741 7.55355Z" fill="#E5AC9C"/>
<path d="M87.0216 10C87.0588 9.66668 87.096 9.33334 87.1332 9C88.7555 9.16756 90.3777 9.33511 92 9.50264L91.9784 9.4807C90.319 9.64803 88.6595 9.81538 87 9.98276L87.0216 10Z" fill="#E5AC9C"/>
<path d="M86 8.36381L84.0638 9C84.0426 8.46919 84.0213 7.93839 84 7.40757L85.9672 7C85.9781 7.45459 85.9891 7.90919 86 8.36381Z" fill="#E5AC9C"/>
<path d="M82.0257 12L83.0522 10C83.3682 10.0985 83.6841 10.1969 84 10.2953L82 11.9837L82.0257 12Z" fill="#E5AC9C"/>
<path d="M88.0721 7C88.7052 7.09373 89.3384 7.18749 89.9716 7.2813L90 8.58906C89.3333 8.726 88.6666 8.86298 88 9L88.0721 7Z" fill="#E5AC9C"/>
<path d="M58.8271 4L59 5L58 4.8767C58.2861 4.5895 58.5721 4.30229 58.8582 4.01507L58.8271 4Z" fill="#E5AC9C"/>
<path d="M98.8923 10.9522C98.2884 10.926 97.6844 10.8998 97.0805 10.8736L97 10.3356C97.5617 10.2237 98.1233 10.1118 98.685 10L99 10.2788C98.9258 10.5161 98.8708 10.757 98.8354 11L98.8923 10.9522Z" fill="#E5AC9C"/>
<path d="M92.9717 9.97398C92.6479 9.96937 92.324 9.96462 92 9.95974L92.0164 10C92.3235 9.66713 92.6304 9.3338 92.9371 9L92.9959 9.11133C93.0069 9.40595 92.9957 9.70208 92.963 9.9906L92.9717 9.97398Z" fill="#E5AC9C"/>
</svg>
