<svg width="119" height="10" viewBox="0 0 119 10" fill="none" xmlns="http://www.w3.org/2000/svg">
<path d="M89.3727 8.35772C86.2547 9.20282 83.2173 9.90847 79.8754 9.09195C77.7078 8.56233 75.2625 9.37748 73.0048 9.07962C68.8065 8.5257 64.5994 9.25537 60.3681 8.55087C58.3578 8.21618 55.9856 7.81501 53.7839 8.73405C52.9543 9.08045 51.8961 8.92028 50.9477 8.87284C45.7507 8.61311 40.5765 7.60231 35.3416 8.47874C34.7983 8.5697 34.152 8.00492 33.5535 7.74433L33.5751 7.76627C28.0587 7.36002 22.5471 6.84803 17.0244 6.58122C12.646 6.36976 8.25256 6.37616 3.86883 6.45824C2.29348 6.48776 0.794659 6.86065 0 4.27843C1.25041 3.71813 2.53805 3.25098 3.85304 2.88057C11.0791 1.37969 18.3357 0.305074 25.7579 0.374735C33.8567 0.450748 41.9601 -0.0479773 50.0597 0.00377531C60.835 0.0725688 71.6104 0.368897 82.3825 0.68564C90.6769 0.92956 98.9671 1.33577 107.258 1.70971C111.233 1.88904 116.926 3.89169 119 5.74465C117.239 9.17566 107.918 11.2549 104.588 8.87683C102.561 10.2597 100.403 10.2249 98.0571 9.52921C96.6448 9.09089 95.1467 9.03855 93.709 9.37729C91.9375 9.86677 90.7193 9.05134 89.3568 8.34147C89.5509 8.14092 89.745 7.94035 89.9391 7.73976L89.9547 7.75619L89.3727 8.35772ZM73.8172 1.78884L73.8461 1.81241C73.845 2.00915 73.8439 2.20588 73.8428 2.4026C74.0937 2.50624 74.3446 2.6099 74.5954 2.71357L74.6544 2.47494C74.3777 2.45554 74.101 2.43614 73.8244 2.41677L73.8172 1.78884ZM52.5605 7.73443L52.5345 7.76097L51.8196 7.44285L51.756 7.66998C52.0242 7.69145 52.2923 7.71293 52.5605 7.73443V7.73443ZM49.097 5.97156C49.4832 5.96619 49.8694 5.96082 50.2555 5.95546C50.3869 6.03168 50.5182 6.10792 50.4681 6.07883C50.519 6.09838 50.3746 6.043 50.2303 5.98762C50.9432 5.58942 51.656 5.19123 52.3688 4.79304C52.2493 4.59173 52.1297 4.39042 52.0101 4.18911L49.0794 5.95444L48.4201 6.2458L48.4468 6.30168C48.6635 6.19165 48.8803 6.08162 49.097 5.97156V5.97156ZM72.1021 7.14134C73.7643 7.9559 74.5295 7.3371 74.6397 5.31831C73.5574 5.19921 72.5459 5.12295 71.5454 4.96972C69.9983 4.73284 68.4587 4.44347 66.916 4.17634L66.9424 4.2038C65.9541 4.31375 64.584 5.4448 64.5207 3.1851C61.7128 4.33874 58.9597 5.46983 55.7556 6.78616C58.8823 7.76654 60.7926 3.85297 63.8433 5.98679C62.7653 6.21984 61.9729 6.39111 61.1806 6.5624L61.1787 6.56381C62.8832 7.07926 64.7756 8.69757 65.8897 5.65503C65.9442 5.50628 66.9454 5.72731 67.602 5.7845C67.3097 6.66942 67.1295 7.21518 66.9492 7.7609L66.8601 7.83684L66.9216 7.7333C68.0407 7.52695 69.1598 7.32064 70.2578 7.11817C70.0467 6.74401 69.8206 6.34343 69.2773 5.38076C70.6408 5.95615 71.3838 6.26973 72.1269 6.58332L72.0974 6.5579L72.1258 7.16611L72.1021 7.14134ZM81.4755 7.25982L81.4743 6.8218H77.1474L77.1486 7.25982H81.4755ZM100.104 7.97795C100.01 8.09392 99.9253 8.21682 99.8494 8.34565C99.8405 8.36273 99.9767 8.51035 100.025 8.49952C100.16 8.45612 100.29 8.39787 100.413 8.32577L100.104 7.97795ZM33.996 5.60811L33.9917 5.70559C34.2626 5.72579 34.5335 5.74601 34.8043 5.76626L34.8099 5.60811H33.996ZM90.0368 5.92314L89.6917 5.82381L89.7674 6.04068L90.0368 5.92314ZM78.3904 5.46587L78.509 5.25016C78.4384 5.216 78.3524 5.13933 78.3012 5.15903C78.2446 5.18075 78.2199 5.29078 78.1813 5.36237L78.3904 5.46587ZM56.9595 4.9806L56.7196 5.03765L56.9009 5.1447L56.9595 4.9806Z" fill="#E5AC9C"/>
</svg>
