<svg width="117" height="15" viewBox="0 0 117 15" fill="none" xmlns="http://www.w3.org/2000/svg">
<path d="M48.5197 9.65846C47.7768 9.59092 47.0338 9.45583 46.3584 9.59092C45.6155 9.726 44.8051 9.05058 44.1972 9.92863C43.5894 9.79354 42.914 9.65846 42.3061 9.59092C41.9684 9.52338 41.5632 9.52338 41.2255 9.59092C38.2538 10.1988 35.2145 9.86109 32.2428 10.0637C31.4999 10.1313 30.8245 10.1988 30.1491 10.4014C29.2711 10.6716 28.258 10.469 27.38 10.469C25.8942 10.4014 24.4083 10.469 22.8549 10.6716C20.4235 10.9418 17.9246 10.8067 15.4932 10.8742C15.3581 10.8742 15.223 10.8742 15.0879 10.8067C13.7372 10.1988 12.2513 9.99617 10.7655 9.92862C10.6304 9.92862 10.4953 9.79355 10.4278 9.72601C10.5628 8.30763 11.4408 7.49714 12.7241 7.15943C13.9398 6.82172 15.0879 6.48401 16.4387 6.1463C16.4387 5.06563 16.4387 4.05249 16.4387 2.90428C18.8701 2.29641 21.1664 1.75608 23.5978 1.68854C25.4214 1.621 27.3125 1.35082 29.136 1.21574C31.5674 1.01311 33.9988 0.810498 36.3627 0.675414C39.537 0.472789 42.7114 0.270152 45.8857 0.135068C49.2626 -1.53143e-05 52.6396 -2.7974e-06 56.0165 -2.64979e-06C56.9621 -2.60846e-06 57.9076 -2.56713e-06 58.8531 -2.5258e-06C61.217 -2.42247e-06 63.5809 1.80227e-06 65.9447 0.0675437C69.0515 0.135086 72.0908 0.202623 75.1976 0.337707C77.0886 0.405249 78.9797 0.675404 80.8708 0.810487C82.019 0.878029 83.1671 0.878038 84.3153 0.945579C87.4221 1.1482 90.5964 1.35083 93.7032 1.68854C95.5268 1.89117 97.2828 2.22887 99.1063 2.49903C99.1739 2.49903 99.3089 2.56658 99.3765 2.56658C102.686 2.63412 105.928 3.5797 109.237 3.84987C111.128 4.05249 113.087 4.12004 115.046 4.25512C115.383 6.21384 115.788 8.17254 116.126 10.2663C116.059 10.3339 115.856 10.469 115.721 10.604C114.978 11.347 114.978 11.6172 115.856 12.2251C116.059 12.3601 116.329 12.5628 116.464 12.7654C116.734 13.1706 116.734 13.6434 116.126 13.7785C115.721 13.9136 115.248 13.9811 114.775 14.0487C114.573 14.1162 114.303 14.0487 114.235 14.1162C113.695 14.8592 113.087 14.4539 112.547 14.3188C110.588 13.7785 108.629 13.1706 106.671 12.6303C105.05 12.1575 103.361 11.6847 101.74 11.347C99.444 10.8067 97.0802 10.4014 94.7838 9.92863C94.1084 9.79354 93.4331 9.92864 92.8252 9.8611C92.0823 9.72602 91.4069 9.38829 90.664 9.25321C89.5833 9.05058 88.5027 8.98306 87.4221 8.84798C86.2739 8.71289 85.1933 8.5778 84.0451 8.44272C83.0321 8.37518 81.9514 8.30762 80.9384 8.24008C78.642 8.105 76.4133 7.90237 74.1169 7.90237C72.2258 7.90237 70.4023 8.17254 68.5112 8.30763C68.3086 8.30763 68.106 8.30763 67.9709 8.30763C66.35 8.17254 64.7966 7.90238 63.1756 7.96992C62.095 8.03746 60.9468 8.17256 59.8662 8.17256C59.7987 8.17256 59.6636 8.30764 59.5961 8.44272C59.461 9.0506 59.1233 9.0506 58.6505 8.78043C58.1102 8.37518 57.5699 8.44272 56.8945 8.44272C54.5307 8.37518 52.2343 9.18567 49.8705 9.05059C49.1275 9.05059 48.9925 9.59092 48.5197 9.65846ZM56.6244 2.83674C56.4217 2.70166 56.2867 2.63412 56.2191 2.63412C56.0841 2.70166 55.949 2.83675 55.8139 2.97183C55.949 3.03937 56.0841 3.24199 56.2191 3.24199C56.3542 3.17445 56.4893 2.97182 56.6244 2.83674ZM46.1558 3.51216C46.2234 3.44462 46.2909 3.37708 46.2909 3.30954C46.2909 3.242 46.1558 3.17445 46.0883 3.17445C46.0208 3.24199 45.9532 3.37709 45.8857 3.44463C45.9532 3.44463 46.0883 3.51216 46.1558 3.51216Z" fill="#E5AC9C"/>
</svg>
