<svg width="127" height="13" viewBox="0 0 127 13" fill="none" xmlns="http://www.w3.org/2000/svg">
<path d="M14.4833 11.1438C12.8052 13.1701 11.1319 12.0467 9.4582 11.1366C9.7118 11.1029 9.9654 11.0691 10.219 11.0354L10.1554 10.8274L9.48044 11.1636C8.9194 10.9762 8.35836 10.7888 7.79732 10.6014C7.92245 10.5567 8.0476 10.512 8.02683 10.5194C8.04891 10.5089 7.93147 10.5649 7.81404 10.6209C3.29397 10.7556 0.108794 7.7121 0.000621686 3.14587C-0.0266975 1.99277 0.851709 1.50162 1.57986 2.1239C4.19952 4.36258 7.22557 3.46628 10.0743 3.30085C20.1118 2.71812 30.1279 1.63014 40.171 1.32996C58.9961 0.767274 77.8339 0.591541 96.6674 0.322711C101.262 0.257078 105.872 0.284738 110.454 0.573856C116.034 0.854407 121.384 2.82643 125.754 6.21349C126.204 6.63711 126.621 7.09358 127 7.57892C123.697 8.88405 120.172 9.57606 116.607 9.61917L116.46 9.47634L113.194 8.98818L113.214 9.00856C111.034 9.13428 108.855 9.27571 106.674 9.37217C106.247 9.39098 105.506 9.34418 105.43 9.14296C104.794 7.44436 103.346 8.06774 102.156 7.95748L102.074 7.88994C101.487 7.48546 100.899 7.08097 99.9903 6.45482C104.459 6.24017 108.632 6.03968 112.806 5.83918C112.817 5.66477 112.828 5.49037 112.84 5.31598C112.078 5.1769 111.316 5.03783 110.586 4.90458C110.346 4.28077 110.111 3.67274 109.877 3.06473C109.768 3.00106 109.659 2.93731 109.686 2.95312L109.886 3.05557C109.323 3.59998 108.761 4.14438 108.199 4.68877L108.225 4.66325C107.847 3.94676 107.47 3.23027 107.092 2.51376L107.112 2.53418C105.475 2.74238 103.837 2.95059 102.199 3.15881L102.012 2.979C102 2.82037 102.036 2.6617 102.117 2.52344L102.111 2.51715C101.08 2.81134 100.056 3.30747 99.0176 3.33524C98.2025 3.357 97.3711 2.79999 96.5469 2.50006H99.3168L99.2483 1.84444C98.3552 2.07295 97.4621 2.30149 96.5691 2.53003C94.0423 2.60475 91.515 2.66417 88.9891 2.76092C87.7989 2.80654 86.561 3.689 85.438 2.41885C85.3117 2.27599 84.3651 2.81934 83.7989 3.04447L83.824 3.06894C81.2019 3.1256 78.531 3.51103 75.9707 3.15147C73.1016 2.74857 70.2567 3.41342 67.333 2.73415C65.8166 2.38181 63.433 1.24226 61.8169 3.32891C61.6225 3.57993 60.9213 3.62804 60.5171 3.52937C57.9925 2.98791 55.3883 2.89256 52.829 3.24786C49.1772 3.63308 45.4993 3.77801 41.838 4.08739C40.84 4.22666 39.8517 4.42498 38.8785 4.68123L38.8749 4.67675C38.2138 3.73906 37.4718 3.81055 36.5493 4.37081C35.8703 4.71063 35.161 4.98965 34.43 5.20443L34.4538 5.22752C33.2377 5.12084 32.0157 5.09219 30.7957 5.14176C27.0892 5.5111 23.3915 5.97028 19.6961 6.43697C18.0028 6.61348 16.3401 7.00277 14.7497 7.59512C21.0035 7.30057 27.2573 7.00605 33.7251 6.70146C33.5477 7.27551 33.4471 7.60075 33.3466 7.926L33.3204 7.90044C34.559 7.80088 35.7976 7.70129 37.4581 7.56782C37.4474 7.55033 37.752 8.05028 38.1592 8.71869C34.4127 10.4966 30.324 6.73531 26.9959 10.3922C26.8952 10.1395 26.7945 9.88679 26.6938 9.63412C26.8686 9.03181 27.0434 8.42954 27.2622 7.67567C25.5877 7.31166 24.7384 7.68924 25.2211 9.40784L22.2232 9.54072L22.2521 9.51718H19.3543L16.5603 12.7067C15.7149 12.0868 15.0868 11.6263 14.4588 11.1658C14.4569 10.9784 14.4551 10.791 14.4532 10.6035L14.4794 10.6297L12.6705 10.8197C13.6349 10.9921 14.0591 11.0679 14.4833 11.1438ZM16.6929 10.6073L16.682 10.6179C16.5651 10.5514 16.4482 10.4849 16.4794 10.5027C16.4484 10.4874 16.5707 10.5474 16.6929 10.6073V10.6073ZM110.694 7.19344L110.812 7.07442L110.577 7.07231L110.694 7.19344Z" fill="#E5AC9C"/>
<path d="M46.7893 7.22272C45.0528 9.04696 42.9894 9.24356 40.7232 8.43053L40.7442 8.45192C39.8946 8.22272 39.045 7.99352 38.1953 7.76434L38.2348 7.0682C39.581 7.12455 40.9292 7.1086 42.2737 7.02042C42.8021 6.96312 43.2721 6.37111 43.7688 6.02258L43.7491 6.04651C44.753 6.44806 45.7569 6.84964 46.7608 7.25117L46.7893 7.22272Z" fill="#E5AC9C"/>
<path d="M55.3842 7.21579C54.5021 7.73047 53.6201 8.24509 52.5195 8.88724C53.0318 5.15151 54.3432 6.69955 55.2136 6.02258C55.2704 6.42029 55.3273 6.81802 55.3842 7.21579Z" fill="#E5AC9C"/>
<path d="M66.8412 6.546L64.1087 6.97747L63.9766 6.67873L66.6261 6.02258L66.8412 6.546Z" fill="#E5AC9C"/>
<path d="M47.9046 6.02258C48.806 6.18004 49.7074 6.33753 50.6088 6.49502L50.5768 6.47632C49.4766 6.79613 48.2091 7.58352 47.7441 6.12769L47.9046 6.02258Z" fill="#E5AC9C"/>
<path d="M71.6168 6.51589C71.0448 6.66974 70.4728 6.8236 69.9008 6.97747L69.707 6.49822C70.2773 6.33969 70.8476 6.18115 71.4179 6.02258L71.6168 6.51589Z" fill="#E5AC9C"/>
<path d="M88.8045 6.68231C88.4823 6.78246 88.1685 6.87996 87.8547 6.97747C87.8688 6.76341 87.8062 6.49436 87.9172 6.34984C88.0451 6.1834 88.3262 6.12685 88.5408 6.02258L88.8045 6.68231Z" fill="#E5AC9C"/>
<path d="M84.9839 6.02258C84.3999 6.34086 83.816 6.65915 83.232 6.97747L83.0742 6.16751C83.7108 6.11921 84.3474 6.07095 84.984 6.02265L84.9839 6.02258Z" fill="#E5AC9C"/>
<path d="M50.6614 6.97747C50.9623 6.65918 51.2633 6.34089 51.5643 6.02258C51.246 6.32803 50.9277 6.63346 50.6094 6.93887L50.6614 6.97747Z" fill="#E5AC9C"/>
</svg>
