<svg width="118" height="22" viewBox="0 0 118 22" fill="none" xmlns="http://www.w3.org/2000/svg">
<path d="M45.547 0.449389C45.1418 0.652015 44.7366 0.98974 44.3313 1.05728C41.8999 1.32745 39.5361 1.53007 37.1047 1.66515C36.2267 1.7327 35.4837 2.20549 34.5382 2.00286C33.9303 1.86778 33.1199 2.61073 32.3769 2.8809C31.9717 3.01598 31.5665 3.08352 31.1612 3.15106C29.1351 3.48877 27.1764 3.82648 25.1503 4.16419C25.0152 4.16419 24.8801 4.29928 24.745 4.29928C23.4618 4.29928 22.3812 4.56945 21.5032 5.65012C21.098 6.12291 20.22 6.19046 19.5446 6.46063C19.7472 6.59571 19.9498 6.79833 20.2875 7.0685C19.4095 7.13604 18.5315 6.86586 18.0587 7.87899C19.2069 7.94653 20.4226 6.93342 21.6383 8.08163C20.8278 8.41934 20.0849 8.62195 20.1524 9.63508C20.9629 9.5 21.7058 9.43245 22.5163 9.29737C22.7189 9.22983 22.854 8.82457 22.9891 8.55441C23.3267 8.68949 23.6644 8.82458 24.0021 8.95966C24.2048 8.68949 24.4749 8.35178 24.8126 7.87899C25.2178 9.16228 26.0958 8.89213 26.9063 8.82459C27.9869 8.75705 29.0675 8.55441 30.1482 8.55441C31.7016 8.55441 33.1874 8.2167 34.6733 8.2167C35.4162 8.2167 36.1591 7.879 36.902 8.41934C36.9696 8.48688 37.1047 8.48688 37.1722 8.41934C38.9282 7.60883 40.6842 8.41932 42.4402 8.2167C44.1962 8.01407 45.9523 8.2167 47.7083 8.2167C50.4774 8.14916 53.1789 7.94653 55.948 7.87899C57.1637 7.81145 58.3794 7.94654 59.5951 7.94654C61.2161 7.94654 62.837 8.01408 64.3904 7.94654C65.9438 7.94654 67.4972 7.81146 69.1181 7.81147C72.0898 7.81147 74.994 7.94654 77.9657 8.01408C80.8023 8.08162 83.639 8.28425 86.5431 8.35179C88.4342 8.41933 90.3253 8.3518 92.2164 8.48688C94.175 8.62197 96.2012 8.82458 98.1598 8.95966C98.7677 9.02721 99.3755 8.95967 99.9834 9.02721C101.807 9.16229 103.563 9.29738 105.386 9.36492C106.062 9.36492 106.805 9.22984 107.48 9.1623C107.885 9.1623 108.358 8.89214 108.696 9.50001C108.763 9.6351 109.439 9.50001 109.777 9.50001C109.777 9.36493 109.844 9.29739 109.844 9.1623C108.966 8.75705 108.156 8.21671 107.21 7.94654C106.67 7.81145 106.197 7.60883 105.657 7.33867C105.184 7.0685 104.508 7.20359 103.766 7.13605C103.766 6.86588 103.766 6.66325 103.833 6.32554C103.158 6.12291 102.617 5.71766 101.807 6.25799C101.334 6.52816 100.389 6.19046 99.7132 6.05537C99.7132 5.92029 99.7132 5.85275 99.7132 5.71767C100.186 5.65012 100.726 5.51504 101.334 5.37996C100.659 4.97471 100.186 4.637 99.6457 4.36683C100.726 4.56946 101.874 4.70454 102.955 5.04225C106.129 5.92029 109.304 6.79833 112.208 8.28425C112.546 8.48687 112.951 8.48687 113.289 8.62196C114.167 8.89212 114.977 9.1623 115.855 9.36492C116.463 9.5 116.665 9.90524 116.801 10.4456C117.071 11.7289 117.408 12.9446 117.679 14.1604C117.746 14.4305 117.746 14.7007 117.746 14.9709C117.746 15.5788 117.746 16.1867 117.746 16.9296C117.206 16.7945 116.598 16.727 115.99 16.5919C115.72 17.605 116.665 18.2129 117.071 19.1585C116.598 19.1585 116.26 19.226 115.99 19.1585C114.639 18.6857 114.707 18.6182 113.896 19.6313C112.883 19.3611 111.87 19.0909 110.857 18.8883C110.857 18.8208 110.857 18.8208 110.857 18.7533C111.195 18.6857 111.6 18.6857 112.073 18.6182C111.668 18.2804 111.262 18.0778 110.992 17.7401C110.655 17.4024 110.249 17.1998 109.709 17.3348C109.236 17.4024 108.763 17.2673 108.291 17.1322C106.67 16.727 104.981 16.1866 103.36 15.8489C101.942 15.5788 100.456 15.5788 98.9703 15.7139C99.2404 15.7814 99.5106 15.8489 99.9158 15.984C99.1054 16.1191 98.4975 16.1191 97.8897 15.6463C97.4844 15.3086 96.809 15.2411 96.2687 15.3086C95.1881 15.3086 94.2426 15.2411 93.1619 15.106C91.0007 14.8358 88.8395 14.7683 86.6107 14.6332C84.5845 14.4981 82.5583 14.4981 80.5322 14.2955C79.5866 14.2279 78.6411 14.4981 77.7631 13.8902C77.7631 13.8902 77.628 13.8227 77.628 13.8902C76.4798 14.7007 75.3992 13.8902 74.3186 13.62C73.9809 13.5525 73.6432 13.62 73.1029 13.62C73.6432 13.8902 73.9809 14.0928 74.3186 14.2955C74.3186 14.363 74.2511 14.4305 74.2511 14.4981C72.4275 14.4981 70.6039 14.5656 68.7804 14.4981C68.2401 14.4981 67.5647 14.2955 67.5647 13.5525C67.9699 12.9446 68.5103 14.2279 68.9155 13.2148C68.105 13.0797 67.3621 12.9446 66.6192 12.8095C66.4841 13.2148 66.5516 13.7551 66.349 13.8227C66.0113 13.9577 65.4035 14.0253 65.1333 13.8227C64.593 13.4174 63.9851 13.4174 63.3773 13.3499C62.0265 13.2824 60.6757 13.1473 59.325 13.0797C59.1899 13.0797 58.9873 13.0797 58.9197 13.0122C58.3119 11.9991 57.2988 12.6069 56.3532 12.3368C56.3532 12.6745 56.3533 12.8771 56.4208 13.1472C55.948 13.1472 55.4077 13.1473 54.9349 13.0122C54.2595 12.8771 53.5166 12.4043 52.9088 12.6069C51.2878 13.0797 49.802 12.4719 48.3161 12.3368C46.2224 12.1341 44.1962 12.6745 42.1025 12.5394C41.157 12.4719 40.2115 12.3367 39.1984 12.6069C38.2528 12.8771 37.1722 12.2692 36.0916 12.742C35.9565 12.8096 35.8214 12.8095 35.6863 12.9446C38.3204 13.2148 40.8868 13.9577 43.5209 13.1472C44.0612 12.9446 44.8041 12.6069 45.2769 13.5525C43.3858 13.6876 41.5622 13.8902 39.7387 14.0253C39.7387 14.0929 39.7387 14.1604 39.7387 14.1604C40.8868 14.1604 41.9675 14.0928 43.1156 14.1604C44.1962 14.2279 45.2769 14.2955 46.3575 14.6332C45.8172 14.7007 45.2769 14.7682 44.8041 14.8358C44.8041 14.7682 44.8716 14.7007 44.8716 14.6332C45.6146 14.9033 46.29 15.1735 47.1004 15.3086C47.7083 15.4437 48.3837 15.5112 48.9915 15.6463C47.168 16.0516 45.4795 14.9033 43.6559 15.4437C43.6559 15.106 43.7235 14.9709 43.7235 14.6332C42.7104 14.6332 41.5622 14.2955 40.6842 14.7007C39.6036 15.2411 38.523 15.1735 37.4424 15.2411C36.4968 15.3086 35.5513 15.3761 34.6733 15.2411C34.4706 15.2411 34.268 15.2411 34.0654 15.2411C34.0654 15.3761 34.0654 15.4437 34.0654 15.5788C38.9282 15.984 43.791 16.4568 48.6538 16.862C48.6538 16.9296 48.6538 16.9971 48.7214 17.1322C48.181 17.1998 47.7083 17.4024 47.168 17.4024C45.2093 17.4024 43.2507 17.4024 41.2921 17.4024C39.401 17.4024 37.5099 17.4699 35.5513 17.4699C34.6057 17.4699 33.6602 17.4024 32.7146 17.4024C30.3508 17.3349 27.9869 17.1998 25.6231 17.1998C23.5969 17.1998 21.5707 17.4024 19.5446 17.5375C19.1393 17.5375 18.6666 17.605 18.2613 17.6726C16.9106 17.8076 15.4922 17.8076 14.1415 18.0103C11.7776 18.4155 9.48126 18.8883 7.18494 19.3611C6.71216 19.4962 6.30693 19.8339 5.83416 20.0365C5.69908 19.9014 5.56402 19.7664 5.42894 19.6313C4.82109 20.3067 4.48339 19.5637 4.01062 19.3611C3.74047 19.226 3.40278 19.0909 3.06508 18.9559C3.20016 18.6182 3.33522 18.348 3.53784 17.8752C2.99753 18.2129 2.5923 18.4831 2.25461 18.6857C2.11953 18.5506 1.98445 18.4831 1.98445 18.4155C2.05199 17.9427 2.25461 17.4699 2.25461 16.9971C2.25461 16.5243 1.98445 16.0516 1.98445 15.5788C1.98445 13.7551 2.59229 13.0122 4.48338 12.0666C3.80799 11.864 3.20015 11.7964 2.5923 11.5938C1.24152 11.0535 0.566134 9.97279 0.22844 8.62195C-0.176793 7.00095 0.0258275 5.44749 0.295983 3.96157C1.64676 3.75894 2.99753 3.55631 4.28077 3.48877C5.49647 3.35369 6.71217 3.42124 7.99541 3.28615C10.4268 3.01599 12.7907 2.67827 15.2221 2.47564C18.8016 2.13793 22.3812 1.80022 26.0283 1.46252C29.3377 1.19235 32.6471 0.78711 35.9565 0.652027C38.1853 0.584485 40.3465 0.11168 42.6429 0.449389C43.6559 0.787098 44.669 0.584473 45.547 0.449389ZM39.3335 10.8508C38.3879 10.8508 37.3748 10.8508 36.3617 10.8508C36.2267 11.121 35.9565 11.5262 35.7539 11.7964C38.3204 11.7964 40.8193 11.7964 43.5209 11.7964C43.5209 11.6613 43.5209 11.3236 43.5209 11.2561C42.7104 11.121 42.035 10.9859 41.3596 10.8508C40.6842 10.3781 40.0088 10.243 39.3335 10.8508ZM29.8105 13.2823C30.0131 13.3499 30.3508 13.2823 30.4859 13.4174C31.1612 14.1604 31.9042 13.8902 32.7146 13.6876C32.9173 13.6201 33.2549 13.8227 33.5251 13.9578C31.3639 14.9033 29.1351 14.363 26.7712 15.0384C27.7843 15.6463 28.6623 15.3761 29.5403 15.3086C30.8235 15.1735 32.0392 14.9033 33.3225 14.8358C35.0785 14.7682 36.767 14.9033 38.523 14.9709C38.5905 14.9709 38.6581 14.8358 38.6581 14.7683C37.9827 14.0253 37.7801 13.8902 36.9696 14.2279C35.8214 14.7007 34.8083 14.6332 33.8628 13.7551C34.0654 13.485 34.268 13.2824 34.6057 12.8771C32.8497 12.9446 31.2963 12.9446 29.8105 13.2823C29.4052 13.2823 28.8649 13.5525 28.6623 12.8771C29.2026 12.5394 30.0131 13.0122 30.5534 12.2692C29.7429 12.1341 29 11.864 28.3922 12.0666C27.4466 12.2692 26.6361 12.1341 25.7581 11.9315C25.4204 11.864 25.0152 11.7964 24.8126 11.7289C24.5424 12.0666 24.4074 12.2692 24.2047 12.4718C23.1917 11.9315 22.3136 12.742 21.3681 12.8095C22.3136 12.6069 23.3267 13.2148 24.2047 12.4718C24.4074 12.5394 24.7451 12.8096 24.8801 12.6745C25.6906 12.0666 26.0283 12.5394 26.5686 13.3499C25.7581 13.485 25.0152 13.8227 24.4749 13.6876C23.1917 13.2824 21.9084 13.6201 20.6252 13.5525C20.2875 13.5525 19.7472 13.62 19.5446 13.8227C18.9367 14.6332 18.2613 14.2279 17.5859 14.0928C17.4509 14.4306 17.3158 14.6332 17.1807 14.9034C17.9236 15.5112 19.0042 14.6332 19.477 15.7139C19.7472 15.3086 19.9498 15.0384 20.1524 14.7683C20.7603 14.9033 20.4901 16.2542 21.5032 15.5788C21.4356 15.2411 21.3681 14.9034 21.3006 14.5656C21.5707 14.4981 21.7733 14.4306 21.9084 14.4306C23.4618 14.363 25.0152 14.2955 26.5686 14.1604C27.7168 13.8902 28.7974 13.5525 29.8105 13.2823ZM12.7231 13.8902C13.1959 14.2955 13.5336 14.5656 13.8713 14.8358C14.209 15.1735 14.9519 15.106 15.0195 14.7007C15.087 13.8902 15.6948 13.9577 16.1001 13.8227C16.7755 13.62 17.5859 13.485 18.3289 13.3499C19.0718 13.2148 19.8823 13.1473 20.6252 13.0122C20.355 12.6745 20.0173 12.4043 19.7472 12.4718C17.3833 12.9446 15.087 13.4174 12.7231 13.8902ZM44.5339 11.2561C44.5339 11.3236 44.5339 11.3912 44.5339 11.5263C44.8041 11.5938 45.0067 11.6614 45.2769 11.6614C46.9653 11.7289 48.6538 11.7289 50.4098 11.7289C50.8826 11.7289 51.4229 11.3912 51.8281 11.9991C51.8281 11.9991 52.2334 11.7964 52.5035 11.6614C52.3685 11.4587 52.3009 11.1886 52.0983 11.1886C51.0177 10.8508 49.9371 10.5807 48.8564 10.3105C48.5863 11.2561 47.9784 11.4587 47.168 11.3912C46.29 11.3236 45.412 11.2561 44.5339 11.2561ZM14.209 9.97281C15.1545 9.83773 15.965 9.49999 16.7755 9.56753C17.5859 9.63508 18.3964 9.77016 19.3419 9.22982C18.8692 9.0272 18.599 8.75704 18.3289 8.75704C17.3833 8.82459 16.3702 8.95967 15.4247 9.02721C14.8844 9.09475 14.4792 9.29739 14.209 9.97281ZM7.59017 15.4437C8.87341 15.2411 10.2242 15.2411 11.6425 14.363C9.95403 14.1604 8.73833 14.4981 7.59017 15.4437ZM12.3854 10.1079C12.3854 9.97278 12.3854 9.83771 12.3854 9.70263C11.3724 9.83771 10.3593 9.90525 9.2111 10.0403C10.2917 11.0535 11.3724 10.2429 12.3854 10.1079ZM16.9106 7.54128C15.8975 6.86586 14.8844 7.06849 13.8713 7.54128C14.8844 7.54128 15.8975 7.54128 16.9106 7.54128ZM10.697 15.4437C11.575 15.5788 12.1828 15.8489 12.8582 15.2411C11.7776 14.7007 11.7776 14.7007 10.697 15.4437ZM84.2468 13.4174C84.2468 13.5525 84.1793 13.6201 84.1793 13.7551C84.9222 13.8902 85.6651 14.0253 86.4081 14.1604C86.4081 14.0928 86.4756 14.0253 86.4756 13.9578C85.7327 13.6876 84.9897 13.5525 84.2468 13.4174ZM24.0021 15.4437C24.0021 15.3086 24.0021 15.2411 24.0697 15.106C23.4618 15.106 22.854 15.106 21.976 15.106C22.7864 15.7814 23.3943 15.6463 24.0021 15.4437ZM58.447 10.8508C58.9873 11.0535 59.46 11.1885 60.1354 11.4587C59.7302 10.4456 59.0548 10.5807 58.447 10.8508ZM53.5842 11.3912C53.5166 11.5263 53.5166 11.5938 53.4491 11.7289C54.0569 12.0666 54.7323 11.9315 55.6779 11.864C54.7999 11.6613 54.192 11.5263 53.5842 11.3912ZM58.7171 9.97281C58.1768 9.77019 57.6365 9.49999 56.9611 10.243C57.704 10.1079 58.2443 10.0404 58.7171 9.97281ZM76.6149 13.5525C76.6149 13.485 76.6149 13.4174 76.6149 13.3499C76.0746 13.2824 75.5343 13.2148 75.0615 13.1472C75.0615 13.2148 75.0615 13.2824 75.0615 13.3499C75.6018 13.4174 76.0746 13.485 76.6149 13.5525ZM79.2489 13.62C78.8437 12.9446 78.5735 12.8096 77.9657 13.3499C78.4385 13.485 78.7086 13.485 79.2489 13.62ZM81.2751 14.0253C81.3426 13.9578 81.3426 13.8227 81.4102 13.7551C81.0049 13.5525 80.6672 13.2148 79.8568 13.5525C80.5322 13.7551 80.8699 13.8902 81.2751 14.0253ZM20.6927 5.65012C20.355 5.04224 20.355 5.04224 19.8147 5.58257C20.1524 5.65011 20.4226 5.65012 20.6927 5.65012ZM32.7146 11.5263C32.7146 11.5938 32.7146 11.7289 32.7146 11.7964C32.9848 11.7964 33.2549 11.7964 33.5251 11.7964C33.5251 11.7289 33.5251 11.6613 33.5251 11.5938C33.1874 11.5938 32.9848 11.5938 32.7146 11.5263Z" fill="#E5AC9C"/>
<path d="M53.4486 14.5658C52.7057 14.6334 52.0303 14.6334 51.3549 14.7009C51.3549 14.7685 51.3549 14.836 51.3549 14.9711C52.5706 15.0386 53.7863 15.1061 55.002 15.1737C55.002 15.1061 55.0695 15.1062 55.0695 15.0386C54.8669 14.9711 54.6643 14.836 54.3941 14.7684C56.758 14.4983 58.9868 13.4852 61.2831 14.3632C61.3506 14.9711 60.5402 14.4307 60.5402 15.1737C60.5402 15.6465 59.4596 15.714 59.2569 15.1061C59.0543 14.4983 58.7166 14.4307 58.1088 14.4307C58.1763 14.7009 58.1763 14.9035 58.2439 15.1061C56.0151 15.3763 53.7863 15.714 51.5575 15.9167C51.2198 15.9842 50.6795 15.8491 50.5444 15.6465C49.9366 14.7009 49.1261 14.7009 48.1806 14.9035C47.9779 14.9711 47.8429 14.9035 47.6403 14.9035C47.5727 14.1606 47.9779 14.0255 48.5183 14.0255C50.0717 14.093 51.6926 14.2281 53.246 14.3632C53.246 14.2281 53.3135 14.3632 53.4486 14.5658Z" fill="#E5AC9C"/>
<path d="M4.14576 19.6992C3.87561 20.8474 3.87562 20.8474 2.4573 21.05C2.65992 20.3071 2.65992 20.3071 3.47038 20.172C3.74054 20.0369 3.94315 19.8343 4.14576 19.6992C4.14576 19.6992 4.2133 19.6992 4.14576 19.6992Z" fill="#E5AC9C"/>
<path d="M51.2871 0.449662C50.4091 0.449662 49.4636 0.449662 48.5856 0.449662C48.5856 0.382129 48.5856 0.314604 48.5856 0.24707C49.4636 0.24707 50.4091 0.24707 51.2871 0.24707C51.2871 0.382137 51.2871 0.449662 51.2871 0.449662Z" fill="#E5AC9C"/>
<path d="M99.7129 4.50252C98.4297 4.63761 98.4297 4.63763 97.0789 4.09728C98.1595 3.75956 98.9024 4.23235 99.7129 4.50252Z" fill="#E5AC9C"/>
<path d="M40.9541 15.1733C41.4944 15.2409 42.1023 15.376 42.6426 15.4435C42.0347 15.6462 41.3593 15.7137 40.819 15.4435C40.8866 15.376 40.8866 15.2409 40.9541 15.1733Z" fill="#E5AC9C"/>
<path d="M97.8909 5.44739C98.2961 5.51493 98.6338 5.58247 99.0391 5.65001C99.0391 5.7851 98.9715 5.85265 98.9715 5.98774C98.5663 5.92019 98.2286 5.85266 97.8234 5.78511C97.8234 5.65002 97.8909 5.51493 97.8909 5.44739Z" fill="#E5AC9C"/>
<path d="M101.941 7.67688C102.617 7.74442 102.954 7.81196 103.697 7.8795C102.752 8.14967 102.752 8.14968 101.941 7.67688Z" fill="#E5AC9C"/>
<path d="M99.7125 7.40637C100.185 7.54147 100.658 7.60901 101.131 7.74411C101.131 7.81165 101.131 7.87919 101.063 8.01429C100.591 7.94674 100.118 7.81165 99.645 7.74411C99.7125 7.60901 99.7125 7.47392 99.7125 7.40637Z" fill="#E5AC9C"/>
<path d="M23.0577 8.48753C22.9226 8.55507 22.72 8.62261 22.3823 8.82524C22.5849 8.08229 22.855 7.87966 23.4629 8.01474C23.2603 8.2849 23.1252 8.41999 23.0577 8.48753C23.0577 8.48753 22.9901 8.55507 23.0577 8.48753Z" fill="#E5AC9C"/>
<path d="M11.709 20.847C11.1687 20.847 10.9661 20.847 10.6959 20.847C10.6959 20.7794 10.6959 20.7119 10.6959 20.6444C10.831 20.6444 10.9661 20.5768 11.1011 20.5768C11.2362 20.5768 11.3038 20.6443 11.709 20.847Z" fill="#E5AC9C"/>
<path d="M70.8067 0.585083C71.0769 0.585083 71.347 0.585083 71.6172 0.585083L71.6172 0.652631C71.347 0.652631 71.0769 0.652635 70.8067 0.720179C70.8067 0.652635 70.8067 0.652627 70.8067 0.585083Z" fill="#E5AC9C"/>
<path d="M45.6146 0.517202C46.1549 0.449657 46.6277 0.38212 47.168 0.314575C47.168 0.38212 47.168 0.449657 47.168 0.517202C46.6277 0.449657 46.0874 0.449657 45.6146 0.517202C45.6146 0.517202 45.5471 0.449657 45.6146 0.517202Z" fill="#E5AC9C"/>
<path d="M48.1133 13.3504C47.8431 13.4179 47.5054 13.4854 47.2353 13.553C47.2353 13.4179 47.1677 13.3504 47.1677 13.2153C47.5054 13.1477 47.7756 13.1477 48.1133 13.0802C48.1133 13.2153 48.1133 13.2828 48.1133 13.3504Z" fill="#E5AC9C"/>
<path d="M84.179 1.80066C84.4491 1.80066 84.6517 1.80066 84.9219 1.80066L84.9219 1.86819C84.6517 1.86819 84.4491 1.86819 84.179 1.86819C84.179 1.80066 84.179 1.80066 84.179 1.80066Z" fill="#E5AC9C"/>
<path d="M23.5293 19.0234C23.2591 19.0234 23.0565 19.091 22.7864 19.091C22.7864 19.0234 22.7864 18.9558 22.7864 18.8883C23.0565 18.8883 23.2591 18.8883 23.5293 18.8883C23.5293 18.9558 23.5293 18.9559 23.5293 19.0234Z" fill="#E5AC9C"/>
<path d="M18.3277 19.6317C18.5303 19.6993 18.7329 19.6993 18.9355 19.7668L18.9355 19.8343C18.7329 19.8343 18.5303 19.8343 18.3277 19.8343C18.3277 19.7668 18.3277 19.6993 18.3277 19.6317Z" fill="#E5AC9C"/>
<path d="M39.3332 10.7832C40.0086 10.7832 40.684 10.7832 41.3594 10.7832C40.0086 11.5261 40.0086 11.5261 39.3332 10.7832Z" fill="#E5AC9C"/>
</svg>
