<svg width="46" height="40" viewBox="0 0 46 40" fill="none" xmlns="http://www.w3.org/2000/svg">
<path fill-rule="evenodd" clip-rule="evenodd" d="M41.712 3.67343C36.6801 -1.22447 28.5353 -1.22448 23.5035 3.67343L24.2976 4.48931L23.5035 3.67343L22.5658 4.58611L21.6282 3.67343C16.5963 -1.22448 8.45155 -1.22448 3.41968 3.67343C1.72875 5.31934 0.600163 7.3146 0.0415503 9.4274C-0.0701053 9.84971 0.04679 10.2997 0.349877 10.6142L0.352343 10.6168C0.831347 11.1139 1.62267 11.1286 2.1198 10.6496C2.31243 10.464 2.43263 10.2315 2.47974 9.98742C2.9313 8.33528 3.82328 6.76936 5.16344 5.46488C9.22474 1.51171 15.8231 1.51171 19.8844 5.46488L21.6924 7.22476C21.9258 7.45193 22.2386 7.57903 22.5643 7.57903H22.5673C22.893 7.57903 23.2058 7.45193 23.4392 7.22476L25.2472 5.46488C29.3085 1.5117 35.9069 1.51171 39.9682 5.46488C44.0105 9.3996 44.0105 15.7646 39.9682 19.6994L22.5658 36.6384L5.16344 19.6994C4.44172 18.9969 3.85069 18.2193 3.38839 17.3942C3.46133 17.1652 3.63423 16.8063 3.99542 16.3756C4.48799 15.7882 5.23604 15.1881 6.21375 14.7732C8.11643 13.9657 11.0281 13.8064 14.7869 16.1356C17.8238 18.0174 20.424 18.9613 23.086 18.84C25.4084 18.7342 27.6161 17.8232 30.041 16.343C30.7236 17.056 31.685 17.5 32.75 17.5C34.8211 17.5 36.5 15.8211 36.5 13.75C36.5 11.6789 34.8211 10 32.75 10C30.6789 10 29 11.6789 29 13.75C29 13.8478 29.0038 13.9447 29.0111 14.0407C26.6278 15.5285 24.7713 16.2606 22.9722 16.3426C21.0255 16.4313 18.9371 15.7663 16.1037 14.0105C11.7464 11.3104 7.98172 11.307 5.23706 12.4719C3.89111 13.0431 2.82273 13.8833 2.07981 14.7692C1.37068 15.6149 0.842575 16.6461 0.842575 17.6214C0.842575 17.8188 0.889343 18.0135 0.97905 18.1893C1.5882 19.3837 2.40263 20.5009 3.41968 21.4908L21.461 39.0518C22.0749 39.6494 23.0567 39.6494 23.6706 39.0518L41.712 21.4908C46.7626 16.5746 46.7626 8.58963 41.712 3.67343ZM31.5 13.75C31.5 13.0596 32.0596 12.5 32.75 12.5C33.4404 12.5 34 13.0596 34 13.75C34 14.4404 33.4404 15 32.75 15C32.0596 15 31.5 14.4404 31.5 13.75Z" fill="#1A2D35"/>
</svg>
