<svg width="500" height="108" viewBox="0 0 500 108" fill="none" xmlns="http://www.w3.org/2000/svg">
<rect width="500" height="108" fill="#CEE1E8"/>
<path d="M36.686 44.338C42.172 44.338 46.202 40.256 46.202 34.9C46.202 29.596 42.198 25.462 36.712 25.462C31.252 25.462 27.196 29.544 27.196 34.9C27.196 40.308 31.226 44.338 36.686 44.338ZM36.712 41.686C32.89 41.686 30.108 38.8 30.108 34.9C30.108 31.052 32.89 28.114 36.712 28.114C40.534 28.114 43.316 31.052 43.316 34.9C43.316 38.8 40.534 41.686 36.712 41.686ZM47.9757 44H51.0697L54.3977 38.956H54.6317L58.0117 44H61.1057L56.2957 37.006L60.7417 30.402H57.6477L54.6317 35.108H54.4757L51.4337 30.402H48.3397L52.7857 36.928L47.9757 44ZM63.7024 49.98H65.2364C67.6804 49.98 68.9284 48.784 69.7084 46.704L75.9484 30.402H72.9584L69.2144 40.906H69.0324L65.2624 30.402H62.2984L67.7844 44.572L67.2904 45.872C66.8744 46.964 66.1464 47.536 64.8984 47.536H63.7024V49.98ZM80.3855 44H83.1155V32.638H86.8855V30.402H83.0895V29.128C83.0895 27.828 83.7655 26.814 85.4035 26.814H86.7815V24.5H85.2475C82.3875 24.5 80.4115 26.216 80.4115 29.05V30.402H77.9415V32.638H80.3855V44ZM94.9199 44.338C96.9479 44.338 98.3519 43.298 98.8979 42.18H99.0799V44H101.732V30.402H99.0019V38.384C99.0019 40.36 97.5979 41.816 95.6999 41.816C93.9839 41.816 92.6579 40.568 92.6579 38.644V30.402H89.9279V39.138C89.9279 42.076 91.8259 44.338 94.9199 44.338ZM111.602 44.338C114.956 44.338 117.374 42.518 118.076 39.892H115.424C114.878 41.218 113.396 42.05 111.68 42.05C109.184 42.05 107.598 40.438 107.494 38.072H118.206V37.058C118.206 33.184 115.788 30.064 111.55 30.064C107.676 30.064 104.764 32.924 104.764 37.24C104.764 41.322 107.52 44.338 111.602 44.338ZM107.546 35.966C107.754 33.834 109.47 32.352 111.55 32.352C113.656 32.352 115.32 33.678 115.502 35.966H107.546ZM124.133 44H125.251V41.582H124.679C124.003 41.582 123.639 41.192 123.639 40.464V24.5H120.909V40.62C120.909 42.752 122.079 44 124.133 44ZM127.88 37.344H134.77V34.926H127.88V37.344ZM147.032 44.338C151.452 44.338 154.806 41.738 155.82 37.89H152.752C151.92 40.308 149.684 41.686 147.032 41.686C143.314 41.686 140.506 38.826 140.506 34.9C140.506 31.026 143.314 28.114 147.032 28.114C149.684 28.114 151.946 29.518 152.752 31.936H155.768C154.702 28.14 151.478 25.462 147.032 25.462C141.572 25.462 137.594 29.544 137.594 34.9C137.594 40.308 141.546 44.338 147.032 44.338ZM165.387 44.338C169.547 44.338 172.563 41.27 172.563 37.214C172.563 33.158 169.599 30.064 165.413 30.064C161.227 30.064 158.211 33.132 158.211 37.214C158.211 41.296 161.201 44.338 165.387 44.338ZM165.387 41.868C162.839 41.868 160.993 39.918 160.993 37.214C160.993 34.536 162.813 32.56 165.387 32.56C167.961 32.56 169.781 34.51 169.781 37.214C169.781 39.892 167.961 41.868 165.387 41.868ZM175.855 44H178.585V35.992C178.585 33.99 179.937 32.612 181.653 32.612C183.369 32.612 184.591 33.808 184.591 35.706V44H187.321V36.07C187.321 33.886 188.699 32.612 190.415 32.612C192.209 32.612 193.275 33.808 193.275 36.018V44H196.005V35.082C196.005 32.144 194.029 30.064 191.039 30.064C189.193 30.064 187.763 30.74 186.853 32.352H186.671C185.891 30.974 184.461 30.064 182.511 30.064C180.561 30.064 179.287 31.052 178.689 32.196H178.507V30.402H175.855V44ZM207.127 44.338C211.053 44.338 213.731 41.452 213.731 37.24C213.731 33.028 211.053 30.064 207.283 30.064C204.683 30.064 203.253 31.676 202.811 32.378H202.655V24.5H199.925V44H202.577V42.076H202.759C203.123 42.596 204.423 44.338 207.127 44.338ZM206.737 41.868C204.137 41.868 202.577 39.788 202.577 37.214C202.577 34.276 204.397 32.56 206.789 32.56C209.259 32.56 210.949 34.484 210.949 37.214C210.949 40.048 209.259 41.868 206.737 41.868ZM221.822 44.338C223.85 44.338 225.254 43.298 225.8 42.18H225.982V44H228.634V30.402H225.904V38.384C225.904 40.36 224.5 41.816 222.602 41.816C220.886 41.816 219.56 40.568 219.56 38.644V30.402H216.83V39.138C216.83 42.076 218.728 44.338 221.822 44.338ZM237.308 44.338C240.714 44.338 242.82 42.544 242.82 39.97C242.82 34.198 234.76 37.006 234.76 33.99C234.76 32.976 235.722 32.248 237.256 32.248C238.894 32.248 239.778 33.002 239.934 34.146H242.43C242.222 31.546 240.09 30.064 237.36 30.064C234.24 30.064 232.212 31.754 232.212 34.042C232.212 39.58 240.168 36.772 240.168 40.1C240.168 41.296 239.18 42.102 237.386 42.102C235.618 42.102 234.604 41.374 234.422 39.97H231.848C232.03 42.596 233.85 44.338 237.308 44.338ZM252.031 44H254.293V41.686H252.447C251.017 41.686 250.471 40.906 250.471 39.606V32.638H254.423V30.402H250.471V26.554H247.897V29.544C247.897 30.09 247.559 30.428 247.091 30.428H245.297V32.638H247.741V39.684C247.741 42.518 249.353 44 252.031 44ZM259.041 28.27C260.107 28.27 260.861 27.568 260.861 26.528C260.861 25.54 260.107 24.812 259.041 24.812C258.001 24.812 257.247 25.54 257.247 26.528C257.247 27.568 258.001 28.27 259.041 28.27ZM257.663 44H260.393V30.402H257.663V44ZM270.53 44.338C274.69 44.338 277.706 41.27 277.706 37.214C277.706 33.158 274.742 30.064 270.556 30.064C266.37 30.064 263.354 33.132 263.354 37.214C263.354 41.296 266.344 44.338 270.53 44.338ZM270.53 41.868C267.982 41.868 266.136 39.918 266.136 37.214C266.136 34.536 267.956 32.56 270.53 32.56C273.104 32.56 274.924 34.51 274.924 37.214C274.924 39.892 273.104 41.868 270.53 41.868ZM280.997 44H283.727V36.07C283.727 34.094 285.131 32.612 287.029 32.612C288.745 32.612 290.071 33.886 290.071 35.784V44H292.801V35.264C292.801 32.326 290.903 30.064 287.809 30.064C285.781 30.064 284.377 31.104 283.831 32.222H283.649V30.402H280.997V44ZM312.325 44.338C316.745 44.338 320.099 41.738 321.113 37.89H318.045C317.213 40.308 314.977 41.686 312.325 41.686C308.607 41.686 305.799 38.826 305.799 34.9C305.799 31.026 308.607 28.114 312.325 28.114C314.977 28.114 317.239 29.518 318.045 31.936H321.061C319.995 28.14 316.771 25.462 312.325 25.462C306.865 25.462 302.887 29.544 302.887 34.9C302.887 40.308 306.839 44.338 312.325 44.338ZM330.108 44.338C332.812 44.338 334.138 42.596 334.502 42.076H334.658V44H337.336V30.402H334.606V32.378H334.424C333.982 31.676 332.578 30.064 329.978 30.064C326.182 30.064 323.504 33.028 323.504 37.24C323.504 41.452 326.208 44.338 330.108 44.338ZM330.498 41.868C328.002 41.868 326.286 40.048 326.286 37.214C326.286 34.484 328.002 32.56 330.472 32.56C332.864 32.56 334.684 34.276 334.684 37.214C334.684 39.788 333.098 41.868 330.498 41.868ZM341.275 49.98H344.005V42.024H344.161C344.603 42.752 346.007 44.338 348.633 44.338C352.403 44.338 355.081 41.374 355.081 37.162C355.081 32.95 352.403 30.064 348.477 30.064C345.773 30.064 344.473 31.806 344.109 32.352H343.927V30.402H341.275V49.98ZM348.139 41.868C345.747 41.868 343.927 40.126 343.927 37.188C343.927 34.614 345.487 32.534 348.087 32.534C350.609 32.534 352.299 34.354 352.299 37.188C352.299 39.918 350.609 41.868 348.139 41.868ZM364.004 44H366.266V41.686H364.42C362.99 41.686 362.444 40.906 362.444 39.606V32.638H366.396V30.402H362.444V26.554H359.87V29.544C359.87 30.09 359.532 30.428 359.064 30.428H357.27V32.638H359.714V39.684C359.714 42.518 361.326 44 364.004 44ZM374.42 44.338C376.448 44.338 377.852 43.298 378.398 42.18H378.58V44H381.232V30.402H378.502V38.384C378.502 40.36 377.098 41.816 375.2 41.816C373.484 41.816 372.158 40.568 372.158 38.644V30.402H369.428V39.138C369.428 42.076 371.326 44.338 374.42 44.338ZM385.226 44H387.956V37.292C387.956 34.77 389.282 33.028 391.596 33.028H392.87V30.376H391.674C389.75 30.376 388.45 31.676 388.034 32.768H387.852V30.402H385.226V44ZM401.41 44.338C404.764 44.338 407.182 42.518 407.884 39.892H405.232C404.686 41.218 403.204 42.05 401.488 42.05C398.992 42.05 397.406 40.438 397.302 38.072H408.014V37.058C408.014 33.184 405.596 30.064 401.358 30.064C397.484 30.064 394.572 32.924 394.572 37.24C394.572 41.322 397.328 44.338 401.41 44.338ZM397.354 35.966C397.562 33.834 399.278 32.352 401.358 32.352C403.464 32.352 405.128 33.678 405.31 35.966H397.354Z" fill="#1B2B27"/>
<rect x="26" y="61" width="160" height="29" rx="14.5" fill="#78979E"/>
<path d="M47.606 80.4407C47.4511 80.5965 47.2602 80.7116 47.0501 80.7758C46.84 80.84 46.6173 80.8513 46.4018 80.8087C46.1863 80.7661 45.9847 80.6709 45.8148 80.5316C45.645 80.3923 45.5122 80.2131 45.4283 80.0101C45.3443 79.8071 45.3118 79.5865 45.3337 79.368C45.3556 79.1494 45.4311 78.9396 45.5536 78.7572C45.6761 78.5749 45.8417 78.4256 46.0358 78.3227C46.2299 78.2198 46.4463 78.1664 46.666 78.1673L52.666 78.1673M45.606 70.5607C45.4511 70.4049 45.2602 70.2898 45.0501 70.2256C44.84 70.1614 44.6173 70.1501 44.4018 70.1927C44.1863 70.2353 43.9847 70.3305 43.8148 70.4698C43.645 70.6091 43.5122 70.7882 43.4283 70.9912C43.3443 71.1942 43.3118 71.4148 43.3337 71.6334C43.3556 71.852 43.4311 72.0617 43.5536 72.2441C43.6761 72.4265 43.8417 72.5757 44.0358 72.6786C44.2299 72.7816 44.4463 72.8349 44.666 72.834L52.666 72.834M42.1793 78.3473C41.9854 78.5407 41.7469 78.6834 41.4847 78.7627C41.2226 78.8419 40.9449 78.8554 40.6764 78.8018C40.4078 78.7482 40.1565 78.6293 39.9449 78.4556C39.7332 78.2818 39.5676 78.0585 39.4627 77.8055C39.3578 77.5525 39.3169 77.2776 39.3436 77.005C39.3703 76.7325 39.4637 76.4707 39.6156 76.2428C39.7675 76.0149 39.9733 75.828 40.2146 75.6986C40.456 75.5691 40.7255 75.5012 40.9993 75.5007L52.666 75.5007" stroke="white" stroke-width="2" stroke-linecap="round" stroke-linejoin="round"/>
<path d="M63.454 80H65.064V72.846H65.12L69.53 80H71.42V70.2H69.796V77.396H69.74L65.33 70.2H63.454V80ZM76.1823 80.126C77.9043 80.126 79.1223 79.118 79.3183 77.802H77.7643C77.5963 78.39 77.0643 78.782 76.1823 78.782C75.0063 78.782 74.4183 77.984 74.4183 76.836H79.4163V76.164C79.4163 74.176 78.2683 72.65 76.1543 72.65C73.8723 72.65 72.7663 74.316 72.7663 76.388C72.7663 78.488 73.9843 80.126 76.1823 80.126ZM74.4323 75.702C74.4743 74.764 74.9923 74.008 76.1543 74.008C77.2463 74.008 77.7643 74.75 77.7783 75.702H74.4323ZM85.1102 72.776V77.004C85.1102 78.012 84.6762 78.642 83.5982 78.642C82.5202 78.642 82.0862 78.012 82.0862 77.004V72.776H80.4902V77.256C80.4902 78.866 81.5822 80.112 83.5982 80.112C85.6282 80.112 86.7062 78.866 86.7062 77.256V72.776H85.1102ZM90.992 80.126C91.538 80.126 92 80.042 92.224 79.972V78.628H92.084C91.902 78.684 91.678 78.726 91.384 78.726C90.74 78.726 90.446 78.432 90.446 77.746V74.134H92.196V72.776H90.446V70.858H90.306L88.92 71.25V72.776H87.66V74.134H88.85V78.026C88.85 79.272 89.452 80.126 90.992 80.126ZM93.4608 80H95.0008V76.472C95.0008 75.002 95.6308 74.162 96.8488 74.162H97.4648V72.678H96.8768C95.9668 72.678 95.2948 73.182 95.0008 73.924H94.9448L94.8048 72.776H93.4608V80ZM100.458 80.126C101.424 80.126 102.166 79.762 102.586 79.146H102.642L102.754 80H104.154V75.184C104.154 73.756 103.076 72.65 101.172 72.65C99.3518 72.65 98.2738 73.672 98.2738 75.044H99.7858C99.7998 74.456 100.262 73.966 101.144 73.966C102.152 73.966 102.572 74.526 102.572 75.198V75.87C102.194 75.758 101.55 75.632 100.892 75.632C98.8198 75.632 97.9378 76.612 97.9378 77.872C97.9378 79.146 98.8618 80.126 100.458 80.126ZM100.822 78.852C99.9538 78.852 99.5338 78.404 99.5338 77.816C99.5338 77.172 100.038 76.78 101.004 76.78C101.536 76.78 102.04 76.85 102.572 77.032V77.27C102.572 78.124 101.886 78.852 100.822 78.852ZM105.636 80H107.232V69.64H105.636V80ZM112.567 80H119.175V78.53H114.205V75.688H118.741V74.204H114.205V71.684H119.175V70.2H112.567V80ZM128.644 72.65C127.496 72.65 126.768 73.168 126.39 73.784H126.348C125.942 73.056 125.186 72.65 124.178 72.65C123.128 72.65 122.484 73.098 122.092 73.714H122.036L121.91 72.776H120.496V80H122.092V76.01C122.092 74.806 122.736 74.092 123.702 74.092C124.696 74.092 125.102 74.694 125.102 75.674V80H126.684V76.01C126.684 74.806 127.258 74.092 128.224 74.092C129.218 74.092 129.624 74.694 129.624 75.674V80H131.22V75.282C131.22 73.658 130.24 72.65 128.644 72.65ZM133.506 71.67C134.164 71.67 134.528 71.278 134.528 70.662C134.528 70.046 134.164 69.668 133.506 69.668C132.834 69.668 132.484 70.046 132.484 70.662C132.484 71.278 132.834 71.67 133.506 71.67ZM132.708 80H134.304V72.776H132.708V80ZM138.378 80.126C140.058 80.126 141.374 79.342 141.374 77.942C141.374 76.57 140.534 76.052 139.274 75.786L138.042 75.548C137.44 75.45 137.09 75.198 137.09 74.764C137.09 74.232 137.58 73.938 138.294 73.938C139.12 73.938 139.61 74.358 139.638 75.016H141.206C141.206 73.616 140.058 72.65 138.322 72.65C136.572 72.65 135.536 73.56 135.536 74.75C135.536 75.982 136.362 76.64 137.538 76.878L138.812 77.116C139.47 77.256 139.764 77.536 139.764 77.942C139.764 78.446 139.288 78.754 138.378 78.754C137.468 78.754 136.908 78.306 136.908 77.592H135.312C135.354 79.118 136.432 80.126 138.378 80.126ZM145.109 80.126C146.789 80.126 148.105 79.342 148.105 77.942C148.105 76.57 147.265 76.052 146.005 75.786L144.773 75.548C144.171 75.45 143.821 75.198 143.821 74.764C143.821 74.232 144.311 73.938 145.025 73.938C145.851 73.938 146.341 74.358 146.369 75.016H147.937C147.937 73.616 146.789 72.65 145.053 72.65C143.303 72.65 142.267 73.56 142.267 74.75C142.267 75.982 143.093 76.64 144.269 76.878L145.543 77.116C146.201 77.256 146.495 77.536 146.495 77.942C146.495 78.446 146.019 78.754 145.109 78.754C144.199 78.754 143.639 78.306 143.639 77.592H142.043C142.085 79.118 143.163 80.126 145.109 80.126ZM150.047 71.67C150.705 71.67 151.069 71.278 151.069 70.662C151.069 70.046 150.705 69.668 150.047 69.668C149.375 69.668 149.025 70.046 149.025 70.662C149.025 71.278 149.375 71.67 150.047 71.67ZM149.249 80H150.845V72.776H149.249V80ZM155.269 80.126C157.565 80.126 158.685 78.502 158.685 76.388C158.685 74.274 157.537 72.65 155.269 72.65C153.001 72.65 151.853 74.274 151.853 76.388C151.853 78.516 152.973 80.126 155.269 80.126ZM155.269 78.712C154.065 78.712 153.477 77.844 153.477 76.388C153.477 74.96 154.051 74.064 155.269 74.064C156.487 74.064 157.061 74.946 157.061 76.388C157.061 77.844 156.487 78.712 155.269 78.712ZM159.839 80H161.435V76.01C161.435 74.806 162.079 74.092 163.087 74.092C164.095 74.092 164.557 74.666 164.557 75.674V80H166.153V75.282C166.153 73.644 165.159 72.65 163.549 72.65C162.513 72.65 161.827 73.098 161.435 73.714H161.379L161.253 72.776H159.839V80ZM170.226 80.126C171.906 80.126 173.222 79.342 173.222 77.942C173.222 76.57 172.382 76.052 171.122 75.786L169.89 75.548C169.288 75.45 168.938 75.198 168.938 74.764C168.938 74.232 169.428 73.938 170.142 73.938C170.968 73.938 171.458 74.358 171.486 75.016H173.054C173.054 73.616 171.906 72.65 170.17 72.65C168.42 72.65 167.384 73.56 167.384 74.75C167.384 75.982 168.21 76.64 169.386 76.878L170.66 77.116C171.318 77.256 171.612 77.536 171.612 77.942C171.612 78.446 171.136 78.754 170.226 78.754C169.316 78.754 168.756 78.306 168.756 77.592H167.16C167.202 79.118 168.28 80.126 170.226 80.126Z" fill="white"/>
<rect x="193" y="61" width="120" height="29" rx="14.5" fill="#FBFF4C"/>
<path d="M216.72 70.1673C216.414 69.4665 215.875 68.8926 215.195 68.5419C214.515 68.1913 213.735 68.0852 212.986 68.2416C212.237 68.3979 211.565 68.8072 211.082 69.4006C210.599 69.994 210.335 70.7355 210.334 71.5006L210.334 72.3406C209.515 72.552 208.759 72.9547 208.127 73.5158C207.495 74.0768 207.005 74.78 206.698 75.5675C206.391 76.3549 206.276 77.204 206.361 78.0448C206.447 78.8857 206.731 79.6941 207.191 80.4035C207.65 81.1129 208.271 81.703 209.004 82.1251C209.736 82.5472 210.558 82.7892 211.402 82.8313C212.246 82.8733 213.088 82.7142 213.859 82.3669C214.629 82.0196 215.306 81.4942 215.834 80.834" stroke="#0A2F66" stroke-width="2" stroke-linecap="round" stroke-linejoin="round"/>
<path d="M215.666 78.166L215.666 78.1593" stroke="#0A2F66" stroke-width="2" stroke-linecap="round" stroke-linejoin="round"/>
<path d="M218.334 78.166L218.334 78.1593" stroke="#0A2F66" stroke-width="2" stroke-linecap="round" stroke-linejoin="round"/>
<path d="M217 75.5L217 75.4933" stroke="#0A2F66" stroke-width="2" stroke-linecap="round" stroke-linejoin="round"/>
<path d="M219.666 75.5L219.666 75.4933" stroke="#0A2F66" stroke-width="2" stroke-linecap="round" stroke-linejoin="round"/>
<path d="M215.666 72.834L215.666 72.8273" stroke="#0A2F66" stroke-width="2" stroke-linecap="round" stroke-linejoin="round"/>
<path d="M218.334 72.834L218.334 72.8273" stroke="#0A2F66" stroke-width="2" stroke-linecap="round" stroke-linejoin="round"/>
<path d="M230.329 80H231.967V75.94H236.391V74.456H231.967V71.684H236.839V70.2H230.329V80ZM240.952 80.126C243.248 80.126 244.368 78.502 244.368 76.388C244.368 74.274 243.22 72.65 240.952 72.65C238.684 72.65 237.536 74.274 237.536 76.388C237.536 78.516 238.656 80.126 240.952 80.126ZM240.952 78.712C239.748 78.712 239.16 77.844 239.16 76.388C239.16 74.96 239.734 74.064 240.952 74.064C242.17 74.064 242.744 74.946 242.744 76.388C242.744 77.844 242.17 78.712 240.952 78.712ZM248.111 80.126C249.791 80.126 251.107 79.342 251.107 77.942C251.107 76.57 250.267 76.052 249.007 75.786L247.775 75.548C247.173 75.45 246.823 75.198 246.823 74.764C246.823 74.232 247.313 73.938 248.027 73.938C248.853 73.938 249.343 74.358 249.371 75.016H250.939C250.939 73.616 249.791 72.65 248.055 72.65C246.305 72.65 245.269 73.56 245.269 74.75C245.269 75.982 246.095 76.64 247.271 76.878L248.545 77.116C249.203 77.256 249.497 77.536 249.497 77.942C249.497 78.446 249.021 78.754 248.111 78.754C247.201 78.754 246.641 78.306 246.641 77.592H245.045C245.087 79.118 246.165 80.126 248.111 80.126ZM254.842 80.126C256.522 80.126 257.838 79.342 257.838 77.942C257.838 76.57 256.998 76.052 255.738 75.786L254.506 75.548C253.904 75.45 253.554 75.198 253.554 74.764C253.554 74.232 254.044 73.938 254.758 73.938C255.584 73.938 256.074 74.358 256.102 75.016H257.67C257.67 73.616 256.522 72.65 254.786 72.65C253.036 72.65 252 73.56 252 74.75C252 75.982 252.826 76.64 254.002 76.878L255.276 77.116C255.934 77.256 256.228 77.536 256.228 77.942C256.228 78.446 255.752 78.754 254.842 78.754C253.932 78.754 253.372 78.306 253.372 77.592H251.776C251.818 79.118 252.896 80.126 254.842 80.126ZM259.78 71.67C260.438 71.67 260.802 71.278 260.802 70.662C260.802 70.046 260.438 69.668 259.78 69.668C259.108 69.668 258.758 70.046 258.758 70.662C258.758 71.278 259.108 71.67 259.78 71.67ZM258.982 80H260.578V72.776H258.982V80ZM262.062 80H263.658V69.64H262.062V80ZM268.992 80H270.63V75.94H275.054V74.456H270.63V71.684H275.502V70.2H268.992V80ZM281.211 72.776V77.004C281.211 78.012 280.777 78.642 279.699 78.642C278.621 78.642 278.187 78.012 278.187 77.004V72.776H276.591V77.256C276.591 78.866 277.683 80.112 279.699 80.112C281.729 80.112 282.807 78.866 282.807 77.256V72.776H281.211ZM287.289 80.126C289.011 80.126 290.229 79.118 290.425 77.802H288.871C288.703 78.39 288.171 78.782 287.289 78.782C286.113 78.782 285.525 77.984 285.525 76.836H290.523V76.164C290.523 74.176 289.375 72.65 287.261 72.65C284.979 72.65 283.873 74.316 283.873 76.388C283.873 78.488 285.091 80.126 287.289 80.126ZM285.539 75.702C285.581 74.764 286.099 74.008 287.261 74.008C288.353 74.008 288.871 74.75 288.885 75.702H285.539ZM291.681 80H293.277V69.64H291.681V80ZM297.351 80.126C299.031 80.126 300.347 79.342 300.347 77.942C300.347 76.57 299.507 76.052 298.247 75.786L297.015 75.548C296.413 75.45 296.063 75.198 296.063 74.764C296.063 74.232 296.553 73.938 297.267 73.938C298.093 73.938 298.583 74.358 298.611 75.016H300.179C300.179 73.616 299.031 72.65 297.295 72.65C295.545 72.65 294.509 73.56 294.509 74.75C294.509 75.982 295.335 76.64 296.511 76.878L297.785 77.116C298.443 77.256 298.737 77.536 298.737 77.942C298.737 78.446 298.261 78.754 297.351 78.754C296.441 78.754 295.881 78.306 295.881 77.592H294.285C294.327 79.118 295.405 80.126 297.351 80.126Z" fill="#0A2F66"/>
</svg>
