<svg width="118" height="22" viewBox="0 0 118 22" fill="none" xmlns="http://www.w3.org/2000/svg">
<path d="M45.547 0.449511C45.1418 0.652137 44.7366 0.989862 44.3313 1.0574C41.8999 1.32757 39.5361 1.53019 37.1047 1.66528C36.2267 1.73282 35.4837 2.20561 34.5382 2.00299C33.9303 1.8679 33.1199 2.61085 32.3769 2.88102C31.9717 3.0161 31.5665 3.08364 31.1612 3.15118C29.1351 3.48889 27.1765 3.8266 25.1503 4.16431C25.0152 4.16431 24.8801 4.2994 24.745 4.2994C23.4618 4.2994 22.3812 4.56957 21.5032 5.65024C21.098 6.12303 20.22 6.19058 19.5446 6.46075C19.7472 6.59583 19.9498 6.79845 20.2875 7.06862C19.4095 7.13616 18.5315 6.86598 18.0587 7.87911C19.2069 7.94665 20.4226 6.93354 21.6383 8.08175C20.8278 8.41946 20.0849 8.62207 20.1524 9.6352C20.9629 9.50012 21.7058 9.43258 22.5163 9.29749C22.7189 9.22995 22.854 8.8247 22.9891 8.55453C23.3267 8.68961 23.6644 8.8247 24.0021 8.95978C24.2047 8.68962 24.4749 8.3519 24.8126 7.87911C25.2178 9.1624 26.0958 8.89225 26.9063 8.82471C27.9869 8.75717 29.0675 8.55453 30.1482 8.55453C31.7016 8.55453 33.1874 8.21682 34.6733 8.21682C35.4162 8.21682 36.1591 7.87912 36.902 8.41946C36.9696 8.487 37.1047 8.487 37.1722 8.41946C38.9282 7.60896 40.6842 8.41945 42.4402 8.21682C44.1962 8.0142 45.9523 8.21682 47.7083 8.21682C50.4774 8.14928 53.1789 7.94665 55.948 7.87911C57.1637 7.81157 58.3794 7.94666 59.5951 7.94666C61.2161 7.94666 62.837 8.0142 64.3904 7.94666C65.9438 7.94666 67.4972 7.81159 69.1181 7.81159C72.0898 7.81159 74.994 7.94666 77.9657 8.0142C80.8023 8.08175 83.639 8.28437 86.5431 8.35191C88.4342 8.41946 90.3253 8.35192 92.2164 8.48701C94.175 8.62209 96.2012 8.8247 98.1598 8.95979C98.7677 9.02733 99.3755 8.95979 99.9834 9.02733C101.807 9.16242 103.563 9.2975 105.386 9.36504C106.062 9.36504 106.805 9.22997 107.48 9.16243C107.885 9.16243 108.358 8.89226 108.696 9.50013C108.763 9.63522 109.439 9.50013 109.777 9.50013C109.777 9.36505 109.844 9.29751 109.844 9.16243C108.966 8.75717 108.156 8.21683 107.21 7.94666C106.67 7.81158 106.197 7.60895 105.657 7.33879C105.184 7.06862 104.508 7.20371 103.766 7.13617C103.766 6.866 103.766 6.66337 103.833 6.32566C103.158 6.12303 102.617 5.71778 101.807 6.25811C101.334 6.52828 100.389 6.19058 99.7132 6.0555C99.7132 5.92041 99.7132 5.85287 99.7132 5.71779C100.186 5.65025 100.726 5.51516 101.334 5.38008C100.659 4.97483 100.186 4.63712 99.6457 4.36695C100.726 4.56958 101.874 4.70466 102.955 5.04237C106.129 5.92041 109.304 6.79845 112.208 8.28437C112.546 8.48699 112.951 8.48699 113.289 8.62208C114.167 8.89225 114.977 9.16242 115.855 9.36504C116.463 9.50013 116.665 9.90536 116.801 10.4457C117.071 11.729 117.408 12.9447 117.679 14.1605C117.746 14.4307 117.746 14.7008 117.746 14.971C117.746 15.5789 117.746 16.1868 117.746 16.9297C117.206 16.7947 116.598 16.7271 115.99 16.592C115.72 17.6052 116.665 18.213 117.071 19.1586C116.598 19.1586 116.26 19.2261 115.99 19.1586C114.639 18.6858 114.707 18.6183 113.896 19.6314C112.883 19.3612 111.87 19.091 110.857 18.8884C110.857 18.8209 110.857 18.8209 110.857 18.7534C111.195 18.6858 111.6 18.6858 112.073 18.6183C111.668 18.2806 111.262 18.078 110.992 17.7402C110.655 17.4025 110.249 17.1999 109.709 17.335C109.236 17.4025 108.763 17.2674 108.291 17.1324C106.67 16.7271 104.981 16.1867 103.36 15.849C101.942 15.5789 100.456 15.5789 98.9703 15.714C99.2404 15.7815 99.5106 15.849 99.9158 15.9841C99.1054 16.1192 98.4975 16.1192 97.8897 15.6464C97.4844 15.3087 96.809 15.2412 96.2687 15.3087C95.1881 15.3087 94.2426 15.2412 93.1619 15.1061C91.0007 14.8359 88.8395 14.7684 86.6107 14.6333C84.5845 14.4982 82.5583 14.4982 80.5322 14.2956C79.5866 14.228 78.6411 14.4982 77.7631 13.8904C77.7631 13.8904 77.628 13.8228 77.628 13.8904C76.4798 14.7009 75.3992 13.8903 74.3186 13.6202C73.9809 13.5526 73.6432 13.6202 73.1029 13.6202C73.6432 13.8903 73.9809 14.093 74.3186 14.2956C74.3186 14.3631 74.2511 14.4307 74.2511 14.4982C72.4275 14.4982 70.6039 14.5657 68.7804 14.4982C68.2401 14.4982 67.5647 14.2956 67.5647 13.5526C67.9699 12.9448 68.5103 14.2281 68.9155 13.2149C68.105 13.0798 67.3621 12.9447 66.6192 12.8097C66.4841 13.2149 66.5516 13.7552 66.349 13.8228C66.0113 13.9579 65.4035 14.0254 65.1333 13.8228C64.593 13.4175 63.9851 13.4176 63.3773 13.35C62.0265 13.2825 60.6757 13.1474 59.325 13.0798C59.1899 13.0798 58.9873 13.0799 58.9197 13.0123C58.3119 11.9992 57.2988 12.6071 56.3532 12.3369C56.3532 12.6746 56.3533 12.8772 56.4208 13.1474C55.948 13.1474 55.4077 13.1474 54.9349 13.0123C54.2595 12.8772 53.5166 12.4044 52.9088 12.607C51.2878 13.0798 49.802 12.472 48.3161 12.3369C46.2224 12.1343 44.1962 12.6746 42.1025 12.5395C41.157 12.472 40.2115 12.3369 39.1984 12.607C38.2528 12.8772 37.1722 12.2693 36.0916 12.7421C35.9565 12.8097 35.8214 12.8097 35.6863 12.9447C38.3204 13.2149 40.8868 13.9579 43.5209 13.1474C44.0612 12.9447 44.8041 12.6071 45.2769 13.5526C43.3858 13.6877 41.5622 13.8904 39.7387 14.0254C39.7387 14.093 39.7387 14.1605 39.7387 14.1605C40.8868 14.1605 41.9675 14.093 43.1156 14.1605C44.1962 14.228 45.2769 14.2956 46.3575 14.6333C45.8172 14.7008 45.2769 14.7684 44.8041 14.8359C44.8041 14.7684 44.8716 14.7008 44.8716 14.6333C45.6146 14.9035 46.29 15.1736 47.1004 15.3087C47.7083 15.4438 48.3837 15.5113 48.9915 15.6464C47.168 16.0517 45.4795 14.9035 43.6559 15.4438C43.6559 15.1061 43.7235 14.971 43.7235 14.6333C42.7104 14.6333 41.5622 14.2956 40.6842 14.7009C39.6036 15.2412 38.523 15.1736 37.4424 15.2412C36.4968 15.3087 35.5513 15.3763 34.6733 15.2412C34.4706 15.2412 34.268 15.2412 34.0654 15.2412C34.0654 15.3763 34.0654 15.4438 34.0654 15.5789C38.9282 15.9841 43.791 16.4569 48.6538 16.8622C48.6538 16.9297 48.6538 16.9973 48.7214 17.1323C48.181 17.1999 47.7083 17.4025 47.168 17.4025C45.2093 17.4025 43.2507 17.4025 41.2921 17.4025C39.401 17.4025 37.5099 17.4701 35.5513 17.4701C34.6057 17.4701 33.6602 17.4025 32.7146 17.4025C30.3508 17.335 27.9869 17.1999 25.6231 17.1999C23.5969 17.1999 21.5707 17.4025 19.5446 17.5376C19.1393 17.5376 18.6666 17.6051 18.2613 17.6727C16.9106 17.8078 15.4922 17.8078 14.1415 18.0104C11.7776 18.4156 9.48126 18.8884 7.18494 19.3612C6.71216 19.4963 6.30693 19.834 5.83416 20.0366C5.69908 19.9016 5.56402 19.7665 5.42894 19.6314C4.82109 20.3068 4.48339 19.5638 4.01062 19.3612C3.74046 19.2261 3.40278 19.0911 3.06508 18.956C3.20016 18.6183 3.33523 18.3481 3.53784 17.8753C2.99753 18.213 2.5923 18.4832 2.25461 18.6858C2.11953 18.5507 1.98446 18.4832 1.98446 18.4157C2.05199 17.9429 2.25461 17.47 2.25461 16.9973C2.25461 16.5245 1.98446 16.0517 1.98446 15.5789C1.98446 13.7553 2.59229 13.0123 4.48338 12.0667C3.80799 11.8641 3.20015 11.7965 2.5923 11.5939C1.24152 11.0536 0.566131 9.97291 0.228439 8.62207C-0.176796 7.00107 0.0258253 5.44761 0.295982 3.96169C1.64676 3.75907 2.99754 3.55643 4.28078 3.48889C5.49648 3.35381 6.71217 3.42136 7.99541 3.28627C10.4268 3.01611 12.7907 2.67839 15.2221 2.47576C18.8016 2.13806 22.3812 1.80035 26.0283 1.46264C29.3377 1.19247 32.6471 0.787232 35.9565 0.652149C38.1853 0.584607 40.3465 0.111802 42.6429 0.449511C43.6559 0.78722 44.669 0.584595 45.547 0.449511ZM39.3334 10.851C38.3879 10.851 37.3748 10.851 36.3617 10.851C36.2267 11.1211 35.9565 11.5264 35.7539 11.7965C38.3204 11.7965 40.8193 11.7965 43.5209 11.7965C43.5209 11.6614 43.5209 11.3237 43.5209 11.2562C42.7104 11.1211 42.035 10.9861 41.3596 10.851C40.6842 10.3782 40.0088 10.2431 39.3334 10.851ZM29.8105 13.2825C30.0131 13.35 30.3508 13.2825 30.4858 13.4175C31.1612 14.1605 31.9042 13.8904 32.7146 13.6877C32.9173 13.6202 33.255 13.8228 33.5251 13.9579C31.3639 14.9035 29.1351 14.3632 26.7712 15.0386C27.7843 15.6464 28.6623 15.3763 29.5403 15.3087C30.8235 15.1736 32.0392 14.9035 33.3225 14.8359C35.0785 14.7684 36.767 14.9035 38.523 14.971C38.5905 14.971 38.6581 14.8359 38.6581 14.7684C37.9827 14.0254 37.7801 13.8903 36.9696 14.2281C35.8214 14.7009 34.8083 14.6333 33.8628 13.7553C34.0654 13.4851 34.268 13.2825 34.6057 12.8772C32.8497 12.9448 31.2963 12.9447 29.8105 13.2825C29.4052 13.2825 28.8649 13.5526 28.6623 12.8772C29.2026 12.5395 30.0131 13.0123 30.5534 12.2693C29.7429 12.1342 29 11.8641 28.3922 12.0667C27.4466 12.2693 26.6361 12.1342 25.7581 11.9316C25.4204 11.8641 25.0152 11.7965 24.8126 11.729C24.5424 12.0667 24.4074 12.2693 24.2047 12.4719C23.1917 11.9316 22.3136 12.7421 21.3681 12.8097C22.3136 12.607 23.3267 13.2149 24.2047 12.4719C24.4074 12.5395 24.7451 12.8097 24.8801 12.6746C25.6906 12.0667 26.0283 12.5395 26.5686 13.35C25.7581 13.4851 25.0152 13.8228 24.4749 13.6877C23.1917 13.2825 21.9084 13.6202 20.6252 13.5526C20.2875 13.5526 19.7472 13.6202 19.5446 13.8228C18.9367 14.6333 18.2613 14.2281 17.5859 14.093C17.4509 14.4307 17.3158 14.6333 17.1807 14.9035C17.9236 15.5114 19.0042 14.6333 19.477 15.714C19.7472 15.3087 19.9498 15.0386 20.1524 14.7684C20.7603 14.9035 20.4901 16.2543 21.5032 15.5789C21.4356 15.2412 21.3681 14.9035 21.3006 14.5658C21.5707 14.4982 21.7733 14.4307 21.9084 14.4307C23.4618 14.3631 25.0152 14.2956 26.5686 14.1605C27.7168 13.8903 28.7974 13.5526 29.8105 13.2825ZM12.7231 13.8903C13.1959 14.2956 13.5336 14.5657 13.8713 14.8359C14.209 15.1736 14.9519 15.1061 15.0195 14.7009C15.087 13.8904 15.6948 13.9579 16.1001 13.8228C16.7755 13.6202 17.5859 13.4851 18.3288 13.35C19.0718 13.2149 19.8823 13.1474 20.6252 13.0123C20.355 12.6746 20.0173 12.4044 19.7472 12.4719C17.3833 12.9447 15.087 13.4176 12.7231 13.8903ZM44.5339 11.2562C44.5339 11.3237 44.5339 11.3913 44.5339 11.5264C44.8041 11.5939 45.0067 11.6615 45.2769 11.6615C46.9653 11.729 48.6538 11.729 50.4098 11.729C50.8826 11.729 51.4229 11.3913 51.8281 11.9992C51.8281 11.9992 52.2334 11.7966 52.5035 11.6615C52.3685 11.4589 52.3009 11.1887 52.0983 11.1887C51.0177 10.851 49.937 10.5808 48.8564 10.3106C48.5863 11.2562 47.9784 11.4588 47.168 11.3913C46.29 11.3238 45.4119 11.2562 44.5339 11.2562ZM14.209 9.97293C15.1545 9.83785 15.965 9.50011 16.7755 9.56766C17.5859 9.6352 18.3964 9.77028 19.3419 9.22995C18.8692 9.02732 18.599 8.75717 18.3288 8.75717C17.3833 8.82471 16.3702 8.95979 15.4247 9.02733C14.8844 9.09487 14.4791 9.29751 14.209 9.97293ZM7.59017 15.4438C8.87341 15.2412 10.2242 15.2412 11.6425 14.3631C9.95403 14.1605 8.73833 14.4982 7.59017 15.4438ZM12.3854 10.108C12.3854 9.9729 12.3854 9.83783 12.3854 9.70275C11.3724 9.83783 10.3593 9.90537 9.2111 10.0405C10.2917 11.0536 11.3724 10.2431 12.3854 10.108ZM16.9106 7.5414C15.8975 6.86598 14.8844 7.06861 13.8713 7.5414C14.8844 7.5414 15.8975 7.5414 16.9106 7.5414ZM10.697 15.4438C11.575 15.5789 12.1828 15.8491 12.8582 15.2412C11.7776 14.7009 11.7776 14.7008 10.697 15.4438ZM84.2468 13.4176C84.2468 13.5526 84.1793 13.6202 84.1793 13.7553C84.9222 13.8903 85.6651 14.0254 86.4081 14.1605C86.4081 14.093 86.4756 14.0254 86.4756 13.9579C85.7327 13.6877 84.9897 13.5526 84.2468 13.4176ZM24.0021 15.4438C24.0021 15.3087 24.0021 15.2412 24.0697 15.1061C23.4618 15.1061 22.854 15.1061 21.976 15.1061C22.7864 15.7815 23.3943 15.6464 24.0021 15.4438ZM58.447 10.851C58.9873 11.0536 59.46 11.1887 60.1354 11.4588C59.7302 10.4457 59.0548 10.5808 58.447 10.851ZM53.5842 11.3913C53.5166 11.5264 53.5166 11.5939 53.4491 11.729C54.0569 12.0667 54.7323 11.9316 55.6779 11.8641C54.7999 11.6615 54.192 11.5264 53.5842 11.3913ZM58.7171 9.97293C58.1768 9.77031 57.6365 9.50012 56.9611 10.2431C57.704 10.108 58.2443 10.0405 58.7171 9.97293ZM76.6149 13.5526C76.6149 13.4851 76.6149 13.4176 76.6149 13.35C76.0746 13.2825 75.5343 13.2149 75.0615 13.1474C75.0615 13.2149 75.0615 13.2825 75.0615 13.35C75.6018 13.4176 76.0746 13.4851 76.6149 13.5526ZM79.2489 13.6202C78.8437 12.9448 78.5735 12.8097 77.9657 13.35C78.4385 13.4851 78.7086 13.4851 79.2489 13.6202ZM81.2751 14.0254C81.3426 13.9579 81.3426 13.8228 81.4102 13.7553C81.0049 13.5526 80.6672 13.2149 79.8568 13.5526C80.5322 13.7553 80.8699 13.8904 81.2751 14.0254ZM20.6927 5.65024C20.355 5.04236 20.355 5.04236 19.8147 5.58269C20.1524 5.65023 20.4226 5.65024 20.6927 5.65024ZM32.7146 11.5264C32.7146 11.5939 32.7146 11.729 32.7146 11.7965C32.9848 11.7965 33.255 11.7965 33.5251 11.7965C33.5251 11.729 33.5251 11.6615 33.5251 11.5939C33.1874 11.5939 32.9848 11.5939 32.7146 11.5264Z" fill="#FEDFC3"/>
<path d="M53.4486 14.5663C52.7057 14.6339 52.0303 14.6339 51.3549 14.7014C51.3549 14.7689 51.3549 14.8365 51.3549 14.9715C52.5706 15.0391 53.7863 15.1066 55.002 15.1742C55.002 15.1066 55.0695 15.1067 55.0695 15.0391C54.8669 14.9716 54.6643 14.8365 54.3941 14.7689C56.758 14.4988 58.9868 13.4857 61.2831 14.3637C61.3506 14.9716 60.5402 14.4312 60.5402 15.1742C60.5402 15.647 59.4596 15.7145 59.2569 15.1066C59.0543 14.4988 58.7166 14.4312 58.1088 14.4312C58.1763 14.7014 58.1763 14.904 58.2439 15.1066C56.0151 15.3768 53.7863 15.7145 51.5575 15.9171C51.2198 15.9847 50.6795 15.8496 50.5444 15.647C49.9366 14.7014 49.1261 14.7014 48.1806 14.904C47.9779 14.9716 47.8429 14.904 47.6403 14.904C47.5727 14.1611 47.9779 14.026 48.5183 14.026C50.0717 14.0935 51.6926 14.2286 53.246 14.3637C53.246 14.2286 53.3135 14.3637 53.4486 14.5663Z" fill="#FEDFC3"/>
<path d="M4.14576 19.6992C3.87561 20.8474 3.87562 20.8474 2.4573 21.05C2.65992 20.3071 2.65992 20.3071 3.47038 20.172C3.74054 20.0369 3.94315 19.8343 4.14576 19.6992C4.2133 19.6992 4.14576 19.6992 4.14576 19.6992Z" fill="#FEDFC3"/>
<path d="M51.2871 0.449662C50.4091 0.449662 49.4636 0.449662 48.5856 0.449662C48.5856 0.382129 48.5856 0.314604 48.5856 0.24707C49.4636 0.24707 50.4091 0.24707 51.2871 0.24707C51.2871 0.382137 51.2871 0.449662 51.2871 0.449662Z" fill="#FEDFC3"/>
<path d="M99.7129 4.50289C98.4297 4.63798 98.4297 4.63799 97.0789 4.09764C98.1595 3.75992 98.9024 4.23271 99.7129 4.50289Z" fill="#FEDFC3"/>
<path d="M40.9541 15.1738C41.4944 15.2414 42.1023 15.3765 42.6426 15.444C42.0347 15.6466 41.3593 15.7142 40.819 15.444C40.8866 15.3765 40.8866 15.2414 40.9541 15.1738Z" fill="#FEDFC3"/>
<path d="M97.8909 5.44727C98.2961 5.51481 98.6338 5.58235 99.0391 5.64989C99.0391 5.78498 98.9715 5.85253 98.9715 5.98762C98.5663 5.92007 98.2286 5.85253 97.8234 5.78499C97.8234 5.6499 97.8909 5.51481 97.8909 5.44727Z" fill="#FEDFC3"/>
<path d="M101.941 7.67676C102.617 7.7443 102.954 7.81183 103.697 7.87938C102.752 8.14955 102.752 8.14956 101.941 7.67676Z" fill="#FEDFC3"/>
<path d="M99.7125 7.40625C100.185 7.54134 100.658 7.60889 101.131 7.74398C101.131 7.81153 101.131 7.87907 101.063 8.01417C100.591 7.94662 100.118 7.81153 99.645 7.74398C99.7125 7.60889 99.7125 7.4738 99.7125 7.40625Z" fill="#FEDFC3"/>
<path d="M23.0577 8.48741C22.9226 8.55495 22.72 8.62249 22.3823 8.82511C22.5849 8.08217 22.855 7.87954 23.4629 8.01462C23.2603 8.28478 23.1252 8.41987 23.0577 8.48741C22.9901 8.55495 23.0577 8.48741 23.0577 8.48741Z" fill="#FEDFC3"/>
<path d="M11.709 20.8473C11.1687 20.8473 10.9661 20.8473 10.6959 20.8473C10.6959 20.7798 10.6959 20.7123 10.6959 20.6447C10.831 20.6447 10.9661 20.5771 11.1011 20.5771C11.2362 20.5771 11.3038 20.6447 11.709 20.8473Z" fill="#FEDFC3"/>
<path d="M70.8067 0.584961C71.0769 0.584961 71.347 0.584961 71.6172 0.584961L71.6172 0.652509C71.347 0.652509 71.0769 0.652513 70.8067 0.720057C70.8067 0.652513 70.8067 0.652505 70.8067 0.584961Z" fill="#FEDFC3"/>
<path d="M45.6146 0.51708C46.1549 0.449535 46.6277 0.381998 47.168 0.314453C47.168 0.381998 47.168 0.449535 47.168 0.51708C46.6277 0.449535 46.0874 0.449535 45.6146 0.51708C45.5471 0.449535 45.6146 0.51708 45.6146 0.51708Z" fill="#FEDFC3"/>
<path d="M48.1133 13.3503C47.8431 13.4178 47.5054 13.4853 47.2353 13.5529C47.2353 13.4178 47.1677 13.3502 47.1677 13.2152C47.5054 13.1476 47.7756 13.1476 48.1133 13.0801C48.1133 13.2152 48.1133 13.2827 48.1133 13.3503Z" fill="#FEDFC3"/>
<path d="M84.179 1.80078C84.4491 1.80078 84.6517 1.80078 84.9219 1.80078L84.9219 1.86831C84.6517 1.86831 84.4491 1.86831 84.179 1.86831C84.179 1.80079 84.179 1.80078 84.179 1.80078Z" fill="#FEDFC3"/>
<path d="M23.5293 19.0238C23.2591 19.0238 23.0565 19.0913 22.7864 19.0913C22.7864 19.0238 22.7864 18.9562 22.7864 18.8887C23.0565 18.8887 23.2591 18.8887 23.5293 18.8887C23.5293 18.9562 23.5293 18.9562 23.5293 19.0238Z" fill="#FEDFC3"/>
<path d="M18.3277 19.6318C18.5303 19.6994 18.7329 19.6994 18.9355 19.7669L18.9355 19.8345C18.7329 19.8345 18.5303 19.8345 18.3277 19.8345C18.3277 19.7669 18.3277 19.6994 18.3277 19.6318Z" fill="#FEDFC3"/>
<path d="M39.3332 10.7832C40.0086 10.7832 40.684 10.7832 41.3594 10.7832C40.0086 11.5261 40.0086 11.5261 39.3332 10.7832Z" fill="#FEDFC3"/>
</svg>
