<svg width="124" height="19" viewBox="0 0 124 19" fill="none" xmlns="http://www.w3.org/2000/svg">
<path d="M0.26873 13.5265C0.471343 12.9861 0.60643 12.5809 0.741508 12.1081C0.876586 11.7028 1.01166 11.2976 1.14674 10.8923C1.28182 10.4195 1.14674 9.74412 1.48444 9.47395C1.95721 9.0687 2.70013 8.86607 3.30798 8.79853C4.92891 8.5959 6.61739 8.52836 8.23833 8.46082C13.1011 8.25819 17.9639 8.05558 22.8267 7.92049C26.9466 7.78541 31.134 7.71787 35.2539 7.58278C39.0361 7.4477 42.8858 7.17754 46.668 7.04246C48.7617 6.97492 50.8554 7.04246 52.9491 7.04246C54.1648 7.04246 55.3129 6.97492 56.5286 7.04246C62.6071 7.24508 68.6856 7.58279 74.8317 7.71788C82.1259 7.9205 89.4201 7.9205 96.7143 8.05559C96.7143 7.9205 96.7143 7.85296 96.7143 7.71788C94.553 7.51525 92.3918 7.31261 90.2305 7.10998C86.5159 6.83982 82.7337 6.5021 79.0191 6.29947C74.5615 6.0293 70.104 5.89425 65.5789 5.69162C64.4307 5.62408 63.2825 5.55653 62.1344 5.55653C59.9056 5.55653 57.6768 5.62407 55.448 5.55653C54.0972 5.55653 52.814 5.42142 51.4632 5.48896C50.8554 5.48896 50.18 5.82669 49.5721 5.89424C49.2344 5.96178 48.8292 5.89423 48.559 5.75914C47.9512 5.35389 47.4784 5.3539 46.803 5.55653C46.3303 5.75915 45.6549 5.96177 45.3172 5.75914C44.3716 5.21881 43.6963 5.96178 42.8858 5.89424C42.0078 5.82669 41.1973 5.82669 40.3193 5.75914C39.5764 5.75914 38.901 5.82667 38.1581 5.82667C36.6047 5.82667 34.9837 5.75916 33.4303 6.02933C33.1602 6.09687 32.89 6.02933 32.5523 6.02933C30.256 5.96179 28.0272 5.96175 25.7309 5.82667C23.2995 5.69158 20.8006 5.48897 18.3692 5.28634C15.8027 5.08371 13.3037 4.81356 10.7373 4.5434C10.5346 4.5434 10.2645 4.61092 9.99435 4.61092C10.0619 4.94863 10.0619 5.21879 10.1294 5.48896C10.4671 6.70471 10.4671 6.8398 9.52157 7.17751C8.50848 7.51522 7.63047 7.31261 7.42786 6.43456C7.09016 5.21881 6.61739 4.00305 7.36031 2.71975C7.49539 2.44959 7.63047 2.17944 7.69801 1.97681C7.83308 1.6391 7.90063 1.0312 8.23833 0.896115C8.64356 0.625947 9.2514 0.625972 9.72417 0.625972C13.5064 0.625972 17.2886 0.693481 21.1383 0.761023C24.1775 0.828565 27.2168 0.828573 30.256 0.896115C34.7811 0.963658 39.3062 0.896108 43.8313 1.09873C48.559 1.23382 53.2192 1.57154 57.947 1.90925C65.7139 2.44958 73.4809 3.12503 81.3154 3.66536C85.9081 4.00307 90.4332 4.07061 95.0258 4.5434C98.7404 4.94865 102.455 5.62408 106.17 6.36704C107.791 6.70475 109.209 7.51524 109.749 9.47395C108.534 9.81166 107.25 10.0818 106.035 10.4196C106.035 10.4871 106.035 10.5546 106.035 10.5546C107.588 10.8248 109.141 11.2301 110.762 11.2976C112.451 11.3651 113.937 11.9055 115.423 12.4458C118.597 13.594 121.366 15.4176 123.865 17.6465C123.932 17.7141 123.932 17.8491 124 18.1193C123.392 18.0518 122.852 17.9843 122.312 17.8492C120.42 17.4439 118.529 16.9711 116.638 16.5659C115.558 16.3632 114.409 16.1606 113.261 16.0255C112.721 15.958 112.181 15.6878 111.708 16.2957C111.573 16.4308 110.965 16.2957 110.627 16.1606C109.682 15.958 108.736 15.6203 107.723 15.8229C107.385 15.8905 106.98 15.8229 106.575 15.7553C105.224 15.4176 103.873 15.215 102.523 15.4852C100.429 14.6072 98.2001 15.2826 96.0389 14.7422C94.8907 14.472 93.6075 14.6071 92.3243 14.5396C90.6358 14.4721 89.0149 14.4721 87.3264 14.4721C87.2588 14.4721 87.1238 14.4045 87.0562 14.4721C85.3002 14.8098 83.6117 14.1343 81.8557 14.2019C80.7076 14.2694 79.5594 14.4045 78.4788 14.2019C76.25 13.8642 74.0212 14.2694 71.7924 14.1344C67.9427 13.9317 64.093 14.2694 60.3108 14.0668C56.1909 13.9317 52.0035 13.9317 47.8837 13.8642C46.2627 13.8642 44.6418 13.7966 43.0209 13.7291C40.1167 13.7291 37.28 13.7291 34.3759 13.7291C32.89 13.7291 31.3366 13.594 29.8508 13.594C26.6089 13.594 23.367 13.594 20.1252 13.594C16.343 13.5264 12.4933 13.4589 8.71109 13.3914C6.14461 13.3914 3.57814 13.3914 1.01166 13.3914C0.809043 13.594 0.606422 13.5265 0.26873 13.5265Z" fill="#FEDFC3"/>
</svg>
