<svg width="95" height="66" viewBox="0 0 95 66" fill="none" xmlns="http://www.w3.org/2000/svg">
<path d="M2.47907 56.3115C2.27355 56.7225 2.06801 57.1335 1.75972 57.75C1.45144 57.4418 1.14315 57.1335 1.24591 57.0307C1.75972 55.9004 1.24594 55.0783 0.629368 54.1535C-0.192727 52.8177 -0.295508 51.3791 0.834873 50.146C1.86249 49.1184 2.89012 48.0909 4.12327 47.3716C6.38403 46.0357 8.74754 44.9054 11.1111 43.775C14.8105 41.9254 18.6127 40.0758 22.3121 38.1234C25.4977 36.4793 28.7861 35.2461 32.28 34.4241C33.6159 34.1158 35.1574 33.9103 36.2877 32.5745C34.2325 29.8 32.28 27.0256 28.9916 25.587C28.2723 25.2787 27.8613 24.9704 27.3475 24.3539C26.2171 22.9153 24.6756 21.9905 22.9287 21.4767C22.7232 21.3739 22.5176 21.3739 22.3121 21.2711C20.1541 19.5243 17.3796 18.5995 15.4271 16.5443C14.5022 15.6195 13.5773 14.6946 12.0359 14.9002C11.6249 15.0029 11.1111 14.3864 10.5973 14.1809C10.8028 14.0782 11.0083 13.9754 11.2138 13.7699C11.1111 12.9478 10.4945 12.845 9.87794 12.7423C7.71994 12.1257 7.00059 10.3789 6.38401 8.52925C6.17849 8.01546 6.1785 7.60441 6.07574 7.09062C5.97298 6.67959 5.87022 6.16579 6.07574 5.85752C7.20612 3.69961 8.33651 1.43893 10.8028 0.000328625C11.4194 2.87754 13.7829 3.69961 15.6326 4.82994C20.9762 8.22094 26.1143 11.7147 30.7386 16.0305C33.3076 18.394 35.6712 20.8601 38.2402 23.2236C38.9595 23.9429 39.7817 24.5594 40.6037 25.1759C42.659 26.7173 43.4811 28.7724 42.7618 31.3414C42.3507 32.9855 41.8369 34.5269 41.2203 36.0682C40.0899 38.9454 37.9319 40.8979 35.2601 42.4392C34.6435 42.7475 33.8215 42.7474 32.8966 42.8502C33.2049 43.364 33.5132 43.8778 34.027 44.5971C33.1021 44.8026 32.28 45.0081 31.3552 45.3164C31.3552 45.5219 31.4579 45.8302 31.4579 46.2412C30.122 46.4467 28.9917 46.2412 28.3751 44.9054C29.2999 43.364 31.0469 45.3164 32.3828 43.8778C31.0469 43.775 29.9165 43.6723 28.8889 43.6723C28.8889 43.5695 28.8889 43.4668 28.8889 43.364C29.711 43.2612 30.6358 43.0558 31.4579 42.953C31.4579 42.8502 31.4579 42.6447 31.4579 42.5419C31.1497 42.4392 30.8414 42.2336 30.4303 42.1309C29.2999 41.7199 28.1695 41.1034 27.0392 40.8979C26.0115 40.6923 24.8812 40.3841 23.8535 40.6923C21.079 41.5144 18.4072 42.542 15.7354 43.775C14.1939 44.4943 12.858 45.6247 11.3166 46.5495C11.1111 46.755 10.8028 46.8578 10.7 47.166C10.289 48.7074 8.85031 49.5295 8.23374 50.7625C7.41165 52.4067 7.20611 54.3591 7.00059 56.3115C6.58954 56.6197 6.1785 56.8252 5.56193 57.2362C6.38402 57.339 7.10336 57.6473 7.71993 57.5445C8.43927 57.4418 9.05584 57.0307 9.77517 56.7225C9.77517 56.1059 9.77517 55.4894 9.77517 54.4618C10.7 54.9756 11.3166 55.3867 12.1387 55.7977C12.7553 54.4618 13.8856 54.359 15.4271 54.9756C15.3243 54.2563 15.3243 53.7425 15.3243 53.0232C16.1464 53.7425 16.9685 54.3591 17.7906 55.0784C17.4823 55.2839 17.2768 55.5921 16.8657 55.6949C15.4271 56.2087 13.9884 56.7225 12.6525 57.2363C11.4193 57.6473 10.289 58.1611 9.05583 58.5721C8.54202 58.7776 7.92545 58.9832 7.61716 59.3942C6.48678 60.5245 5.15087 60.5245 3.40392 60.4218C3.91773 59.8052 4.22603 59.2914 4.73984 58.6749C3.5067 58.2638 2.47907 57.7501 2.47907 56.3115Z" fill="#FFBF86"/>
<path d="M20.6681 51.4814C19.5377 51.687 18.5101 51.8924 17.2769 52.098C17.0714 51.0704 17.688 50.5566 18.3045 50.3511C19.6404 50.0428 20.9763 49.3235 22.5178 49.8373C23.1344 50.0428 23.7509 50.1456 24.4703 50.1456C24.8813 50.1456 25.1896 49.9401 25.7034 49.6318C25.1896 49.2208 24.7785 48.9125 24.4703 48.6042C24.573 48.5015 24.573 48.296 24.6758 48.1932C28.3752 46.5491 29.1973 46.4463 30.5332 47.6794C29.3001 48.0904 28.1697 48.5015 26.9365 49.0152C26.731 49.118 26.5255 49.2207 26.4227 49.3235C24.4702 52.2007 21.2846 52.6118 18.2018 53.3311C18.2018 53.3311 18.099 53.2283 17.7907 53.1255C18.8183 52.6117 19.7432 52.2007 20.6681 51.7897C20.6681 51.7897 20.6681 51.5842 20.6681 51.4814Z" fill="#FFBF86"/>
<path d="M48.3394 50.461C48.2556 50.6286 48.2556 50.88 48.088 50.88C46.7473 51.4666 45.3228 52.0531 43.9821 52.6397C43.7307 52.7235 43.4793 52.8911 43.3118 52.8073C41.8035 52.0531 40.8818 52.9749 39.8762 53.8129C39.2059 53.2263 39.7086 52.8073 40.2114 52.2207C39.2059 52.4721 38.2842 52.4721 38.368 53.7291C38.8707 53.7291 39.3735 53.7291 39.8762 53.7291C40.6304 53.4777 41.3007 53.3939 41.9711 54.0643C40.2952 54.3157 38.7032 54.5671 37.1111 54.8184C37.1111 54.986 37.1111 55.0698 37.1111 55.2374C37.949 55.4888 38.7869 55.7402 39.7924 56.0754C39.541 56.4106 39.3735 56.5782 39.1221 56.7458C38.5355 56.5782 38.0328 56.4106 37.4462 56.243C37.8652 57.3324 36.5245 57.4999 36.4407 58.4217C35.0162 57.4161 34.4297 57.5837 34.1783 59.2597C34.7649 59.2597 35.2676 59.3435 35.7703 59.2597C37.1948 58.8407 38.2841 59.5111 39.3735 60.3491C40.1276 60.9356 41.0494 61.4384 41.9711 62.1088C41.6359 62.025 41.3007 61.9412 40.9656 61.9412C39.1221 61.6898 37.4462 62.025 35.8542 63.1143C34.5135 64.0361 33.089 64.7065 31.6645 65.5445C31.2455 65.0417 30.8266 64.5389 30.4076 64.1199C32.5862 64.1199 34.2621 62.6954 36.1893 61.8574C35.4352 61.7736 34.681 61.6898 33.8431 61.606C33.9269 61.8574 34.0107 62.025 34.0945 62.2764C33.1727 62.5278 32.1673 62.863 31.2455 63.1143C30.659 63.2819 30.24 63.5333 30.4076 64.2037C29.9048 64.4551 29.3183 64.7065 28.8155 64.7903C28.1451 64.9579 27.4748 64.9579 26.8883 64.2875C26.5531 63.8685 25.9665 63.7847 25.5475 63.5333C24.2906 62.863 23.8717 62.1088 24.5421 60.768C25.0448 59.7625 25.799 58.7569 26.6369 57.9189C27.8938 56.7458 29.1507 55.5726 30.659 54.7346C33.0052 53.3101 35.519 52.1369 38.0328 50.88C39.6249 50.1258 41.3845 49.4554 43.0604 48.7013C44.3173 48.1147 45.658 47.6119 46.9149 47.0253C51.2721 45.1818 55.6294 43.3383 59.9867 41.4947C70.6285 37.1857 67.4443 38.7294 68.4498 38.2266C73.645 35.7127 78.924 33.3664 84.4544 31.5229C85.2923 31.1877 86.1303 30.7687 87.3872 30.1821C86.2141 29.8469 85.3761 29.6793 84.3706 29.428C84.8733 29.1766 85.1247 28.9252 85.3761 28.9252C85.6275 28.9252 85.9626 29.0927 86.214 29.1765C86.8844 29.2603 87.5547 29.9307 88.1413 29.009C88.7278 28.171 88.1413 27.5844 87.8061 26.914C86.8844 25.1543 85.2923 24.2325 83.6165 23.3946C83.1137 23.1432 82.6947 22.808 82.2757 22.5566C82.1081 22.389 81.9406 22.1376 81.773 22.1376C80.4323 22.2214 79.6781 20.9644 78.3374 20.7968C77.6671 20.713 77.0805 20.6292 77.0805 19.5399C77.0805 18.7857 75.9074 18.6181 75.3209 18.8695C74.064 19.3723 73.1423 19.0371 72.1367 18.3667C72.3881 18.1991 72.6395 18.1153 72.9747 17.8639C72.3881 17.2774 71.7177 17.026 70.9636 16.8584C69.7067 16.5232 68.4498 16.3556 67.1929 16.1042C67.0253 16.1042 66.774 16.1042 66.6902 16.0204C65.2657 15.0149 63.8412 15.6014 62.3329 15.6852C60.657 15.769 58.9812 16.0204 57.2215 16.0204C56.635 16.0204 56.0484 15.769 55.2942 15.5176C55.1266 15.6014 54.8753 15.769 54.7077 15.9366C53.1994 17.2774 53.1994 17.2774 51.4397 17.6964C52.4453 18.1154 52.4453 18.0315 53.367 17.8639C54.8753 17.6126 56.4673 17.1936 57.9756 17.8639C57.2215 18.1991 56.216 17.9478 55.797 18.8695C55.797 18.9533 55.378 18.9533 55.2942 18.8695C54.5401 17.9478 53.786 18.6181 53.0318 18.7857C51.8587 19.0371 50.8532 18.8695 50.0991 17.9477C49.8477 17.6126 49.5963 17.2774 49.2611 17.1936C47.1663 16.3556 46.3283 14.5959 45.4066 12.7523C45.3228 12.5847 45.239 12.2495 45.239 12.082C45.4066 10.5736 45.658 9.06527 45.9094 7.55692C46.077 6.71895 46.6635 6.46754 47.3338 6.88653C49.5125 8.31108 51.9425 8.64627 54.3725 8.98146C58.646 9.65183 63.0032 10.3222 67.1929 11.4116C71.7177 12.5847 76.075 14.0931 80.4323 15.769C84.8733 17.5288 88.8116 20.2103 92.0796 23.6459C93.1689 24.8191 93.8392 26.1599 94.0068 27.752C94.0906 28.7576 94.1744 29.7631 94.1744 30.7687C94.1744 31.2715 93.923 31.8581 93.7554 32.6122C93.8392 32.696 94.0906 33.115 94.4258 33.534C93.8392 34.2882 93.3365 34.9586 92.7499 35.7127C93.1689 35.7127 93.6716 35.7127 94.4258 35.7127C93.7554 36.5507 93.0851 37.1373 92.7499 37.8077C92.4985 38.3942 92.5823 38.9808 91.8282 39.1484C91.5768 40.4053 90.6551 40.2378 89.8171 40.2378C88.5602 40.154 87.4709 40.573 86.2978 41.0757C84.8733 41.6623 83.6164 42.9193 81.8568 42.5841C81.773 42.5841 81.6054 42.5841 81.5216 42.6679C80.8513 44.0924 79.6781 43.5896 78.505 43.5896C77.9185 43.5896 77.3319 43.9248 76.7454 44.0086C76.3264 43.9248 75.8236 43.841 75.4047 43.6734C74.7343 43.4221 74.3154 43.6734 73.9802 44.1762C75.0695 45.3494 75.9074 44.4276 76.7454 43.9248C76.9968 44.0924 77.2481 44.1762 77.6671 44.3438C77.4157 44.8466 77.0805 45.2656 76.5778 46.1036C77.7509 45.6846 78.7564 45.3494 79.6781 45.098C81.0188 44.679 82.3595 44.26 83.7002 43.841C84.622 43.5058 85.5437 43.1707 86.3816 42.5841C88.1413 41.4109 88.7278 41.1595 91.074 41.7461C90.5713 41.8299 90.0685 41.8299 89.5658 41.9137C89.1468 41.9975 88.7278 42.0813 88.4765 42.2489C87.052 43.422 85.3761 44.0086 83.5326 44.4276C82.6109 44.679 81.6892 45.098 80.7675 45.3494C79.343 45.8522 77.8347 46.2711 76.4102 46.6901C75.7398 46.8577 75.1533 47.1091 74.3992 47.3605C74.483 47.0253 74.5667 46.8577 74.5667 46.6063C73.3098 46.6901 72.1367 46.8577 70.6285 47.0253C70.2933 47.5281 69.6229 48.1147 68.6174 48.0309C68.5336 48.0309 68.4498 48.2823 68.366 48.3661L68.4498 48.3661C67.6119 48.3661 66.8578 48.3661 66.0198 48.4499C64.6791 48.5337 63.3384 48.9526 61.9139 47.9471C64.3439 47.4443 66.8577 48.1147 68.8688 46.5225C68.5336 45.8522 67.947 46.0198 67.4443 46.0198C67.6957 45.8522 67.947 45.6008 68.2822 45.4332C68.2822 45.3494 68.1984 45.2656 68.1984 45.1818C67.4443 45.4332 66.6064 45.6846 65.8522 46.0198C65.4333 46.1036 65.0143 46.1036 64.2601 46.1874C65.0981 46.6901 65.6008 46.7739 65.8522 45.936C66.4388 45.936 67.0253 45.936 67.6119 46.0198C66.2712 47.1091 64.9305 47.1929 63.2546 46.6063C60.8246 45.8522 58.3108 46.1874 55.8808 47.3605C54.6239 47.9471 53.2832 48.4499 51.9425 49.0365C51.6911 49.7906 52.4453 49.7068 53.0318 50.042C52.3615 50.2096 51.8587 50.3772 51.356 50.461C50.4342 49.7068 49.7639 49.623 48.3394 50.461C48.088 50.3772 47.9204 50.1258 47.7528 50.1258C46.4959 50.2934 45.3228 50.5448 44.0659 50.7962C43.9821 50.7962 43.9821 50.9638 43.9821 51.1314C44.1497 51.1314 44.3173 51.2152 44.4849 51.2152C44.1497 51.4666 43.8145 51.718 43.4794 52.0532C43.5631 52.1369 43.5632 52.2207 43.647 52.3045C44.1497 51.9693 44.6525 51.6341 45.1552 51.299C46.2445 50.9638 47.2501 50.7124 48.3394 50.461ZM86.214 39.0646C84.7895 39.1484 83.4489 39.4836 82.192 40.9919C83.7002 40.6567 84.9571 40.4053 86.1303 39.9864C87.6385 39.3998 89.063 38.7294 90.5713 38.059C90.8227 37.9752 91.1579 37.8076 91.4092 37.6401C90.9065 37.3887 90.4037 37.2211 90.1523 37.3887C89.3144 38.1428 88.3089 37.8914 87.3033 37.9752C86.8844 37.9752 86.5492 38.1428 86.1303 38.3104C86.1303 38.3942 86.214 38.7294 86.214 39.0646ZM73.3098 42.3327C74.5667 43.0031 75.4885 43.0031 76.4102 42.6679C77.1643 42.4165 77.9185 41.9975 78.6726 41.7461C79.4268 41.4947 80.0971 41.2433 80.8512 40.9919C80.5161 40.7405 80.1809 40.7406 79.8457 40.7406C79.343 40.7406 78.7564 40.9919 78.3374 40.8243C76.3264 40.2378 75.0695 41.4947 73.3098 42.3327ZM72.4719 43.6734C72.3043 43.4221 72.2205 43.0031 71.9691 42.9193C71.4664 42.7517 70.8798 42.6679 70.4609 42.8355C68.8688 43.4221 67.2767 44.0924 65.7684 44.7628C65.0981 45.0142 64.5115 45.3494 63.925 45.6846C66.8578 45.1818 69.4553 44.0086 72.4719 43.6734ZM83.1975 37.1373C82.7785 37.8914 82.5271 38.478 82.3595 38.7294C81.354 38.9808 80.4323 39.2322 79.5943 39.5674C81.354 39.9864 82.9461 39.9864 83.9516 38.059C83.784 37.8914 83.6165 37.64 83.1975 37.1373ZM71.8015 44.8466C70.796 45.1818 70.0419 44.9304 69.4553 45.8522C70.5446 46.1873 71.0474 45.6846 71.8015 44.8466ZM36.1055 60.8518C36.1055 60.9356 36.0217 61.0194 36.0217 61.1032C36.4407 61.1032 36.8597 61.187 37.1948 61.187C37.53 61.187 37.8652 61.1032 38.1166 61.1032C38.1166 61.0194 38.1166 61.0194 38.1166 60.9356C37.4462 60.8518 36.7759 60.8518 36.1055 60.8518ZM33.2565 56.4106C33.3403 56.4944 33.4241 56.5782 33.5079 56.662C33.8431 56.4106 34.2621 56.0754 34.5973 55.824C34.5135 55.7402 34.4297 55.6564 34.4297 55.5726C34.0107 55.824 33.5917 56.1592 33.2565 56.4106ZM85.8788 37.2211C85.2923 36.8859 85.2923 36.8859 84.7058 37.3887C85.1247 37.3049 85.4599 37.2211 85.8788 37.2211Z" fill="#FFBF86"/>
<path d="M63.0879 20.5459C60.0713 20.4621 56.971 20.8811 53.9544 20.2107C57.0547 19.3727 60.0713 19.2889 63.0879 20.5459Z" fill="#FFBF86"/>
<path d="M82.8613 24.316C80.5151 24.0646 78.2527 23.8132 75.5713 23.478C75.9064 23.1428 76.074 22.8076 76.2416 22.8076C78.504 22.8914 80.6827 23.2266 82.8613 23.897C82.8613 24.0646 82.8613 24.2322 82.8613 24.316Z" fill="#FFBF86"/>
<path d="M80.2637 26.1599C78.504 26.1599 76.8281 25.5733 75.3199 24.7354C77.0795 24.8191 78.6716 25.3219 80.2637 26.1599Z" fill="#FFBF86"/>
<path d="M68.283 48.6176C68.9534 49.1204 69.7075 49.0366 70.3779 48.7014C70.713 48.5339 71.132 48.4501 71.6348 48.5338C69.8751 49.6232 67.9479 49.5394 66.0206 49.288C66.7748 49.1204 67.5289 48.869 68.283 48.6176Z" fill="#FFBF86"/>
<path d="M38.9528 56.9139C39.7069 56.9139 40.4611 56.8301 41.3828 56.8301C40.7963 57.2491 41.5504 58.2547 40.3773 58.2547C39.7069 58.1709 39.0366 57.8357 38.9528 56.9139C38.9528 56.9139 39.0366 56.8301 38.9528 56.9139Z" fill="#FFBF86"/>
<path d="M62.334 49.8748C61.0771 49.9586 59.904 50.1262 58.6471 50.21C58.6471 50.0424 58.6471 49.9586 58.5633 49.791C59.8202 49.6235 61.0771 49.4559 62.334 49.3721C62.334 49.5397 62.334 49.7073 62.334 49.8748Z" fill="#FFBF86"/>
<path d="M61.2424 22.0537C62.4155 22.1375 63.5048 22.3051 64.7617 22.3889C64.1752 22.8917 64.1752 22.8917 61.2424 22.0537Z" fill="#FFBF86"/>
<path d="M62.752 17.4447C61.2437 17.5285 60.1543 17.6961 59.065 17.7799C59.9867 16.8581 60.7409 16.7743 62.752 17.4447Z" fill="#FFBF86"/>
<path d="M64.0098 53.1426C63.0042 54.0644 61.8311 54.0644 60.5742 54.3158C61.6635 53.394 62.0825 53.2264 64.0098 53.1426Z" fill="#FFBF86"/>
<path d="M44.2344 59.0077C43.3127 59.1753 42.6423 59.3429 41.8044 59.5104C42.7261 58.4211 42.7261 58.4211 44.2344 59.0077Z" fill="#FFBF86"/>
<path d="M55.6289 57.2481C55.0424 57.1643 54.372 57.1643 53.5341 57.0806C54.372 56.4102 55.0424 56.4939 55.6289 57.2481Z" fill="#FFBF86"/>
<path d="M70.377 21.0479C71.3825 21.2154 72.1367 21.2992 72.9746 21.4668C71.7177 22.0534 71.7177 22.0534 70.377 21.0479Z" fill="#FFBF86"/>
<path d="M55.2102 16.6907C55.8806 16.1042 56.6347 16.3555 57.4727 16.6907C56.7185 16.8583 56.0482 17.0259 55.294 17.1097C55.2102 17.0259 55.2102 16.8583 55.2102 16.6907Z" fill="#FFBF86"/>
<path d="M65.6836 19.2881C65.097 19.2043 64.5943 19.0367 63.6725 18.8691C64.6781 18.1987 65.1808 18.3663 65.6836 18.7015C65.6836 18.9529 65.6836 19.1205 65.6836 19.2881Z" fill="#FFBF86"/>
<path d="M69.1193 24.1488C68.2814 24.1488 67.4434 24.1488 66.6055 24.1488C66.6055 24.065 66.6055 23.9813 66.6055 23.8975C67.4434 23.8975 68.3652 23.8975 69.2031 23.8975C69.2031 23.9813 69.1193 24.065 69.1193 24.1488Z" fill="#FFBF86"/>
<path d="M43.6465 56.1592C43.1437 56.243 42.641 56.3268 42.1382 56.4106C42.1382 56.3268 42.0544 56.1592 42.0544 56.0754C42.5571 55.9916 43.0599 55.824 43.5627 55.7402C43.6465 55.824 43.6465 55.9916 43.6465 56.1592Z" fill="#FFBF86"/>
<path d="M43.3959 53.4774C43.8148 53.4774 44.2338 53.3936 44.8203 53.3936C44.4013 54.2315 43.8148 53.8125 43.4796 53.8125C43.4796 53.7287 43.4797 53.5612 43.3959 53.4774Z" fill="#FFBF86"/>
<path d="M71.4657 23.6455C71.8847 23.6455 72.3037 23.6455 72.7227 23.6455C72.7227 23.7293 72.7227 23.8131 72.7227 23.8131C72.3037 23.8131 71.8847 23.8131 71.4657 23.8131C71.4657 23.7293 71.4657 23.7293 71.4657 23.6455Z" fill="#FFBF86"/>
<path d="M83.7012 25.9922C83.366 25.9922 83.1146 26.076 82.7794 26.076L82.6956 25.8246C82.947 25.7408 83.2822 25.657 83.5336 25.5732C83.6174 25.657 83.6174 25.8246 83.7012 25.9922Z" fill="#FFBF86"/>
</svg>
