<svg width="264" height="264" viewBox="0 0 264 264" fill="none" xmlns="http://www.w3.org/2000/svg">
<path d="M103.245 86.6579C103.245 81.3865 111.784 78.9108 115.262 78.0072C120.352 76.7335 125.586 76.1197 130.833 76.181C136.077 76.1197 141.307 76.7335 146.394 78.0072C149.881 78.9485 158.411 81.3865 158.411 86.6579V32.1362C158.479 28.4757 157.816 24.8384 156.459 21.4368C155.103 18.0353 153.083 14.9377 150.515 12.3251C147.947 9.71248 144.883 7.63721 141.503 6.22054C138.123 4.80387 134.494 4.07422 130.828 4.07422C127.162 4.07422 123.533 4.80387 120.152 6.22054C116.772 7.63721 113.709 9.71248 111.141 12.3251C108.572 14.9377 106.552 18.0353 105.196 21.4368C103.841 24.8384 103.177 28.4757 103.245 32.1362V86.6579Z" fill="#E5AC9C" stroke="#F9EFE6" stroke-width="6" stroke-miterlimit="10"/>
<path d="M158.412 86.6587C158.412 91.2051 155.227 91.8924 152.031 93.3514" stroke="#F9EFE6" stroke-width="6" stroke-linecap="round" stroke-linejoin="round"/>
<path d="M133.566 97.0694C127.871 97.3405 122.166 96.853 116.6 95.6201C112.83 94.7638 103.254 92.401 103.254 86.6587" stroke="#F9EFE6" stroke-width="6" stroke-linecap="round" stroke-linejoin="round"/>
<path d="M111.133 72.8166C117.894 70.2311 125.749 69.2364 134.696 69.8326" stroke="#F9EFE6" stroke-width="4" stroke-linecap="round" stroke-linejoin="round"/>
<path d="M109.032 186.684V147.393H93.6406" stroke="#F9EFE6" stroke-width="6" stroke-linecap="round" stroke-linejoin="round"/>
<path d="M119.465 182.194V132.238H71.293" stroke="#F9EFE6" stroke-width="6" stroke-linecap="round" stroke-linejoin="round"/>
<path d="M130.588 181.299L130.136 111.999H99.0801" stroke="#F9EFE6" stroke-width="6" stroke-linecap="round" stroke-linejoin="round"/>
<path d="M95.194 116.658C98.4932 116.047 99.6151 114.427 98.9648 111.133C98.3136 107.838 96.7402 106.727 93.4411 107.367C90.142 108.007 89.0305 109.589 89.6712 112.883C90.3118 116.178 91.8861 117.27 95.194 116.658Z" fill="#F9EFE6" stroke="#F9EFE6" stroke-width="4" stroke-linecap="round" stroke-linejoin="round"/>
<path d="M172.482 135.655L173.689 130.044" stroke="#EB8777" stroke-width="3" stroke-linecap="round" stroke-linejoin="round"/>
<path d="M167.422 133.697L170.325 128.801" stroke="#EB8777" stroke-width="3" stroke-linecap="round" stroke-linejoin="round"/>
<path d="M163.461 129.969L167.505 126.769" stroke="#EB8777" stroke-width="3" stroke-linecap="round" stroke-linejoin="round"/>
<path d="M165.894 124.406L161.115 124.914" stroke="#EB8777" stroke-width="3" stroke-linecap="round" stroke-linejoin="round"/>
<path d="M165.971 116.639L162.701 114.483" stroke="#EB8777" stroke-width="3" stroke-linecap="round" stroke-linejoin="round"/>
<path d="M168.759 114.003L166.186 110.36" stroke="#EB8777" stroke-width="3" stroke-linecap="round" stroke-linejoin="round"/>
<path d="M172.209 112.714L171.031 107.866" stroke="#EB8777" stroke-width="3" stroke-linecap="round" stroke-linejoin="round"/>
<path d="M176.377 112.432L176.461 107.745" stroke="#EB8777" stroke-width="3" stroke-linecap="round" stroke-linejoin="round"/>
<path d="M179.807 113.127L181.513 108.619" stroke="#EB8777" stroke-width="3" stroke-linecap="round" stroke-linejoin="round"/>
<path d="M183.604 114.737L186.119 110.398" stroke="#EB8777" stroke-width="3" stroke-linecap="round" stroke-linejoin="round"/>
<path d="M187.291 116.979L189.722 112.912" stroke="#EB8777" stroke-width="3" stroke-linecap="round" stroke-linejoin="round"/>
<path d="M190.391 119.397L193.943 115.453" stroke="#EB8777" stroke-width="3" stroke-linecap="round" stroke-linejoin="round"/>
<path d="M193.416 122.495L197.12 119.163" stroke="#EB8777" stroke-width="3" stroke-linecap="round" stroke-linejoin="round"/>
<path d="M195.707 125.695L200.071 122.843" stroke="#EB8777" stroke-width="3" stroke-linecap="round" stroke-linejoin="round"/>
<path d="M197.318 128.999L202.163 127.38" stroke="#EB8777" stroke-width="3" stroke-linecap="round" stroke-linejoin="round"/>
<path d="M198.195 132.34L202.691 131.682" stroke="#EB8777" stroke-width="3" stroke-linecap="round" stroke-linejoin="round"/>
<path d="M198.166 136.068L202.747 137.848" stroke="#EB8777" stroke-width="3" stroke-linecap="round" stroke-linejoin="round"/>
<path d="M196.441 139.589L199.994 142.347" stroke="#EB8777" stroke-width="3" stroke-linecap="round" stroke-linejoin="round"/>
<path d="M193.586 141.698L195.528 145.613" stroke="#EB8777" stroke-width="3" stroke-linecap="round" stroke-linejoin="round"/>
<path d="M186.874 141.877L184.377 146.395" stroke="#EB8777" stroke-width="3" stroke-linecap="round" stroke-linejoin="round"/>
<path d="M184.029 139.637L180.561 143.242" stroke="#EB8777" stroke-width="3" stroke-linecap="round" stroke-linejoin="round"/>
<path d="M182.587 136.858L177.449 138.515" stroke="#EB8777" stroke-width="3" stroke-linecap="round" stroke-linejoin="round"/>
<path d="M186.517 122.579C187.309 122.683 187.591 123.049 187.459 123.841C187.327 124.631 186.988 124.913 186.196 124.781C185.404 124.649 185.122 124.311 185.254 123.52C185.386 122.729 185.725 122.485 186.517 122.579Z" fill="#EB8777"/>
<path d="M181.71 118.041C181.963 118.155 182.178 118.34 182.327 118.575C182.475 118.809 182.552 119.082 182.546 119.359C182.54 119.636 182.453 119.906 182.295 120.134C182.137 120.362 181.916 120.539 181.658 120.642C181.4 120.745 181.117 120.769 180.846 120.713C180.574 120.657 180.324 120.521 180.128 120.325C179.933 120.128 179.8 119.877 179.746 119.605C179.692 119.333 179.719 119.052 179.825 118.795C179.863 118.597 179.951 118.411 180.079 118.255C180.208 118.1 180.374 117.979 180.561 117.904C180.749 117.829 180.952 117.802 181.153 117.827C181.353 117.85 181.545 117.924 181.71 118.041Z" fill="#EB8777"/>
<path d="M179.854 122.033C181.23 122.608 181.56 123.416 180.984 124.791C180.41 126.166 179.599 126.495 178.223 125.921C176.847 125.346 176.508 124.537 177.092 123.163C177.677 121.788 178.469 121.45 179.854 122.033Z" fill="#EB8777"/>
<path d="M173.274 121.704C173.512 121.763 173.726 121.89 173.891 122.071C174.056 122.251 174.164 122.476 174.202 122.717C174.239 122.958 174.205 123.205 174.104 123.427C174.002 123.65 173.836 123.836 173.629 123.965C173.421 124.094 173.18 124.158 172.936 124.151C172.692 124.144 172.455 124.066 172.255 123.925C172.055 123.784 171.901 123.587 171.813 123.36C171.724 123.132 171.705 122.884 171.757 122.646C171.76 122.468 171.808 122.294 171.896 122.14C171.984 121.986 172.109 121.857 172.259 121.763C172.411 121.67 172.582 121.615 172.759 121.605C172.937 121.595 173.114 121.629 173.274 121.704Z" fill="#EB8777"/>
<path d="M175.63 115.66C176.979 116.282 177.271 117.101 176.649 118.438C176.026 119.774 175.206 120.075 173.821 119.454C172.435 118.833 172.181 118.014 172.803 116.678C173.425 115.341 174.292 115.077 175.63 115.66Z" fill="#EB8777"/>
<path d="M178.835 132.078C180.106 133.021 181.171 134.212 181.965 135.579C182.747 136.954 183.086 138.403 184.029 139.637C185.071 140.907 186.464 141.843 188.035 142.329C189.588 142.805 191.26 142.708 192.747 142.056C194.808 141.318 196.521 139.842 197.555 137.914C198.563 135.786 198.497 132.859 197.601 129.903C196.52 126.74 194.764 123.851 192.455 121.431C190.072 118.922 187.316 116.795 184.283 115.124C181.706 113.571 178.802 112.637 175.801 112.395C173.156 112.26 170.531 112.916 168.26 114.277C167.425 114.803 166.712 115.501 166.168 116.324C165.624 117.147 165.26 118.076 165.103 119.049C164.846 120.869 165.135 122.724 165.934 124.379C166.733 126.035 168.004 127.416 169.589 128.35C171.325 129.241 173.16 129.923 175.057 130.383C176.411 130.708 177.692 131.283 178.835 132.078Z" stroke="#EB8777" stroke-width="4" stroke-linecap="round" stroke-linejoin="round"/>
<path d="M151.266 101.879C151.554 103.438 152.154 104.923 153.028 106.247C153.923 107.545 155.082 108.487 155.77 109.87C156.453 111.366 156.686 113.028 156.44 114.652C156.184 116.266 155.354 117.733 154.102 118.785C152.543 120.327 150.461 121.227 148.268 121.308C145.912 121.308 143.282 119.971 141.048 117.844C138.674 115.483 136.843 112.634 135.685 109.495C134.47 106.256 133.767 102.848 133.602 99.394C133.333 96.3906 133.772 93.3669 134.885 90.5641C135.942 88.1151 137.708 86.0373 139.955 84.5961C140.793 84.0838 141.73 83.7536 142.704 83.6272C143.678 83.5006 144.669 83.5806 145.61 83.8618C147.362 84.4272 148.906 85.501 150.043 86.9463C151.182 88.3914 151.863 90.1426 152.001 91.9765C152.047 93.9248 151.857 95.8714 151.435 97.7748C151.13 99.1212 151.072 100.512 151.266 101.879Z" stroke="#EB8777" stroke-width="4" stroke-linecap="round" stroke-linejoin="round"/>
<path d="M137.93 91.8164C137.93 93.2939 138.505 93.9152 139.984 93.9433C141.465 93.9724 142.087 93.3793 142.115 91.9009C142.143 90.4233 141.539 89.8021 140.06 89.7739C138.58 89.7457 137.958 90.3389 137.93 91.8164Z" fill="#EB8777"/>
<path d="M144.367 92.3428C144.188 93.1999 144.48 93.6329 145.31 93.8115C146.139 93.9902 146.601 93.6989 146.779 92.8708C146.959 92.0419 146.667 91.5711 145.837 91.4021C145.008 91.2323 144.546 91.4769 144.367 92.3428Z" fill="#EB8777"/>
<path d="M141.775 98.378C141.681 99.874 142.266 100.524 143.754 100.609C145.243 100.693 145.903 100.12 145.988 98.6323C146.073 97.1442 145.498 96.486 143.999 96.4006C142.5 96.3162 141.841 96.8908 141.775 98.378Z" fill="#EB8777"/>
<path d="M137.374 98.3032C137.308 99.2439 137.704 99.7244 138.693 99.7904C139.683 99.8564 140.126 99.4604 140.182 98.4625C140.24 97.4654 139.853 97.0413 138.853 96.9753C137.855 96.9093 137.431 97.3053 137.374 98.3032Z" fill="#EB8777"/>
<path d="M139.342 104.609C139.273 104.819 139.266 105.044 139.325 105.257C139.383 105.47 139.504 105.661 139.67 105.806C139.838 105.951 140.043 106.044 140.263 106.072C140.482 106.101 140.704 106.064 140.903 105.966C141.101 105.868 141.267 105.714 141.378 105.523C141.488 105.332 141.54 105.113 141.526 104.892C141.512 104.672 141.434 104.46 141.3 104.284C141.166 104.108 140.983 103.976 140.775 103.903C140.638 103.819 140.483 103.772 140.324 103.764C140.165 103.757 140.006 103.789 139.863 103.86C139.72 103.931 139.596 104.036 139.506 104.168C139.414 104.299 139.358 104.45 139.342 104.609Z" fill="#EB8777"/>
<path d="M153.906 107.357L157.657 103.479" stroke="#EB8777" stroke-width="3" stroke-linecap="round" stroke-linejoin="round"/>
<path d="M155.771 109.862L160.54 108.347" stroke="#EB8777" stroke-width="4" stroke-linecap="round" stroke-linejoin="round"/>
<path d="M156.535 113.411L161.691 113.147" stroke="#EB8777" stroke-width="3" stroke-linecap="round" stroke-linejoin="round"/>
<path d="M153.424 119.341L156.091 122.815" stroke="#EB8777" stroke-width="3" stroke-linecap="round" stroke-linejoin="round"/>
<path d="M150.277 120.989L151.191 125.385" stroke="#EB8777" stroke-width="3" stroke-linecap="round" stroke-linejoin="round"/>
<path d="M146.356 120.979L145.941 125.874" stroke="#EB8777" stroke-width="3" stroke-linecap="round" stroke-linejoin="round"/>
<path d="M142.982 119.369L140.418 123.116" stroke="#EB8777" stroke-width="3" stroke-linecap="round" stroke-linejoin="round"/>
<path d="M140.37 117.119L136.779 120.753" stroke="#EB8777" stroke-width="3" stroke-linecap="round" stroke-linejoin="round"/>
<path d="M138.109 114.221L133.623 116.884" stroke="#EB8777" stroke-width="3" stroke-linecap="round" stroke-linejoin="round"/>
<path d="M136.226 110.756L131.607 112.611" stroke="#EB8777" stroke-width="3" stroke-linecap="round" stroke-linejoin="round"/>
<path d="M134.772 106.689L129.654 108.14" stroke="#EB8777" stroke-width="3" stroke-linecap="round" stroke-linejoin="round"/>
<path d="M133.953 102.83L129.23 103.234" stroke="#EB8777" stroke-width="3" stroke-linecap="round" stroke-linejoin="round"/>
<path d="M133.567 98.5469L128.553 98.8954" stroke="#EB8777" stroke-width="3" stroke-linecap="round" stroke-linejoin="round"/>
<path d="M133.782 94.4339L128.984 93.9824" stroke="#EB8777" stroke-width="3" stroke-linecap="round" stroke-linejoin="round"/>
<path d="M134.669 91.0545L130.408 89.0684" stroke="#EB8777" stroke-width="3" stroke-linecap="round" stroke-linejoin="round"/>
<path d="M136.752 87.4402L132.906 84.249" stroke="#EB8777" stroke-width="3" stroke-linecap="round" stroke-linejoin="round"/>
<path d="M139.428 84.907L137.279 81.0005" stroke="#EB8777" stroke-width="3" stroke-linecap="round" stroke-linejoin="round"/>
<path d="M143.019 83.5614L142.51 79.6831" stroke="#EB8777" stroke-width="3" stroke-linecap="round" stroke-linejoin="round"/>
<path d="M146.562 84.1829L148.042 80.3706" stroke="#EB8777" stroke-width="3" stroke-linecap="round" stroke-linejoin="round"/>
<path d="M150.041 86.9029L152.596 82.8457" stroke="#EB8777" stroke-width="3" stroke-linecap="round" stroke-linejoin="round"/>
<path d="M156.111 87.1665L151.455 89.3879" stroke="#EB8777" stroke-width="3" stroke-linecap="round" stroke-linejoin="round"/>
<path d="M157.725 92.3525L152.041 92.8137" stroke="#EB8777" stroke-width="3" stroke-linecap="round" stroke-linejoin="round"/>
<path d="M157.262 97.7661L151.682 96.373" stroke="#EB8777" stroke-width="3" stroke-linecap="round" stroke-linejoin="round"/>
<path d="M89.757 152.053C93.0552 151.44 94.1675 149.821 93.5269 146.527C92.8862 143.232 91.2926 142.121 87.994 142.762C84.6952 143.401 83.583 144.992 84.224 148.287C84.8649 151.582 86.4577 152.664 89.757 152.053Z" fill="#F9EFE6" stroke="#F9EFE6" stroke-width="4" stroke-linecap="round" stroke-linejoin="round"/>
<path d="M67.3816 136.897C70.6805 136.286 71.7927 134.667 71.1517 131.372C70.5108 128.077 68.9179 126.967 65.619 127.606C62.3203 128.246 61.208 129.837 61.8489 133.132C62.4898 136.427 64.1205 137.509 67.3816 136.897Z" fill="#F9EFE6" stroke="#F9EFE6" stroke-width="4" stroke-linecap="round" stroke-linejoin="round"/>
<path d="M155.621 153.737C156.739 152.619 157.62 151.287 158.213 149.822C158.788 148.344 158.91 146.856 159.664 145.51C160.512 144.105 161.754 142.978 163.237 142.272C164.707 141.573 166.38 141.426 167.95 141.858C170.097 142.287 172.006 143.502 173.303 145.265C174.613 147.233 175.009 150.133 174.509 153.182C173.896 156.47 172.574 159.586 170.635 162.313C168.641 165.139 166.222 167.642 163.463 169.731C161.131 171.647 158.38 172.989 155.433 173.646C152.82 174.156 150.115 173.87 147.667 172.828C146.773 172.421 145.976 171.832 145.326 171.097C144.676 170.362 144.19 169.499 143.896 168.563C143.379 166.8 143.398 164.923 143.949 163.17C144.502 161.417 145.562 159.867 146.997 158.717C148.588 157.582 150.306 156.634 152.115 155.893C153.406 155.395 154.595 154.665 155.621 153.737Z" stroke="#EB8777" stroke-width="4" stroke-linecap="round" stroke-linejoin="round"/>
<path d="M154.811 170.408C156.045 169.599 156.225 168.751 155.414 167.509C154.604 166.266 153.756 166.097 152.521 166.907C151.286 167.717 151.107 168.563 151.917 169.806C152.728 171.048 153.576 171.2 154.811 170.408Z" fill="#EB8777"/>
<path d="M151.614 164.798C151.841 164.702 152.034 164.541 152.169 164.336C152.304 164.13 152.375 163.89 152.373 163.643C152.371 163.398 152.296 163.158 152.158 162.955C152.019 162.752 151.824 162.593 151.595 162.502C151.367 162.409 151.117 162.386 150.876 162.437C150.635 162.487 150.414 162.606 150.242 162.782C150.069 162.958 149.952 163.179 149.907 163.421C149.861 163.662 149.887 163.912 149.983 164.139C150.02 164.308 150.098 164.465 150.21 164.598C150.322 164.73 150.464 164.833 150.625 164.898C150.786 164.963 150.959 164.988 151.132 164.97C151.304 164.953 151.469 164.894 151.614 164.798Z" fill="#EB8777"/>
<path d="M158.07 163.537C159.351 162.765 159.559 161.917 158.796 160.637C158.032 159.357 157.174 159.15 155.893 159.922C154.611 160.693 154.403 161.531 155.167 162.811C155.931 164.092 156.788 164.299 158.07 163.537Z" fill="#EB8777"/>
<path d="M160.484 167.208C160.728 167.07 160.925 166.862 161.049 166.612C161.174 166.361 161.22 166.079 161.183 165.802C161.147 165.524 161.027 165.264 160.841 165.055C160.655 164.846 160.41 164.697 160.139 164.629C159.867 164.559 159.581 164.573 159.317 164.667C159.054 164.761 158.824 164.933 158.659 165.158C158.493 165.384 158.399 165.655 158.388 165.934C158.377 166.213 158.451 166.49 158.599 166.727C158.669 166.903 158.781 167.059 158.924 167.184C159.066 167.309 159.236 167.398 159.419 167.445C159.603 167.491 159.795 167.494 159.98 167.453C160.164 167.412 160.338 167.328 160.484 167.208Z" fill="#EB8777"/>
<path d="M164.583 162.03C164.733 161.996 164.874 161.933 164.998 161.843C165.122 161.754 165.227 161.64 165.306 161.508C165.385 161.377 165.436 161.231 165.457 161.079C165.477 160.928 165.466 160.773 165.426 160.626C165.385 160.478 165.314 160.341 165.218 160.221C165.122 160.102 165.004 160.003 164.868 159.931C164.733 159.859 164.585 159.815 164.432 159.803C164.279 159.789 164.125 159.807 163.98 159.855C163.705 159.947 163.475 160.141 163.338 160.396C163.201 160.652 163.169 160.95 163.246 161.229C163.324 161.509 163.506 161.747 163.754 161.896C164.003 162.046 164.3 162.093 164.583 162.03Z" fill="#EB8777"/>
<path d="M158.647 148.466L153.322 147.562" stroke="#EB8777" stroke-width="3" stroke-linecap="round" stroke-linejoin="round"/>
<path d="M159.664 145.51L155.715 142.441" stroke="#EB8777" stroke-width="3" stroke-linecap="round" stroke-linejoin="round"/>
<path d="M162.163 142.884L159.043 138.779" stroke="#EB8777" stroke-width="3" stroke-linecap="round" stroke-linejoin="round"/>
<path d="M168.826 142.103L170.193 137.942" stroke="#EB8777" stroke-width="3" stroke-linecap="round" stroke-linejoin="round"/>
<path d="M171.965 143.768L175.076 140.53" stroke="#EB8777" stroke-width="3" stroke-linecap="round" stroke-linejoin="round"/>
<path d="M174.17 147.007L178.449 144.587" stroke="#EB8777" stroke-width="3" stroke-linecap="round" stroke-linejoin="round"/>
<path d="M174.734 150.696H179.278" stroke="#EB8777" stroke-width="3" stroke-linecap="round" stroke-linejoin="round"/>
<path d="M174.35 154.123L179.382 155.036" stroke="#EB8777" stroke-width="3" stroke-linecap="round" stroke-linejoin="round"/>
<path d="M173.229 157.625L177.959 159.818" stroke="#EB8777" stroke-width="3" stroke-linecap="round" stroke-linejoin="round"/>
<path d="M171.426 161.127L175.572 163.895" stroke="#EB8777" stroke-width="3" stroke-linecap="round" stroke-linejoin="round"/>
<path d="M168.883 164.619L172.973 168.018" stroke="#EB8777" stroke-width="3" stroke-linecap="round" stroke-linejoin="round"/>
<path d="M166.158 167.472L169.155 171.142" stroke="#EB8777" stroke-width="3" stroke-linecap="round" stroke-linejoin="round"/>
<path d="M162.83 170.21L165.95 174.145" stroke="#EB8777" stroke-width="3" stroke-linecap="round" stroke-linejoin="round"/>
<path d="M159.316 172.348L161.645 176.565" stroke="#EB8777" stroke-width="3" stroke-linecap="round" stroke-linejoin="round"/>
<path d="M156.016 173.533L156.77 178.164" stroke="#EB8777" stroke-width="3" stroke-linecap="round" stroke-linejoin="round"/>
<path d="M151.851 173.845L151.389 178.815" stroke="#EB8777" stroke-width="3" stroke-linecap="round" stroke-linejoin="round"/>
<path d="M148.251 173.072L146.225 177.045" stroke="#EB8777" stroke-width="3" stroke-linecap="round" stroke-linejoin="round"/>
<path d="M145.111 170.87L142.189 173.467" stroke="#EB8777" stroke-width="3" stroke-linecap="round" stroke-linejoin="round"/>
<path d="M143.621 167.593L139.645 168.525" stroke="#EB8777" stroke-width="3" stroke-linecap="round" stroke-linejoin="round"/>
<path d="M143.915 163.188L139.117 163.376" stroke="#EB8777" stroke-width="3" stroke-linecap="round" stroke-linejoin="round"/>
<path d="M140.711 158.039L145.17 160.618" stroke="#EB8777" stroke-width="3" stroke-linecap="round" stroke-linejoin="round"/>
<path d="M144.094 153.784L147.666 158.208" stroke="#EB8777" stroke-width="3" stroke-linecap="round" stroke-linejoin="round"/>
<path d="M148.816 151.111L150.815 156.495" stroke="#EB8777" stroke-width="3" stroke-linecap="round" stroke-linejoin="round"/>
<path d="M158.412 232.753C158.279 239.971 155.314 246.848 150.155 251.906C144.998 256.963 138.058 259.796 130.83 259.796C123.601 259.796 116.662 256.963 111.503 251.906C106.345 246.848 103.38 239.971 103.246 232.753V192.953C109.75 182.796 120.589 181.111 130.692 181.3C140.797 181.488 150.175 183.559 158.412 192.953V232.753Z" stroke="#F9EFE6" stroke-width="6" stroke-linecap="round" stroke-linejoin="round"/>
<path d="M115.752 232.263C115.925 236.817 117.828 241.134 121.074 244.337C124.32 247.54 128.665 249.388 133.226 249.507" stroke="#F9EFE6" stroke-width="6" stroke-linecap="round" stroke-linejoin="round"/>
</svg>
