<svg width="500" height="108" viewBox="0 0 500 108" fill="none" xmlns="http://www.w3.org/2000/svg">
<rect width="500" height="108" fill="#CEE1E8"/>
<path d="M28.314 44H31.122V37.214H35.022C38.324 37.214 40.846 34.848 40.846 31.468C40.846 28.062 38.428 25.8 35.022 25.8H28.314V44ZM31.122 34.796V28.218H34.762C36.712 28.218 38.012 29.57 38.012 31.468C38.012 33.392 36.712 34.796 34.762 34.796H31.122ZM49.5296 44.338C53.6896 44.338 56.7056 41.27 56.7056 37.214C56.7056 33.158 53.7416 30.064 49.5556 30.064C45.3696 30.064 42.3536 33.132 42.3536 37.214C42.3536 41.296 45.3436 44.338 49.5296 44.338ZM49.5296 41.868C46.9816 41.868 45.1356 39.918 45.1356 37.214C45.1356 34.536 46.9556 32.56 49.5296 32.56C52.1036 32.56 53.9236 34.51 53.9236 37.214C53.9236 39.892 52.1036 41.868 49.5296 41.868ZM64.6772 44.338C68.0832 44.338 70.1892 42.544 70.1892 39.97C70.1892 34.198 62.1292 37.006 62.1292 33.99C62.1292 32.976 63.0912 32.248 64.6252 32.248C66.2632 32.248 67.1472 33.002 67.3032 34.146H69.7992C69.5912 31.546 67.4592 30.064 64.7292 30.064C61.6092 30.064 59.5812 31.754 59.5812 34.042C59.5812 39.58 67.5372 36.772 67.5372 40.1C67.5372 41.296 66.5492 42.102 64.7552 42.102C62.9872 42.102 61.9732 41.374 61.7912 39.97H59.2172C59.3992 42.596 61.2192 44.338 64.6772 44.338ZM79.4003 44H81.6623V41.686H79.8163C78.3863 41.686 77.8403 40.906 77.8403 39.606V32.638H81.7923V30.402H77.8403V26.554H75.2663V29.544C75.2663 30.09 74.9283 30.428 74.4603 30.428H72.6663V32.638H75.1103V39.684C75.1103 42.518 76.7223 44 79.4003 44ZM84.3607 37.344H91.2507V34.926H84.3607V37.344ZM103.513 44.338C107.933 44.338 111.287 41.738 112.301 37.89H109.233C108.401 40.308 106.165 41.686 103.513 41.686C99.7949 41.686 96.9869 38.826 96.9869 34.9C96.9869 31.026 99.7949 28.114 103.513 28.114C106.165 28.114 108.427 29.518 109.233 31.936H112.249C111.183 28.14 107.959 25.462 103.513 25.462C98.0529 25.462 94.0749 29.544 94.0749 34.9C94.0749 40.308 98.0269 44.338 103.513 44.338ZM121.867 44.338C126.027 44.338 129.043 41.27 129.043 37.214C129.043 33.158 126.079 30.064 121.893 30.064C117.707 30.064 114.691 33.132 114.691 37.214C114.691 41.296 117.681 44.338 121.867 44.338ZM121.867 41.868C119.319 41.868 117.473 39.918 117.473 37.214C117.473 34.536 119.293 32.56 121.867 32.56C124.441 32.56 126.261 34.51 126.261 37.214C126.261 39.892 124.441 41.868 121.867 41.868ZM132.335 44H135.065V35.992C135.065 33.99 136.417 32.612 138.133 32.612C139.849 32.612 141.071 33.808 141.071 35.706V44H143.801V36.07C143.801 33.886 145.179 32.612 146.895 32.612C148.689 32.612 149.755 33.808 149.755 36.018V44H152.485V35.082C152.485 32.144 150.509 30.064 147.519 30.064C145.673 30.064 144.243 30.74 143.333 32.352H143.151C142.371 30.974 140.941 30.064 138.991 30.064C137.041 30.064 135.767 31.052 135.169 32.196H134.987V30.402H132.335V44ZM163.607 44.338C167.533 44.338 170.211 41.452 170.211 37.24C170.211 33.028 167.533 30.064 163.763 30.064C161.163 30.064 159.733 31.676 159.291 32.378H159.135V24.5H156.405V44H159.057V42.076H159.239C159.603 42.596 160.903 44.338 163.607 44.338ZM163.217 41.868C160.617 41.868 159.057 39.788 159.057 37.214C159.057 34.276 160.877 32.56 163.269 32.56C165.739 32.56 167.429 34.484 167.429 37.214C167.429 40.048 165.739 41.868 163.217 41.868ZM178.303 44.338C180.331 44.338 181.735 43.298 182.281 42.18H182.463V44H185.115V30.402H182.385V38.384C182.385 40.36 180.981 41.816 179.083 41.816C177.367 41.816 176.041 40.568 176.041 38.644V30.402H173.311V39.138C173.311 42.076 175.209 44.338 178.303 44.338ZM193.789 44.338C197.195 44.338 199.301 42.544 199.301 39.97C199.301 34.198 191.241 37.006 191.241 33.99C191.241 32.976 192.203 32.248 193.737 32.248C195.375 32.248 196.259 33.002 196.415 34.146H198.911C198.703 31.546 196.571 30.064 193.841 30.064C190.721 30.064 188.693 31.754 188.693 34.042C188.693 39.58 196.649 36.772 196.649 40.1C196.649 41.296 195.661 42.102 193.867 42.102C192.099 42.102 191.085 41.374 190.903 39.97H188.329C188.511 42.596 190.331 44.338 193.789 44.338ZM208.512 44H210.774V41.686H208.928C207.498 41.686 206.952 40.906 206.952 39.606V32.638H210.904V30.402H206.952V26.554H204.378V29.544C204.378 30.09 204.04 30.428 203.572 30.428H201.778V32.638H204.222V39.684C204.222 42.518 205.834 44 208.512 44ZM215.522 28.27C216.588 28.27 217.342 27.568 217.342 26.528C217.342 25.54 216.588 24.812 215.522 24.812C214.482 24.812 213.728 25.54 213.728 26.528C213.728 27.568 214.482 28.27 215.522 28.27ZM214.144 44H216.874V30.402H214.144V44ZM227.01 44.338C231.17 44.338 234.186 41.27 234.186 37.214C234.186 33.158 231.222 30.064 227.036 30.064C222.85 30.064 219.834 33.132 219.834 37.214C219.834 41.296 222.824 44.338 227.01 44.338ZM227.01 41.868C224.462 41.868 222.616 39.918 222.616 37.214C222.616 34.536 224.436 32.56 227.01 32.56C229.584 32.56 231.404 34.51 231.404 37.214C231.404 39.892 229.584 41.868 227.01 41.868ZM237.478 44H240.208V36.07C240.208 34.094 241.612 32.612 243.51 32.612C245.226 32.612 246.552 33.886 246.552 35.784V44H249.282V35.264C249.282 32.326 247.384 30.064 244.29 30.064C242.262 30.064 240.858 31.104 240.312 32.222H240.13V30.402H237.478V44ZM268.806 44.338C273.226 44.338 276.58 41.738 277.594 37.89H274.526C273.694 40.308 271.458 41.686 268.806 41.686C265.088 41.686 262.28 38.826 262.28 34.9C262.28 31.026 265.088 28.114 268.806 28.114C271.458 28.114 273.72 29.518 274.526 31.936H277.542C276.476 28.14 273.252 25.462 268.806 25.462C263.346 25.462 259.368 29.544 259.368 34.9C259.368 40.308 263.32 44.338 268.806 44.338ZM286.588 44.338C289.292 44.338 290.618 42.596 290.982 42.076H291.138V44H293.816V30.402H291.086V32.378H290.904C290.462 31.676 289.058 30.064 286.458 30.064C282.662 30.064 279.984 33.028 279.984 37.24C279.984 41.452 282.688 44.338 286.588 44.338ZM286.978 41.868C284.482 41.868 282.766 40.048 282.766 37.214C282.766 34.484 284.482 32.56 286.952 32.56C289.344 32.56 291.164 34.276 291.164 37.214C291.164 39.788 289.578 41.868 286.978 41.868ZM297.755 44H300.485V37.292C300.485 34.77 301.811 33.028 304.125 33.028H305.399V30.376H304.203C302.279 30.376 300.979 31.676 300.563 32.768H300.381V30.402H297.755V44ZM315.748 44.338C319.674 44.338 322.352 41.452 322.352 37.24C322.352 33.028 319.674 30.064 315.904 30.064C313.304 30.064 311.874 31.676 311.432 32.378H311.276V24.5H308.546V44H311.198V42.076H311.38C311.744 42.596 313.044 44.338 315.748 44.338ZM315.358 41.868C312.758 41.868 311.198 39.788 311.198 37.214C311.198 34.276 313.018 32.56 315.41 32.56C317.88 32.56 319.57 34.484 319.57 37.214C319.57 40.048 317.88 41.868 315.358 41.868ZM331.873 44.338C336.033 44.338 339.049 41.27 339.049 37.214C339.049 33.158 336.085 30.064 331.899 30.064C327.713 30.064 324.697 33.132 324.697 37.214C324.697 41.296 327.687 44.338 331.873 44.338ZM331.873 41.868C329.325 41.868 327.479 39.918 327.479 37.214C327.479 34.536 329.299 32.56 331.873 32.56C334.447 32.56 336.267 34.51 336.267 37.214C336.267 39.892 334.447 41.868 331.873 41.868ZM342.341 44H345.071V36.07C345.071 34.094 346.475 32.612 348.373 32.612C350.089 32.612 351.415 33.886 351.415 35.784V44H354.145V35.264C354.145 32.326 352.247 30.064 349.153 30.064C347.125 30.064 345.721 31.104 345.175 32.222H344.993V30.402H342.341V44ZM373.669 44.338C378.089 44.338 381.443 41.738 382.457 37.89H379.389C378.557 40.308 376.321 41.686 373.669 41.686C369.951 41.686 367.143 38.826 367.143 34.9C367.143 31.026 369.951 28.114 373.669 28.114C376.321 28.114 378.583 29.518 379.389 31.936H382.405C381.339 28.14 378.115 25.462 373.669 25.462C368.209 25.462 364.231 29.544 364.231 34.9C364.231 40.308 368.183 44.338 373.669 44.338ZM391.452 44.338C394.156 44.338 395.482 42.596 395.846 42.076H396.002V44H398.68V30.402H395.95V32.378H395.768C395.326 31.676 393.922 30.064 391.322 30.064C387.526 30.064 384.848 33.028 384.848 37.24C384.848 41.452 387.552 44.338 391.452 44.338ZM391.842 41.868C389.346 41.868 387.63 40.048 387.63 37.214C387.63 34.484 389.346 32.56 391.816 32.56C394.208 32.56 396.028 34.276 396.028 37.214C396.028 39.788 394.442 41.868 391.842 41.868ZM402.618 49.98H405.348V42.024H405.504C405.946 42.752 407.35 44.338 409.976 44.338C413.746 44.338 416.424 41.374 416.424 37.162C416.424 32.95 413.746 30.064 409.82 30.064C407.116 30.064 405.816 31.806 405.452 32.352H405.27V30.402H402.618V49.98ZM409.482 41.868C407.09 41.868 405.27 40.126 405.27 37.188C405.27 34.614 406.83 32.534 409.43 32.534C411.952 32.534 413.642 34.354 413.642 37.188C413.642 39.918 411.952 41.868 409.482 41.868ZM425.348 44H427.61V41.686H425.764C424.334 41.686 423.788 40.906 423.788 39.606V32.638H427.74V30.402H423.788V26.554H421.214V29.544C421.214 30.09 420.876 30.428 420.408 30.428H418.614V32.638H421.058V39.684C421.058 42.518 422.67 44 425.348 44ZM435.764 44.338C437.792 44.338 439.196 43.298 439.742 42.18H439.924V44H442.576V30.402H439.846V38.384C439.846 40.36 438.442 41.816 436.544 41.816C434.828 41.816 433.502 40.568 433.502 38.644V30.402H430.772V39.138C430.772 42.076 432.67 44.338 435.764 44.338ZM446.57 44H449.3V37.292C449.3 34.77 450.626 33.028 452.94 33.028H454.214V30.376H453.018C451.094 30.376 449.794 31.676 449.378 32.768H449.196V30.402H446.57V44ZM462.754 44.338C466.108 44.338 468.526 42.518 469.228 39.892H466.576C466.03 41.218 464.548 42.05 462.832 42.05C460.336 42.05 458.75 40.438 458.646 38.072H469.358V37.058C469.358 33.184 466.94 30.064 462.702 30.064C458.828 30.064 455.916 32.924 455.916 37.24C455.916 41.322 458.672 44.338 462.754 44.338ZM458.698 35.966C458.906 33.834 460.622 32.352 462.702 32.352C464.808 32.352 466.472 33.678 466.654 35.966H458.698Z" fill="#1B2B27"/>
<rect x="26" y="61" width="160" height="29" rx="14.5" fill="#78979E"/>
<path d="M47.606 80.4407C47.4511 80.5965 47.2602 80.7116 47.0501 80.7758C46.84 80.84 46.6173 80.8513 46.4018 80.8087C46.1863 80.7661 45.9847 80.6709 45.8148 80.5316C45.645 80.3923 45.5122 80.2131 45.4283 80.0101C45.3443 79.8071 45.3118 79.5865 45.3337 79.368C45.3556 79.1494 45.4311 78.9396 45.5536 78.7572C45.6761 78.5749 45.8417 78.4256 46.0358 78.3227C46.2299 78.2198 46.4463 78.1664 46.666 78.1673L52.666 78.1673M45.606 70.5607C45.4511 70.4049 45.2602 70.2898 45.0501 70.2256C44.84 70.1614 44.6173 70.1501 44.4018 70.1927C44.1863 70.2353 43.9847 70.3305 43.8148 70.4698C43.645 70.6091 43.5122 70.7882 43.4283 70.9912C43.3443 71.1942 43.3118 71.4148 43.3337 71.6334C43.3556 71.852 43.4311 72.0617 43.5536 72.2441C43.6761 72.4265 43.8417 72.5757 44.0358 72.6786C44.2299 72.7816 44.4463 72.8349 44.666 72.834L52.666 72.834M42.1793 78.3473C41.9854 78.5407 41.7469 78.6834 41.4847 78.7627C41.2226 78.8419 40.9449 78.8554 40.6764 78.8018C40.4078 78.7482 40.1565 78.6293 39.9449 78.4556C39.7332 78.2818 39.5676 78.0585 39.4627 77.8055C39.3578 77.5525 39.3169 77.2776 39.3436 77.005C39.3703 76.7325 39.4637 76.4707 39.6156 76.2428C39.7675 76.0149 39.9733 75.828 40.2146 75.6986C40.456 75.5691 40.7255 75.5012 40.9993 75.5007L52.666 75.5007" stroke="white" stroke-width="2" stroke-linecap="round" stroke-linejoin="round"/>
<path d="M63.454 80H65.064V72.846H65.12L69.53 80H71.42V70.2H69.796V77.396H69.74L65.33 70.2H63.454V80ZM76.1823 80.126C77.9043 80.126 79.1223 79.118 79.3183 77.802H77.7643C77.5963 78.39 77.0643 78.782 76.1823 78.782C75.0063 78.782 74.4183 77.984 74.4183 76.836H79.4163V76.164C79.4163 74.176 78.2683 72.65 76.1543 72.65C73.8723 72.65 72.7663 74.316 72.7663 76.388C72.7663 78.488 73.9843 80.126 76.1823 80.126ZM74.4323 75.702C74.4743 74.764 74.9923 74.008 76.1543 74.008C77.2463 74.008 77.7643 74.75 77.7783 75.702H74.4323ZM85.1102 72.776V77.004C85.1102 78.012 84.6762 78.642 83.5982 78.642C82.5202 78.642 82.0862 78.012 82.0862 77.004V72.776H80.4902V77.256C80.4902 78.866 81.5822 80.112 83.5982 80.112C85.6282 80.112 86.7062 78.866 86.7062 77.256V72.776H85.1102ZM90.992 80.126C91.538 80.126 92 80.042 92.224 79.972V78.628H92.084C91.902 78.684 91.678 78.726 91.384 78.726C90.74 78.726 90.446 78.432 90.446 77.746V74.134H92.196V72.776H90.446V70.858H90.306L88.92 71.25V72.776H87.66V74.134H88.85V78.026C88.85 79.272 89.452 80.126 90.992 80.126ZM93.4608 80H95.0008V76.472C95.0008 75.002 95.6308 74.162 96.8488 74.162H97.4648V72.678H96.8768C95.9668 72.678 95.2948 73.182 95.0008 73.924H94.9448L94.8048 72.776H93.4608V80ZM100.458 80.126C101.424 80.126 102.166 79.762 102.586 79.146H102.642L102.754 80H104.154V75.184C104.154 73.756 103.076 72.65 101.172 72.65C99.3518 72.65 98.2738 73.672 98.2738 75.044H99.7858C99.7998 74.456 100.262 73.966 101.144 73.966C102.152 73.966 102.572 74.526 102.572 75.198V75.87C102.194 75.758 101.55 75.632 100.892 75.632C98.8198 75.632 97.9378 76.612 97.9378 77.872C97.9378 79.146 98.8618 80.126 100.458 80.126ZM100.822 78.852C99.9538 78.852 99.5338 78.404 99.5338 77.816C99.5338 77.172 100.038 76.78 101.004 76.78C101.536 76.78 102.04 76.85 102.572 77.032V77.27C102.572 78.124 101.886 78.852 100.822 78.852ZM105.636 80H107.232V69.64H105.636V80ZM112.567 80H119.175V78.53H114.205V75.688H118.741V74.204H114.205V71.684H119.175V70.2H112.567V80ZM128.644 72.65C127.496 72.65 126.768 73.168 126.39 73.784H126.348C125.942 73.056 125.186 72.65 124.178 72.65C123.128 72.65 122.484 73.098 122.092 73.714H122.036L121.91 72.776H120.496V80H122.092V76.01C122.092 74.806 122.736 74.092 123.702 74.092C124.696 74.092 125.102 74.694 125.102 75.674V80H126.684V76.01C126.684 74.806 127.258 74.092 128.224 74.092C129.218 74.092 129.624 74.694 129.624 75.674V80H131.22V75.282C131.22 73.658 130.24 72.65 128.644 72.65ZM133.506 71.67C134.164 71.67 134.528 71.278 134.528 70.662C134.528 70.046 134.164 69.668 133.506 69.668C132.834 69.668 132.484 70.046 132.484 70.662C132.484 71.278 132.834 71.67 133.506 71.67ZM132.708 80H134.304V72.776H132.708V80ZM138.378 80.126C140.058 80.126 141.374 79.342 141.374 77.942C141.374 76.57 140.534 76.052 139.274 75.786L138.042 75.548C137.44 75.45 137.09 75.198 137.09 74.764C137.09 74.232 137.58 73.938 138.294 73.938C139.12 73.938 139.61 74.358 139.638 75.016H141.206C141.206 73.616 140.058 72.65 138.322 72.65C136.572 72.65 135.536 73.56 135.536 74.75C135.536 75.982 136.362 76.64 137.538 76.878L138.812 77.116C139.47 77.256 139.764 77.536 139.764 77.942C139.764 78.446 139.288 78.754 138.378 78.754C137.468 78.754 136.908 78.306 136.908 77.592H135.312C135.354 79.118 136.432 80.126 138.378 80.126ZM145.109 80.126C146.789 80.126 148.105 79.342 148.105 77.942C148.105 76.57 147.265 76.052 146.005 75.786L144.773 75.548C144.171 75.45 143.821 75.198 143.821 74.764C143.821 74.232 144.311 73.938 145.025 73.938C145.851 73.938 146.341 74.358 146.369 75.016H147.937C147.937 73.616 146.789 72.65 145.053 72.65C143.303 72.65 142.267 73.56 142.267 74.75C142.267 75.982 143.093 76.64 144.269 76.878L145.543 77.116C146.201 77.256 146.495 77.536 146.495 77.942C146.495 78.446 146.019 78.754 145.109 78.754C144.199 78.754 143.639 78.306 143.639 77.592H142.043C142.085 79.118 143.163 80.126 145.109 80.126ZM150.047 71.67C150.705 71.67 151.069 71.278 151.069 70.662C151.069 70.046 150.705 69.668 150.047 69.668C149.375 69.668 149.025 70.046 149.025 70.662C149.025 71.278 149.375 71.67 150.047 71.67ZM149.249 80H150.845V72.776H149.249V80ZM155.269 80.126C157.565 80.126 158.685 78.502 158.685 76.388C158.685 74.274 157.537 72.65 155.269 72.65C153.001 72.65 151.853 74.274 151.853 76.388C151.853 78.516 152.973 80.126 155.269 80.126ZM155.269 78.712C154.065 78.712 153.477 77.844 153.477 76.388C153.477 74.96 154.051 74.064 155.269 74.064C156.487 74.064 157.061 74.946 157.061 76.388C157.061 77.844 156.487 78.712 155.269 78.712ZM159.839 80H161.435V76.01C161.435 74.806 162.079 74.092 163.087 74.092C164.095 74.092 164.557 74.666 164.557 75.674V80H166.153V75.282C166.153 73.644 165.159 72.65 163.549 72.65C162.513 72.65 161.827 73.098 161.435 73.714H161.379L161.253 72.776H159.839V80ZM170.226 80.126C171.906 80.126 173.222 79.342 173.222 77.942C173.222 76.57 172.382 76.052 171.122 75.786L169.89 75.548C169.288 75.45 168.938 75.198 168.938 74.764C168.938 74.232 169.428 73.938 170.142 73.938C170.968 73.938 171.458 74.358 171.486 75.016H173.054C173.054 73.616 171.906 72.65 170.17 72.65C168.42 72.65 167.384 73.56 167.384 74.75C167.384 75.982 168.21 76.64 169.386 76.878L170.66 77.116C171.318 77.256 171.612 77.536 171.612 77.942C171.612 78.446 171.136 78.754 170.226 78.754C169.316 78.754 168.756 78.306 168.756 77.592H167.16C167.202 79.118 168.28 80.126 170.226 80.126Z" fill="white"/>
<rect x="193" y="61" width="120" height="29" rx="14.5" fill="#FBFF4C"/>
<path d="M216.72 70.1673C216.414 69.4665 215.875 68.8926 215.195 68.5419C214.515 68.1913 213.735 68.0852 212.986 68.2416C212.237 68.3979 211.565 68.8072 211.082 69.4006C210.599 69.994 210.335 70.7355 210.334 71.5006L210.334 72.3406C209.515 72.552 208.759 72.9547 208.127 73.5158C207.495 74.0768 207.005 74.78 206.698 75.5675C206.391 76.3549 206.276 77.204 206.361 78.0448C206.447 78.8857 206.731 79.6941 207.191 80.4035C207.65 81.1129 208.271 81.703 209.004 82.1251C209.736 82.5472 210.558 82.7892 211.402 82.8313C212.246 82.8733 213.088 82.7142 213.859 82.3669C214.629 82.0196 215.306 81.4942 215.834 80.834" stroke="#0A2F66" stroke-width="2" stroke-linecap="round" stroke-linejoin="round"/>
<path d="M215.666 78.166L215.666 78.1593" stroke="#0A2F66" stroke-width="2" stroke-linecap="round" stroke-linejoin="round"/>
<path d="M218.334 78.166L218.334 78.1593" stroke="#0A2F66" stroke-width="2" stroke-linecap="round" stroke-linejoin="round"/>
<path d="M217 75.5L217 75.4933" stroke="#0A2F66" stroke-width="2" stroke-linecap="round" stroke-linejoin="round"/>
<path d="M219.666 75.5L219.666 75.4933" stroke="#0A2F66" stroke-width="2" stroke-linecap="round" stroke-linejoin="round"/>
<path d="M215.666 72.834L215.666 72.8273" stroke="#0A2F66" stroke-width="2" stroke-linecap="round" stroke-linejoin="round"/>
<path d="M218.334 72.834L218.334 72.8273" stroke="#0A2F66" stroke-width="2" stroke-linecap="round" stroke-linejoin="round"/>
<path d="M230.329 80H231.967V75.94H236.391V74.456H231.967V71.684H236.839V70.2H230.329V80ZM240.952 80.126C243.248 80.126 244.368 78.502 244.368 76.388C244.368 74.274 243.22 72.65 240.952 72.65C238.684 72.65 237.536 74.274 237.536 76.388C237.536 78.516 238.656 80.126 240.952 80.126ZM240.952 78.712C239.748 78.712 239.16 77.844 239.16 76.388C239.16 74.96 239.734 74.064 240.952 74.064C242.17 74.064 242.744 74.946 242.744 76.388C242.744 77.844 242.17 78.712 240.952 78.712ZM248.111 80.126C249.791 80.126 251.107 79.342 251.107 77.942C251.107 76.57 250.267 76.052 249.007 75.786L247.775 75.548C247.173 75.45 246.823 75.198 246.823 74.764C246.823 74.232 247.313 73.938 248.027 73.938C248.853 73.938 249.343 74.358 249.371 75.016H250.939C250.939 73.616 249.791 72.65 248.055 72.65C246.305 72.65 245.269 73.56 245.269 74.75C245.269 75.982 246.095 76.64 247.271 76.878L248.545 77.116C249.203 77.256 249.497 77.536 249.497 77.942C249.497 78.446 249.021 78.754 248.111 78.754C247.201 78.754 246.641 78.306 246.641 77.592H245.045C245.087 79.118 246.165 80.126 248.111 80.126ZM254.842 80.126C256.522 80.126 257.838 79.342 257.838 77.942C257.838 76.57 256.998 76.052 255.738 75.786L254.506 75.548C253.904 75.45 253.554 75.198 253.554 74.764C253.554 74.232 254.044 73.938 254.758 73.938C255.584 73.938 256.074 74.358 256.102 75.016H257.67C257.67 73.616 256.522 72.65 254.786 72.65C253.036 72.65 252 73.56 252 74.75C252 75.982 252.826 76.64 254.002 76.878L255.276 77.116C255.934 77.256 256.228 77.536 256.228 77.942C256.228 78.446 255.752 78.754 254.842 78.754C253.932 78.754 253.372 78.306 253.372 77.592H251.776C251.818 79.118 252.896 80.126 254.842 80.126ZM259.78 71.67C260.438 71.67 260.802 71.278 260.802 70.662C260.802 70.046 260.438 69.668 259.78 69.668C259.108 69.668 258.758 70.046 258.758 70.662C258.758 71.278 259.108 71.67 259.78 71.67ZM258.982 80H260.578V72.776H258.982V80ZM262.062 80H263.658V69.64H262.062V80ZM268.992 80H270.63V75.94H275.054V74.456H270.63V71.684H275.502V70.2H268.992V80ZM281.211 72.776V77.004C281.211 78.012 280.777 78.642 279.699 78.642C278.621 78.642 278.187 78.012 278.187 77.004V72.776H276.591V77.256C276.591 78.866 277.683 80.112 279.699 80.112C281.729 80.112 282.807 78.866 282.807 77.256V72.776H281.211ZM287.289 80.126C289.011 80.126 290.229 79.118 290.425 77.802H288.871C288.703 78.39 288.171 78.782 287.289 78.782C286.113 78.782 285.525 77.984 285.525 76.836H290.523V76.164C290.523 74.176 289.375 72.65 287.261 72.65C284.979 72.65 283.873 74.316 283.873 76.388C283.873 78.488 285.091 80.126 287.289 80.126ZM285.539 75.702C285.581 74.764 286.099 74.008 287.261 74.008C288.353 74.008 288.871 74.75 288.885 75.702H285.539ZM291.681 80H293.277V69.64H291.681V80ZM297.351 80.126C299.031 80.126 300.347 79.342 300.347 77.942C300.347 76.57 299.507 76.052 298.247 75.786L297.015 75.548C296.413 75.45 296.063 75.198 296.063 74.764C296.063 74.232 296.553 73.938 297.267 73.938C298.093 73.938 298.583 74.358 298.611 75.016H300.179C300.179 73.616 299.031 72.65 297.295 72.65C295.545 72.65 294.509 73.56 294.509 74.75C294.509 75.982 295.335 76.64 296.511 76.878L297.785 77.116C298.443 77.256 298.737 77.536 298.737 77.942C298.737 78.446 298.261 78.754 297.351 78.754C296.441 78.754 295.881 78.306 295.881 77.592H294.285C294.327 79.118 295.405 80.126 297.351 80.126Z" fill="#0A2F66"/>
</svg>
