<svg width="500" height="108" viewBox="0 0 500 108" fill="none" xmlns="http://www.w3.org/2000/svg">
<rect width="500" height="108" fill="#CEE1E8"/>
<path d="M28.314 44H31.122V37.214H35.022C38.324 37.214 40.846 34.848 40.846 31.468C40.846 28.062 38.428 25.8 35.022 25.8H28.314V44ZM31.122 34.796V28.218H34.762C36.712 28.218 38.012 29.57 38.012 31.468C38.012 33.392 36.712 34.796 34.762 34.796H31.122ZM43.925 44H46.655V37.292C46.655 34.77 47.981 33.028 50.295 33.028H51.569V30.376H50.373C48.449 30.376 47.149 31.676 46.733 32.768H46.551V30.402H43.925V44ZM60.1096 44.338C63.4636 44.338 65.8816 42.518 66.5836 39.892H63.9316C63.3856 41.218 61.9036 42.05 60.1876 42.05C57.6916 42.05 56.1056 40.438 56.0016 38.072H66.7136V37.058C66.7136 33.184 64.2956 30.064 60.0576 30.064C56.1836 30.064 53.2716 32.924 53.2716 37.24C53.2716 41.322 56.0276 44.338 60.1096 44.338ZM56.0536 35.966C56.2616 33.834 57.9776 32.352 60.0576 32.352C62.1636 32.352 63.8276 33.678 64.0096 35.966H56.0536ZM69.5325 37.344H76.4225V34.926H69.5325V37.344ZM88.6848 44.338C93.1048 44.338 96.4588 41.738 97.4728 37.89H94.4048C93.5728 40.308 91.3368 41.686 88.6848 41.686C84.9668 41.686 82.1588 38.826 82.1588 34.9C82.1588 31.026 84.9668 28.114 88.6848 28.114C91.3368 28.114 93.5988 29.518 94.4048 31.936H97.4208C96.3548 28.14 93.1308 25.462 88.6848 25.462C83.2248 25.462 79.2468 29.544 79.2468 34.9C79.2468 40.308 83.1988 44.338 88.6848 44.338ZM107.039 44.338C111.199 44.338 114.215 41.27 114.215 37.214C114.215 33.158 111.251 30.064 107.065 30.064C102.879 30.064 99.8634 33.132 99.8634 37.214C99.8634 41.296 102.853 44.338 107.039 44.338ZM107.039 41.868C104.491 41.868 102.645 39.918 102.645 37.214C102.645 34.536 104.465 32.56 107.039 32.56C109.613 32.56 111.433 34.51 111.433 37.214C111.433 39.892 109.613 41.868 107.039 41.868ZM117.507 44H120.237V35.992C120.237 33.99 121.589 32.612 123.305 32.612C125.021 32.612 126.243 33.808 126.243 35.706V44H128.973V36.07C128.973 33.886 130.351 32.612 132.067 32.612C133.861 32.612 134.927 33.808 134.927 36.018V44H137.657V35.082C137.657 32.144 135.681 30.064 132.691 30.064C130.845 30.064 129.415 30.74 128.505 32.352H128.323C127.543 30.974 126.113 30.064 124.163 30.064C122.213 30.064 120.939 31.052 120.341 32.196H120.159V30.402H117.507V44ZM148.779 44.338C152.705 44.338 155.383 41.452 155.383 37.24C155.383 33.028 152.705 30.064 148.935 30.064C146.335 30.064 144.905 31.676 144.463 32.378H144.307V24.5H141.577V44H144.229V42.076H144.411C144.775 42.596 146.075 44.338 148.779 44.338ZM148.389 41.868C145.789 41.868 144.229 39.788 144.229 37.214C144.229 34.276 146.049 32.56 148.441 32.56C150.911 32.56 152.601 34.484 152.601 37.214C152.601 40.048 150.911 41.868 148.389 41.868ZM163.475 44.338C165.503 44.338 166.907 43.298 167.453 42.18H167.635V44H170.287V30.402H167.557V38.384C167.557 40.36 166.153 41.816 164.255 41.816C162.539 41.816 161.213 40.568 161.213 38.644V30.402H158.483V39.138C158.483 42.076 160.381 44.338 163.475 44.338ZM178.96 44.338C182.366 44.338 184.472 42.544 184.472 39.97C184.472 34.198 176.412 37.006 176.412 33.99C176.412 32.976 177.374 32.248 178.908 32.248C180.546 32.248 181.43 33.002 181.586 34.146H184.082C183.874 31.546 181.742 30.064 179.012 30.064C175.892 30.064 173.864 31.754 173.864 34.042C173.864 39.58 181.82 36.772 181.82 40.1C181.82 41.296 180.832 42.102 179.038 42.102C177.27 42.102 176.256 41.374 176.074 39.97H173.5C173.682 42.596 175.502 44.338 178.96 44.338ZM193.684 44H195.946V41.686H194.1C192.67 41.686 192.124 40.906 192.124 39.606V32.638H196.076V30.402H192.124V26.554H189.55V29.544C189.55 30.09 189.212 30.428 188.744 30.428H186.95V32.638H189.394V39.684C189.394 42.518 191.006 44 193.684 44ZM200.694 28.27C201.76 28.27 202.514 27.568 202.514 26.528C202.514 25.54 201.76 24.812 200.694 24.812C199.654 24.812 198.9 25.54 198.9 26.528C198.9 27.568 199.654 28.27 200.694 28.27ZM199.316 44H202.046V30.402H199.316V44ZM212.182 44.338C216.342 44.338 219.358 41.27 219.358 37.214C219.358 33.158 216.394 30.064 212.208 30.064C208.022 30.064 205.006 33.132 205.006 37.214C205.006 41.296 207.996 44.338 212.182 44.338ZM212.182 41.868C209.634 41.868 207.788 39.918 207.788 37.214C207.788 34.536 209.608 32.56 212.182 32.56C214.756 32.56 216.576 34.51 216.576 37.214C216.576 39.892 214.756 41.868 212.182 41.868ZM222.65 44H225.38V36.07C225.38 34.094 226.784 32.612 228.682 32.612C230.398 32.612 231.724 33.886 231.724 35.784V44H234.454V35.264C234.454 32.326 232.556 30.064 229.462 30.064C227.434 30.064 226.03 31.104 225.484 32.222H225.302V30.402H222.65V44ZM253.978 44.338C258.398 44.338 261.752 41.738 262.766 37.89H259.698C258.866 40.308 256.63 41.686 253.978 41.686C250.26 41.686 247.452 38.826 247.452 34.9C247.452 31.026 250.26 28.114 253.978 28.114C256.63 28.114 258.892 29.518 259.698 31.936H262.714C261.648 28.14 258.424 25.462 253.978 25.462C248.518 25.462 244.54 29.544 244.54 34.9C244.54 40.308 248.492 44.338 253.978 44.338ZM271.76 44.338C274.464 44.338 275.79 42.596 276.154 42.076H276.31V44H278.988V30.402H276.258V32.378H276.076C275.634 31.676 274.23 30.064 271.63 30.064C267.834 30.064 265.156 33.028 265.156 37.24C265.156 41.452 267.86 44.338 271.76 44.338ZM272.15 41.868C269.654 41.868 267.938 40.048 267.938 37.214C267.938 34.484 269.654 32.56 272.124 32.56C274.516 32.56 276.336 34.276 276.336 37.214C276.336 39.788 274.75 41.868 272.15 41.868ZM282.927 44H285.657V37.292C285.657 34.77 286.983 33.028 289.297 33.028H290.571V30.376H289.375C287.451 30.376 286.151 31.676 285.735 32.768H285.553V30.402H282.927V44ZM300.92 44.338C304.846 44.338 307.524 41.452 307.524 37.24C307.524 33.028 304.846 30.064 301.076 30.064C298.476 30.064 297.046 31.676 296.604 32.378H296.448V24.5H293.718V44H296.37V42.076H296.552C296.916 42.596 298.216 44.338 300.92 44.338ZM300.53 41.868C297.93 41.868 296.37 39.788 296.37 37.214C296.37 34.276 298.19 32.56 300.582 32.56C303.052 32.56 304.742 34.484 304.742 37.214C304.742 40.048 303.052 41.868 300.53 41.868ZM317.045 44.338C321.205 44.338 324.221 41.27 324.221 37.214C324.221 33.158 321.257 30.064 317.071 30.064C312.885 30.064 309.869 33.132 309.869 37.214C309.869 41.296 312.859 44.338 317.045 44.338ZM317.045 41.868C314.497 41.868 312.651 39.918 312.651 37.214C312.651 34.536 314.471 32.56 317.045 32.56C319.619 32.56 321.439 34.51 321.439 37.214C321.439 39.892 319.619 41.868 317.045 41.868ZM327.513 44H330.243V36.07C330.243 34.094 331.647 32.612 333.545 32.612C335.261 32.612 336.587 33.886 336.587 35.784V44H339.317V35.264C339.317 32.326 337.419 30.064 334.325 30.064C332.297 30.064 330.893 31.104 330.347 32.222H330.165V30.402H327.513V44ZM358.841 44.338C363.261 44.338 366.615 41.738 367.629 37.89H364.561C363.729 40.308 361.493 41.686 358.841 41.686C355.123 41.686 352.315 38.826 352.315 34.9C352.315 31.026 355.123 28.114 358.841 28.114C361.493 28.114 363.755 29.518 364.561 31.936H367.577C366.511 28.14 363.287 25.462 358.841 25.462C353.381 25.462 349.403 29.544 349.403 34.9C349.403 40.308 353.355 44.338 358.841 44.338ZM376.624 44.338C379.328 44.338 380.654 42.596 381.018 42.076H381.174V44H383.852V30.402H381.122V32.378H380.94C380.498 31.676 379.094 30.064 376.494 30.064C372.698 30.064 370.02 33.028 370.02 37.24C370.02 41.452 372.724 44.338 376.624 44.338ZM377.014 41.868C374.518 41.868 372.802 40.048 372.802 37.214C372.802 34.484 374.518 32.56 376.988 32.56C379.38 32.56 381.2 34.276 381.2 37.214C381.2 39.788 379.614 41.868 377.014 41.868ZM387.79 49.98H390.52V42.024H390.676C391.118 42.752 392.522 44.338 395.148 44.338C398.918 44.338 401.596 41.374 401.596 37.162C401.596 32.95 398.918 30.064 394.992 30.064C392.288 30.064 390.988 31.806 390.624 32.352H390.442V30.402H387.79V49.98ZM394.654 41.868C392.262 41.868 390.442 40.126 390.442 37.188C390.442 34.614 392.002 32.534 394.602 32.534C397.124 32.534 398.814 34.354 398.814 37.188C398.814 39.918 397.124 41.868 394.654 41.868ZM410.519 44H412.781V41.686H410.935C409.505 41.686 408.959 40.906 408.959 39.606V32.638H412.911V30.402H408.959V26.554H406.385V29.544C406.385 30.09 406.047 30.428 405.579 30.428H403.785V32.638H406.229V39.684C406.229 42.518 407.841 44 410.519 44ZM420.936 44.338C422.964 44.338 424.368 43.298 424.914 42.18H425.096V44H427.748V30.402H425.018V38.384C425.018 40.36 423.614 41.816 421.716 41.816C420 41.816 418.674 40.568 418.674 38.644V30.402H415.944V39.138C415.944 42.076 417.842 44.338 420.936 44.338ZM431.741 44H434.471V37.292C434.471 34.77 435.797 33.028 438.111 33.028H439.385V30.376H438.189C436.265 30.376 434.965 31.676 434.549 32.768H434.367V30.402H431.741V44ZM447.926 44.338C451.28 44.338 453.698 42.518 454.4 39.892H451.748C451.202 41.218 449.72 42.05 448.004 42.05C445.508 42.05 443.922 40.438 443.818 38.072H454.53V37.058C454.53 33.184 452.112 30.064 447.874 30.064C444 30.064 441.088 32.924 441.088 37.24C441.088 41.322 443.844 44.338 447.926 44.338ZM443.87 35.966C444.078 33.834 445.794 32.352 447.874 32.352C449.98 32.352 451.644 33.678 451.826 35.966H443.87Z" fill="#1B2B27"/>
<rect x="26" y="61" width="160" height="29" rx="14.5" fill="#78979E"/>
<path d="M47.606 80.4407C47.4511 80.5965 47.2602 80.7116 47.0501 80.7758C46.84 80.84 46.6173 80.8513 46.4018 80.8087C46.1863 80.7661 45.9847 80.6709 45.8148 80.5316C45.645 80.3923 45.5122 80.2131 45.4283 80.0101C45.3443 79.8071 45.3118 79.5865 45.3337 79.368C45.3556 79.1494 45.4311 78.9396 45.5536 78.7572C45.6761 78.5749 45.8417 78.4256 46.0358 78.3227C46.2299 78.2198 46.4463 78.1664 46.666 78.1673L52.666 78.1673M45.606 70.5607C45.4511 70.4049 45.2602 70.2898 45.0501 70.2256C44.84 70.1614 44.6173 70.1501 44.4018 70.1927C44.1863 70.2353 43.9847 70.3305 43.8148 70.4698C43.645 70.6091 43.5122 70.7882 43.4283 70.9912C43.3443 71.1942 43.3118 71.4148 43.3337 71.6334C43.3556 71.852 43.4311 72.0617 43.5536 72.2441C43.6761 72.4265 43.8417 72.5757 44.0358 72.6786C44.2299 72.7816 44.4463 72.8349 44.666 72.834L52.666 72.834M42.1793 78.3473C41.9854 78.5407 41.7469 78.6834 41.4847 78.7627C41.2226 78.8419 40.9449 78.8554 40.6764 78.8018C40.4078 78.7482 40.1565 78.6293 39.9449 78.4556C39.7332 78.2818 39.5676 78.0585 39.4627 77.8055C39.3578 77.5525 39.3169 77.2776 39.3436 77.005C39.3703 76.7325 39.4637 76.4707 39.6156 76.2428C39.7675 76.0149 39.9733 75.828 40.2146 75.6986C40.456 75.5691 40.7255 75.5012 40.9993 75.5007L52.666 75.5007" stroke="white" stroke-width="2" stroke-linecap="round" stroke-linejoin="round"/>
<path d="M63.454 80H65.064V72.846H65.12L69.53 80H71.42V70.2H69.796V77.396H69.74L65.33 70.2H63.454V80ZM76.1823 80.126C77.9043 80.126 79.1223 79.118 79.3183 77.802H77.7643C77.5963 78.39 77.0643 78.782 76.1823 78.782C75.0063 78.782 74.4183 77.984 74.4183 76.836H79.4163V76.164C79.4163 74.176 78.2683 72.65 76.1543 72.65C73.8723 72.65 72.7663 74.316 72.7663 76.388C72.7663 78.488 73.9843 80.126 76.1823 80.126ZM74.4323 75.702C74.4743 74.764 74.9923 74.008 76.1543 74.008C77.2463 74.008 77.7643 74.75 77.7783 75.702H74.4323ZM85.1102 72.776V77.004C85.1102 78.012 84.6762 78.642 83.5982 78.642C82.5202 78.642 82.0862 78.012 82.0862 77.004V72.776H80.4902V77.256C80.4902 78.866 81.5822 80.112 83.5982 80.112C85.6282 80.112 86.7062 78.866 86.7062 77.256V72.776H85.1102ZM90.992 80.126C91.538 80.126 92 80.042 92.224 79.972V78.628H92.084C91.902 78.684 91.678 78.726 91.384 78.726C90.74 78.726 90.446 78.432 90.446 77.746V74.134H92.196V72.776H90.446V70.858H90.306L88.92 71.25V72.776H87.66V74.134H88.85V78.026C88.85 79.272 89.452 80.126 90.992 80.126ZM93.4608 80H95.0008V76.472C95.0008 75.002 95.6308 74.162 96.8488 74.162H97.4648V72.678H96.8768C95.9668 72.678 95.2948 73.182 95.0008 73.924H94.9448L94.8048 72.776H93.4608V80ZM100.458 80.126C101.424 80.126 102.166 79.762 102.586 79.146H102.642L102.754 80H104.154V75.184C104.154 73.756 103.076 72.65 101.172 72.65C99.3518 72.65 98.2738 73.672 98.2738 75.044H99.7858C99.7998 74.456 100.262 73.966 101.144 73.966C102.152 73.966 102.572 74.526 102.572 75.198V75.87C102.194 75.758 101.55 75.632 100.892 75.632C98.8198 75.632 97.9378 76.612 97.9378 77.872C97.9378 79.146 98.8618 80.126 100.458 80.126ZM100.822 78.852C99.9538 78.852 99.5338 78.404 99.5338 77.816C99.5338 77.172 100.038 76.78 101.004 76.78C101.536 76.78 102.04 76.85 102.572 77.032V77.27C102.572 78.124 101.886 78.852 100.822 78.852ZM105.636 80H107.232V69.64H105.636V80ZM112.567 80H119.175V78.53H114.205V75.688H118.741V74.204H114.205V71.684H119.175V70.2H112.567V80ZM128.644 72.65C127.496 72.65 126.768 73.168 126.39 73.784H126.348C125.942 73.056 125.186 72.65 124.178 72.65C123.128 72.65 122.484 73.098 122.092 73.714H122.036L121.91 72.776H120.496V80H122.092V76.01C122.092 74.806 122.736 74.092 123.702 74.092C124.696 74.092 125.102 74.694 125.102 75.674V80H126.684V76.01C126.684 74.806 127.258 74.092 128.224 74.092C129.218 74.092 129.624 74.694 129.624 75.674V80H131.22V75.282C131.22 73.658 130.24 72.65 128.644 72.65ZM133.506 71.67C134.164 71.67 134.528 71.278 134.528 70.662C134.528 70.046 134.164 69.668 133.506 69.668C132.834 69.668 132.484 70.046 132.484 70.662C132.484 71.278 132.834 71.67 133.506 71.67ZM132.708 80H134.304V72.776H132.708V80ZM138.378 80.126C140.058 80.126 141.374 79.342 141.374 77.942C141.374 76.57 140.534 76.052 139.274 75.786L138.042 75.548C137.44 75.45 137.09 75.198 137.09 74.764C137.09 74.232 137.58 73.938 138.294 73.938C139.12 73.938 139.61 74.358 139.638 75.016H141.206C141.206 73.616 140.058 72.65 138.322 72.65C136.572 72.65 135.536 73.56 135.536 74.75C135.536 75.982 136.362 76.64 137.538 76.878L138.812 77.116C139.47 77.256 139.764 77.536 139.764 77.942C139.764 78.446 139.288 78.754 138.378 78.754C137.468 78.754 136.908 78.306 136.908 77.592H135.312C135.354 79.118 136.432 80.126 138.378 80.126ZM145.109 80.126C146.789 80.126 148.105 79.342 148.105 77.942C148.105 76.57 147.265 76.052 146.005 75.786L144.773 75.548C144.171 75.45 143.821 75.198 143.821 74.764C143.821 74.232 144.311 73.938 145.025 73.938C145.851 73.938 146.341 74.358 146.369 75.016H147.937C147.937 73.616 146.789 72.65 145.053 72.65C143.303 72.65 142.267 73.56 142.267 74.75C142.267 75.982 143.093 76.64 144.269 76.878L145.543 77.116C146.201 77.256 146.495 77.536 146.495 77.942C146.495 78.446 146.019 78.754 145.109 78.754C144.199 78.754 143.639 78.306 143.639 77.592H142.043C142.085 79.118 143.163 80.126 145.109 80.126ZM150.047 71.67C150.705 71.67 151.069 71.278 151.069 70.662C151.069 70.046 150.705 69.668 150.047 69.668C149.375 69.668 149.025 70.046 149.025 70.662C149.025 71.278 149.375 71.67 150.047 71.67ZM149.249 80H150.845V72.776H149.249V80ZM155.269 80.126C157.565 80.126 158.685 78.502 158.685 76.388C158.685 74.274 157.537 72.65 155.269 72.65C153.001 72.65 151.853 74.274 151.853 76.388C151.853 78.516 152.973 80.126 155.269 80.126ZM155.269 78.712C154.065 78.712 153.477 77.844 153.477 76.388C153.477 74.96 154.051 74.064 155.269 74.064C156.487 74.064 157.061 74.946 157.061 76.388C157.061 77.844 156.487 78.712 155.269 78.712ZM159.839 80H161.435V76.01C161.435 74.806 162.079 74.092 163.087 74.092C164.095 74.092 164.557 74.666 164.557 75.674V80H166.153V75.282C166.153 73.644 165.159 72.65 163.549 72.65C162.513 72.65 161.827 73.098 161.435 73.714H161.379L161.253 72.776H159.839V80ZM170.226 80.126C171.906 80.126 173.222 79.342 173.222 77.942C173.222 76.57 172.382 76.052 171.122 75.786L169.89 75.548C169.288 75.45 168.938 75.198 168.938 74.764C168.938 74.232 169.428 73.938 170.142 73.938C170.968 73.938 171.458 74.358 171.486 75.016H173.054C173.054 73.616 171.906 72.65 170.17 72.65C168.42 72.65 167.384 73.56 167.384 74.75C167.384 75.982 168.21 76.64 169.386 76.878L170.66 77.116C171.318 77.256 171.612 77.536 171.612 77.942C171.612 78.446 171.136 78.754 170.226 78.754C169.316 78.754 168.756 78.306 168.756 77.592H167.16C167.202 79.118 168.28 80.126 170.226 80.126Z" fill="white"/>
<rect x="193" y="61" width="120" height="29" rx="14.5" fill="#FBFF4C"/>
<path d="M216.72 70.1673C216.414 69.4665 215.875 68.8926 215.195 68.5419C214.515 68.1913 213.735 68.0852 212.986 68.2416C212.237 68.3979 211.565 68.8072 211.082 69.4006C210.599 69.994 210.335 70.7355 210.334 71.5006L210.334 72.3406C209.515 72.552 208.759 72.9547 208.127 73.5158C207.495 74.0768 207.005 74.78 206.698 75.5675C206.391 76.3549 206.276 77.204 206.361 78.0448C206.447 78.8857 206.731 79.6941 207.191 80.4035C207.65 81.1129 208.271 81.703 209.004 82.1251C209.736 82.5472 210.558 82.7892 211.402 82.8313C212.246 82.8733 213.088 82.7142 213.859 82.3669C214.629 82.0196 215.306 81.4942 215.834 80.834" stroke="#0A2F66" stroke-width="2" stroke-linecap="round" stroke-linejoin="round"/>
<path d="M215.666 78.166L215.666 78.1593" stroke="#0A2F66" stroke-width="2" stroke-linecap="round" stroke-linejoin="round"/>
<path d="M218.334 78.166L218.334 78.1593" stroke="#0A2F66" stroke-width="2" stroke-linecap="round" stroke-linejoin="round"/>
<path d="M217 75.5L217 75.4933" stroke="#0A2F66" stroke-width="2" stroke-linecap="round" stroke-linejoin="round"/>
<path d="M219.666 75.5L219.666 75.4933" stroke="#0A2F66" stroke-width="2" stroke-linecap="round" stroke-linejoin="round"/>
<path d="M215.666 72.834L215.666 72.8273" stroke="#0A2F66" stroke-width="2" stroke-linecap="round" stroke-linejoin="round"/>
<path d="M218.334 72.834L218.334 72.8273" stroke="#0A2F66" stroke-width="2" stroke-linecap="round" stroke-linejoin="round"/>
<path d="M230.329 80H231.967V75.94H236.391V74.456H231.967V71.684H236.839V70.2H230.329V80ZM240.952 80.126C243.248 80.126 244.368 78.502 244.368 76.388C244.368 74.274 243.22 72.65 240.952 72.65C238.684 72.65 237.536 74.274 237.536 76.388C237.536 78.516 238.656 80.126 240.952 80.126ZM240.952 78.712C239.748 78.712 239.16 77.844 239.16 76.388C239.16 74.96 239.734 74.064 240.952 74.064C242.17 74.064 242.744 74.946 242.744 76.388C242.744 77.844 242.17 78.712 240.952 78.712ZM248.111 80.126C249.791 80.126 251.107 79.342 251.107 77.942C251.107 76.57 250.267 76.052 249.007 75.786L247.775 75.548C247.173 75.45 246.823 75.198 246.823 74.764C246.823 74.232 247.313 73.938 248.027 73.938C248.853 73.938 249.343 74.358 249.371 75.016H250.939C250.939 73.616 249.791 72.65 248.055 72.65C246.305 72.65 245.269 73.56 245.269 74.75C245.269 75.982 246.095 76.64 247.271 76.878L248.545 77.116C249.203 77.256 249.497 77.536 249.497 77.942C249.497 78.446 249.021 78.754 248.111 78.754C247.201 78.754 246.641 78.306 246.641 77.592H245.045C245.087 79.118 246.165 80.126 248.111 80.126ZM254.842 80.126C256.522 80.126 257.838 79.342 257.838 77.942C257.838 76.57 256.998 76.052 255.738 75.786L254.506 75.548C253.904 75.45 253.554 75.198 253.554 74.764C253.554 74.232 254.044 73.938 254.758 73.938C255.584 73.938 256.074 74.358 256.102 75.016H257.67C257.67 73.616 256.522 72.65 254.786 72.65C253.036 72.65 252 73.56 252 74.75C252 75.982 252.826 76.64 254.002 76.878L255.276 77.116C255.934 77.256 256.228 77.536 256.228 77.942C256.228 78.446 255.752 78.754 254.842 78.754C253.932 78.754 253.372 78.306 253.372 77.592H251.776C251.818 79.118 252.896 80.126 254.842 80.126ZM259.78 71.67C260.438 71.67 260.802 71.278 260.802 70.662C260.802 70.046 260.438 69.668 259.78 69.668C259.108 69.668 258.758 70.046 258.758 70.662C258.758 71.278 259.108 71.67 259.78 71.67ZM258.982 80H260.578V72.776H258.982V80ZM262.062 80H263.658V69.64H262.062V80ZM268.992 80H270.63V75.94H275.054V74.456H270.63V71.684H275.502V70.2H268.992V80ZM281.211 72.776V77.004C281.211 78.012 280.777 78.642 279.699 78.642C278.621 78.642 278.187 78.012 278.187 77.004V72.776H276.591V77.256C276.591 78.866 277.683 80.112 279.699 80.112C281.729 80.112 282.807 78.866 282.807 77.256V72.776H281.211ZM287.289 80.126C289.011 80.126 290.229 79.118 290.425 77.802H288.871C288.703 78.39 288.171 78.782 287.289 78.782C286.113 78.782 285.525 77.984 285.525 76.836H290.523V76.164C290.523 74.176 289.375 72.65 287.261 72.65C284.979 72.65 283.873 74.316 283.873 76.388C283.873 78.488 285.091 80.126 287.289 80.126ZM285.539 75.702C285.581 74.764 286.099 74.008 287.261 74.008C288.353 74.008 288.871 74.75 288.885 75.702H285.539ZM291.681 80H293.277V69.64H291.681V80ZM297.351 80.126C299.031 80.126 300.347 79.342 300.347 77.942C300.347 76.57 299.507 76.052 298.247 75.786L297.015 75.548C296.413 75.45 296.063 75.198 296.063 74.764C296.063 74.232 296.553 73.938 297.267 73.938C298.093 73.938 298.583 74.358 298.611 75.016H300.179C300.179 73.616 299.031 72.65 297.295 72.65C295.545 72.65 294.509 73.56 294.509 74.75C294.509 75.982 295.335 76.64 296.511 76.878L297.785 77.116C298.443 77.256 298.737 77.536 298.737 77.942C298.737 78.446 298.261 78.754 297.351 78.754C296.441 78.754 295.881 78.306 295.881 77.592H294.285C294.327 79.118 295.405 80.126 297.351 80.126Z" fill="#0A2F66"/>
</svg>
