<svg width="500" height="108" viewBox="0 0 500 108" fill="none" xmlns="http://www.w3.org/2000/svg">
<rect width="500" height="108" fill="#CEE1E8"/>
<path d="M28.314 44H31.122V37.214H35.022C38.324 37.214 40.846 34.848 40.846 31.468C40.846 28.062 38.428 25.8 35.022 25.8H28.314V44ZM31.122 34.796V28.218H34.762C36.712 28.218 38.012 29.57 38.012 31.468C38.012 33.392 36.712 34.796 34.762 34.796H31.122ZM43.9739 49.98H45.5079C47.9519 49.98 49.1999 48.784 49.9799 46.704L56.2199 30.402H53.2299L49.4859 40.906H49.3039L45.5339 30.402H42.5699L48.0559 44.572L47.5619 45.872C47.1459 46.964 46.4179 47.536 45.1699 47.536H43.9739V49.98ZM59.007 44H61.737V37.292C61.737 34.77 63.063 33.028 65.377 33.028H66.651V30.376H65.455C63.531 30.376 62.231 31.676 61.815 32.768H61.633V30.402H59.007V44ZM75.5296 44.338C79.6896 44.338 82.7056 41.27 82.7056 37.214C82.7056 33.158 79.7416 30.064 75.5556 30.064C71.3696 30.064 68.3536 33.132 68.3536 37.214C68.3536 41.296 71.3436 44.338 75.5296 44.338ZM75.5296 41.868C72.9816 41.868 71.1356 39.918 71.1356 37.214C71.1356 34.536 72.9556 32.56 75.5296 32.56C78.1036 32.56 79.9236 34.51 79.9236 37.214C79.9236 39.892 78.1036 41.868 75.5296 41.868ZM92.0812 50.318C96.4232 50.318 98.8672 47.796 98.8672 43.948V30.402H96.1372V32.378H95.9552C95.5392 31.676 94.1092 30.064 91.4832 30.064C87.7652 30.064 85.0352 32.95 85.0352 37.188C85.0352 41.426 87.7912 44.286 91.6132 44.286C94.2912 44.286 95.6432 42.544 96.0072 41.998H96.1892V43.948C96.1892 46.496 94.8892 48.03 92.0812 48.03C90.1572 48.03 88.8312 47.198 88.5192 45.82H85.9972C86.3092 48.29 88.4412 50.318 92.0812 50.318ZM92.0292 41.816C89.5332 41.816 87.8172 40.022 87.8172 37.188C87.8172 34.458 89.5332 32.56 92.0032 32.56C94.3952 32.56 96.2152 34.25 96.2152 37.188C96.2152 39.762 94.6292 41.816 92.0292 41.816ZM108.733 44.338C112.087 44.338 114.505 42.518 115.207 39.892H112.555C112.009 41.218 110.527 42.05 108.811 42.05C106.315 42.05 104.729 40.438 104.625 38.072H115.337V37.058C115.337 33.184 112.919 30.064 108.681 30.064C104.807 30.064 101.895 32.924 101.895 37.24C101.895 41.322 104.651 44.338 108.733 44.338ZM104.677 35.966C104.885 33.834 106.601 32.352 108.681 32.352C110.787 32.352 112.451 33.678 112.633 35.966H104.677ZM118.65 44H121.38V36.07C121.38 34.094 122.784 32.612 124.682 32.612C126.398 32.612 127.724 33.886 127.724 35.784V44H130.454V35.264C130.454 32.326 128.556 30.064 125.462 30.064C123.434 30.064 122.03 31.104 121.484 32.222H121.302V30.402H118.65V44ZM135.77 28.27C136.836 28.27 137.59 27.568 137.59 26.528C137.59 25.54 136.836 24.812 135.77 24.812C134.73 24.812 133.976 25.54 133.976 26.528C133.976 27.568 134.73 28.27 135.77 28.27ZM134.392 44H137.122V30.402H134.392V44ZM147.154 44.338C150.352 44.338 153.108 42.414 153.706 39.294H150.924C150.456 40.828 148.948 41.868 147.206 41.868C144.658 41.868 142.89 39.892 142.89 37.214C142.89 34.588 144.58 32.56 147.154 32.56C148.948 32.56 150.43 33.6 150.898 35.16H153.706C153.082 32.04 150.352 30.064 147.128 30.064C142.994 30.064 140.082 33.184 140.082 37.214C140.082 41.218 142.942 44.338 147.154 44.338ZM172.626 44.338C177.046 44.338 180.4 41.738 181.414 37.89H178.346C177.514 40.308 175.278 41.686 172.626 41.686C168.908 41.686 166.1 38.826 166.1 34.9C166.1 31.026 168.908 28.114 172.626 28.114C175.278 28.114 177.54 29.518 178.346 31.936H181.362C180.296 28.14 177.072 25.462 172.626 25.462C167.166 25.462 163.188 29.544 163.188 34.9C163.188 40.308 167.14 44.338 172.626 44.338ZM190.409 44.338C193.113 44.338 194.439 42.596 194.803 42.076H194.959V44H197.637V30.402H194.907V32.378H194.725C194.283 31.676 192.879 30.064 190.279 30.064C186.483 30.064 183.805 33.028 183.805 37.24C183.805 41.452 186.509 44.338 190.409 44.338ZM190.799 41.868C188.303 41.868 186.587 40.048 186.587 37.214C186.587 34.484 188.303 32.56 190.773 32.56C193.165 32.56 194.985 34.276 194.985 37.214C194.985 39.788 193.399 41.868 190.799 41.868ZM201.575 44H204.305V37.292C204.305 34.77 205.631 33.028 207.945 33.028H209.219V30.376H208.023C206.099 30.376 204.799 31.676 204.383 32.768H204.201V30.402H201.575V44ZM219.568 44.338C223.494 44.338 226.172 41.452 226.172 37.24C226.172 33.028 223.494 30.064 219.724 30.064C217.124 30.064 215.694 31.676 215.252 32.378H215.096V24.5H212.366V44H215.018V42.076H215.2C215.564 42.596 216.864 44.338 219.568 44.338ZM219.178 41.868C216.578 41.868 215.018 39.788 215.018 37.214C215.018 34.276 216.838 32.56 219.23 32.56C221.7 32.56 223.39 34.484 223.39 37.214C223.39 40.048 221.7 41.868 219.178 41.868ZM235.694 44.338C239.854 44.338 242.87 41.27 242.87 37.214C242.87 33.158 239.906 30.064 235.72 30.064C231.534 30.064 228.518 33.132 228.518 37.214C228.518 41.296 231.508 44.338 235.694 44.338ZM235.694 41.868C233.146 41.868 231.3 39.918 231.3 37.214C231.3 34.536 233.12 32.56 235.694 32.56C238.268 32.56 240.088 34.51 240.088 37.214C240.088 39.892 238.268 41.868 235.694 41.868ZM246.161 44H248.891V36.07C248.891 34.094 250.295 32.612 252.193 32.612C253.909 32.612 255.235 33.886 255.235 35.784V44H257.965V35.264C257.965 32.326 256.067 30.064 252.973 30.064C250.945 30.064 249.541 31.104 248.995 32.222H248.813V30.402H246.161V44ZM277.489 44.338C281.909 44.338 285.263 41.738 286.277 37.89H283.209C282.377 40.308 280.141 41.686 277.489 41.686C273.771 41.686 270.963 38.826 270.963 34.9C270.963 31.026 273.771 28.114 277.489 28.114C280.141 28.114 282.403 29.518 283.209 31.936H286.225C285.159 28.14 281.935 25.462 277.489 25.462C272.029 25.462 268.051 29.544 268.051 34.9C268.051 40.308 272.003 44.338 277.489 44.338ZM295.272 44.338C297.976 44.338 299.302 42.596 299.666 42.076H299.822V44H302.5V30.402H299.77V32.378H299.588C299.146 31.676 297.742 30.064 295.142 30.064C291.346 30.064 288.668 33.028 288.668 37.24C288.668 41.452 291.372 44.338 295.272 44.338ZM295.662 41.868C293.166 41.868 291.45 40.048 291.45 37.214C291.45 34.484 293.166 32.56 295.636 32.56C298.028 32.56 299.848 34.276 299.848 37.214C299.848 39.788 298.262 41.868 295.662 41.868ZM306.439 49.98H309.169V42.024H309.325C309.767 42.752 311.171 44.338 313.797 44.338C317.567 44.338 320.245 41.374 320.245 37.162C320.245 32.95 317.567 30.064 313.641 30.064C310.937 30.064 309.637 31.806 309.273 32.352H309.091V30.402H306.439V49.98ZM313.303 41.868C310.911 41.868 309.091 40.126 309.091 37.188C309.091 34.614 310.651 32.534 313.251 32.534C315.773 32.534 317.463 34.354 317.463 37.188C317.463 39.918 315.773 41.868 313.303 41.868ZM329.168 44H331.43V41.686H329.584C328.154 41.686 327.608 40.906 327.608 39.606V32.638H331.56V30.402H327.608V26.554H325.034V29.544C325.034 30.09 324.696 30.428 324.228 30.428H322.434V32.638H324.878V39.684C324.878 42.518 326.49 44 329.168 44ZM339.584 44.338C341.612 44.338 343.016 43.298 343.562 42.18H343.744V44H346.396V30.402H343.666V38.384C343.666 40.36 342.262 41.816 340.364 41.816C338.648 41.816 337.322 40.568 337.322 38.644V30.402H334.592V39.138C334.592 42.076 336.49 44.338 339.584 44.338ZM350.39 44H353.12V37.292C353.12 34.77 354.446 33.028 356.76 33.028H358.034V30.376H356.838C354.914 30.376 353.614 31.676 353.198 32.768H353.016V30.402H350.39V44ZM366.574 44.338C369.928 44.338 372.346 42.518 373.048 39.892H370.396C369.85 41.218 368.368 42.05 366.652 42.05C364.156 42.05 362.57 40.438 362.466 38.072H373.178V37.058C373.178 33.184 370.76 30.064 366.522 30.064C362.648 30.064 359.736 32.924 359.736 37.24C359.736 41.322 362.492 44.338 366.574 44.338ZM362.518 35.966C362.726 33.834 364.442 32.352 366.522 32.352C368.628 32.352 370.292 33.678 370.474 35.966H362.518Z" fill="#1B2B27"/>
<path d="M26 75.5C26 67.4919 32.4919 61 40.5 61H180.5C188.508 61 195 67.4919 195 75.5V75.5C195 83.5081 188.508 90 180.5 90H40.5C32.4919 90 26 83.5081 26 75.5V75.5Z" fill="#1CE15F"/>
<path d="M50.9407 73.894C51.0965 74.0489 51.2116 74.2398 51.2758 74.4499C51.34 74.66 51.3513 74.8827 51.3087 75.0982C51.2661 75.3137 51.1709 75.5153 51.0316 75.6852C50.8923 75.855 50.7131 75.9878 50.5101 76.0717C50.3071 76.1557 50.0865 76.1882 49.868 76.1663C49.6494 76.1444 49.4396 76.0689 49.2572 75.9464C49.0749 75.8239 48.9256 75.6583 48.8227 75.4642C48.7198 75.2701 48.6664 75.0537 48.6673 74.834L48.6673 68.834M41.0607 75.894C40.9049 76.0489 40.7898 76.2398 40.7256 76.4499C40.6614 76.66 40.6501 76.8827 40.6927 77.0982C40.7353 77.3137 40.8304 77.5153 40.9698 77.6852C41.1091 77.855 41.2882 77.9878 41.4912 78.0717C41.6942 78.1557 41.9148 78.1882 42.1334 78.1663C42.352 78.1444 42.5617 78.0689 42.7441 77.9464C42.9265 77.8239 43.0757 77.6583 43.1786 77.4642C43.2816 77.2701 43.3349 77.0537 43.334 76.834L43.334 68.834M48.8473 79.3207C49.0407 79.5146 49.1834 79.7531 49.2627 80.0153C49.3419 80.2774 49.3554 80.5551 49.3018 80.8236C49.2482 81.0922 49.1293 81.3435 48.9555 81.5551C48.7818 81.7668 48.5585 81.9324 48.3055 82.0373C48.0525 82.1422 47.7776 82.1831 47.505 82.1564C47.2325 82.1297 46.9707 82.0363 46.7428 81.8844C46.5149 81.7325 46.328 81.5267 46.1986 81.2854C46.0691 81.044 46.0012 80.7745 46.0007 80.5007L46.0007 68.834" stroke="white" stroke-width="2" stroke-linecap="round" stroke-linejoin="round"/>
<path d="M63.3105 80H64.9205V72.846H64.9765L69.3865 80H71.2765V70.2H69.6525V77.396H69.5965L65.1865 70.2H63.3105V80ZM76.0388 80.126C77.7608 80.126 78.9788 79.118 79.1748 77.802H77.6208C77.4528 78.39 76.9208 78.782 76.0388 78.782C74.8628 78.782 74.2748 77.984 74.2748 76.836H79.2728V76.164C79.2728 74.176 78.1248 72.65 76.0108 72.65C73.7288 72.65 72.6228 74.316 72.6228 76.388C72.6228 78.488 73.8408 80.126 76.0388 80.126ZM74.2888 75.702C74.3308 74.764 74.8488 74.008 76.0108 74.008C77.1028 74.008 77.6208 74.75 77.6348 75.702H74.2888ZM83.3427 83.332C85.3867 83.332 86.6887 82.114 86.6887 80.392V72.776H85.2747L85.0927 73.644H85.0367C84.6727 73.098 84.0147 72.65 82.9647 72.65C81.1027 72.65 79.9687 74.134 79.9547 76.388C79.9687 78.544 81.0187 80.126 82.9647 80.126C84.0147 80.126 84.6727 79.678 85.0367 79.132H85.0927V80.364C85.0927 81.26 84.5327 81.96 83.3427 81.96C82.3067 81.96 81.7747 81.386 81.7187 80.784H80.1647C80.2067 82.282 81.4527 83.332 83.3427 83.332ZM83.3567 78.712C82.0407 78.712 81.5787 77.648 81.5787 76.388C81.5787 75.128 82.0547 74.064 83.3567 74.064C84.6307 74.064 85.1487 75.142 85.1487 76.388C85.1487 77.634 84.6447 78.712 83.3567 78.712ZM90.2168 80.126C91.1828 80.126 91.9248 79.762 92.3448 79.146H92.4008L92.5128 80H93.9128V75.184C93.9128 73.756 92.8348 72.65 90.9308 72.65C89.1108 72.65 88.0328 73.672 88.0328 75.044H89.5448C89.5588 74.456 90.0208 73.966 90.9028 73.966C91.9108 73.966 92.3308 74.526 92.3308 75.198V75.87C91.9528 75.758 91.3088 75.632 90.6508 75.632C88.5788 75.632 87.6968 76.612 87.6968 77.872C87.6968 79.146 88.6208 80.126 90.2168 80.126ZM90.5808 78.852C89.7128 78.852 89.2928 78.404 89.2928 77.816C89.2928 77.172 89.7968 76.78 90.7628 76.78C91.2948 76.78 91.7988 76.85 92.3308 77.032V77.27C92.3308 78.124 91.6448 78.852 90.5808 78.852ZM98.1394 80.126C98.6854 80.126 99.1474 80.042 99.3714 79.972V78.628H99.2314C99.0494 78.684 98.8254 78.726 98.5314 78.726C97.8874 78.726 97.5934 78.432 97.5934 77.746V74.134H99.3434V72.776H97.5934V70.858H97.4534L96.0674 71.25V72.776H94.8074V74.134H95.9974V78.026C95.9974 79.272 96.5994 80.126 98.1394 80.126ZM101.406 71.67C102.064 71.67 102.428 71.278 102.428 70.662C102.428 70.046 102.064 69.668 101.406 69.668C100.734 69.668 100.384 70.046 100.384 70.662C100.384 71.278 100.734 71.67 101.406 71.67ZM100.608 80H102.204V72.776H100.608V80ZM105.494 80H107.37L109.932 72.916V72.776H108.308L106.474 78.348H106.418L104.528 72.776H102.89V72.916L105.494 80ZM113.468 80.126C115.19 80.126 116.408 79.118 116.604 77.802H115.05C114.882 78.39 114.35 78.782 113.468 78.782C112.292 78.782 111.704 77.984 111.704 76.836H116.702V76.164C116.702 74.176 115.554 72.65 113.44 72.65C111.158 72.65 110.052 74.316 110.052 76.388C110.052 78.488 111.27 80.126 113.468 80.126ZM111.718 75.702C111.76 74.764 112.278 74.008 113.44 74.008C114.532 74.008 115.05 74.75 115.064 75.702H111.718ZM121.71 80H128.318V78.53H123.348V75.688H127.884V74.204H123.348V71.684H128.318V70.2H121.71V80ZM137.787 72.65C136.639 72.65 135.911 73.168 135.533 73.784H135.491C135.085 73.056 134.329 72.65 133.321 72.65C132.271 72.65 131.627 73.098 131.235 73.714H131.179L131.053 72.776H129.639V80H131.235V76.01C131.235 74.806 131.879 74.092 132.845 74.092C133.839 74.092 134.245 74.694 134.245 75.674V80H135.827V76.01C135.827 74.806 136.401 74.092 137.367 74.092C138.361 74.092 138.767 74.694 138.767 75.674V80H140.363V75.282C140.363 73.658 139.383 72.65 137.787 72.65ZM142.65 71.67C143.308 71.67 143.672 71.278 143.672 70.662C143.672 70.046 143.308 69.668 142.65 69.668C141.978 69.668 141.628 70.046 141.628 70.662C141.628 71.278 141.978 71.67 142.65 71.67ZM141.852 80H143.448V72.776H141.852V80ZM147.522 80.126C149.202 80.126 150.518 79.342 150.518 77.942C150.518 76.57 149.678 76.052 148.418 75.786L147.186 75.548C146.584 75.45 146.234 75.198 146.234 74.764C146.234 74.232 146.724 73.938 147.438 73.938C148.264 73.938 148.754 74.358 148.782 75.016H150.35C150.35 73.616 149.202 72.65 147.466 72.65C145.716 72.65 144.68 73.56 144.68 74.75C144.68 75.982 145.506 76.64 146.682 76.878L147.956 77.116C148.614 77.256 148.908 77.536 148.908 77.942C148.908 78.446 148.432 78.754 147.522 78.754C146.612 78.754 146.052 78.306 146.052 77.592H144.456C144.498 79.118 145.576 80.126 147.522 80.126ZM154.252 80.126C155.932 80.126 157.248 79.342 157.248 77.942C157.248 76.57 156.408 76.052 155.148 75.786L153.916 75.548C153.314 75.45 152.964 75.198 152.964 74.764C152.964 74.232 153.454 73.938 154.168 73.938C154.994 73.938 155.484 74.358 155.512 75.016H157.08C157.08 73.616 155.932 72.65 154.196 72.65C152.446 72.65 151.41 73.56 151.41 74.75C151.41 75.982 152.236 76.64 153.412 76.878L154.686 77.116C155.344 77.256 155.638 77.536 155.638 77.942C155.638 78.446 155.162 78.754 154.252 78.754C153.342 78.754 152.782 78.306 152.782 77.592H151.186C151.228 79.118 152.306 80.126 154.252 80.126ZM159.191 71.67C159.849 71.67 160.213 71.278 160.213 70.662C160.213 70.046 159.849 69.668 159.191 69.668C158.519 69.668 158.169 70.046 158.169 70.662C158.169 71.278 158.519 71.67 159.191 71.67ZM158.393 80H159.989V72.776H158.393V80ZM164.413 80.126C166.709 80.126 167.829 78.502 167.829 76.388C167.829 74.274 166.681 72.65 164.413 72.65C162.145 72.65 160.997 74.274 160.997 76.388C160.997 78.516 162.117 80.126 164.413 80.126ZM164.413 78.712C163.209 78.712 162.621 77.844 162.621 76.388C162.621 74.96 163.195 74.064 164.413 74.064C165.631 74.064 166.205 74.946 166.205 76.388C166.205 77.844 165.631 78.712 164.413 78.712ZM168.982 80H170.578V76.01C170.578 74.806 171.222 74.092 172.23 74.092C173.238 74.092 173.7 74.666 173.7 75.674V80H175.296V75.282C175.296 73.644 174.302 72.65 172.692 72.65C171.656 72.65 170.97 73.098 170.578 73.714H170.522L170.396 72.776H168.982V80ZM179.369 80.126C181.049 80.126 182.365 79.342 182.365 77.942C182.365 76.57 181.525 76.052 180.265 75.786L179.033 75.548C178.431 75.45 178.081 75.198 178.081 74.764C178.081 74.232 178.571 73.938 179.285 73.938C180.111 73.938 180.601 74.358 180.629 75.016H182.197C182.197 73.616 181.049 72.65 179.313 72.65C177.563 72.65 176.527 73.56 176.527 74.75C176.527 75.982 177.353 76.64 178.529 76.878L179.803 77.116C180.461 77.256 180.755 77.536 180.755 77.942C180.755 78.446 180.279 78.754 179.369 78.754C178.459 78.754 177.899 78.306 177.899 77.592H176.303C176.345 79.118 177.423 80.126 179.369 80.126Z" fill="white"/>
<rect x="202" y="61" width="101" height="29" rx="14.5" fill="#236138"/>
<path d="M225.72 70.1673C225.414 69.4665 224.875 68.8926 224.195 68.5419C223.515 68.1913 222.735 68.0852 221.986 68.2416C221.237 68.3979 220.565 68.8072 220.082 69.4006C219.599 69.994 219.335 70.7355 219.334 71.5006L219.334 72.3406C218.515 72.552 217.759 72.9547 217.127 73.5158C216.495 74.0768 216.005 74.78 215.698 75.5675C215.391 76.3549 215.276 77.204 215.361 78.0448C215.447 78.8857 215.731 79.6941 216.191 80.4035C216.65 81.1129 217.271 81.703 218.004 82.1251C218.736 82.5472 219.558 82.7892 220.402 82.8313C221.246 82.8733 222.088 82.7142 222.859 82.3669C223.629 82.0196 224.306 81.4942 224.834 80.834" stroke="white" stroke-width="2" stroke-linecap="round" stroke-linejoin="round"/>
<path d="M224.666 78.166L224.666 78.1593" stroke="white" stroke-width="2" stroke-linecap="round" stroke-linejoin="round"/>
<path d="M227.334 78.166L227.334 78.1593" stroke="white" stroke-width="2" stroke-linecap="round" stroke-linejoin="round"/>
<path d="M226 75.5L226 75.4933" stroke="white" stroke-width="2" stroke-linecap="round" stroke-linejoin="round"/>
<path d="M228.666 75.5L228.666 75.4933" stroke="white" stroke-width="2" stroke-linecap="round" stroke-linejoin="round"/>
<path d="M224.666 72.834L224.666 72.8273" stroke="white" stroke-width="2" stroke-linecap="round" stroke-linejoin="round"/>
<path d="M227.334 72.834L227.334 72.8273" stroke="white" stroke-width="2" stroke-linecap="round" stroke-linejoin="round"/>
<path d="M239.313 80H243.709C245.627 80 246.831 78.964 246.831 77.172C246.831 75.828 246.131 75.142 245.347 74.806V74.75C245.977 74.414 246.467 73.812 246.467 72.748C246.467 71.138 245.263 70.2 243.569 70.2H239.313V80ZM240.937 74.218V71.656H243.359C244.311 71.656 244.801 72.118 244.801 72.874C244.801 73.77 244.227 74.218 243.261 74.218H240.937ZM240.937 78.53V75.646H243.471C244.591 75.646 245.151 76.22 245.151 77.088C245.151 77.97 244.535 78.53 243.471 78.53H240.937ZM248.819 71.67C249.477 71.67 249.841 71.278 249.841 70.662C249.841 70.046 249.477 69.668 248.819 69.668C248.147 69.668 247.797 70.046 247.797 70.662C247.797 71.278 248.147 71.67 248.819 71.67ZM248.021 80H249.617V72.776H248.021V80ZM254.041 80.126C256.337 80.126 257.457 78.502 257.457 76.388C257.457 74.274 256.309 72.65 254.041 72.65C251.773 72.65 250.625 74.274 250.625 76.388C250.625 78.516 251.745 80.126 254.041 80.126ZM254.041 78.712C252.837 78.712 252.249 77.844 252.249 76.388C252.249 74.96 252.823 74.064 254.041 74.064C255.259 74.064 255.833 74.946 255.833 76.388C255.833 77.844 255.259 78.712 254.041 78.712ZM266.759 72.65C265.611 72.65 264.883 73.168 264.505 73.784H264.463C264.057 73.056 263.301 72.65 262.293 72.65C261.243 72.65 260.599 73.098 260.207 73.714H260.151L260.025 72.776H258.611V80H260.207V76.01C260.207 74.806 260.851 74.092 261.817 74.092C262.811 74.092 263.217 74.694 263.217 75.674V80H264.799V76.01C264.799 74.806 265.373 74.092 266.339 74.092C267.333 74.092 267.739 74.694 267.739 75.674V80H269.335V75.282C269.335 73.658 268.355 72.65 266.759 72.65ZM272.868 80.126C273.834 80.126 274.576 79.762 274.996 79.146H275.052L275.164 80H276.564V75.184C276.564 73.756 275.486 72.65 273.582 72.65C271.762 72.65 270.684 73.672 270.684 75.044H272.196C272.21 74.456 272.672 73.966 273.554 73.966C274.562 73.966 274.982 74.526 274.982 75.198V75.87C274.604 75.758 273.96 75.632 273.302 75.632C271.23 75.632 270.348 76.612 270.348 77.872C270.348 79.146 271.272 80.126 272.868 80.126ZM273.232 78.852C272.364 78.852 271.944 78.404 271.944 77.816C271.944 77.172 272.448 76.78 273.414 76.78C273.946 76.78 274.45 76.85 274.982 77.032V77.27C274.982 78.124 274.296 78.852 273.232 78.852ZM280.636 80.126C282.316 80.126 283.632 79.342 283.632 77.942C283.632 76.57 282.792 76.052 281.532 75.786L280.3 75.548C279.698 75.45 279.348 75.198 279.348 74.764C279.348 74.232 279.838 73.938 280.552 73.938C281.378 73.938 281.868 74.358 281.896 75.016H283.464C283.464 73.616 282.316 72.65 280.58 72.65C278.83 72.65 277.794 73.56 277.794 74.75C277.794 75.982 278.62 76.64 279.796 76.878L281.07 77.116C281.728 77.256 282.022 77.536 282.022 77.942C282.022 78.446 281.546 78.754 280.636 78.754C279.726 78.754 279.166 78.306 279.166 77.592H277.57C277.612 79.118 278.69 80.126 280.636 80.126ZM287.367 80.126C289.047 80.126 290.363 79.342 290.363 77.942C290.363 76.57 289.523 76.052 288.263 75.786L287.031 75.548C286.429 75.45 286.079 75.198 286.079 74.764C286.079 74.232 286.569 73.938 287.283 73.938C288.109 73.938 288.599 74.358 288.627 75.016H290.195C290.195 73.616 289.047 72.65 287.311 72.65C285.561 72.65 284.525 73.56 284.525 74.75C284.525 75.982 285.351 76.64 286.527 76.878L287.801 77.116C288.459 77.256 288.753 77.536 288.753 77.942C288.753 78.446 288.277 78.754 287.367 78.754C286.457 78.754 285.897 78.306 285.897 77.592H284.301C284.343 79.118 285.421 80.126 287.367 80.126Z" fill="white"/>
</svg>
