<svg width="117" height="65" viewBox="0 0 117 65" fill="none" xmlns="http://www.w3.org/2000/svg">
<path d="M54.961 36.4097C55.5287 38.4832 53.9164 38.1527 52.849 38.2256C48.9129 38.4946 44.9713 38.6834 40.7846 38.916L40.5851 37.3109C37.1861 37.7372 33.8273 37.9777 30.5472 38.6202C27.2181 39.2723 23.9668 40.3212 20.6814 41.1963C20.1171 41.2944 19.5528 41.3925 18.9885 41.4907L19.0667 41.7845C19.6083 41.5927 20.15 41.401 20.6916 41.2093C26.9584 41.0868 33.3235 39.6569 39.3584 42.6123C39.5837 42.7067 39.7808 42.8576 39.9306 43.0504C40.0805 43.2433 40.1781 43.4715 40.214 43.7131C38.6156 43.3813 36.9987 43.1466 35.372 43.0102C31.4677 42.8979 27.5579 42.9943 23.6515 42.9313C21.2863 42.893 18.9177 42.5635 16.5615 42.652C14.9827 42.8373 13.423 43.16 11.9003 43.6165L11.9368 43.5731C9.23194 43.3242 8.23244 44.8741 8.07887 47.5842C10.5979 48.3581 13.244 49.1711 15.8901 49.984L15.9175 49.9511C13.6046 50.2242 11.2916 50.4973 8.41048 50.8375L11.7903 52.8267L11.8451 53.5823C9.63349 53.7938 7.42188 54.0053 5.92373 54.1486C5.04144 52.8332 4.69163 51.7442 3.9544 51.304C-1.14413 48.26 -1.30635 44.6616 3.43269 40.9203C8.61246 36.8311 14.7546 35.2848 20.9872 33.9017C28.4491 32.2458 35.9074 30.573 43.3755 28.945C47.4522 28.0562 51.5458 27.245 56.296 26.2612C51.5433 23.6964 47.0508 23.5267 42.6366 23.507C36.3205 23.479 29.8501 24.786 23.7303 23.7839C18.07 22.8571 12.2713 25.1849 6.71397 22.0832C1.08356 18.9406 -0.509741 14.7353 3.38105 10C7.2763 12.9784 12.0001 12.6235 16.5541 13.0499C31.4465 14.4443 46.4765 14.9448 60.7892 20.0412C63.3979 20.9701 66.105 21.6206 68.7239 22.5235C69.5918 22.7833 70.3567 23.3079 70.9117 24.0238C72.9791 27.2885 74.6835 30.7158 74.4084 34.7972L69.3925 35.9861L69.3997 36.3118C70.2063 36.3732 71.013 36.4345 71.9684 36.5071C68.9016 38.6624 61.1227 39.2901 58.2452 37.606C58.9086 37.3498 59.4804 37.1291 60.0521 36.9083L60.074 36.4319H54.9417C52.0785 33.8113 49.0747 34.2158 46.106 35.7771C49.0068 35.9843 51.9839 36.197 54.961 36.4097ZM15.9 39.5907C16.2332 39.5223 16.5663 39.4539 16.0227 39.5655C16.5069 39.2811 16.218 39.4508 15.929 39.6206L15.9 39.5907ZM64.3049 35.9563L64.2887 35.4699L63.0141 35.5289L63.0309 35.9563H64.3049ZM42.612 34.4805C43.1026 34.3985 42.8573 34.4395 42.6121 34.4805H42.612Z" fill="#C1B2E6"/>
<path d="M22.2842 46.0832C24.0511 45.9893 25.8179 45.8955 27.5848 45.8018L27.7125 46.7914C25.9785 47.1793 24.2445 47.5673 22.5105 47.9552L22.2842 46.0832Z" fill="#C1B2E6"/>
<path d="M44.9943 40.0098L48.2809 41.4503L47.9023 42.5136C46.7379 42.0864 45.5736 41.6592 44.4092 41.232L44.9943 40.0098Z" fill="#C1B2E6"/>
<path d="M11.9004 43.6166C13.7181 44.1029 15.5358 44.5892 18.0652 45.2659C15.0279 46.3441 13.3071 45.5582 11.9369 43.5732L11.9004 43.6166Z" fill="#C1B2E6"/>
<path d="M53.2174 45.0864C53.1291 44.9319 53.0414 44.7775 52.9541 44.6232C53.1738 44.5887 53.396 44.5724 53.6183 44.5744C53.6932 44.58 53.7567 44.7381 53.8254 44.8266C53.623 44.9132 53.4203 44.9998 53.2174 45.0864Z" fill="#C1B2E6"/>
<path d="M55.7327 41.6752L55.4356 41.8777L55.1992 41.394C55.3188 41.3709 55.4418 41.3727 55.5607 41.3992C55.6431 41.4384 55.6772 41.5794 55.7327 41.6752Z" fill="#C1B2E6"/>
<path d="M15.8896 49.9841C16.0848 50.0725 16.2799 50.1609 16.1766 50.1141C16.275 50.1759 16.096 50.0635 15.9171 49.9512L15.8896 49.9841Z" fill="#C1B2E6"/>
<path d="M64.5253 40.4175L64.4941 40.3857L64.5253 40.4175Z" fill="#C1B2E6"/>
<path d="M64.4941 40.3857L64.5253 40.4175L64.4941 40.3857Z" fill="#C1B2E6"/>
<path d="M66.8864 54.7256C66.6166 54.9943 66.3469 55.263 66.0771 55.5317L66.1105 55.565C66.379 55.295 66.6476 55.025 66.9161 54.7551L66.8864 54.7256Z" fill="#C1B2E6"/>
<path d="M57.3145 57.947L57.4586 58.0569L57.3503 57.9111L57.3145 57.947Z" fill="#C1B2E6"/>
<path d="M59.0053 62.2019C57.837 62.2507 56.6054 62.083 55.5157 62.4011C54.0121 62.8398 52.6547 63.7767 51.1525 64.2239C50.6084 64.3858 49.8273 63.7515 49.1544 63.4804L49.5835 63.2034L49.1769 63.5087C45.5969 64.1152 42.0417 65.4921 38.0442 63.6433C37.6953 60.4356 39.4483 57.9523 41.9866 56.2767C47.1495 52.8685 52.2524 49.1291 57.8922 46.7299C72.9068 40.3425 88.1926 34.5925 103.372 28.5921C105.159 27.8855 106.954 27.1975 108.745 26.501C108.765 26.2427 108.784 25.9844 108.804 25.7261C107.328 25.2554 105.873 24.7015 104.373 24.3295C99.7532 23.1839 95.1015 22.1636 90.5046 20.9361C89.9142 20.7784 89.7079 19.3117 89.0938 19.0909C86.6652 18.2181 85.0588 15.208 81.8805 16.2669C81.6144 16.3556 81.0598 16.2749 80.9736 16.1041C79.25 12.6896 75.5624 13.1253 72.7503 11.8616L72.6786 11.7922C67.3937 9.95352 62.1031 8.13105 56.826 6.27028C53.5555 5.1171 53.3649 4.71962 53.9767 0.767338C58.8688 -0.679257 63.8189 0.258389 68.7412 0.836784C78.7581 2.0138 87.7791 5.95033 96.4267 10.9439C99.1487 12.5157 102.118 13.6558 104.865 15.1892C107.606 16.7194 110.467 18.1966 112.822 20.2237C118.06 24.7329 117.686 31.2155 110.386 34.406C105.924 36.3566 100.859 37.0885 96.6586 39.4313C93.2751 41.2887 89.6069 42.5718 85.8034 43.2286L85.1507 43.2293C83.6315 44.1056 82.1125 44.9818 80.5934 45.8581C80.282 45.8961 79.9707 45.934 79.6593 45.9719L79.753 46.2635L80.5665 45.8239C82.6713 45.966 83.9738 44.7122 85.1288 43.2017L85.8209 43.2057C86.8127 45.2257 88.4986 43.2736 89.7357 43.8897L89.7089 43.8578C85.0573 46.8044 80.131 48.4432 74.5007 47.5397C73.1363 47.3208 71.6403 47.9224 70.1608 48.4668C72.4806 49.0405 75.6614 47.8693 75.9733 51.7354L76.0026 51.706L70.0999 54.3309L70.1171 54.3517L66.83 53.678L66.8391 53.7044C69.0141 53.0453 71.1891 52.3861 73.364 51.727C73.4094 51.6572 73.4989 51.5821 73.4914 51.5186C73.4621 51.3644 73.4196 51.2129 73.3644 51.066C72.3434 50.966 71.3146 50.9768 70.296 51.0982C69.2252 51.3349 68.2351 51.9363 66.5974 52.643C67.2564 51.5645 67.511 51.1478 67.7656 50.7312C67.6884 50.6209 67.6111 50.5106 67.5339 50.4003C66.6379 51.0622 65.742 51.7241 64.846 52.3861L64.8816 52.3578H57.7688C57.7579 52.7542 57.7469 53.1506 57.7359 53.547L63.5838 53.9045C61.5206 55.2082 59.6071 56.4174 57.6936 57.6265L57.015 57.6233L56.921 57.5011L57.0348 57.6034C56.2368 58.3134 55.4389 59.0234 54.641 59.7335L55.1471 60.2443L57.668 57.5962C60.7755 56.732 63.8831 55.8679 66.9906 55.0037C67.0795 55.1318 67.1685 55.2599 67.2574 55.3879L65.377 56.9684H70.1083L70.0837 56.9398C67.8212 57.8025 65.5094 58.559 63.3179 59.5748C62.2958 60.0486 60.3978 59.9007 60.8133 61.9773L58.9748 62.1711L59.0053 62.2019ZM60.2952 59.5823L59.2939 59.7213L59.4231 60.0696C59.7076 59.8999 59.9921 59.7302 60.2765 59.5605L61.601 58.9101L62.597 58.812L62.4775 58.4468L61.6197 58.9319C61.1782 59.1487 60.7367 59.3655 60.2952 59.5823V59.5823ZM65.5074 49.0854L66.8662 48.5684L66.5994 48.1582C66.2467 48.4767 65.8941 48.7952 65.5415 49.1137C65.4558 49.262 65.3701 49.4103 65.3915 49.3733C65.3768 49.4098 65.4421 49.2476 65.5074 49.0854ZM63.5432 50.7578C63.3561 50.5369 63.2162 50.2751 63.1336 50.2921C62.8744 50.3721 62.6257 50.4826 62.3926 50.6212C62.5075 50.7484 62.6259 50.9844 62.7366 50.9809C63.0136 50.9398 63.2845 50.8648 63.5432 50.7578V50.7578Z" fill="#C1B2E6"/>
<path d="M77.2139 48.8069L80.0559 48.4141L80.1566 48.9553C79.2191 49.1934 78.2816 49.4314 77.3441 49.6695C77.3007 49.382 77.2573 49.0945 77.2139 48.8069Z" fill="#C1B2E6"/>
<path d="M66.8307 53.6776C65.2534 54.6069 65.2489 53.215 64.8823 52.3574L64.8467 52.3856C65.5111 52.8251 66.1755 53.2645 66.8398 53.7039L66.8307 53.6776Z" fill="#C1B2E6"/>
<path d="M89.7357 43.8899C89.8807 43.804 90.0256 43.7181 89.9869 43.7411C90.0255 43.7248 89.8672 43.7914 89.709 43.858L89.7357 43.8899Z" fill="#C1B2E6"/>
<path d="M70.1002 54.3311L69.6738 54.6658L70.1174 54.3519L70.1002 54.3311Z" fill="#C1B2E6"/>
<path d="M70.1086 56.9689L70.3651 56.8184L70.084 56.9402L70.1086 56.9689Z" fill="#C1B2E6"/>
<path d="M56.3506 62.832L56.3812 62.8626L56.3506 62.832Z" fill="#C1B2E6"/>
<path d="M58.9756 62.1709L59.0054 62.2009L58.9756 62.1709Z" fill="#C1B2E6"/>
<path d="M56.3827 62.863L56.4587 62.7539L56.3516 62.8318L56.3827 62.863Z" fill="#C1B2E6"/>
<path d="M75.9736 51.7353L76.0027 51.7061L75.9736 51.7353Z" fill="#C1B2E6"/>
<path d="M73.3906 51.0391C73.3907 51.2776 73.3908 51.5161 73.3908 51.7547C73.3346 51.596 73.2916 51.4328 73.2622 51.267C73.2546 51.1965 73.3449 51.1154 73.3906 51.0391Z" fill="#C1B2E6"/>
</svg>
