<svg width="95" height="67" viewBox="0 0 95 67" fill="none" xmlns="http://www.w3.org/2000/svg">
<path d="M2.47907 56.888C2.27354 57.299 2.06801 57.71 1.75972 58.3266C1.45144 58.0183 1.14315 57.71 1.24591 57.6073C1.75972 56.4769 1.24594 55.6549 0.629368 54.7301C-0.192725 53.3942 -0.295509 51.9556 0.834874 50.7226C1.86249 49.695 2.89012 48.6674 4.12327 47.9481C6.38403 46.6122 8.74754 45.4819 11.1111 44.3516C14.8105 42.502 18.6127 40.6523 22.3121 38.6999C25.4977 37.0558 28.7861 35.8227 32.28 35.0006C33.6159 34.6923 35.1574 34.4868 36.2877 33.151C34.2325 30.3765 32.28 27.6021 28.9916 26.1635C28.2723 25.8552 27.8613 25.5469 27.3475 24.9304C26.2171 23.4918 24.6756 22.567 22.9287 22.0532C22.7232 21.9504 22.5176 21.9504 22.3121 21.8477C20.1541 20.1008 17.3796 19.176 15.4271 17.1209C14.5022 16.196 13.5773 15.2712 12.0359 15.4767C11.6249 15.5795 11.1111 14.963 10.5973 14.7574C10.8028 14.6547 11.0083 14.5519 11.2138 14.3464C11.1111 13.5243 10.4945 13.4216 9.87795 13.3188C7.71994 12.7023 7.00058 10.9554 6.38401 9.10579C6.17849 8.592 6.1785 8.18094 6.07574 7.66716C5.97298 7.25613 5.87022 6.74233 6.07574 6.43406C7.20612 4.27615 8.33651 2.01547 10.8028 0.576867C11.4194 3.45408 13.7829 4.27615 15.6326 5.40648C20.9762 8.79748 26.1143 12.2913 30.7386 16.6071C33.3076 18.9705 35.6712 21.4367 38.2402 23.8001C38.9595 24.5194 39.7817 25.1359 40.6037 25.7524C42.659 27.2938 43.4811 29.349 42.7618 31.9179C42.3507 33.562 41.8369 35.1034 41.2203 36.6448C40.0899 39.522 37.9319 41.4744 35.2601 43.0158C34.6435 43.324 33.8215 43.324 32.8966 43.4267C33.2049 43.9405 33.5132 44.4543 34.027 45.1736C33.1021 45.3791 32.28 45.5847 31.3552 45.8929C31.3552 46.0985 31.4579 46.4067 31.4579 46.8177C30.122 47.0232 28.9917 46.8177 28.3751 45.4819C29.2999 43.9405 31.0469 45.8929 32.3828 44.4543C31.0469 44.3516 29.9165 44.2488 28.8889 44.2488C28.8889 44.146 28.8889 44.0433 28.8889 43.9405C29.711 43.8378 30.6358 43.6323 31.4579 43.5295C31.4579 43.4268 31.4579 43.2212 31.4579 43.1185C31.1497 43.0157 30.8414 42.8102 30.4303 42.7074C29.2999 42.2964 28.1695 41.6799 27.0392 41.4744C26.0115 41.2689 24.8812 40.9606 23.8535 41.2689C21.079 42.0909 18.4072 43.1185 15.7354 44.3516C14.1939 45.0709 12.858 46.2012 11.3166 47.126C11.1111 47.3316 10.8028 47.4343 10.7 47.7426C10.289 49.2839 8.85032 50.106 8.23374 51.3391C7.41165 52.9832 7.20611 54.9356 7.00059 56.888C6.58954 57.1963 6.1785 57.4018 5.56193 57.8128C6.38402 57.9155 7.10336 58.2238 7.71993 58.121C8.43927 58.0183 9.05584 57.6073 9.77517 57.299C9.77517 56.6825 9.77517 56.0659 9.77517 55.0383C10.7 55.5521 11.3166 55.9632 12.1387 56.3742C12.7553 55.0384 13.8856 54.9356 15.4271 55.5521C15.3243 54.8328 15.3243 54.3191 15.3243 53.5998C16.1464 54.3191 16.9685 54.9356 17.7906 55.6549C17.4823 55.8604 17.2768 56.1687 16.8657 56.2714C15.4271 56.7852 13.9884 57.299 12.6525 57.8128C11.4193 58.2238 10.289 58.7376 9.05582 59.1486C8.54202 59.3541 7.92545 59.5597 7.61716 59.9707C6.48678 61.1011 5.15087 61.1011 3.40392 60.9983C3.91773 60.3818 4.22604 59.868 4.73985 59.2514C3.5067 58.8404 2.47907 58.3266 2.47907 56.888Z" fill="#E5AC9C"/>
<path d="M20.6681 52.0585C19.5377 52.264 18.5101 52.4695 17.2769 52.675C17.0714 51.6474 17.688 51.1336 18.3045 50.9281C19.6404 50.6198 20.9763 49.9005 22.5178 50.4143C23.1344 50.6198 23.7509 50.7226 24.4703 50.7226C24.8813 50.7226 25.1896 50.5171 25.7034 50.2088C25.1896 49.7978 24.7785 49.4895 24.4703 49.1813C24.573 49.0785 24.573 48.873 24.6758 48.7702C28.3752 47.1261 29.1973 47.0233 30.5332 48.2564C29.3001 48.6675 28.1697 49.0785 26.9365 49.5923C26.731 49.695 26.5255 49.7978 26.4227 49.9005C24.4702 52.7777 21.2846 53.1888 18.2018 53.9081C18.2018 53.9081 18.099 53.8053 17.7907 53.7026C18.8183 53.1888 19.7432 52.7778 20.6681 52.3667C20.6681 52.3667 20.6681 52.1612 20.6681 52.0585Z" fill="#E5AC9C"/>
<path d="M48.3394 51.0384C48.2556 51.206 48.2556 51.4574 48.088 51.4574C46.7473 52.0439 45.3228 52.6305 43.9821 53.2171C43.7307 53.3009 43.4793 53.4685 43.3118 53.3847C41.8035 52.6305 40.8818 53.5523 39.8762 54.3903C39.2059 53.8037 39.7086 53.3847 40.2114 52.7981C39.2059 53.0495 38.2842 53.0495 38.368 54.3065C38.8707 54.3065 39.3735 54.3065 39.8762 54.3065C40.6304 54.0551 41.3007 53.9713 41.9711 54.6417C40.2952 54.8931 38.7031 55.1444 37.1111 55.3958C37.1111 55.5634 37.1111 55.6472 37.1111 55.8148C37.949 56.0662 38.7869 56.3176 39.7924 56.6528C39.541 56.988 39.3735 57.1556 39.1221 57.3232C38.5355 57.1556 38.0328 56.988 37.4462 56.8204C37.8652 57.9098 36.5245 58.0773 36.4407 58.9991C35.0162 57.9935 34.4297 58.1611 34.1783 59.8371C34.7649 59.8371 35.2676 59.9209 35.7703 59.8371C37.1948 59.4181 38.2841 60.0885 39.3735 60.9265C40.1276 61.513 41.0494 62.0158 41.9711 62.6862C41.6359 62.6024 41.3007 62.5186 40.9656 62.5186C39.1221 62.2672 37.4462 62.6024 35.8542 63.6917C34.5135 64.6135 33.089 65.2839 31.6645 66.1219C31.2455 65.6191 30.8266 65.1163 30.4076 64.6973C32.5862 64.6973 34.2621 63.2728 36.1893 62.4348C35.4352 62.351 34.681 62.2672 33.8431 62.1834C33.9269 62.4348 34.0107 62.6024 34.0945 62.8538C33.1727 63.1052 32.1673 63.4404 31.2455 63.6917C30.659 63.8593 30.24 64.1107 30.4076 64.7811C29.9048 65.0325 29.3183 65.2839 28.8155 65.3677C28.1451 65.5353 27.4748 65.5353 26.8883 64.8649C26.5531 64.4459 25.9665 64.3621 25.5475 64.1107C24.2906 63.4404 23.8717 62.6862 24.5421 61.3454C25.0448 60.3399 25.799 59.3343 26.6369 58.4963C27.8938 57.3232 29.1507 56.15 30.659 55.312C33.0052 53.8875 35.519 52.7143 38.0328 51.4574C39.6249 50.7032 41.3845 50.0328 43.0604 49.2787C44.3173 48.6921 45.658 48.1893 46.9149 47.6027C51.2721 45.7592 55.6294 43.9156 59.9867 42.0721C70.6285 37.7631 67.4443 39.3068 68.4498 38.804C73.645 36.2901 78.924 33.9438 84.4544 32.1003C85.2923 31.7651 86.1303 31.3461 87.3872 30.7595C86.2141 30.4243 85.3761 30.2567 84.3706 30.0053C84.8733 29.754 85.1247 29.5026 85.3761 29.5026C85.6275 29.5026 85.9626 29.6701 86.214 29.7539C86.8844 29.8377 87.5547 30.5081 88.1413 29.5864C88.7278 28.7484 88.1413 28.1618 87.8061 27.4914C86.8844 25.7317 85.2923 24.8099 83.6165 23.9719C83.1137 23.7206 82.6947 23.3854 82.2757 23.134C82.1081 22.9664 81.9406 22.715 81.773 22.715C80.4323 22.7988 79.6781 21.5418 78.3374 21.3742C77.6671 21.2904 77.0805 21.2066 77.0805 20.1173C77.0805 19.3631 75.9074 19.1955 75.3209 19.4469C74.064 19.9497 73.1423 19.6145 72.1367 18.9441C72.3881 18.7765 72.6395 18.6927 72.9747 18.4413C72.3881 17.8548 71.7178 17.6034 70.9636 17.4358C69.7067 17.1006 68.4498 16.933 67.1929 16.6816C67.0253 16.6816 66.774 16.6816 66.6902 16.5978C65.2657 15.5923 63.8412 16.1788 62.3329 16.2626C60.657 16.3464 58.9812 16.5978 57.2215 16.5978C56.635 16.5978 56.0484 16.3464 55.2942 16.095C55.1266 16.1788 54.8753 16.3464 54.7077 16.514C53.1994 17.8548 53.1994 17.8548 51.4397 18.2738C52.4453 18.6927 52.4453 18.6089 53.367 18.4413C54.8753 18.1899 56.4673 17.771 57.9756 18.4413C57.2215 18.7765 56.216 18.5251 55.797 19.4469C55.797 19.5307 55.378 19.5307 55.2942 19.4469C54.5401 18.5251 53.786 19.1955 53.0318 19.3631C51.8587 19.6145 50.8532 19.4469 50.0991 18.5251C49.8477 18.19 49.5963 17.8548 49.2611 17.771C47.1663 16.933 46.3283 15.1732 45.4066 13.3297C45.3228 13.1621 45.239 12.8269 45.239 12.6593C45.4066 11.151 45.658 9.64266 45.9094 8.13431C46.077 7.29634 46.6635 7.04494 47.3338 7.46392C49.5125 8.88847 51.9425 9.22366 54.3725 9.55885C58.646 10.2292 63.0032 10.8996 67.1929 11.989C71.7177 13.1621 76.075 14.6705 80.4323 16.3464C84.8733 18.1062 88.8116 20.7877 92.0796 24.2233C93.1689 25.3965 93.8392 26.7373 94.0068 28.3294C94.0906 29.335 94.1744 30.3405 94.1744 31.3461C94.1744 31.8489 93.923 32.4354 93.7554 33.1896C93.8392 33.2734 94.0906 33.6924 94.4258 34.1114C93.8392 34.8656 93.3365 35.5359 92.7499 36.2901C93.1689 36.2901 93.6716 36.2901 94.4258 36.2901C93.7554 37.1281 93.0851 37.7147 92.7499 38.385C92.4985 38.9716 92.5823 39.5582 91.8282 39.7258C91.5768 40.9827 90.6551 40.8152 89.8171 40.8152C88.5602 40.7314 87.4709 41.1503 86.2978 41.6531C84.8733 42.2397 83.6164 43.4967 81.8568 43.1615C81.773 43.1615 81.6054 43.1615 81.5216 43.2453C80.8513 44.6698 79.6781 44.167 78.505 44.167C77.9185 44.167 77.3319 44.5022 76.7454 44.586C76.3264 44.5022 75.8236 44.4184 75.4047 44.2508C74.7343 43.9994 74.3154 44.2508 73.9802 44.7536C75.0695 45.9268 75.9074 45.005 76.7454 44.5022C76.9968 44.6698 77.2481 44.7536 77.6671 44.9212C77.4157 45.424 77.0805 45.843 76.5778 46.6809C77.7509 46.262 78.7564 45.9268 79.6781 45.6754C81.0188 45.2564 82.3595 44.8374 83.7002 44.4184C84.622 44.0832 85.5437 43.748 86.3816 43.1615C88.1413 41.9883 88.7278 41.7369 91.074 42.3235C90.5713 42.4073 90.0685 42.4073 89.5658 42.4911C89.1468 42.5749 88.7278 42.6587 88.4765 42.8263C87.052 43.9994 85.3761 44.586 83.5326 45.005C82.6109 45.2564 81.6892 45.6754 80.7675 45.9268C79.343 46.4296 77.8347 46.8485 76.4102 47.2675C75.7398 47.4351 75.1533 47.6865 74.3992 47.9379C74.483 47.6027 74.5667 47.4351 74.5667 47.1837C73.3098 47.2675 72.1367 47.4351 70.6285 47.6027C70.2933 48.1055 69.6229 48.6921 68.6174 48.6083C68.5336 48.6083 68.4498 48.8597 68.366 48.9435L68.4498 48.9435C67.6119 48.9435 66.8578 48.9435 66.0198 49.0273C64.6791 49.1111 63.3384 49.53 61.9139 48.5245C64.3439 48.0217 66.8577 48.6921 68.8688 47.0999C68.5336 46.4296 67.947 46.5971 67.4443 46.5971C67.6957 46.4296 67.947 46.1782 68.2822 46.0106C68.2822 45.9268 68.1984 45.843 68.1984 45.7592C67.4443 46.0106 66.6064 46.262 65.8522 46.5971C65.4333 46.6809 65.0143 46.681 64.2601 46.7648C65.0981 47.2675 65.6008 47.3513 65.8522 46.5133C66.4388 46.5133 67.0253 46.5134 67.6119 46.5971C66.2712 47.6865 64.9305 47.7703 63.2546 47.1837C60.8246 46.4296 58.3108 46.7647 55.8808 47.9379C54.6239 48.5245 53.2832 49.0273 51.9425 49.6138C51.6911 50.368 52.4453 50.2842 53.0318 50.6194C52.3615 50.787 51.8587 50.9546 51.356 51.0384C50.4342 50.2842 49.7639 50.2004 48.3394 51.0384C48.088 50.9546 47.9204 50.7032 47.7528 50.7032C46.4959 50.8708 45.3228 51.1222 44.0659 51.3736C43.9821 51.3736 43.9821 51.5412 43.9821 51.7088C44.1497 51.7088 44.3173 51.7926 44.4849 51.7926C44.1497 52.044 43.8145 52.2954 43.4794 52.6305C43.5632 52.7143 43.5632 52.7981 43.647 52.8819C44.1497 52.5467 44.6525 52.2115 45.1552 51.8763C46.2445 51.5412 47.2501 51.2898 48.3394 51.0384ZM86.214 39.642C84.7895 39.7258 83.4489 40.061 82.192 41.5693C83.7002 41.2341 84.9571 40.9827 86.1303 40.5638C87.6385 39.9772 89.063 39.3068 90.5713 38.6364C90.8227 38.5526 91.1579 38.385 91.4092 38.2174C90.9065 37.9661 90.4037 37.7985 90.1523 37.9661C89.3144 38.7202 88.3089 38.4688 87.3033 38.5526C86.8844 38.5526 86.5492 38.7202 86.1303 38.8878C86.1303 38.9716 86.214 39.3068 86.214 39.642ZM73.3098 42.9101C74.5667 43.5805 75.4885 43.5805 76.4102 43.2453C77.1643 42.9939 77.9185 42.5749 78.6726 42.3235C79.4268 42.0721 80.0971 41.8207 80.8512 41.5693C80.5161 41.3179 80.1809 41.3179 79.8457 41.3179C79.343 41.3179 78.7564 41.5693 78.3374 41.4017C76.3264 40.8151 75.0695 42.0721 73.3098 42.9101ZM72.4719 44.2508C72.3043 43.9994 72.2205 43.5804 71.9691 43.4966C71.4664 43.3291 70.8798 43.2453 70.4609 43.4129C68.8688 43.9994 67.2767 44.6698 65.7684 45.3402C65.0981 45.5916 64.5115 45.9268 63.925 46.262C66.8578 45.7592 69.4553 44.586 72.4719 44.2508ZM83.1975 37.7147C82.7785 38.4688 82.5271 39.0554 82.3595 39.3068C81.354 39.5582 80.4323 39.8096 79.5943 40.1448C81.354 40.5638 82.9461 40.5638 83.9516 38.6364C83.784 38.4688 83.6165 38.2174 83.1975 37.7147ZM71.8015 45.424C70.796 45.7592 70.0419 45.5078 69.4553 46.4295C70.5446 46.7647 71.0474 46.262 71.8015 45.424ZM36.1055 61.4292C36.1055 61.513 36.0217 61.5968 36.0217 61.6806C36.4407 61.6806 36.8597 61.7644 37.1948 61.7644C37.53 61.7644 37.8652 61.6806 38.1166 61.6806C38.1166 61.5968 38.1166 61.5968 38.1166 61.513C37.4462 61.4292 36.7759 61.4292 36.1055 61.4292ZM33.2565 56.988C33.3403 57.0718 33.4241 57.1556 33.5079 57.2394C33.8431 56.988 34.2621 56.6528 34.5973 56.4014C34.5135 56.3176 34.4297 56.2338 34.4297 56.15C34.0107 56.4014 33.5917 56.7366 33.2565 56.988ZM85.8788 37.7985C85.2923 37.4633 85.2923 37.4633 84.7058 37.9661C85.1247 37.8823 85.4599 37.7985 85.8788 37.7985Z" fill="#E5AC9C"/>
<path d="M63.0879 21.1228C60.0713 21.039 56.971 21.458 53.9544 20.7876C57.0547 19.9496 60.0713 19.8658 63.0879 21.1228Z" fill="#E5AC9C"/>
<path d="M82.8613 24.8937C80.5151 24.6423 78.2527 24.391 75.5713 24.0558C75.9064 23.7206 76.074 23.3854 76.2416 23.3854C78.504 23.4692 80.6827 23.8044 82.8613 24.4748C82.8613 24.6423 82.8613 24.8099 82.8613 24.8937Z" fill="#E5AC9C"/>
<path d="M80.2637 26.7371C78.504 26.7371 76.8281 26.1506 75.3199 25.3126C77.0795 25.3964 78.6716 25.8992 80.2637 26.7371Z" fill="#E5AC9C"/>
<path d="M68.283 49.195C68.9534 49.6978 69.7075 49.614 70.3779 49.2788C70.713 49.1113 71.132 49.0274 71.6348 49.1112C69.8751 50.2006 67.9479 50.1168 66.0206 49.8654C66.7748 49.6978 67.5289 49.4464 68.283 49.195Z" fill="#E5AC9C"/>
<path d="M38.9528 57.4908C39.7069 57.4908 40.4611 57.407 41.3828 57.407C40.7963 57.826 41.5504 58.8316 40.3773 58.8316C39.7069 58.7478 39.0366 58.4126 38.9528 57.4908C39.0366 57.407 38.9528 57.4908 38.9528 57.4908Z" fill="#E5AC9C"/>
<path d="M62.334 50.4519C61.0771 50.5357 59.904 50.7032 58.6471 50.787C58.6471 50.6194 58.6471 50.5357 58.5633 50.3681C59.8202 50.2005 61.0771 50.0329 62.334 49.9491C62.334 50.1167 62.334 50.2843 62.334 50.4519Z" fill="#E5AC9C"/>
<path d="M61.2424 22.6312C62.4155 22.715 63.5048 22.8826 64.7617 22.9664C64.1752 23.4692 64.1752 23.4692 61.2424 22.6312Z" fill="#E5AC9C"/>
<path d="M62.752 18.0223C61.2437 18.1061 60.1543 18.2737 59.065 18.3575C59.9867 17.4358 60.7409 17.352 62.752 18.0223Z" fill="#E5AC9C"/>
<path d="M64.0098 53.7198C63.0042 54.6416 61.8311 54.6416 60.5742 54.893C61.6635 53.9712 62.0825 53.8036 64.0098 53.7198Z" fill="#E5AC9C"/>
<path d="M44.2344 59.5853C43.3127 59.7529 42.6423 59.9205 41.8044 60.0881C42.7261 58.9987 42.7261 58.9987 44.2344 59.5853Z" fill="#E5AC9C"/>
<path d="M55.6289 57.826C55.0424 57.7422 54.372 57.7422 53.5341 57.6584C54.372 56.988 55.0424 57.0718 55.6289 57.826Z" fill="#E5AC9C"/>
<path d="M70.377 21.6255C71.3825 21.7931 72.1367 21.8769 72.9746 22.0445C71.7177 22.631 71.7177 22.631 70.377 21.6255Z" fill="#E5AC9C"/>
<path d="M55.2102 17.2683C55.8806 16.6817 56.6347 16.9331 57.4727 17.2683C56.7185 17.4359 56.0482 17.6035 55.294 17.6873C55.2102 17.6035 55.2102 17.4359 55.2102 17.2683Z" fill="#E5AC9C"/>
<path d="M65.6836 19.8657C65.097 19.7819 64.5943 19.6143 63.6725 19.4467C64.6781 18.7764 65.1808 18.9439 65.6836 19.2791C65.6836 19.5305 65.6836 19.6981 65.6836 19.8657Z" fill="#E5AC9C"/>
<path d="M69.1193 24.7262C68.2814 24.7262 67.4434 24.7262 66.6055 24.7262C66.6055 24.6424 66.6055 24.5586 66.6055 24.4749C67.4434 24.4749 68.3652 24.4749 69.2031 24.4749C69.2031 24.5586 69.1193 24.6424 69.1193 24.7262Z" fill="#E5AC9C"/>
<path d="M43.6465 56.7363C43.1437 56.8201 42.641 56.9039 42.1382 56.9877C42.1382 56.9039 42.0544 56.7363 42.0544 56.6525C42.5571 56.5687 43.0599 56.4011 43.5627 56.3173C43.6465 56.4011 43.6465 56.5687 43.6465 56.7363Z" fill="#E5AC9C"/>
<path d="M43.3959 54.0552C43.8148 54.0552 44.2338 53.9714 44.8203 53.9714C44.4013 54.8094 43.8148 54.3904 43.4796 54.3904C43.4796 54.3066 43.4797 54.139 43.3959 54.0552Z" fill="#E5AC9C"/>
<path d="M71.4657 24.2233C71.8847 24.2233 72.3037 24.2233 72.7227 24.2233C72.7227 24.3071 72.7227 24.3909 72.7227 24.3909C72.3037 24.3909 71.8847 24.3909 71.4657 24.3909C71.4657 24.3071 71.4657 24.3071 71.4657 24.2233Z" fill="#E5AC9C"/>
<path d="M83.7012 26.5694C83.366 26.5694 83.1146 26.6532 82.7794 26.6532L82.6956 26.4018C82.947 26.318 83.2822 26.2342 83.5336 26.1504C83.6174 26.2342 83.6174 26.4018 83.7012 26.5694Z" fill="#E5AC9C"/>
</svg>
