<svg width="176" height="59" viewBox="0 0 176 59" fill="none" xmlns="http://www.w3.org/2000/svg">
<path d="M174.777 35.6261C174.699 36.6752 174.686 37.6921 173.19 37.7751C172.881 37.7866 172.573 37.7423 172.284 37.6449C171.994 37.5474 171.73 37.3988 171.505 37.2077C171.28 37.0166 171.1 36.7869 170.975 36.5321C170.85 36.2773 170.783 36.0025 170.777 35.724C170.87 35.167 171.187 34.6605 171.669 34.3015C172.15 33.9425 172.761 33.7564 173.385 33.7786C174.787 33.8496 174.696 34.8318 174.777 35.6261Z" fill="#95B5C2"/>
<path d="M171.782 26.5181C170.957 25.8652 170.122 25.2852 170.891 23.9993C171.055 23.7372 171.264 23.5068 171.507 23.3217C171.75 23.1365 172.021 23.0004 172.305 22.9213C172.589 22.8421 172.881 22.8216 173.162 22.8609C173.443 22.9001 173.708 22.9984 173.942 23.1499C174.351 23.5387 174.593 24.0854 174.621 24.685C174.649 25.2847 174.46 25.8952 174.092 26.3996C173.248 27.5216 172.485 26.8961 171.782 26.5181Z" fill="#95B5C2"/>
<path d="M110.099 34.1257C110.451 33.9419 110.788 33.7298 111.107 33.4917C113.377 31.3561 115.603 29.1713 117.913 27.0797C118.305 26.7224 118.616 26.2849 118.824 25.797C119.032 25.309 119.133 24.782 119.12 24.2517C119.284 20.3971 119.485 16.544 119.68 12.6908C119.834 9.65964 119.986 6.62826 120.166 3.5986C120.259 2.03734 120.948 1.2576 122.136 1.26534C123.355 1.27327 124.136 2.02627 124.228 3.52034C124.279 4.42125 124.193 5.32469 123.973 6.19982C122.704 11.2629 122.559 16.4432 122.444 21.6071C122.36 25.3708 122.621 29.1431 122.762 32.9102C122.756 33.6544 122.942 34.3874 123.303 35.0383C123.664 35.6892 124.186 36.236 124.82 36.6258C125.835 37.2622 125.619 38.1502 125.281 39.016C124.91 39.9647 124.073 40.0708 123.221 39.9067C122.642 39.8607 122.088 39.6506 121.624 39.3008C121.159 38.9511 120.804 38.4763 120.6 37.932C120.069 36.2167 119.661 34.4614 119.241 32.7135C119.093 32.0972 119.063 31.4524 118.941 30.5321C118.415 30.8318 117.915 31.1737 117.445 31.5545C115.809 33.1662 114.215 34.8215 112.592 36.4474C111.688 37.2248 110.995 38.2171 110.576 39.3329C110.156 40.4488 110.025 41.6522 110.193 42.8322C110.748 46.6444 111.067 50.4911 111.488 54.3228C111.551 54.8938 111.667 55.4623 111.684 56.0342C111.707 56.5706 111.521 57.0948 111.166 57.4977C110.812 57.9007 110.315 58.1512 109.78 58.1971C108.828 58.31 108.241 57.8663 107.96 56.6148C107.565 54.8539 107.276 53.0692 106.919 51.2993C106.368 48.5645 105.888 45.8103 105.197 43.1106C104.973 42.4936 104.919 41.8276 105.04 41.1823C105.161 40.5371 105.454 39.9363 105.887 39.4429C106.285 38.974 106.584 38.4289 106.765 37.8408C106.946 37.2527 107.006 36.6339 106.94 36.0221C106.976 34.3274 106.824 32.6339 106.487 30.9729C106.125 31.3216 105.792 31.6983 105.49 32.0996C104.912 32.9953 104.479 33.9931 103.839 34.837C103.482 35.4471 102.938 35.9252 102.287 36.1999C101.636 36.4745 100.913 36.531 100.227 36.3607C99.964 36.2856 99.7197 36.155 99.5109 35.9778C99.3021 35.8005 99.1336 35.5807 99.0167 35.3331C98.9783 35.0674 99.0063 34.7963 99.098 34.544C99.1897 34.2918 99.3424 34.0661 99.5424 33.8871C101.839 32.4485 102.825 30.0993 104.09 27.8854C105.896 24.4627 106.913 20.6787 107.065 16.8116C107.437 12.2351 107.929 7.66841 108.312 3.0927C108.313 2.51696 108.469 1.95217 108.764 1.45778C109.059 0.963385 109.482 0.557678 109.988 0.283359C110.919 -0.223161 111.604 -0.069841 111.979 0.899119C112.233 1.58334 112.342 2.31272 112.299 3.04121C111.977 8.77736 111.639 14.509 110.014 20.0805C109.696 21.3568 109.549 22.6699 109.578 23.9851C109.541 26.6923 109.602 29.4017 109.676 32.1088C109.759 32.7919 109.901 33.4666 110.099 34.1257V34.1257Z" fill="#95B5C2"/>
<path d="M154 38.0324C152.149 38.6899 150.563 39.349 148.923 39.8151C148.234 40.0299 147.508 40.1045 146.789 40.0347C146.07 39.9648 145.373 39.7519 144.737 39.4084C144.102 39.0648 143.542 38.5977 143.09 38.0344C142.638 37.4711 142.303 36.8231 142.105 36.1285C141.273 33.679 141.741 31.251 142.287 28.8602C142.555 28.1873 143.061 27.6362 143.709 27.3116C144.166 27.119 144.673 27.0796 145.155 27.1994C145.636 27.3192 146.066 27.5918 146.379 27.9762C146.703 28.3023 146.886 28.7425 146.888 29.202C146.891 29.6615 146.713 30.1036 146.393 30.4332C145.876 31.1258 145.551 31.9428 145.451 32.8013C145.352 33.6598 145.481 34.5294 145.826 35.322C145.92 35.7246 146.154 36.0808 146.486 36.3273C146.818 36.5737 147.227 36.6945 147.64 36.6681C149.292 36.6883 150.906 36.1659 152.234 35.1809C154.144 33.8146 154.995 33.8487 156.818 35.2309C158.787 36.7237 160.946 36.0377 161.332 33.6104C161.55 31.661 161.63 29.6987 161.573 27.738C161.592 26.5928 161.48 25.4456 161.491 24.2999C161.471 23.8075 161.576 23.318 161.797 22.8776C161.914 22.6732 162.073 22.4953 162.262 22.3549C162.451 22.2145 162.668 22.1146 162.897 22.0615C163.114 22.1043 163.317 22.2012 163.486 22.3434C163.655 22.4855 163.786 22.6682 163.865 22.8744C164.304 24.6154 164.64 26.3809 164.869 28.1617C165.199 30.5222 165.011 32.9264 164.318 35.2068C163.362 38.138 161.223 39.5428 158.427 40.125C156.519 40.5225 155.156 39.4104 154 38.0324Z" fill="#95B5C2"/>
<path d="M132.245 40.1726C128.362 40.0863 126.329 37.1347 127.636 33.4908C128.101 32.1938 128.579 30.9001 129 29.5884C129.13 29.1158 129.375 28.683 129.714 28.3287C130.052 27.9743 130.473 27.7096 130.94 27.5582C131.983 27.172 133.113 27.0799 134.206 27.292C135.299 27.504 136.312 28.012 137.136 28.7606C137.972 29.4325 138.596 30.3325 138.931 31.3517C139.266 32.3708 139.299 33.4653 139.025 34.5026C138.686 36.0669 137.835 37.4736 136.608 38.5005C135.38 39.5274 133.845 40.1157 132.245 40.1726V40.1726ZM134.393 30.7671C133.163 32.0363 132.26 32.9309 131.401 33.8658C130.835 34.4818 130.316 35.1911 131.007 36.0146C131.608 36.7297 132.402 37.3214 133.337 36.717C134.211 36.1503 134.999 35.462 135.679 34.6729C135.835 34.4486 135.937 34.1916 135.978 33.9215C136.019 33.6515 135.998 33.3756 135.916 33.1151C135.48 32.2884 134.97 31.5026 134.393 30.7671Z" fill="#95B5C2"/>
<path d="M78.8406 34.973C77.6809 35.8537 76.8191 36.5899 75.8794 37.2074C72.2817 39.5713 67.9529 37.7178 66.9789 35.1242C66.7322 34.2377 66.5588 33.3326 66.4605 32.4177C65.4537 32.6081 64.5102 33.0463 63.7152 33.6928C62.9202 34.3392 62.2988 35.1735 61.9072 36.1204C61.6612 36.8997 61.3757 37.666 61.0519 38.4164C60.6265 39.0899 60.0148 39.6254 59.2909 39.9578C58.0889 40.4329 57.2758 39.8319 57.0705 38.5015C56.9218 37.8634 56.9075 37.2013 57.0286 36.5574C57.8613 33.6745 57.6718 30.722 57.725 27.7893C57.7511 26.3484 58.2375 25.4931 59.4421 25.2144C59.7505 25.0921 60.0871 25.059 60.4135 25.1188C60.7398 25.1786 61.0428 25.329 61.2878 25.5526C61.5329 25.7763 61.7101 26.0643 61.7994 26.3838C61.8887 26.7033 61.8864 27.0415 61.7928 27.3598C61.609 28.551 61.3464 29.7302 61.0309 31.3728C63.167 30.2691 64.8913 29.4297 66.5641 28.498C67.9731 27.7133 69.5597 26.8502 70.8641 28.0889C72.0181 29.1849 71.4675 30.8167 70.9276 32.2546C70.1434 34.3431 70.8103 35.2413 72.9991 35.0236C74.1477 34.9045 75.2439 34.4813 76.1745 33.7976C77.1051 33.1138 77.8365 32.1943 78.2934 31.1337C78.477 30.7728 78.5091 30.3358 78.686 29.9701C78.8524 29.5894 79.1477 29.2795 79.52 29.0949C79.8923 28.9103 80.3177 28.8628 80.7215 28.9608C81.1361 28.962 81.5386 29.1003 81.8663 29.3541C82.1941 29.6079 82.4287 29.963 82.5337 30.3641C82.6892 30.9194 82.7444 31.498 82.6968 32.0727C82.1077 36.234 83.0951 40.229 83.9641 44.2263C84.6766 47.2675 84.9602 50.3935 84.8064 53.5134C84.5458 57.5901 80.7872 59.6101 77.2194 57.6085C76.2843 57.1007 75.3849 56.5297 74.5275 55.8995C73.9316 55.4456 73.5028 54.8071 73.3081 54.0837C73.1134 53.3603 73.1638 52.5928 73.4513 51.9011C73.5566 51.6526 73.7133 51.4292 73.911 51.2455C74.1087 51.0618 74.3431 50.922 74.5987 50.8353C74.827 50.8483 75.0481 50.9201 75.2405 51.0436C75.433 51.1671 75.5903 51.3382 75.6972 51.5404C76.1815 53.2552 77.6752 53.8922 78.9422 54.747C79.9068 55.3977 80.5115 55.2168 81.2853 54.3346C81.6691 53.8475 81.9377 53.2799 82.071 52.6743C82.2043 52.0687 82.1988 51.4407 82.0549 50.8375C81.6478 47.9983 81.2145 45.1587 80.6542 42.3467C80.1924 40.0292 79.5328 37.7514 78.8406 34.973Z" fill="#95B5C2"/>
<path d="M26.5574 26.0614C29.7287 26.239 32.7276 26.3986 35.7252 26.581C36.4317 26.624 37.3829 26.4976 37.4196 27.5275C37.4547 28.5125 36.4916 28.5863 35.8058 28.6869C33.2122 29.0676 30.6059 29.3609 28.0076 29.7105C26.7748 29.8765 25.4682 30.0414 25.2317 31.6103C24.9894 33.2175 25.1148 34.7215 26.7142 35.7166C29.1765 37.2485 31.8459 37.2186 34.5665 36.8451C35.197 36.6783 35.8363 36.5469 36.4814 36.4516C36.9104 36.4427 37.6237 36.6705 37.7152 36.9529C37.7969 37.2076 37.8176 37.4778 37.7756 37.742C37.7337 38.0061 37.6303 38.2568 37.4737 38.4736C36.6237 39.2219 35.6151 39.7677 34.5237 40.0697C31.2536 40.5879 27.9034 40.0562 24.9544 38.5512C23.977 38.0944 23.1507 37.3676 22.5728 36.4565C21.995 35.5454 21.6898 34.4881 21.6932 33.4092C21.6568 32.4273 21.7739 31.4325 21.6599 30.4625C21.5116 29.2005 21.3 28.0464 22.7062 27.2487C23.1105 27.0193 23.2604 26.277 23.4498 25.7425C25.0915 21.1108 26.6236 16.4373 28.3867 11.8527C29.2069 9.80085 30.2529 7.8466 31.5053 6.02605C32.25 5.15831 33.1888 4.47837 34.2455 4.04137C34.5014 3.98065 34.7686 3.98687 35.0213 4.05938C35.2741 4.13189 35.5039 4.26825 35.6887 4.45538C35.7991 4.6961 35.847 4.96075 35.8281 5.22491C35.8092 5.48906 35.7241 5.74423 35.5805 5.96679C31.0319 10.8421 29.6094 17.1818 27.4448 23.1713C27.0936 24.1428 26.8354 25.1481 26.5574 26.0614Z" fill="#95B5C2"/>
<path d="M10.7963 40.4659C9.15084 40.0674 7.53967 39.5386 5.978 38.8848C4.26372 37.9302 2.62345 36.8484 1.071 35.6485C0.669165 35.363 0.34388 34.9828 0.123901 34.5417C0.0423324 34.3669 4.14933e-05 34.1763 3.05207e-08 33.9834C-4.14323e-05 33.7905 0.0421634 33.5999 0.123657 33.425C0.252712 33.2777 0.413295 33.1612 0.593491 33.0844C0.773686 33.0076 0.968869 32.9723 1.16456 32.9812C1.73235 33.0509 2.28024 33.2345 2.77545 33.5209C4.06455 34.2004 5.30553 34.9675 6.48968 35.8168C9.48486 38.1178 13.5368 36.816 15.9079 34.5619C17.5899 32.9631 17.3144 31.3579 15.2548 30.2265C14.4283 29.8858 13.6354 29.4686 12.8865 28.9805C11.3753 27.7245 9.93432 26.3863 8.57017 24.972C7.96149 24.3457 7.60611 23.5163 7.57248 22.6435C7.53885 21.7708 7.82935 20.9165 8.38802 20.2452C10.0305 18.1761 12.2058 16.5937 14.6802 15.6682C16.1731 15.0878 17.7114 15.4142 18.2569 16.3732C18.574 16.9169 18.6836 17.557 18.5654 18.1752C18.4783 18.4846 17.6151 18.7975 17.1475 18.739C15.1223 18.4857 13.7012 19.5868 12.301 20.7357C10.8479 21.928 10.7166 22.6427 11.9958 23.9862C13.403 25.4642 15.0395 26.7208 16.5189 28.1338C17.5448 29.0577 18.4836 30.0739 19.3234 31.1697C19.791 31.8143 20.0334 32.5949 20.0132 33.391C19.993 34.1871 19.7112 34.9545 19.2114 35.5745C17.1201 38.2037 14.116 39.9499 10.7963 40.4659V40.4659Z" fill="#95B5C2"/>
<path d="M46.6244 40.2245C44.3106 40.2596 42.0632 39.4513 40.3019 37.9505C37.8369 35.9639 38.3912 31.4068 40.4952 29.875C41.9743 28.7596 43.7172 28.0465 45.554 27.8052C47.3908 27.5639 49.2587 27.8026 50.9758 28.4981C53.5182 29.4191 54.3174 31.4804 54.178 34.781C54.0347 38.1745 51.848 39.9586 48.0955 40.2198C47.6074 40.2538 47.1149 40.2245 46.6244 40.2245ZM46.5425 37.146C47.3863 37.0526 48.0403 37.0193 48.679 36.9019C50.1743 36.627 50.8523 36.0048 51.0342 34.8147C51.0991 34.124 50.9659 33.4292 50.6502 32.8115C50.3345 32.1938 49.8493 31.6788 49.2516 31.3268C48.2491 30.9938 47.178 30.9231 46.1404 31.1214C45.1028 31.3197 44.1332 31.7803 43.3241 32.4595C42.9789 32.7548 42.7217 33.1395 42.5808 33.5715C42.4398 34.0034 42.4206 34.4658 42.5252 34.9079C42.6298 35.35 42.8542 35.7547 43.1737 36.0777C43.4933 36.4006 43.8956 36.6293 44.3366 36.7386C45.0591 36.936 45.797 37.0723 46.5425 37.146V37.146Z" fill="#95B5C2"/>
</svg>
