<svg width="118" height="21" viewBox="0 0 118 21" fill="none" xmlns="http://www.w3.org/2000/svg">
<path d="M45.548 0.449511C45.1428 0.652137 44.7375 0.989862 44.3323 1.0574C41.9009 1.32757 39.537 1.53019 37.1056 1.66528C36.2276 1.73282 35.4847 2.20561 34.5392 2.00299C33.9313 1.8679 33.1209 2.61085 32.3779 2.88102C31.9727 3.0161 31.5674 3.08364 31.1622 3.15118C29.136 3.48889 27.1774 3.8266 25.1513 4.16431C25.0162 4.16431 24.8811 4.2994 24.746 4.2994C23.4628 4.2994 22.3822 4.56957 21.5042 5.65024C21.0989 6.12303 20.2209 6.19058 19.5455 6.46075C19.7482 6.59583 19.9508 6.79845 20.2885 7.06862C19.4105 7.13616 18.5324 6.86598 18.0597 7.87911C19.2078 7.94665 20.4236 6.93354 21.6393 8.08175C20.8288 8.41946 20.0858 8.62207 20.1534 9.6352C20.9639 9.50012 21.7068 9.43258 22.5172 9.29749C22.7199 9.22995 22.8549 8.8247 22.99 8.55453C23.3277 8.68961 23.6654 8.8247 24.0031 8.95978C24.2057 8.68962 24.4759 8.3519 24.8136 7.87911C25.2188 9.16241 26.0968 8.89225 26.9073 8.82471C27.9879 8.75717 29.0685 8.55453 30.1491 8.55453C31.7025 8.55453 33.1884 8.21682 34.6742 8.21682C35.4172 8.21682 36.1601 7.87912 36.903 8.41946C36.9706 8.487 37.1056 8.487 37.1732 8.41946C38.9292 7.60896 40.6852 8.41945 42.4412 8.21682C44.1972 8.01419 45.9532 8.21682 47.7092 8.21682C50.4783 8.14928 53.1799 7.94665 55.949 7.87911C57.1647 7.81157 58.3804 7.94666 59.5961 7.94666C61.217 7.94666 62.838 8.0142 64.3913 7.94666C65.9447 7.94666 67.4981 7.81159 69.1191 7.81159C72.0908 7.81159 74.995 7.94666 77.9667 8.0142C80.8033 8.08175 83.6399 8.28437 86.5441 8.35191C88.4352 8.41946 90.3263 8.35192 92.2174 8.48701C94.176 8.62209 96.2022 8.8247 98.1608 8.95979C98.7686 9.02733 99.3765 8.95979 99.9843 9.02733C101.808 9.16242 103.564 9.2975 105.387 9.36504C106.063 9.36504 106.806 9.22997 107.481 9.16243C107.886 9.16243 108.359 8.89226 108.697 9.50013C108.764 9.63522 109.44 9.50013 109.777 9.50013C109.777 9.36505 109.845 9.29751 109.845 9.16243C108.967 8.75717 108.157 8.21683 107.211 7.94666C106.671 7.81158 106.198 7.60896 105.658 7.33879C105.185 7.06862 104.509 7.20371 103.767 7.13617C103.767 6.866 103.767 6.66337 103.834 6.32566C103.159 6.12303 102.618 5.71778 101.808 6.25811C101.335 6.52828 100.39 6.19058 99.7142 6.0555C99.7142 5.92041 99.7142 5.85287 99.7142 5.71779C100.187 5.65025 100.727 5.51516 101.335 5.38008C100.66 4.97483 100.187 4.63712 99.6466 4.36695C100.727 4.56958 101.875 4.70466 102.956 5.04237C106.13 5.92041 109.305 6.79845 112.209 8.28437C112.547 8.48699 112.952 8.48699 113.29 8.62208C114.168 8.89225 114.978 9.16242 115.856 9.36504C116.464 9.50013 116.666 9.90536 116.802 10.4457C117.072 11.729 117.409 12.9447 117.68 14.1605C117.747 14.4307 117.747 14.7008 117.747 14.971C117.747 15.5789 117.747 16.1868 117.747 16.9297C117.207 16.7947 116.599 16.7271 115.991 16.592C115.721 17.6052 116.666 18.213 117.072 19.1586C116.599 19.1586 116.261 19.2261 115.991 19.1586C114.64 18.6858 114.708 18.6183 113.897 19.6314C112.884 19.3612 111.871 19.091 110.858 18.8884C110.858 18.8209 110.858 18.8209 110.858 18.7534C111.196 18.6858 111.601 18.6858 112.074 18.6183C111.669 18.2806 111.263 18.078 110.993 17.7402C110.655 17.4025 110.25 17.1999 109.71 17.335C109.237 17.4025 108.764 17.2674 108.292 17.1324C106.671 16.7271 104.982 16.1868 103.361 15.849C101.943 15.5789 100.457 15.5789 98.9713 15.714C99.2414 15.7815 99.5116 15.849 99.9168 15.9841C99.1063 16.1192 98.4985 16.1192 97.8906 15.6464C97.4854 15.3087 96.81 15.2412 96.2697 15.3087C95.1891 15.3087 94.2435 15.2412 93.1629 15.1061C91.0017 14.8359 88.8404 14.7684 86.6116 14.6333C84.5855 14.4982 82.5593 14.4982 80.5331 14.2956C79.5876 14.228 78.6421 14.4982 77.764 13.8904C77.764 13.8904 77.629 13.8228 77.629 13.8904C76.4808 14.7009 75.4002 13.8903 74.3196 13.6202C73.9819 13.5526 73.6442 13.6202 73.1039 13.6202C73.6442 13.8903 73.9819 14.093 74.3196 14.2956C74.3196 14.3631 74.252 14.4307 74.252 14.4982C72.4285 14.4982 70.6049 14.5657 68.7814 14.4982C68.2411 14.4982 67.5657 14.2956 67.5657 13.5526C67.9709 12.9448 68.5112 14.2281 68.9165 13.2149C68.106 13.0798 67.3631 12.9447 66.6201 12.8097C66.4851 13.2149 66.5526 13.7552 66.35 13.8228C66.0123 13.9579 65.4044 14.0254 65.1343 13.8228C64.594 13.4175 63.9861 13.4176 63.3783 13.35C62.0275 13.2825 60.6767 13.1474 59.3259 13.0798C59.1909 13.0798 58.9882 13.0799 58.9207 13.0123C58.3129 11.9992 57.2998 12.6071 56.3542 12.3369C56.3542 12.6746 56.3542 12.8772 56.4218 13.1474C55.949 13.1474 55.4087 13.1474 54.9359 13.0123C54.2605 12.8772 53.5176 12.4044 52.9097 12.607C51.2888 13.0798 49.803 12.472 48.3171 12.3369C46.2234 12.1343 44.1972 12.6746 42.1035 12.5395C41.158 12.472 40.2124 12.3369 39.1994 12.607C38.2538 12.8772 37.1732 12.2693 36.0926 12.7421C35.9575 12.8097 35.8224 12.8097 35.6873 12.9447C38.3213 13.2149 40.8878 13.9579 43.5218 13.1474C44.0621 12.9447 44.8051 12.6071 45.2779 13.5526C43.3868 13.6877 41.5632 13.8904 39.7397 14.0254C39.7397 14.093 39.7397 14.1605 39.7397 14.1605C40.8878 14.1605 41.9684 14.093 43.1166 14.1605C44.1972 14.228 45.2778 14.2956 46.3585 14.6333C45.8182 14.7008 45.2778 14.7684 44.8051 14.8359C44.8051 14.7684 44.8726 14.7008 44.8726 14.6333C45.6155 14.9035 46.2909 15.1736 47.1014 15.3087C47.7093 15.4438 48.3846 15.5113 48.9925 15.6464C47.1689 16.0517 45.4805 14.9035 43.6569 15.4438C43.6569 15.1061 43.7245 14.971 43.7245 14.6333C42.7114 14.6333 41.5632 14.2956 40.6852 14.7009C39.6046 15.2412 38.524 15.1736 37.4433 15.2412C36.4978 15.3087 35.5522 15.3763 34.6742 15.2412C34.4716 15.2412 34.269 15.2412 34.0664 15.2412C34.0664 15.3763 34.0664 15.4438 34.0664 15.5789C38.9292 15.9841 43.792 16.4569 48.6548 16.8622C48.6548 16.9297 48.6548 16.9973 48.7223 17.1323C48.182 17.1999 47.7092 17.4025 47.1689 17.4025C45.2103 17.4025 43.2517 17.4025 41.2931 17.4025C39.402 17.4025 37.5109 17.4701 35.5522 17.4701C34.6067 17.4701 33.6612 17.4025 32.7156 17.4025C30.3518 17.335 27.9879 17.1999 25.624 17.1999C23.5979 17.1999 21.5717 17.4025 19.5455 17.5376C19.1403 17.5376 18.6675 17.6051 18.2623 17.6727C16.9115 17.8078 15.4932 17.8078 14.1424 18.0104C11.7786 18.4156 9.48223 18.8884 7.18591 19.3612C6.71314 19.4963 6.30791 19.834 5.83513 20.0366C5.70006 19.9016 5.565 19.7665 5.42992 19.6314C4.82207 20.3068 4.48437 19.5638 4.0116 19.3612C3.74144 19.2261 3.40375 19.0911 3.06606 18.956C3.20114 18.6183 3.3362 18.3481 3.53882 17.8753C2.99851 18.213 2.59328 18.4832 2.25558 18.6858C2.1205 18.5507 1.98543 18.4832 1.98543 18.4157C2.05297 17.9429 2.25558 17.47 2.25558 16.9973C2.25558 16.5245 1.98543 16.0517 1.98543 15.5789C1.98543 13.7553 2.59327 13.0123 4.48436 12.0667C3.80897 11.8641 3.20113 11.7965 2.59328 11.5939C1.2425 11.0536 0.567111 9.97291 0.229416 8.62207C-0.175817 7.00107 0.0268041 5.44761 0.29696 3.96169C1.64774 3.75907 2.99851 3.55643 4.28175 3.48889C5.49745 3.35381 6.71315 3.42136 7.99639 3.28627C10.4278 3.01611 12.7917 2.67839 15.2231 2.47576C18.8026 2.13806 22.3822 1.80035 26.0293 1.46264C29.3387 1.19247 32.6481 0.787232 35.9575 0.652149C38.1863 0.584607 40.3475 0.111802 42.6438 0.449511C43.6569 0.78722 44.67 0.584595 45.548 0.449511ZM39.3344 10.851C38.3889 10.851 37.3758 10.851 36.3627 10.851C36.2276 11.1211 35.9575 11.5264 35.7549 11.7965C38.3213 11.7965 40.8203 11.7965 43.5218 11.7965C43.5218 11.6614 43.5218 11.3237 43.5218 11.2562C42.7114 11.1211 42.036 10.9861 41.3606 10.851C40.6852 10.3782 40.0098 10.2431 39.3344 10.851ZM29.8114 13.2825C30.0141 13.35 30.3517 13.2825 30.4868 13.4175C31.1622 14.1605 31.9052 13.8904 32.7156 13.6877C32.9182 13.6202 33.2559 13.8228 33.5261 13.9579C31.3648 14.9035 29.136 14.3632 26.7722 15.0386C27.7853 15.6464 28.6633 15.3763 29.5413 15.3087C30.8245 15.1736 32.0402 14.9035 33.3235 14.8359C35.0795 14.7684 36.768 14.9035 38.524 14.971C38.5915 14.971 38.659 14.8359 38.659 14.7684C37.9837 14.0254 37.781 13.8904 36.9706 14.2281C35.8224 14.7009 34.8093 14.6333 33.8638 13.7553C34.0664 13.4851 34.269 13.2825 34.6067 12.8772C32.8507 12.9448 31.2973 12.9447 29.8114 13.2825C29.4062 13.2825 28.8659 13.5526 28.6633 12.8772C29.2036 12.5395 30.0141 13.0123 30.5544 12.2693C29.7439 12.1342 29.001 11.8641 28.3931 12.0667C27.4476 12.2693 26.6371 12.1342 25.7591 11.9316C25.4214 11.8641 25.0162 11.7965 24.8136 11.729C24.5434 12.0667 24.4083 12.2693 24.2057 12.4719C23.1926 11.9316 22.3146 12.7421 21.3691 12.8097C22.3146 12.607 23.3277 13.2149 24.2057 12.4719C24.4083 12.5395 24.746 12.8097 24.8811 12.6746C25.6916 12.0667 26.0293 12.5395 26.5696 13.35C25.7591 13.4851 25.0162 13.8228 24.4759 13.6877C23.1926 13.2825 21.9094 13.6202 20.6262 13.5526C20.2885 13.5526 19.7482 13.6202 19.5455 13.8228C18.9377 14.6333 18.2623 14.2281 17.5869 14.093C17.4518 14.4307 17.3168 14.6333 17.1817 14.9035C17.9246 15.5114 19.0052 14.6333 19.478 15.714C19.7482 15.3087 19.9508 15.0386 20.1534 14.7684C20.7612 14.9035 20.4911 16.2543 21.5042 15.5789C21.4366 15.2412 21.3691 14.9035 21.3016 14.5658C21.5717 14.4982 21.7743 14.4307 21.9094 14.4307C23.4628 14.3631 25.0162 14.2956 26.5696 14.1605C27.7177 13.8903 28.7984 13.5526 29.8114 13.2825ZM12.7241 13.8903C13.1969 14.2956 13.5346 14.5657 13.8723 14.8359C14.21 15.1736 14.9529 15.1061 15.0204 14.7009C15.088 13.8904 15.6958 13.9579 16.1011 13.8228C16.7764 13.6202 17.5869 13.4851 18.3298 13.35C19.0728 13.2149 19.8832 13.1474 20.6262 13.0123C20.356 12.6746 20.0183 12.4044 19.7481 12.4719C17.3843 12.9447 15.088 13.4176 12.7241 13.8903ZM44.5349 11.2562C44.5349 11.3237 44.5349 11.3913 44.5349 11.5264C44.8051 11.5939 45.0077 11.6615 45.2779 11.6615C46.9663 11.729 48.6548 11.729 50.4108 11.729C50.8836 11.729 51.4239 11.3913 51.8291 11.9992C51.8291 11.9992 52.2344 11.7966 52.5045 11.6615C52.3694 11.4589 52.3019 11.1887 52.0993 11.1887C51.0187 10.851 49.938 10.5808 48.8574 10.3106C48.5873 11.2562 47.9794 11.4588 47.1689 11.3913C46.2909 11.3238 45.4129 11.2562 44.5349 11.2562ZM14.21 9.97293C15.1555 9.83785 15.966 9.50011 16.7764 9.56766C17.5869 9.6352 18.3974 9.77028 19.3429 9.22995C18.8701 9.02732 18.6 8.75717 18.3298 8.75717C17.3843 8.82471 16.3712 8.95979 15.4257 9.02733C14.8854 9.09487 14.4801 9.29751 14.21 9.97293ZM7.59115 15.4438C8.87439 15.2412 10.2252 15.2412 11.6435 14.3632C9.95501 14.1605 8.73931 14.4982 7.59115 15.4438ZM12.3864 10.108C12.3864 9.9729 12.3864 9.83783 12.3864 9.70275C11.3733 9.83783 10.3602 9.90537 9.21208 10.0405C10.2927 11.0536 11.3733 10.2431 12.3864 10.108ZM16.9115 7.5414C15.8984 6.86598 14.8854 7.06861 13.8723 7.5414C14.8854 7.5414 15.8984 7.5414 16.9115 7.5414ZM10.6979 15.4438C11.5759 15.5789 12.1838 15.8491 12.8592 15.2412C11.7786 14.7009 11.7786 14.7008 10.6979 15.4438ZM84.2478 13.4176C84.2478 13.5526 84.1802 13.6202 84.1802 13.7553C84.9232 13.8903 85.6661 14.0254 86.409 14.1605C86.409 14.093 86.4766 14.0254 86.4766 13.9579C85.7336 13.6877 84.9907 13.5526 84.2478 13.4176ZM24.0031 15.4438C24.0031 15.3087 24.0031 15.2412 24.0706 15.1061C23.4628 15.1061 22.8549 15.1061 21.9769 15.1061C22.7874 15.7815 23.3953 15.6464 24.0031 15.4438ZM58.4479 10.851C58.9882 11.0536 59.461 11.1887 60.1364 11.4588C59.7312 10.4457 59.0558 10.5808 58.4479 10.851ZM53.5851 11.3913C53.5176 11.5264 53.5176 11.5939 53.4501 11.729C54.0579 12.0667 54.7333 11.9316 55.6788 11.8641C54.8008 11.6615 54.193 11.5264 53.5851 11.3913ZM58.7181 9.97293C58.1778 9.77031 57.6375 9.50012 56.9621 10.2431C57.705 10.108 58.2453 10.0405 58.7181 9.97293ZM76.6159 13.5526C76.6159 13.4851 76.6159 13.4176 76.6159 13.35C76.0756 13.2825 75.5353 13.2149 75.0625 13.1474C75.0625 13.2149 75.0625 13.2825 75.0625 13.35C75.6028 13.4176 76.0756 13.4851 76.6159 13.5526ZM79.2499 13.6202C78.8447 12.9448 78.5745 12.8097 77.9667 13.35C78.4394 13.4851 78.7096 13.4851 79.2499 13.6202ZM81.2761 14.0254C81.3436 13.9579 81.3436 13.8228 81.4112 13.7553C81.0059 13.5526 80.6682 13.2149 79.8578 13.5526C80.5331 13.7553 80.8708 13.8904 81.2761 14.0254ZM20.6937 5.65024C20.356 5.04236 20.356 5.04236 19.8157 5.58269C20.1534 5.65023 20.4235 5.65024 20.6937 5.65024ZM32.7156 11.5264C32.7156 11.5939 32.7156 11.729 32.7156 11.7965C32.9858 11.7965 33.2559 11.7965 33.5261 11.7965C33.5261 11.729 33.5261 11.6615 33.5261 11.5939C33.1884 11.5939 32.9858 11.5939 32.7156 11.5264Z" fill="#C1B2E6"/>
</svg>
