<svg width="124" height="19" viewBox="0 0 124 19" fill="none" xmlns="http://www.w3.org/2000/svg">
<path d="M0.269704 13.5265C0.472321 12.9861 0.607407 12.5809 0.742485 12.1081C0.877563 11.7028 1.01264 11.2976 1.14772 10.8923C1.2828 10.4195 1.14772 9.74412 1.48542 9.47395C1.95819 9.0687 2.70111 8.86607 3.30896 8.79853C4.92989 8.5959 6.61837 8.52836 8.23931 8.46082C13.1021 8.25819 17.9649 8.05558 22.8277 7.92049C26.9476 7.78541 31.135 7.71787 35.2549 7.58278C39.037 7.4477 42.8868 7.17754 46.6689 7.04246C48.7626 6.97491 50.8563 7.04246 52.9501 7.04246C54.1658 7.04246 55.3139 6.97492 56.5296 7.04246C62.6081 7.24508 68.6866 7.58279 74.8327 7.71788C82.1269 7.9205 89.4211 7.9205 96.7153 8.05559C96.7153 7.9205 96.7153 7.85296 96.7153 7.71788C94.554 7.51525 92.3928 7.31261 90.2315 7.10998C86.5169 6.83982 82.7347 6.5021 79.0201 6.29947C74.5625 6.0293 70.1049 5.89424 65.5798 5.69162C64.4317 5.62408 63.2835 5.55653 62.1353 5.55653C59.9066 5.55653 57.6778 5.62407 55.449 5.55653C54.0982 5.55653 52.815 5.42142 51.4642 5.48896C50.8563 5.48896 50.181 5.82669 49.5731 5.89424C49.2354 5.96178 48.8302 5.89423 48.56 5.75914C47.9522 5.35389 47.4794 5.3539 46.804 5.55653C46.3312 5.75915 45.6559 5.96177 45.3182 5.75914C44.3726 5.21881 43.6972 5.96178 42.8868 5.89424C42.0088 5.82669 41.1983 5.82669 40.3203 5.75914C39.5774 5.75914 38.902 5.82667 38.159 5.82667C36.6056 5.82667 34.9847 5.75916 33.4313 6.02933C33.1612 6.09687 32.891 6.02933 32.5533 6.02933C30.257 5.96179 28.0282 5.96175 25.7319 5.82667C23.3005 5.69158 20.8015 5.48897 18.3701 5.28634C15.8037 5.08371 13.3047 4.81356 10.7382 4.5434C10.5356 4.5434 10.2655 4.61092 9.99532 4.61092C10.0629 4.94863 10.0628 5.21879 10.1304 5.48896C10.4681 6.70471 10.4681 6.8398 9.52254 7.17751C8.50946 7.51522 7.63145 7.31261 7.42883 6.43456C7.09114 5.21881 6.61836 4.00305 7.36129 2.71975C7.49637 2.44959 7.63144 2.17944 7.69898 1.97681C7.83406 1.6391 7.90161 1.0312 8.23931 0.896115C8.64454 0.625947 9.25238 0.625972 9.72515 0.625972C13.5073 0.625972 17.2895 0.693481 21.1392 0.761023C24.1785 0.828565 27.2177 0.828573 30.257 0.896115C34.7821 0.963658 39.3072 0.896108 43.8323 1.09873C48.56 1.23382 53.2202 1.57154 57.9479 1.90925C65.7149 2.44958 73.4819 3.12503 81.3164 3.66536C85.909 4.00307 90.4341 4.07061 95.0268 4.5434C98.7414 4.94865 102.456 5.62408 106.171 6.36704C107.792 6.70475 109.21 7.51524 109.75 9.47395C108.535 9.81166 107.251 10.0818 106.036 10.4196C106.036 10.4871 106.036 10.5546 106.036 10.5546C107.589 10.8248 109.142 11.2301 110.763 11.2976C112.452 11.3651 113.938 11.9055 115.424 12.4458C118.598 13.594 121.367 15.4176 123.866 17.6465C123.933 17.7141 123.933 17.8491 124.001 18.1193C123.393 18.0518 122.853 17.9843 122.313 17.8492C120.421 17.4439 118.53 16.9711 116.639 16.5659C115.559 16.3632 114.41 16.1606 113.262 16.0255C112.722 15.958 112.182 15.6878 111.709 16.2957C111.574 16.4308 110.966 16.2957 110.628 16.1606C109.683 15.958 108.737 15.6203 107.724 15.8229C107.386 15.8905 106.981 15.8229 106.576 15.7553C105.225 15.4176 103.874 15.215 102.524 15.4852C100.43 14.6072 98.2011 15.2826 96.0399 14.7422C94.8917 14.472 93.6085 14.6071 92.3252 14.5396C90.6368 14.4721 89.0158 14.4721 87.3274 14.4721C87.2598 14.4721 87.1247 14.4045 87.0572 14.4721C85.3012 14.8098 83.6127 14.1343 81.8567 14.2019C80.7085 14.2694 79.5604 14.4045 78.4798 14.2019C76.251 13.8642 74.0222 14.2694 71.7934 14.1344C67.9437 13.9317 64.094 14.2694 60.3118 14.0668C56.1919 13.9317 52.0045 13.9317 47.8846 13.8642C46.2637 13.8642 44.6428 13.7966 43.0218 13.7291C40.1177 13.7291 37.281 13.7291 34.3768 13.7291C32.891 13.7291 31.3376 13.594 29.8518 13.594C26.6099 13.594 23.368 13.594 20.1262 13.594C16.344 13.5264 12.4942 13.4589 8.71207 13.3914C6.14559 13.3914 3.57911 13.3914 1.01264 13.3914C0.81002 13.594 0.607399 13.5265 0.269704 13.5265Z" fill="#C1B2E6"/>
</svg>
