<svg width="107" height="15" viewBox="0 0 107 15" fill="none" xmlns="http://www.w3.org/2000/svg">
<path d="M38.5207 9.65846C37.7777 9.59092 37.0348 9.45583 36.3594 9.59092C35.6165 9.726 34.806 9.05058 34.1982 9.92863C33.5903 9.79354 32.9149 9.65846 32.3071 9.59092C31.9694 9.52338 31.5642 9.52338 31.2265 9.59092C28.2548 10.1988 25.2155 9.86109 22.2438 10.0637C21.5009 10.1313 20.8255 10.1988 20.1501 10.4014C19.2721 10.6716 18.259 10.469 17.381 10.469C15.8951 10.4014 14.4093 10.469 12.8559 10.6716C10.4245 10.9418 7.92555 10.8067 5.49415 10.8742C5.35907 10.8742 5.22399 10.8742 5.08891 10.8067C3.73814 10.1988 2.25229 9.99617 0.76643 9.92862C0.631352 9.92862 0.496274 9.79355 0.428735 9.72601C0.563813 8.30763 1.44181 7.49714 2.72505 7.15943C3.94075 6.82172 5.08891 6.48401 6.43969 6.1463C6.43969 5.06563 6.43969 4.05249 6.43969 2.90428C8.87109 2.29641 11.1674 1.75608 13.5988 1.68854C15.4224 1.621 17.3135 1.35082 19.137 1.21574C21.5684 1.01311 23.9998 0.810498 26.3637 0.675414C29.538 0.472789 32.7123 0.270152 35.8867 0.135068C39.2636 -1.53143e-05 42.6405 -2.7974e-06 46.0175 -2.64979e-06C46.963 -2.60846e-06 47.9086 -2.56713e-06 48.8541 -2.5258e-06C51.218 -2.42247e-06 53.5818 1.80227e-06 55.9457 0.0675437C59.0525 0.135086 62.0917 0.202623 65.1985 0.337707C67.0896 0.405249 68.9807 0.675404 70.8718 0.810487C72.02 0.878029 73.1681 0.878038 74.3163 0.945579C77.4231 1.1482 80.5974 1.35083 83.7042 1.68854C85.5277 1.89117 87.2838 2.22887 89.1073 2.49903C89.1748 2.49903 89.3099 2.56658 89.3775 2.56658C92.6869 2.63412 95.9287 3.5797 99.2381 3.84987C101.129 4.05249 103.088 4.12004 105.046 4.25512C105.384 6.21384 105.789 8.17254 106.127 10.2663C106.06 10.3339 105.857 10.469 105.722 10.604C104.979 11.347 104.979 11.6172 105.857 12.2251C106.06 12.3601 106.33 12.5628 106.465 12.7654C106.735 13.1706 106.735 13.6434 106.127 13.7785C105.722 13.9136 105.249 13.9811 104.776 14.0487C104.574 14.1162 104.304 14.0487 104.236 14.1162C103.696 14.8592 103.088 14.4539 102.548 14.3188C100.589 13.7785 98.6303 13.1706 96.6717 12.6303C95.0507 12.1575 93.3622 11.6847 91.7413 11.347C89.445 10.8067 87.0811 10.4014 84.7848 9.92863C84.1094 9.79354 83.434 9.92864 82.8262 9.8611C82.0833 9.72602 81.4079 9.38829 80.6649 9.25321C79.5843 9.05058 78.5037 8.98306 77.4231 8.84798C76.2749 8.71289 75.1943 8.5778 74.0461 8.44272C73.033 8.37518 71.9524 8.30762 70.9393 8.24008C68.643 8.105 66.4142 7.90237 64.1179 7.90237C62.2268 7.90237 60.4033 8.17254 58.5122 8.30763C58.3096 8.30763 58.1069 8.30763 57.9719 8.30763C56.3509 8.17254 54.7975 7.90238 53.1766 7.96992C52.096 8.03746 50.9478 8.17256 49.8672 8.17256C49.7997 8.17256 49.6646 8.30764 49.5971 8.44272C49.462 9.0506 49.1243 9.0506 48.6515 8.78043C48.1112 8.37518 47.5709 8.44272 46.8955 8.44272C44.5316 8.37518 42.2353 9.18567 39.8714 9.05059C39.1285 9.05059 38.9934 9.59092 38.5207 9.65846ZM46.6253 2.83674C46.4227 2.70166 46.2876 2.63412 46.2201 2.63412C46.085 2.70166 45.9499 2.83675 45.8149 2.97183C45.9499 3.03937 46.085 3.24199 46.2201 3.24199C46.3552 3.17445 46.4903 2.97182 46.6253 2.83674ZM36.1568 3.51216C36.2243 3.44462 36.2919 3.37708 36.2919 3.30954C36.2919 3.242 36.1568 3.17445 36.0893 3.17445C36.0217 3.24199 35.9542 3.37709 35.8867 3.44463C35.9542 3.44463 36.0893 3.51216 36.1568 3.51216Z" fill="#C1B2E6"/>
</svg>
